M48
; DRILL file {KiCad (5.1.10-1-10_14)} date Sunday, October 09, 2022 at 11:42:59 PM
; FORMAT={-:-/ absolute / inch / decimal}
; #@! TF.CreationDate,2022-10-09T23:42:59+02:00
; #@! TF.GenerationSoftware,Kicad,Pcbnew,(5.1.10-1-10_14)
; #@! TF.FileFunction,Plated,1,4,PTH
FMAT,2
INCH
T1C0.0157
T2C0.0394
T3C0.0512
T4C0.0591
T5C0.0630
T6C0.0984
%
G90
G05
T1
X4.2851Y-3.3477
X5.2457Y-2.9815
X5.3137Y-3.5538
X5.3169Y-3.4429
X5.3248Y-3.3091
X5.3268Y-3.1949
X5.3583Y-4.474
X5.3677Y-2.9933
X5.4075Y-3.628
X5.4083Y-4.474
X5.4583Y-4.474
X5.5098Y-3.0551
X5.6161Y-3.7382
X5.6469Y-3.2022
X5.6469Y-3.2622
X5.6469Y-3.3222
X5.6496Y-3.0295
X5.7069Y-3.2022
X5.7069Y-3.2622
X5.7069Y-3.3222
X5.7583Y-3.924
X5.7583Y-3.974
X5.7583Y-4.024
X5.7769Y-3.2022
X5.7769Y-3.2622
X5.7769Y-3.3222
X5.7785Y-3.7795
X5.8051Y-2.8563
X5.8583Y-4.374
X5.9075Y-3.7067
X5.9083Y-4.374
X5.9583Y-4.374
X5.9882Y-3.124
X6.0374Y-3.624
X6.0413Y-2.8248
X6.0886Y-3.502
X6.1319Y-3.4154
X6.1555Y-3.1949
X6.1909Y-3.3061
X6.7028Y-2.0236
X6.7618Y-2.0236
X6.8209Y-2.0236
T2
X3.3484Y-2.3268
X3.3484Y-2.4268
X3.3484Y-2.7441
X3.3484Y-2.8441
X3.3484Y-3.1654
X3.3484Y-3.2654
X3.3484Y-3.5827
X3.3484Y-3.6827
X3.3484Y-4.0039
X3.3484Y-4.1039
X3.3484Y-4.4213
X3.3484Y-4.5213
X3.8563Y-5.4547
X3.9563Y-5.4547
X3.9831Y-1.6988
X4.0831Y-1.6988
X4.1831Y-1.6988
X4.2831Y-1.6988
X4.3831Y-1.6988
X4.4831Y-1.6988
X4.5831Y-1.6988
X4.6831Y-1.6988
X4.6972Y-5.4547
X4.7972Y-5.4547
X4.9004Y-1.7028
X5.0004Y-1.7028
X5.1004Y-1.7028
X5.2004Y-1.7028
X5.3004Y-1.7028
X5.4004Y-1.7028
X5.5004Y-1.7028
X5.6004Y-1.7028
X5.8232Y-1.7028
X5.9232Y-1.7028
X6.0232Y-1.7028
X6.1232Y-1.7028
X6.2232Y-1.7028
X6.3232Y-1.7028
X6.4232Y-1.7028
X6.5232Y-1.7028
X6.6224Y-5.4547
X6.7224Y-5.4547
X6.7412Y-1.7005
X6.8412Y-1.7005
X6.9412Y-1.7005
X7.0412Y-1.7005
X7.1412Y-1.7005
X7.2412Y-1.7005
X7.3412Y-1.7005
X7.4412Y-1.7005
X7.465Y-5.4547
X7.565Y-5.4547
X8.0669Y-3.1634
X8.0669Y-3.2634
X8.0725Y-1.9445
X8.0725Y-2.0445
X8.0728Y-2.3232
X8.0728Y-2.4232
X8.0728Y-2.7421
X8.0728Y-2.8421
X8.0728Y-3.5807
X8.0728Y-3.6807
X8.0728Y-4.0004
X8.0728Y-4.1004
X8.0728Y-4.4193
X8.0728Y-4.5193
T3
X3.9035Y-3.2146
X3.9075Y-4.0492
X3.9114Y-2.3681
X3.9114Y-4.8917
X4.7461Y-3.2106
X4.75Y-2.3681
X4.75Y-4.0492
X4.75Y-4.8927
X6.6752Y-4.8957
X6.6768Y-2.373
X6.6768Y-3.2138
X6.6781Y-4.0541
X7.5138Y-4.8957
X7.5154Y-3.2136
X7.5174Y-2.3733
X7.5207Y-4.0502
T4
X3.7785Y-3.0896
X3.7785Y-3.3396
X3.7825Y-3.9242
X3.7825Y-4.1742
X3.7864Y-2.2431
X3.7864Y-2.4931
X3.7864Y-4.7667
X3.7864Y-5.0167
X4.0285Y-3.0896
X4.0285Y-3.3396
X4.0325Y-3.9242
X4.0325Y-4.1742
X4.0364Y-2.2431
X4.0364Y-2.4931
X4.0364Y-4.7667
X4.0364Y-5.0167
X4.6211Y-3.0856
X4.6211Y-3.3356
X4.625Y-2.2431
X4.625Y-2.4931
X4.625Y-3.9242
X4.625Y-4.1742
X4.625Y-4.7677
X4.625Y-5.0177
X4.8711Y-3.0856
X4.8711Y-3.3356
X4.875Y-2.2431
X4.875Y-2.4931
X4.875Y-3.9242
X4.875Y-4.1742
X4.875Y-4.7677
X4.875Y-5.0177
X6.5502Y-4.7707
X6.5502Y-5.0207
X6.5518Y-2.248
X6.5518Y-2.498
X6.5518Y-3.0888
X6.5518Y-3.3388
X6.5531Y-3.9291
X6.5531Y-4.1791
X6.8002Y-4.7707
X6.8002Y-5.0207
X6.8018Y-2.248
X6.8018Y-2.498
X6.8018Y-3.0888
X6.8018Y-3.3388
X6.8031Y-3.9291
X6.8031Y-4.1791
X7.3888Y-4.7707
X7.3888Y-5.0207
X7.3904Y-3.0886
X7.3904Y-3.3386
X7.3924Y-2.2483
X7.3924Y-2.4983
X7.3957Y-3.9252
X7.3957Y-4.1752
X7.6388Y-4.7707
X7.6388Y-5.0207
X7.6404Y-3.0886
X7.6404Y-3.3386
X7.6424Y-2.2483
X7.6424Y-2.4983
X7.6457Y-3.9252
X7.6457Y-4.1752
T5
X5.2472Y-5.3366
X5.2472Y-5.4693
X5.3799Y-5.3366
X5.3799Y-5.4693
X5.6398Y-4.9193
X5.6398Y-5.052
X5.7724Y-4.9193
X5.7724Y-5.052
X6.0319Y-5.335
X6.0319Y-5.4677
X6.1646Y-5.335
X6.1646Y-5.4677
T6
X3.417Y-1.7315
X3.417Y-5.4047
X8.0075Y-1.7335
X8.0095Y-5.4047
T0
M30
