G04 #@! TF.GenerationSoftware,KiCad,Pcbnew,(5.1.10-1-10_14)*
G04 #@! TF.CreationDate,2022-10-09T23:43:03+02:00*
G04 #@! TF.ProjectId,BoatCentralBoard,426f6174-4365-46e7-9472-616c426f6172,rev?*
G04 #@! TF.SameCoordinates,Original*
G04 #@! TF.FileFunction,Copper,L2,Inr*
G04 #@! TF.FilePolarity,Positive*
%FSLAX46Y46*%
G04 Gerber Fmt 4.6, Leading zero omitted, Abs format (unit mm)*
G04 Created by KiCad (PCBNEW (5.1.10-1-10_14)) date 2022-10-09 23:43:03*
%MOMM*%
%LPD*%
G01*
G04 APERTURE LIST*
G04 #@! TA.AperFunction,ComponentPad*
%ADD10C,5.000000*%
G04 #@! TD*
G04 #@! TA.AperFunction,ComponentPad*
%ADD11C,2.500000*%
G04 #@! TD*
G04 #@! TA.AperFunction,ComponentPad*
%ADD12R,1.700000X1.700000*%
G04 #@! TD*
G04 #@! TA.AperFunction,ComponentPad*
%ADD13O,1.700000X1.700000*%
G04 #@! TD*
G04 #@! TA.AperFunction,ViaPad*
%ADD14C,0.800000*%
G04 #@! TD*
G04 APERTURE END LIST*
D10*
X86790800Y-137280600D03*
X203440800Y-137280600D03*
X203390800Y-44030600D03*
X86790800Y-43980600D03*
D11*
X169625000Y-102975000D03*
X166450000Y-106150000D03*
X172800000Y-106150000D03*
X166450000Y-99800000D03*
X172800000Y-99800000D03*
D12*
X205050000Y-101610000D03*
D13*
X205050000Y-104150000D03*
D11*
X153210000Y-135510000D03*
X156580000Y-135510000D03*
X156580000Y-138880000D03*
X153210000Y-138880000D03*
D12*
X205040800Y-49390600D03*
D13*
X205040800Y-51930600D03*
D12*
X118950000Y-43150000D03*
D13*
X116410000Y-43150000D03*
X113870000Y-43150000D03*
X111330000Y-43150000D03*
X108790000Y-43150000D03*
X106250000Y-43150000D03*
X103710000Y-43150000D03*
X101170000Y-43150000D03*
D12*
X142250000Y-43250000D03*
D13*
X139710000Y-43250000D03*
X137170000Y-43250000D03*
X134630000Y-43250000D03*
X132090000Y-43250000D03*
X129550000Y-43250000D03*
X127010000Y-43250000D03*
X124470000Y-43250000D03*
D12*
X165690000Y-43250000D03*
D13*
X163150000Y-43250000D03*
X160610000Y-43250000D03*
X158070000Y-43250000D03*
X155530000Y-43250000D03*
X152990000Y-43250000D03*
X150450000Y-43250000D03*
X147910000Y-43250000D03*
D12*
X189006200Y-43193800D03*
D13*
X186466200Y-43193800D03*
X183926200Y-43193800D03*
X181386200Y-43193800D03*
X178846200Y-43193800D03*
X176306200Y-43193800D03*
X173766200Y-43193800D03*
X171226200Y-43193800D03*
D11*
X169550000Y-124350000D03*
X172725000Y-127525000D03*
X172725000Y-121175000D03*
X166375000Y-127525000D03*
X166375000Y-121175000D03*
X169590800Y-81630600D03*
X172765800Y-78455600D03*
X166415800Y-78455600D03*
X172765800Y-84805600D03*
X166415800Y-84805600D03*
X190890800Y-81625000D03*
X194065800Y-78450000D03*
X187715800Y-78450000D03*
X194065800Y-84800000D03*
X187715800Y-84800000D03*
X169590800Y-60275000D03*
X172765800Y-57100000D03*
X166415800Y-57100000D03*
X172765800Y-63450000D03*
X166415800Y-63450000D03*
X120650000Y-102850000D03*
X117475000Y-99675000D03*
X117475000Y-106025000D03*
X123825000Y-99675000D03*
X123825000Y-106025000D03*
X99350000Y-124250000D03*
X96175000Y-121075000D03*
X96175000Y-127425000D03*
X102525000Y-121075000D03*
X102525000Y-127425000D03*
X120650000Y-124275000D03*
X123825000Y-121100000D03*
X117475000Y-121100000D03*
X123825000Y-127450000D03*
X117475000Y-127450000D03*
X99350000Y-60150000D03*
X96175000Y-56975000D03*
X96175000Y-63325000D03*
X102525000Y-56975000D03*
X102525000Y-63325000D03*
X120550000Y-81550000D03*
X117375000Y-78375000D03*
X117375000Y-84725000D03*
X123725000Y-78375000D03*
X123725000Y-84725000D03*
X99150000Y-81650000D03*
X95975000Y-78475000D03*
X95975000Y-84825000D03*
X102325000Y-78475000D03*
X102325000Y-84825000D03*
X99250000Y-102850000D03*
X96075000Y-99675000D03*
X96075000Y-106025000D03*
X102425000Y-99675000D03*
X102425000Y-106025000D03*
X143250000Y-124950000D03*
X146620000Y-124950000D03*
X146620000Y-128320000D03*
X143250000Y-128320000D03*
X190850000Y-124350000D03*
X194025000Y-121175000D03*
X187675000Y-121175000D03*
X194025000Y-127525000D03*
X187675000Y-127525000D03*
X190940800Y-60280600D03*
X187765800Y-57105600D03*
X187765800Y-63455600D03*
X194115800Y-57105600D03*
X194115800Y-63455600D03*
X120650000Y-60150000D03*
X117475000Y-56975000D03*
X117475000Y-63325000D03*
X123825000Y-56975000D03*
X123825000Y-63325000D03*
X191025000Y-102875000D03*
X187850000Y-106050000D03*
X194200000Y-106050000D03*
X187850000Y-99700000D03*
X194200000Y-99700000D03*
X136650000Y-138920000D03*
X133280000Y-138920000D03*
X133280000Y-135550000D03*
X136650000Y-135550000D03*
D13*
X85050000Y-104240000D03*
D12*
X85050000Y-101700000D03*
D13*
X85050000Y-93540000D03*
D12*
X85050000Y-91000000D03*
D13*
X85050000Y-82940000D03*
D12*
X85050000Y-80400000D03*
D13*
X85050000Y-72240000D03*
D12*
X85050000Y-69700000D03*
D13*
X85050000Y-61640000D03*
D12*
X85050000Y-59100000D03*
D13*
X119310000Y-138550000D03*
D12*
X121850000Y-138550000D03*
D13*
X97950000Y-138550000D03*
D12*
X100490000Y-138550000D03*
D13*
X85050000Y-114840000D03*
D12*
X85050000Y-112300000D03*
X205050000Y-59010000D03*
D13*
X205050000Y-61550000D03*
X205050000Y-72190000D03*
D12*
X205050000Y-69650000D03*
D13*
X204900000Y-82890000D03*
D12*
X204900000Y-80350000D03*
D13*
X205050000Y-93490000D03*
D12*
X205050000Y-90950000D03*
X205050000Y-112250000D03*
D13*
X205050000Y-114790000D03*
X189610000Y-138550000D03*
D12*
X192150000Y-138550000D03*
D13*
X168210000Y-138550000D03*
D12*
X170750000Y-138550000D03*
D14*
X148800800Y-111100600D03*
X150070800Y-111100600D03*
X151340800Y-111100600D03*
X136100800Y-113640600D03*
X137370800Y-113640600D03*
X138640800Y-113640600D03*
X146260800Y-99670600D03*
X146260800Y-100940600D03*
X146260800Y-102210600D03*
X173250000Y-51400000D03*
X171750000Y-51400000D03*
X170250000Y-51400000D03*
X143430600Y-82859200D03*
X144954600Y-82859200D03*
X146732600Y-82859200D03*
X143430600Y-84383200D03*
X144954600Y-84383200D03*
X146732600Y-84383200D03*
X143430600Y-81335200D03*
X144954600Y-81335200D03*
X146732600Y-81335200D03*
X152100000Y-79350000D03*
X136340800Y-76030600D03*
X133240800Y-75730600D03*
X108840800Y-85030600D03*
X146773047Y-95998353D03*
X150050000Y-94150000D03*
X153350000Y-92050000D03*
X154650000Y-88950000D03*
X155750000Y-86750000D03*
X147450000Y-72550000D03*
X153450000Y-71750000D03*
X156350000Y-81150000D03*
X157250000Y-83975000D03*
X143500000Y-76950000D03*
X139950000Y-77600000D03*
X135300000Y-81150000D03*
X135250000Y-84050000D03*
X142650000Y-94950000D03*
X137350000Y-92150000D03*
X134967359Y-90267359D03*
X135050000Y-87450000D03*
M02*
