G04 #@! TF.GenerationSoftware,KiCad,Pcbnew,(5.1.10-1-10_14)*
G04 #@! TF.CreationDate,2022-10-09T23:43:03+02:00*
G04 #@! TF.ProjectId,BoatCentralBoard,426f6174-4365-46e7-9472-616c426f6172,rev?*
G04 #@! TF.SameCoordinates,Original*
G04 #@! TF.FileFunction,Legend,Bot*
G04 #@! TF.FilePolarity,Positive*
%FSLAX46Y46*%
G04 Gerber Fmt 4.6, Leading zero omitted, Abs format (unit mm)*
G04 Created by KiCad (PCBNEW (5.1.10-1-10_14)) date 2022-10-09 23:43:03*
%MOMM*%
%LPD*%
G01*
G04 APERTURE LIST*
%ADD10C,0.150000*%
G04 APERTURE END LIST*
D10*
X169924133Y-108632980D02*
X169924133Y-109347266D01*
X169971752Y-109490123D01*
X170066990Y-109585361D01*
X170209847Y-109632980D01*
X170305085Y-109632980D01*
X169019371Y-108632980D02*
X169209847Y-108632980D01*
X169305085Y-108680600D01*
X169352704Y-108728219D01*
X169447942Y-108871076D01*
X169495561Y-109061552D01*
X169495561Y-109442504D01*
X169447942Y-109537742D01*
X169400323Y-109585361D01*
X169305085Y-109632980D01*
X169114609Y-109632980D01*
X169019371Y-109585361D01*
X168971752Y-109537742D01*
X168924133Y-109442504D01*
X168924133Y-109204409D01*
X168971752Y-109109171D01*
X169019371Y-109061552D01*
X169114609Y-109013933D01*
X169305085Y-109013933D01*
X169400323Y-109061552D01*
X169447942Y-109109171D01*
X169495561Y-109204409D01*
X205333333Y-97902380D02*
X205333333Y-98616666D01*
X205380952Y-98759523D01*
X205476190Y-98854761D01*
X205619047Y-98902380D01*
X205714285Y-98902380D01*
X204952380Y-97902380D02*
X204285714Y-97902380D01*
X204714285Y-98902380D01*
X201793180Y-49871076D02*
X202507466Y-49871076D01*
X202650323Y-49823457D01*
X202745561Y-49728219D01*
X202793180Y-49585361D01*
X202793180Y-49490123D01*
X202126514Y-50775838D02*
X202793180Y-50775838D01*
X201745561Y-50537742D02*
X202459847Y-50299647D01*
X202459847Y-50918695D01*
X201793180Y-51490123D02*
X201793180Y-51585361D01*
X201840800Y-51680600D01*
X201888419Y-51728219D01*
X201983657Y-51775838D01*
X202174133Y-51823457D01*
X202412228Y-51823457D01*
X202602704Y-51775838D01*
X202697942Y-51728219D01*
X202745561Y-51680600D01*
X202793180Y-51585361D01*
X202793180Y-51490123D01*
X202745561Y-51394885D01*
X202697942Y-51347266D01*
X202602704Y-51299647D01*
X202412228Y-51252028D01*
X202174133Y-51252028D01*
X201983657Y-51299647D01*
X201888419Y-51347266D01*
X201840800Y-51394885D01*
X201793180Y-51490123D01*
X120732380Y-42340476D02*
X121446666Y-42340476D01*
X121589523Y-42292857D01*
X121684761Y-42197619D01*
X121732380Y-42054761D01*
X121732380Y-41959523D01*
X120732380Y-42721428D02*
X120732380Y-43340476D01*
X121113333Y-43007142D01*
X121113333Y-43150000D01*
X121160952Y-43245238D01*
X121208571Y-43292857D01*
X121303809Y-43340476D01*
X121541904Y-43340476D01*
X121637142Y-43292857D01*
X121684761Y-43245238D01*
X121732380Y-43150000D01*
X121732380Y-42864285D01*
X121684761Y-42769047D01*
X121637142Y-42721428D01*
X121732380Y-43816666D02*
X121732380Y-44007142D01*
X121684761Y-44102380D01*
X121637142Y-44150000D01*
X121494285Y-44245238D01*
X121303809Y-44292857D01*
X120922857Y-44292857D01*
X120827619Y-44245238D01*
X120780000Y-44197619D01*
X120732380Y-44102380D01*
X120732380Y-43911904D01*
X120780000Y-43816666D01*
X120827619Y-43769047D01*
X120922857Y-43721428D01*
X121160952Y-43721428D01*
X121256190Y-43769047D01*
X121303809Y-43816666D01*
X121351428Y-43911904D01*
X121351428Y-44102380D01*
X121303809Y-44197619D01*
X121256190Y-44245238D01*
X121160952Y-44292857D01*
X144032380Y-42440476D02*
X144746666Y-42440476D01*
X144889523Y-42392857D01*
X144984761Y-42297619D01*
X145032380Y-42154761D01*
X145032380Y-42059523D01*
X144032380Y-42821428D02*
X144032380Y-43440476D01*
X144413333Y-43107142D01*
X144413333Y-43250000D01*
X144460952Y-43345238D01*
X144508571Y-43392857D01*
X144603809Y-43440476D01*
X144841904Y-43440476D01*
X144937142Y-43392857D01*
X144984761Y-43345238D01*
X145032380Y-43250000D01*
X145032380Y-42964285D01*
X144984761Y-42869047D01*
X144937142Y-42821428D01*
X144460952Y-44011904D02*
X144413333Y-43916666D01*
X144365714Y-43869047D01*
X144270476Y-43821428D01*
X144222857Y-43821428D01*
X144127619Y-43869047D01*
X144080000Y-43916666D01*
X144032380Y-44011904D01*
X144032380Y-44202380D01*
X144080000Y-44297619D01*
X144127619Y-44345238D01*
X144222857Y-44392857D01*
X144270476Y-44392857D01*
X144365714Y-44345238D01*
X144413333Y-44297619D01*
X144460952Y-44202380D01*
X144460952Y-44011904D01*
X144508571Y-43916666D01*
X144556190Y-43869047D01*
X144651428Y-43821428D01*
X144841904Y-43821428D01*
X144937142Y-43869047D01*
X144984761Y-43916666D01*
X145032380Y-44011904D01*
X145032380Y-44202380D01*
X144984761Y-44297619D01*
X144937142Y-44345238D01*
X144841904Y-44392857D01*
X144651428Y-44392857D01*
X144556190Y-44345238D01*
X144508571Y-44297619D01*
X144460952Y-44202380D01*
X167472380Y-42440476D02*
X168186666Y-42440476D01*
X168329523Y-42392857D01*
X168424761Y-42297619D01*
X168472380Y-42154761D01*
X168472380Y-42059523D01*
X167472380Y-42821428D02*
X167472380Y-43440476D01*
X167853333Y-43107142D01*
X167853333Y-43250000D01*
X167900952Y-43345238D01*
X167948571Y-43392857D01*
X168043809Y-43440476D01*
X168281904Y-43440476D01*
X168377142Y-43392857D01*
X168424761Y-43345238D01*
X168472380Y-43250000D01*
X168472380Y-42964285D01*
X168424761Y-42869047D01*
X168377142Y-42821428D01*
X167472380Y-43773809D02*
X167472380Y-44440476D01*
X168472380Y-44011904D01*
X190788580Y-42384276D02*
X191502866Y-42384276D01*
X191645723Y-42336657D01*
X191740961Y-42241419D01*
X191788580Y-42098561D01*
X191788580Y-42003323D01*
X190788580Y-42765228D02*
X190788580Y-43384276D01*
X191169533Y-43050942D01*
X191169533Y-43193800D01*
X191217152Y-43289038D01*
X191264771Y-43336657D01*
X191360009Y-43384276D01*
X191598104Y-43384276D01*
X191693342Y-43336657D01*
X191740961Y-43289038D01*
X191788580Y-43193800D01*
X191788580Y-42908085D01*
X191740961Y-42812847D01*
X191693342Y-42765228D01*
X190788580Y-44241419D02*
X190788580Y-44050942D01*
X190836200Y-43955704D01*
X190883819Y-43908085D01*
X191026676Y-43812847D01*
X191217152Y-43765228D01*
X191598104Y-43765228D01*
X191693342Y-43812847D01*
X191740961Y-43860466D01*
X191788580Y-43955704D01*
X191788580Y-44146180D01*
X191740961Y-44241419D01*
X191693342Y-44289038D01*
X191598104Y-44336657D01*
X191360009Y-44336657D01*
X191264771Y-44289038D01*
X191217152Y-44241419D01*
X191169533Y-44146180D01*
X191169533Y-43955704D01*
X191217152Y-43860466D01*
X191264771Y-43812847D01*
X191360009Y-43765228D01*
X169824133Y-129682980D02*
X169824133Y-130397266D01*
X169871752Y-130540123D01*
X169966990Y-130635361D01*
X170109847Y-130682980D01*
X170205085Y-130682980D01*
X169395561Y-129778219D02*
X169347942Y-129730600D01*
X169252704Y-129682980D01*
X169014609Y-129682980D01*
X168919371Y-129730600D01*
X168871752Y-129778219D01*
X168824133Y-129873457D01*
X168824133Y-129968695D01*
X168871752Y-130111552D01*
X169443180Y-130682980D01*
X168824133Y-130682980D01*
X170616123Y-87588580D02*
X170616123Y-88302866D01*
X170663742Y-88445723D01*
X170758980Y-88540961D01*
X170901838Y-88588580D01*
X170997076Y-88588580D01*
X169616123Y-88588580D02*
X170187552Y-88588580D01*
X169901838Y-88588580D02*
X169901838Y-87588580D01*
X169997076Y-87731438D01*
X170092314Y-87826676D01*
X170187552Y-87874295D01*
X168997076Y-87588580D02*
X168901838Y-87588580D01*
X168806600Y-87636200D01*
X168758980Y-87683819D01*
X168711361Y-87779057D01*
X168663742Y-87969533D01*
X168663742Y-88207628D01*
X168711361Y-88398104D01*
X168758980Y-88493342D01*
X168806600Y-88540961D01*
X168901838Y-88588580D01*
X168997076Y-88588580D01*
X169092314Y-88540961D01*
X169139933Y-88493342D01*
X169187552Y-88398104D01*
X169235171Y-88207628D01*
X169235171Y-87969533D01*
X169187552Y-87779057D01*
X169139933Y-87683819D01*
X169092314Y-87636200D01*
X168997076Y-87588580D01*
X191716123Y-87582980D02*
X191716123Y-88297266D01*
X191763742Y-88440123D01*
X191858980Y-88535361D01*
X192001838Y-88582980D01*
X192097076Y-88582980D01*
X190716123Y-88582980D02*
X191287552Y-88582980D01*
X191001838Y-88582980D02*
X191001838Y-87582980D01*
X191097076Y-87725838D01*
X191192314Y-87821076D01*
X191287552Y-87868695D01*
X190335171Y-87678219D02*
X190287552Y-87630600D01*
X190192314Y-87582980D01*
X189954219Y-87582980D01*
X189858980Y-87630600D01*
X189811361Y-87678219D01*
X189763742Y-87773457D01*
X189763742Y-87868695D01*
X189811361Y-88011552D01*
X190382790Y-88582980D01*
X189763742Y-88582980D01*
X170666123Y-65932980D02*
X170666123Y-66647266D01*
X170713742Y-66790123D01*
X170808980Y-66885361D01*
X170951838Y-66932980D01*
X171047076Y-66932980D01*
X169666123Y-66932980D02*
X170237552Y-66932980D01*
X169951838Y-66932980D02*
X169951838Y-65932980D01*
X170047076Y-66075838D01*
X170142314Y-66171076D01*
X170237552Y-66218695D01*
X168808980Y-66266314D02*
X168808980Y-66932980D01*
X169047076Y-65885361D02*
X169285171Y-66599647D01*
X168666123Y-66599647D01*
X121700323Y-108332980D02*
X121700323Y-109047266D01*
X121747942Y-109190123D01*
X121843180Y-109285361D01*
X121986038Y-109332980D01*
X122081276Y-109332980D01*
X121271752Y-108428219D02*
X121224133Y-108380600D01*
X121128895Y-108332980D01*
X120890800Y-108332980D01*
X120795561Y-108380600D01*
X120747942Y-108428219D01*
X120700323Y-108523457D01*
X120700323Y-108618695D01*
X120747942Y-108761552D01*
X121319371Y-109332980D01*
X120700323Y-109332980D01*
X120128895Y-108761552D02*
X120224133Y-108713933D01*
X120271752Y-108666314D01*
X120319371Y-108571076D01*
X120319371Y-108523457D01*
X120271752Y-108428219D01*
X120224133Y-108380600D01*
X120128895Y-108332980D01*
X119938419Y-108332980D01*
X119843180Y-108380600D01*
X119795561Y-108428219D01*
X119747942Y-108523457D01*
X119747942Y-108571076D01*
X119795561Y-108666314D01*
X119843180Y-108713933D01*
X119938419Y-108761552D01*
X120128895Y-108761552D01*
X120224133Y-108809171D01*
X120271752Y-108856790D01*
X120319371Y-108952028D01*
X120319371Y-109142504D01*
X120271752Y-109237742D01*
X120224133Y-109285361D01*
X120128895Y-109332980D01*
X119938419Y-109332980D01*
X119843180Y-109285361D01*
X119795561Y-109237742D01*
X119747942Y-109142504D01*
X119747942Y-108952028D01*
X119795561Y-108856790D01*
X119843180Y-108809171D01*
X119938419Y-108761552D01*
X100100323Y-129632980D02*
X100100323Y-130347266D01*
X100147942Y-130490123D01*
X100243180Y-130585361D01*
X100386038Y-130632980D01*
X100481276Y-130632980D01*
X99719371Y-129632980D02*
X99100323Y-129632980D01*
X99433657Y-130013933D01*
X99290800Y-130013933D01*
X99195561Y-130061552D01*
X99147942Y-130109171D01*
X99100323Y-130204409D01*
X99100323Y-130442504D01*
X99147942Y-130537742D01*
X99195561Y-130585361D01*
X99290800Y-130632980D01*
X99576514Y-130632980D01*
X99671752Y-130585361D01*
X99719371Y-130537742D01*
X98481276Y-129632980D02*
X98386038Y-129632980D01*
X98290800Y-129680600D01*
X98243180Y-129728219D01*
X98195561Y-129823457D01*
X98147942Y-130013933D01*
X98147942Y-130252028D01*
X98195561Y-130442504D01*
X98243180Y-130537742D01*
X98290800Y-130585361D01*
X98386038Y-130632980D01*
X98481276Y-130632980D01*
X98576514Y-130585361D01*
X98624133Y-130537742D01*
X98671752Y-130442504D01*
X98719371Y-130252028D01*
X98719371Y-130013933D01*
X98671752Y-129823457D01*
X98624133Y-129728219D01*
X98576514Y-129680600D01*
X98481276Y-129632980D01*
X121159523Y-130152380D02*
X121159523Y-130866666D01*
X121207142Y-131009523D01*
X121302380Y-131104761D01*
X121445238Y-131152380D01*
X121540476Y-131152380D01*
X120778571Y-130152380D02*
X120159523Y-130152380D01*
X120492857Y-130533333D01*
X120350000Y-130533333D01*
X120254761Y-130580952D01*
X120207142Y-130628571D01*
X120159523Y-130723809D01*
X120159523Y-130961904D01*
X120207142Y-131057142D01*
X120254761Y-131104761D01*
X120350000Y-131152380D01*
X120635714Y-131152380D01*
X120730952Y-131104761D01*
X120778571Y-131057142D01*
X119778571Y-130247619D02*
X119730952Y-130200000D01*
X119635714Y-130152380D01*
X119397619Y-130152380D01*
X119302380Y-130200000D01*
X119254761Y-130247619D01*
X119207142Y-130342857D01*
X119207142Y-130438095D01*
X119254761Y-130580952D01*
X119826190Y-131152380D01*
X119207142Y-131152380D01*
X100200323Y-65782980D02*
X100200323Y-66497266D01*
X100247942Y-66640123D01*
X100343180Y-66735361D01*
X100486038Y-66782980D01*
X100581276Y-66782980D01*
X99771752Y-65878219D02*
X99724133Y-65830600D01*
X99628895Y-65782980D01*
X99390800Y-65782980D01*
X99295561Y-65830600D01*
X99247942Y-65878219D01*
X99200323Y-65973457D01*
X99200323Y-66068695D01*
X99247942Y-66211552D01*
X99819371Y-66782980D01*
X99200323Y-66782980D01*
X98581276Y-65782980D02*
X98486038Y-65782980D01*
X98390800Y-65830600D01*
X98343180Y-65878219D01*
X98295561Y-65973457D01*
X98247942Y-66163933D01*
X98247942Y-66402028D01*
X98295561Y-66592504D01*
X98343180Y-66687742D01*
X98390800Y-66735361D01*
X98486038Y-66782980D01*
X98581276Y-66782980D01*
X98676514Y-66735361D01*
X98724133Y-66687742D01*
X98771752Y-66592504D01*
X98819371Y-66402028D01*
X98819371Y-66163933D01*
X98771752Y-65973457D01*
X98724133Y-65878219D01*
X98676514Y-65830600D01*
X98581276Y-65782980D01*
X121500323Y-86832980D02*
X121500323Y-87547266D01*
X121547942Y-87690123D01*
X121643180Y-87785361D01*
X121786038Y-87832980D01*
X121881276Y-87832980D01*
X121071752Y-86928219D02*
X121024133Y-86880600D01*
X120928895Y-86832980D01*
X120690800Y-86832980D01*
X120595561Y-86880600D01*
X120547942Y-86928219D01*
X120500323Y-87023457D01*
X120500323Y-87118695D01*
X120547942Y-87261552D01*
X121119371Y-87832980D01*
X120500323Y-87832980D01*
X120119371Y-86928219D02*
X120071752Y-86880600D01*
X119976514Y-86832980D01*
X119738419Y-86832980D01*
X119643180Y-86880600D01*
X119595561Y-86928219D01*
X119547942Y-87023457D01*
X119547942Y-87118695D01*
X119595561Y-87261552D01*
X120166990Y-87832980D01*
X119547942Y-87832980D01*
X100000323Y-87132980D02*
X100000323Y-87847266D01*
X100047942Y-87990123D01*
X100143180Y-88085361D01*
X100286038Y-88132980D01*
X100381276Y-88132980D01*
X99571752Y-87228219D02*
X99524133Y-87180600D01*
X99428895Y-87132980D01*
X99190800Y-87132980D01*
X99095561Y-87180600D01*
X99047942Y-87228219D01*
X99000323Y-87323457D01*
X99000323Y-87418695D01*
X99047942Y-87561552D01*
X99619371Y-88132980D01*
X99000323Y-88132980D01*
X98143180Y-87466314D02*
X98143180Y-88132980D01*
X98381276Y-87085361D02*
X98619371Y-87799647D01*
X98000323Y-87799647D01*
X100000323Y-108432980D02*
X100000323Y-109147266D01*
X100047942Y-109290123D01*
X100143180Y-109385361D01*
X100286038Y-109432980D01*
X100381276Y-109432980D01*
X99571752Y-108528219D02*
X99524133Y-108480600D01*
X99428895Y-108432980D01*
X99190800Y-108432980D01*
X99095561Y-108480600D01*
X99047942Y-108528219D01*
X99000323Y-108623457D01*
X99000323Y-108718695D01*
X99047942Y-108861552D01*
X99619371Y-109432980D01*
X99000323Y-109432980D01*
X98143180Y-108432980D02*
X98333657Y-108432980D01*
X98428895Y-108480600D01*
X98476514Y-108528219D01*
X98571752Y-108671076D01*
X98619371Y-108861552D01*
X98619371Y-109242504D01*
X98571752Y-109337742D01*
X98524133Y-109385361D01*
X98428895Y-109432980D01*
X98238419Y-109432980D01*
X98143180Y-109385361D01*
X98095561Y-109337742D01*
X98047942Y-109242504D01*
X98047942Y-109004409D01*
X98095561Y-108909171D01*
X98143180Y-108861552D01*
X98238419Y-108813933D01*
X98428895Y-108813933D01*
X98524133Y-108861552D01*
X98571752Y-108909171D01*
X98619371Y-109004409D01*
X191474133Y-129432980D02*
X191474133Y-130147266D01*
X191521752Y-130290123D01*
X191616990Y-130385361D01*
X191759847Y-130432980D01*
X191855085Y-130432980D01*
X190569371Y-129766314D02*
X190569371Y-130432980D01*
X190807466Y-129385361D02*
X191045561Y-130099647D01*
X190426514Y-130099647D01*
X191516123Y-66088580D02*
X191516123Y-66802866D01*
X191563742Y-66945723D01*
X191658980Y-67040961D01*
X191801838Y-67088580D01*
X191897076Y-67088580D01*
X190516123Y-67088580D02*
X191087552Y-67088580D01*
X190801838Y-67088580D02*
X190801838Y-66088580D01*
X190897076Y-66231438D01*
X190992314Y-66326676D01*
X191087552Y-66374295D01*
X189658980Y-66088580D02*
X189849457Y-66088580D01*
X189944695Y-66136200D01*
X189992314Y-66183819D01*
X190087552Y-66326676D01*
X190135171Y-66517152D01*
X190135171Y-66898104D01*
X190087552Y-66993342D01*
X190039933Y-67040961D01*
X189944695Y-67088580D01*
X189754219Y-67088580D01*
X189658980Y-67040961D01*
X189611361Y-66993342D01*
X189563742Y-66898104D01*
X189563742Y-66660009D01*
X189611361Y-66564771D01*
X189658980Y-66517152D01*
X189754219Y-66469533D01*
X189944695Y-66469533D01*
X190039933Y-66517152D01*
X190087552Y-66564771D01*
X190135171Y-66660009D01*
X121850323Y-65832980D02*
X121850323Y-66547266D01*
X121897942Y-66690123D01*
X121993180Y-66785361D01*
X122136038Y-66832980D01*
X122231276Y-66832980D01*
X120850323Y-66832980D02*
X121421752Y-66832980D01*
X121136038Y-66832980D02*
X121136038Y-65832980D01*
X121231276Y-65975838D01*
X121326514Y-66071076D01*
X121421752Y-66118695D01*
X120278895Y-66261552D02*
X120374133Y-66213933D01*
X120421752Y-66166314D01*
X120469371Y-66071076D01*
X120469371Y-66023457D01*
X120421752Y-65928219D01*
X120374133Y-65880600D01*
X120278895Y-65832980D01*
X120088419Y-65832980D01*
X119993180Y-65880600D01*
X119945561Y-65928219D01*
X119897942Y-66023457D01*
X119897942Y-66071076D01*
X119945561Y-66166314D01*
X119993180Y-66213933D01*
X120088419Y-66261552D01*
X120278895Y-66261552D01*
X120374133Y-66309171D01*
X120421752Y-66356790D01*
X120469371Y-66452028D01*
X120469371Y-66642504D01*
X120421752Y-66737742D01*
X120374133Y-66785361D01*
X120278895Y-66832980D01*
X120088419Y-66832980D01*
X119993180Y-66785361D01*
X119945561Y-66737742D01*
X119897942Y-66642504D01*
X119897942Y-66452028D01*
X119945561Y-66356790D01*
X119993180Y-66309171D01*
X120088419Y-66261552D01*
X191374133Y-108682980D02*
X191374133Y-109397266D01*
X191421752Y-109540123D01*
X191516990Y-109635361D01*
X191659847Y-109682980D01*
X191755085Y-109682980D01*
X190755085Y-109111552D02*
X190850323Y-109063933D01*
X190897942Y-109016314D01*
X190945561Y-108921076D01*
X190945561Y-108873457D01*
X190897942Y-108778219D01*
X190850323Y-108730600D01*
X190755085Y-108682980D01*
X190564609Y-108682980D01*
X190469371Y-108730600D01*
X190421752Y-108778219D01*
X190374133Y-108873457D01*
X190374133Y-108921076D01*
X190421752Y-109016314D01*
X190469371Y-109063933D01*
X190564609Y-109111552D01*
X190755085Y-109111552D01*
X190850323Y-109159171D01*
X190897942Y-109206790D01*
X190945561Y-109302028D01*
X190945561Y-109492504D01*
X190897942Y-109587742D01*
X190850323Y-109635361D01*
X190755085Y-109682980D01*
X190564609Y-109682980D01*
X190469371Y-109635361D01*
X190421752Y-109587742D01*
X190374133Y-109492504D01*
X190374133Y-109302028D01*
X190421752Y-109206790D01*
X190469371Y-109159171D01*
X190564609Y-109111552D01*
X85809523Y-97752380D02*
X85809523Y-98466666D01*
X85857142Y-98609523D01*
X85952380Y-98704761D01*
X86095238Y-98752380D01*
X86190476Y-98752380D01*
X85380952Y-97847619D02*
X85333333Y-97800000D01*
X85238095Y-97752380D01*
X85000000Y-97752380D01*
X84904761Y-97800000D01*
X84857142Y-97847619D01*
X84809523Y-97942857D01*
X84809523Y-98038095D01*
X84857142Y-98180952D01*
X85428571Y-98752380D01*
X84809523Y-98752380D01*
X83904761Y-97752380D02*
X84380952Y-97752380D01*
X84428571Y-98228571D01*
X84380952Y-98180952D01*
X84285714Y-98133333D01*
X84047619Y-98133333D01*
X83952380Y-98180952D01*
X83904761Y-98228571D01*
X83857142Y-98323809D01*
X83857142Y-98561904D01*
X83904761Y-98657142D01*
X83952380Y-98704761D01*
X84047619Y-98752380D01*
X84285714Y-98752380D01*
X84380952Y-98704761D01*
X84428571Y-98657142D01*
X85859523Y-87052380D02*
X85859523Y-87766666D01*
X85907142Y-87909523D01*
X86002380Y-88004761D01*
X86145238Y-88052380D01*
X86240476Y-88052380D01*
X85430952Y-87147619D02*
X85383333Y-87100000D01*
X85288095Y-87052380D01*
X85050000Y-87052380D01*
X84954761Y-87100000D01*
X84907142Y-87147619D01*
X84859523Y-87242857D01*
X84859523Y-87338095D01*
X84907142Y-87480952D01*
X85478571Y-88052380D01*
X84859523Y-88052380D01*
X84526190Y-87052380D02*
X83907142Y-87052380D01*
X84240476Y-87433333D01*
X84097619Y-87433333D01*
X84002380Y-87480952D01*
X83954761Y-87528571D01*
X83907142Y-87623809D01*
X83907142Y-87861904D01*
X83954761Y-87957142D01*
X84002380Y-88004761D01*
X84097619Y-88052380D01*
X84383333Y-88052380D01*
X84478571Y-88004761D01*
X84526190Y-87957142D01*
X85809523Y-76402380D02*
X85809523Y-77116666D01*
X85857142Y-77259523D01*
X85952380Y-77354761D01*
X86095238Y-77402380D01*
X86190476Y-77402380D01*
X85380952Y-76497619D02*
X85333333Y-76450000D01*
X85238095Y-76402380D01*
X85000000Y-76402380D01*
X84904761Y-76450000D01*
X84857142Y-76497619D01*
X84809523Y-76592857D01*
X84809523Y-76688095D01*
X84857142Y-76830952D01*
X85428571Y-77402380D01*
X84809523Y-77402380D01*
X83857142Y-77402380D02*
X84428571Y-77402380D01*
X84142857Y-77402380D02*
X84142857Y-76402380D01*
X84238095Y-76545238D01*
X84333333Y-76640476D01*
X84428571Y-76688095D01*
X85759523Y-65752380D02*
X85759523Y-66466666D01*
X85807142Y-66609523D01*
X85902380Y-66704761D01*
X86045238Y-66752380D01*
X86140476Y-66752380D01*
X84759523Y-66752380D02*
X85330952Y-66752380D01*
X85045238Y-66752380D02*
X85045238Y-65752380D01*
X85140476Y-65895238D01*
X85235714Y-65990476D01*
X85330952Y-66038095D01*
X84283333Y-66752380D02*
X84092857Y-66752380D01*
X83997619Y-66704761D01*
X83950000Y-66657142D01*
X83854761Y-66514285D01*
X83807142Y-66323809D01*
X83807142Y-65942857D01*
X83854761Y-65847619D01*
X83902380Y-65800000D01*
X83997619Y-65752380D01*
X84188095Y-65752380D01*
X84283333Y-65800000D01*
X84330952Y-65847619D01*
X84378571Y-65942857D01*
X84378571Y-66180952D01*
X84330952Y-66276190D01*
X84283333Y-66323809D01*
X84188095Y-66371428D01*
X83997619Y-66371428D01*
X83902380Y-66323809D01*
X83854761Y-66276190D01*
X83807142Y-66180952D01*
X85759523Y-54952380D02*
X85759523Y-55666666D01*
X85807142Y-55809523D01*
X85902380Y-55904761D01*
X86045238Y-55952380D01*
X86140476Y-55952380D01*
X84759523Y-55952380D02*
X85330952Y-55952380D01*
X85045238Y-55952380D02*
X85045238Y-54952380D01*
X85140476Y-55095238D01*
X85235714Y-55190476D01*
X85330952Y-55238095D01*
X84426190Y-54952380D02*
X83759523Y-54952380D01*
X84188095Y-55952380D01*
X115659523Y-138252380D02*
X115659523Y-138966666D01*
X115707142Y-139109523D01*
X115802380Y-139204761D01*
X115945238Y-139252380D01*
X116040476Y-139252380D01*
X115278571Y-138252380D02*
X114659523Y-138252380D01*
X114992857Y-138633333D01*
X114850000Y-138633333D01*
X114754761Y-138680952D01*
X114707142Y-138728571D01*
X114659523Y-138823809D01*
X114659523Y-139061904D01*
X114707142Y-139157142D01*
X114754761Y-139204761D01*
X114850000Y-139252380D01*
X115135714Y-139252380D01*
X115230952Y-139204761D01*
X115278571Y-139157142D01*
X113707142Y-139252380D02*
X114278571Y-139252380D01*
X113992857Y-139252380D02*
X113992857Y-138252380D01*
X114088095Y-138395238D01*
X114183333Y-138490476D01*
X114278571Y-138538095D01*
X94709523Y-138052380D02*
X94709523Y-138766666D01*
X94757142Y-138909523D01*
X94852380Y-139004761D01*
X94995238Y-139052380D01*
X95090476Y-139052380D01*
X94280952Y-138147619D02*
X94233333Y-138100000D01*
X94138095Y-138052380D01*
X93900000Y-138052380D01*
X93804761Y-138100000D01*
X93757142Y-138147619D01*
X93709523Y-138242857D01*
X93709523Y-138338095D01*
X93757142Y-138480952D01*
X94328571Y-139052380D01*
X93709523Y-139052380D01*
X93233333Y-139052380D02*
X93042857Y-139052380D01*
X92947619Y-139004761D01*
X92900000Y-138957142D01*
X92804761Y-138814285D01*
X92757142Y-138623809D01*
X92757142Y-138242857D01*
X92804761Y-138147619D01*
X92852380Y-138100000D01*
X92947619Y-138052380D01*
X93138095Y-138052380D01*
X93233333Y-138100000D01*
X93280952Y-138147619D01*
X93328571Y-138242857D01*
X93328571Y-138480952D01*
X93280952Y-138576190D01*
X93233333Y-138623809D01*
X93138095Y-138671428D01*
X92947619Y-138671428D01*
X92852380Y-138623809D01*
X92804761Y-138576190D01*
X92757142Y-138480952D01*
X85859523Y-108152380D02*
X85859523Y-108866666D01*
X85907142Y-109009523D01*
X86002380Y-109104761D01*
X86145238Y-109152380D01*
X86240476Y-109152380D01*
X85430952Y-108247619D02*
X85383333Y-108200000D01*
X85288095Y-108152380D01*
X85050000Y-108152380D01*
X84954761Y-108200000D01*
X84907142Y-108247619D01*
X84859523Y-108342857D01*
X84859523Y-108438095D01*
X84907142Y-108580952D01*
X85478571Y-109152380D01*
X84859523Y-109152380D01*
X84526190Y-108152380D02*
X83859523Y-108152380D01*
X84288095Y-109152380D01*
X205809523Y-54952380D02*
X205809523Y-55666666D01*
X205857142Y-55809523D01*
X205952380Y-55904761D01*
X206095238Y-55952380D01*
X206190476Y-55952380D01*
X204809523Y-55952380D02*
X205380952Y-55952380D01*
X205095238Y-55952380D02*
X205095238Y-54952380D01*
X205190476Y-55095238D01*
X205285714Y-55190476D01*
X205380952Y-55238095D01*
X203904761Y-54952380D02*
X204380952Y-54952380D01*
X204428571Y-55428571D01*
X204380952Y-55380952D01*
X204285714Y-55333333D01*
X204047619Y-55333333D01*
X203952380Y-55380952D01*
X203904761Y-55428571D01*
X203857142Y-55523809D01*
X203857142Y-55761904D01*
X203904761Y-55857142D01*
X203952380Y-55904761D01*
X204047619Y-55952380D01*
X204285714Y-55952380D01*
X204380952Y-55904761D01*
X204428571Y-55857142D01*
X205909523Y-65752380D02*
X205909523Y-66466666D01*
X205957142Y-66609523D01*
X206052380Y-66704761D01*
X206195238Y-66752380D01*
X206290476Y-66752380D01*
X204909523Y-66752380D02*
X205480952Y-66752380D01*
X205195238Y-66752380D02*
X205195238Y-65752380D01*
X205290476Y-65895238D01*
X205385714Y-65990476D01*
X205480952Y-66038095D01*
X204576190Y-65752380D02*
X203957142Y-65752380D01*
X204290476Y-66133333D01*
X204147619Y-66133333D01*
X204052380Y-66180952D01*
X204004761Y-66228571D01*
X203957142Y-66323809D01*
X203957142Y-66561904D01*
X204004761Y-66657142D01*
X204052380Y-66704761D01*
X204147619Y-66752380D01*
X204433333Y-66752380D01*
X204528571Y-66704761D01*
X204576190Y-66657142D01*
X205659523Y-76352380D02*
X205659523Y-77066666D01*
X205707142Y-77209523D01*
X205802380Y-77304761D01*
X205945238Y-77352380D01*
X206040476Y-77352380D01*
X204659523Y-77352380D02*
X205230952Y-77352380D01*
X204945238Y-77352380D02*
X204945238Y-76352380D01*
X205040476Y-76495238D01*
X205135714Y-76590476D01*
X205230952Y-76638095D01*
X203707142Y-77352380D02*
X204278571Y-77352380D01*
X203992857Y-77352380D02*
X203992857Y-76352380D01*
X204088095Y-76495238D01*
X204183333Y-76590476D01*
X204278571Y-76638095D01*
X205333333Y-86952380D02*
X205333333Y-87666666D01*
X205380952Y-87809523D01*
X205476190Y-87904761D01*
X205619047Y-87952380D01*
X205714285Y-87952380D01*
X204809523Y-87952380D02*
X204619047Y-87952380D01*
X204523809Y-87904761D01*
X204476190Y-87857142D01*
X204380952Y-87714285D01*
X204333333Y-87523809D01*
X204333333Y-87142857D01*
X204380952Y-87047619D01*
X204428571Y-87000000D01*
X204523809Y-86952380D01*
X204714285Y-86952380D01*
X204809523Y-87000000D01*
X204857142Y-87047619D01*
X204904761Y-87142857D01*
X204904761Y-87380952D01*
X204857142Y-87476190D01*
X204809523Y-87523809D01*
X204714285Y-87571428D01*
X204523809Y-87571428D01*
X204428571Y-87523809D01*
X204380952Y-87476190D01*
X204333333Y-87380952D01*
X205433333Y-108252380D02*
X205433333Y-108966666D01*
X205480952Y-109109523D01*
X205576190Y-109204761D01*
X205719047Y-109252380D01*
X205814285Y-109252380D01*
X204480952Y-108252380D02*
X204957142Y-108252380D01*
X205004761Y-108728571D01*
X204957142Y-108680952D01*
X204861904Y-108633333D01*
X204623809Y-108633333D01*
X204528571Y-108680952D01*
X204480952Y-108728571D01*
X204433333Y-108823809D01*
X204433333Y-109061904D01*
X204480952Y-109157142D01*
X204528571Y-109204761D01*
X204623809Y-109252380D01*
X204861904Y-109252380D01*
X204957142Y-109204761D01*
X205004761Y-109157142D01*
X197283333Y-138052380D02*
X197283333Y-138766666D01*
X197330952Y-138909523D01*
X197426190Y-139004761D01*
X197569047Y-139052380D01*
X197664285Y-139052380D01*
X196902380Y-138052380D02*
X196283333Y-138052380D01*
X196616666Y-138433333D01*
X196473809Y-138433333D01*
X196378571Y-138480952D01*
X196330952Y-138528571D01*
X196283333Y-138623809D01*
X196283333Y-138861904D01*
X196330952Y-138957142D01*
X196378571Y-139004761D01*
X196473809Y-139052380D01*
X196759523Y-139052380D01*
X196854761Y-139004761D01*
X196902380Y-138957142D01*
X175333333Y-138052380D02*
X175333333Y-138766666D01*
X175380952Y-138909523D01*
X175476190Y-139004761D01*
X175619047Y-139052380D01*
X175714285Y-139052380D01*
X174333333Y-139052380D02*
X174904761Y-139052380D01*
X174619047Y-139052380D02*
X174619047Y-138052380D01*
X174714285Y-138195238D01*
X174809523Y-138290476D01*
X174904761Y-138338095D01*
M02*
