G04 #@! TF.GenerationSoftware,KiCad,Pcbnew,(5.1.10-1-10_14)*
G04 #@! TF.CreationDate,2022-10-09T23:43:03+02:00*
G04 #@! TF.ProjectId,BoatCentralBoard,426f6174-4365-46e7-9472-616c426f6172,rev?*
G04 #@! TF.SameCoordinates,Original*
G04 #@! TF.FileFunction,Legend,Top*
G04 #@! TF.FilePolarity,Positive*
%FSLAX46Y46*%
G04 Gerber Fmt 4.6, Leading zero omitted, Abs format (unit mm)*
G04 Created by KiCad (PCBNEW (5.1.10-1-10_14)) date 2022-10-09 23:43:03*
%MOMM*%
%LPD*%
G01*
G04 APERTURE LIST*
%ADD10C,0.150000*%
%ADD11C,0.120000*%
G04 APERTURE END LIST*
D10*
X120640800Y-79980600D02*
X120640800Y-74280600D01*
X120740800Y-101280600D02*
X120740800Y-95580600D01*
X99743180Y-94778219D02*
X99266990Y-95111552D01*
X99743180Y-95349647D02*
X98743180Y-95349647D01*
X98743180Y-94968695D01*
X98790800Y-94873457D01*
X98838419Y-94825838D01*
X98933657Y-94778219D01*
X99076514Y-94778219D01*
X99171752Y-94825838D01*
X99219371Y-94873457D01*
X99266990Y-94968695D01*
X99266990Y-95349647D01*
X99743180Y-94444885D02*
X99076514Y-93921076D01*
X99076514Y-94444885D02*
X99743180Y-93921076D01*
X99743180Y-93016314D02*
X99743180Y-93587742D01*
X99743180Y-93302028D02*
X98743180Y-93302028D01*
X98886038Y-93397266D01*
X98981276Y-93492504D01*
X99028895Y-93587742D01*
X98838419Y-92635361D02*
X98790800Y-92587742D01*
X98743180Y-92492504D01*
X98743180Y-92254409D01*
X98790800Y-92159171D01*
X98838419Y-92111552D01*
X98933657Y-92063933D01*
X99028895Y-92063933D01*
X99171752Y-92111552D01*
X99743180Y-92682980D01*
X99743180Y-92063933D01*
X99340800Y-101330600D02*
X99340800Y-95630600D01*
X107993180Y-60852028D02*
X107516990Y-61185361D01*
X107993180Y-61423457D02*
X106993180Y-61423457D01*
X106993180Y-61042504D01*
X107040800Y-60947266D01*
X107088419Y-60899647D01*
X107183657Y-60852028D01*
X107326514Y-60852028D01*
X107421752Y-60899647D01*
X107469371Y-60947266D01*
X107516990Y-61042504D01*
X107516990Y-61423457D01*
X107993180Y-60518695D02*
X107326514Y-59994885D01*
X107326514Y-60518695D02*
X107993180Y-59994885D01*
X107993180Y-59566314D02*
X107993180Y-59375838D01*
X107945561Y-59280600D01*
X107897942Y-59232980D01*
X107755085Y-59137742D01*
X107564609Y-59090123D01*
X107183657Y-59090123D01*
X107088419Y-59137742D01*
X107040800Y-59185361D01*
X106993180Y-59280600D01*
X106993180Y-59471076D01*
X107040800Y-59566314D01*
X107088419Y-59613933D01*
X107183657Y-59661552D01*
X107421752Y-59661552D01*
X107516990Y-59613933D01*
X107564609Y-59566314D01*
X107612228Y-59471076D01*
X107612228Y-59280600D01*
X107564609Y-59185361D01*
X107516990Y-59137742D01*
X107421752Y-59090123D01*
X120993180Y-116128219D02*
X120516990Y-116461552D01*
X120993180Y-116699647D02*
X119993180Y-116699647D01*
X119993180Y-116318695D01*
X120040800Y-116223457D01*
X120088419Y-116175838D01*
X120183657Y-116128219D01*
X120326514Y-116128219D01*
X120421752Y-116175838D01*
X120469371Y-116223457D01*
X120516990Y-116318695D01*
X120516990Y-116699647D01*
X120993180Y-115794885D02*
X120326514Y-115271076D01*
X120326514Y-115794885D02*
X120993180Y-115271076D01*
X120993180Y-114366314D02*
X120993180Y-114937742D01*
X120993180Y-114652028D02*
X119993180Y-114652028D01*
X120136038Y-114747266D01*
X120231276Y-114842504D01*
X120278895Y-114937742D01*
X119993180Y-113461552D02*
X119993180Y-113937742D01*
X120469371Y-113985361D01*
X120421752Y-113937742D01*
X120374133Y-113842504D01*
X120374133Y-113604409D01*
X120421752Y-113509171D01*
X120469371Y-113461552D01*
X120564609Y-113413933D01*
X120802704Y-113413933D01*
X120897942Y-113461552D01*
X120945561Y-113509171D01*
X120993180Y-113604409D01*
X120993180Y-113842504D01*
X120945561Y-113937742D01*
X120897942Y-113985361D01*
X99693180Y-116128219D02*
X99216990Y-116461552D01*
X99693180Y-116699647D02*
X98693180Y-116699647D01*
X98693180Y-116318695D01*
X98740800Y-116223457D01*
X98788419Y-116175838D01*
X98883657Y-116128219D01*
X99026514Y-116128219D01*
X99121752Y-116175838D01*
X99169371Y-116223457D01*
X99216990Y-116318695D01*
X99216990Y-116699647D01*
X99693180Y-115794885D02*
X99026514Y-115271076D01*
X99026514Y-115794885D02*
X99693180Y-115271076D01*
X99693180Y-114366314D02*
X99693180Y-114937742D01*
X99693180Y-114652028D02*
X98693180Y-114652028D01*
X98836038Y-114747266D01*
X98931276Y-114842504D01*
X98978895Y-114937742D01*
X99026514Y-113509171D02*
X99693180Y-113509171D01*
X98645561Y-113747266D02*
X99359847Y-113985361D01*
X99359847Y-113366314D01*
X129143180Y-60702028D02*
X128666990Y-61035361D01*
X129143180Y-61273457D02*
X128143180Y-61273457D01*
X128143180Y-60892504D01*
X128190800Y-60797266D01*
X128238419Y-60749647D01*
X128333657Y-60702028D01*
X128476514Y-60702028D01*
X128571752Y-60749647D01*
X128619371Y-60797266D01*
X128666990Y-60892504D01*
X128666990Y-61273457D01*
X129143180Y-60368695D02*
X128476514Y-59844885D01*
X128476514Y-60368695D02*
X129143180Y-59844885D01*
X128571752Y-59321076D02*
X128524133Y-59416314D01*
X128476514Y-59463933D01*
X128381276Y-59511552D01*
X128333657Y-59511552D01*
X128238419Y-59463933D01*
X128190800Y-59416314D01*
X128143180Y-59321076D01*
X128143180Y-59130600D01*
X128190800Y-59035361D01*
X128238419Y-58987742D01*
X128333657Y-58940123D01*
X128381276Y-58940123D01*
X128476514Y-58987742D01*
X128524133Y-59035361D01*
X128571752Y-59130600D01*
X128571752Y-59321076D01*
X128619371Y-59416314D01*
X128666990Y-59463933D01*
X128762228Y-59511552D01*
X128952704Y-59511552D01*
X129047942Y-59463933D01*
X129095561Y-59416314D01*
X129143180Y-59321076D01*
X129143180Y-59130600D01*
X129095561Y-59035361D01*
X129047942Y-58987742D01*
X128952704Y-58940123D01*
X128762228Y-58940123D01*
X128666990Y-58987742D01*
X128619371Y-59035361D01*
X128571752Y-59130600D01*
X122240800Y-60130600D02*
X127940800Y-60130600D01*
X99290800Y-122680600D02*
X99290800Y-116980600D01*
X121093180Y-73328219D02*
X120616990Y-73661552D01*
X121093180Y-73899647D02*
X120093180Y-73899647D01*
X120093180Y-73518695D01*
X120140800Y-73423457D01*
X120188419Y-73375838D01*
X120283657Y-73328219D01*
X120426514Y-73328219D01*
X120521752Y-73375838D01*
X120569371Y-73423457D01*
X120616990Y-73518695D01*
X120616990Y-73899647D01*
X121093180Y-72994885D02*
X120426514Y-72471076D01*
X120426514Y-72994885D02*
X121093180Y-72471076D01*
X121093180Y-71566314D02*
X121093180Y-72137742D01*
X121093180Y-71852028D02*
X120093180Y-71852028D01*
X120236038Y-71947266D01*
X120331276Y-72042504D01*
X120378895Y-72137742D01*
X120093180Y-70947266D02*
X120093180Y-70852028D01*
X120140800Y-70756790D01*
X120188419Y-70709171D01*
X120283657Y-70661552D01*
X120474133Y-70613933D01*
X120712228Y-70613933D01*
X120902704Y-70661552D01*
X120997942Y-70709171D01*
X121045561Y-70756790D01*
X121093180Y-70852028D01*
X121093180Y-70947266D01*
X121045561Y-71042504D01*
X120997942Y-71090123D01*
X120902704Y-71137742D01*
X120712228Y-71185361D01*
X120474133Y-71185361D01*
X120283657Y-71137742D01*
X120188419Y-71090123D01*
X120140800Y-71042504D01*
X120093180Y-70947266D01*
X99693180Y-73328219D02*
X99216990Y-73661552D01*
X99693180Y-73899647D02*
X98693180Y-73899647D01*
X98693180Y-73518695D01*
X98740800Y-73423457D01*
X98788419Y-73375838D01*
X98883657Y-73328219D01*
X99026514Y-73328219D01*
X99121752Y-73375838D01*
X99169371Y-73423457D01*
X99216990Y-73518695D01*
X99216990Y-73899647D01*
X99693180Y-72994885D02*
X99026514Y-72471076D01*
X99026514Y-72994885D02*
X99693180Y-72471076D01*
X99693180Y-71566314D02*
X99693180Y-72137742D01*
X99693180Y-71852028D02*
X98693180Y-71852028D01*
X98836038Y-71947266D01*
X98931276Y-72042504D01*
X98978895Y-72137742D01*
X99693180Y-70613933D02*
X99693180Y-71185361D01*
X99693180Y-70899647D02*
X98693180Y-70899647D01*
X98836038Y-70994885D01*
X98931276Y-71090123D01*
X98978895Y-71185361D01*
X120590800Y-122680600D02*
X120590800Y-116980600D01*
X121143180Y-94678219D02*
X120666990Y-95011552D01*
X121143180Y-95249647D02*
X120143180Y-95249647D01*
X120143180Y-94868695D01*
X120190800Y-94773457D01*
X120238419Y-94725838D01*
X120333657Y-94678219D01*
X120476514Y-94678219D01*
X120571752Y-94725838D01*
X120619371Y-94773457D01*
X120666990Y-94868695D01*
X120666990Y-95249647D01*
X121143180Y-94344885D02*
X120476514Y-93821076D01*
X120476514Y-94344885D02*
X121143180Y-93821076D01*
X121143180Y-92916314D02*
X121143180Y-93487742D01*
X121143180Y-93202028D02*
X120143180Y-93202028D01*
X120286038Y-93297266D01*
X120381276Y-93392504D01*
X120428895Y-93487742D01*
X120143180Y-92582980D02*
X120143180Y-91963933D01*
X120524133Y-92297266D01*
X120524133Y-92154409D01*
X120571752Y-92059171D01*
X120619371Y-92011552D01*
X120714609Y-91963933D01*
X120952704Y-91963933D01*
X121047942Y-92011552D01*
X121095561Y-92059171D01*
X121143180Y-92154409D01*
X121143180Y-92440123D01*
X121095561Y-92535361D01*
X121047942Y-92582980D01*
X100990800Y-60280600D02*
X106690800Y-60280600D01*
X99290800Y-79980600D02*
X99290800Y-74280600D01*
X191293180Y-51852028D02*
X190816990Y-52185361D01*
X191293180Y-52423457D02*
X190293180Y-52423457D01*
X190293180Y-52042504D01*
X190340800Y-51947266D01*
X190388419Y-51899647D01*
X190483657Y-51852028D01*
X190626514Y-51852028D01*
X190721752Y-51899647D01*
X190769371Y-51947266D01*
X190816990Y-52042504D01*
X190816990Y-52423457D01*
X191293180Y-51518695D02*
X190626514Y-50994885D01*
X190626514Y-51518695D02*
X191293180Y-50994885D01*
X190293180Y-50709171D02*
X190293180Y-50042504D01*
X191293180Y-50471076D01*
X190890800Y-58530600D02*
X190890800Y-52830600D01*
X178243180Y-60902028D02*
X177766990Y-61235361D01*
X178243180Y-61473457D02*
X177243180Y-61473457D01*
X177243180Y-61092504D01*
X177290800Y-60997266D01*
X177338419Y-60949647D01*
X177433657Y-60902028D01*
X177576514Y-60902028D01*
X177671752Y-60949647D01*
X177719371Y-60997266D01*
X177766990Y-61092504D01*
X177766990Y-61473457D01*
X178243180Y-60568695D02*
X177576514Y-60044885D01*
X177576514Y-60568695D02*
X178243180Y-60044885D01*
X177243180Y-59235361D02*
X177243180Y-59425838D01*
X177290800Y-59521076D01*
X177338419Y-59568695D01*
X177481276Y-59663933D01*
X177671752Y-59711552D01*
X178052704Y-59711552D01*
X178147942Y-59663933D01*
X178195561Y-59616314D01*
X178243180Y-59521076D01*
X178243180Y-59330600D01*
X178195561Y-59235361D01*
X178147942Y-59187742D01*
X178052704Y-59140123D01*
X177814609Y-59140123D01*
X177719371Y-59187742D01*
X177671752Y-59235361D01*
X177624133Y-59330600D01*
X177624133Y-59521076D01*
X177671752Y-59616314D01*
X177719371Y-59663933D01*
X177814609Y-59711552D01*
X171240800Y-60330600D02*
X176940800Y-60330600D01*
X191243180Y-116052028D02*
X190766990Y-116385361D01*
X191243180Y-116623457D02*
X190243180Y-116623457D01*
X190243180Y-116242504D01*
X190290800Y-116147266D01*
X190338419Y-116099647D01*
X190433657Y-116052028D01*
X190576514Y-116052028D01*
X190671752Y-116099647D01*
X190719371Y-116147266D01*
X190766990Y-116242504D01*
X190766990Y-116623457D01*
X191243180Y-115718695D02*
X190576514Y-115194885D01*
X190576514Y-115718695D02*
X191243180Y-115194885D01*
X191243180Y-114290123D02*
X191243180Y-114861552D01*
X191243180Y-114575838D02*
X190243180Y-114575838D01*
X190386038Y-114671076D01*
X190481276Y-114766314D01*
X190528895Y-114861552D01*
X190840800Y-122730600D02*
X190840800Y-117030600D01*
X169943180Y-116052028D02*
X169466990Y-116385361D01*
X169943180Y-116623457D02*
X168943180Y-116623457D01*
X168943180Y-116242504D01*
X168990800Y-116147266D01*
X169038419Y-116099647D01*
X169133657Y-116052028D01*
X169276514Y-116052028D01*
X169371752Y-116099647D01*
X169419371Y-116147266D01*
X169466990Y-116242504D01*
X169466990Y-116623457D01*
X169943180Y-115718695D02*
X169276514Y-115194885D01*
X169276514Y-115718695D02*
X169943180Y-115194885D01*
X168943180Y-114623457D02*
X168943180Y-114528219D01*
X168990800Y-114432980D01*
X169038419Y-114385361D01*
X169133657Y-114337742D01*
X169324133Y-114290123D01*
X169562228Y-114290123D01*
X169752704Y-114337742D01*
X169847942Y-114385361D01*
X169895561Y-114432980D01*
X169943180Y-114528219D01*
X169943180Y-114623457D01*
X169895561Y-114718695D01*
X169847942Y-114766314D01*
X169752704Y-114813933D01*
X169562228Y-114861552D01*
X169324133Y-114861552D01*
X169133657Y-114813933D01*
X169038419Y-114766314D01*
X168990800Y-114718695D01*
X168943180Y-114623457D01*
X169540800Y-122730600D02*
X169540800Y-117030600D01*
X191293180Y-73352028D02*
X190816990Y-73685361D01*
X191293180Y-73923457D02*
X190293180Y-73923457D01*
X190293180Y-73542504D01*
X190340800Y-73447266D01*
X190388419Y-73399647D01*
X190483657Y-73352028D01*
X190626514Y-73352028D01*
X190721752Y-73399647D01*
X190769371Y-73447266D01*
X190816990Y-73542504D01*
X190816990Y-73923457D01*
X191293180Y-73018695D02*
X190626514Y-72494885D01*
X190626514Y-73018695D02*
X191293180Y-72494885D01*
X190293180Y-71637742D02*
X190293180Y-72113933D01*
X190769371Y-72161552D01*
X190721752Y-72113933D01*
X190674133Y-72018695D01*
X190674133Y-71780600D01*
X190721752Y-71685361D01*
X190769371Y-71637742D01*
X190864609Y-71590123D01*
X191102704Y-71590123D01*
X191197942Y-71637742D01*
X191245561Y-71685361D01*
X191293180Y-71780600D01*
X191293180Y-72018695D01*
X191245561Y-72113933D01*
X191197942Y-72161552D01*
X190890800Y-80030600D02*
X190890800Y-74330600D01*
X169943180Y-73352028D02*
X169466990Y-73685361D01*
X169943180Y-73923457D02*
X168943180Y-73923457D01*
X168943180Y-73542504D01*
X168990800Y-73447266D01*
X169038419Y-73399647D01*
X169133657Y-73352028D01*
X169276514Y-73352028D01*
X169371752Y-73399647D01*
X169419371Y-73447266D01*
X169466990Y-73542504D01*
X169466990Y-73923457D01*
X169943180Y-73018695D02*
X169276514Y-72494885D01*
X169276514Y-73018695D02*
X169943180Y-72494885D01*
X169276514Y-71685361D02*
X169943180Y-71685361D01*
X168895561Y-71923457D02*
X169609847Y-72161552D01*
X169609847Y-71542504D01*
X169540800Y-80030600D02*
X169540800Y-74330600D01*
X169993180Y-94702028D02*
X169516990Y-95035361D01*
X169993180Y-95273457D02*
X168993180Y-95273457D01*
X168993180Y-94892504D01*
X169040800Y-94797266D01*
X169088419Y-94749647D01*
X169183657Y-94702028D01*
X169326514Y-94702028D01*
X169421752Y-94749647D01*
X169469371Y-94797266D01*
X169516990Y-94892504D01*
X169516990Y-95273457D01*
X169993180Y-94368695D02*
X169326514Y-93844885D01*
X169326514Y-94368695D02*
X169993180Y-93844885D01*
X169088419Y-93511552D02*
X169040800Y-93463933D01*
X168993180Y-93368695D01*
X168993180Y-93130600D01*
X169040800Y-93035361D01*
X169088419Y-92987742D01*
X169183657Y-92940123D01*
X169278895Y-92940123D01*
X169421752Y-92987742D01*
X169993180Y-93559171D01*
X169993180Y-92940123D01*
X169590800Y-101380600D02*
X169590800Y-95680600D01*
X191393180Y-94652028D02*
X190916990Y-94985361D01*
X191393180Y-95223457D02*
X190393180Y-95223457D01*
X190393180Y-94842504D01*
X190440800Y-94747266D01*
X190488419Y-94699647D01*
X190583657Y-94652028D01*
X190726514Y-94652028D01*
X190821752Y-94699647D01*
X190869371Y-94747266D01*
X190916990Y-94842504D01*
X190916990Y-95223457D01*
X191393180Y-94318695D02*
X190726514Y-93794885D01*
X190726514Y-94318695D02*
X191393180Y-93794885D01*
X190393180Y-93509171D02*
X190393180Y-92890123D01*
X190774133Y-93223457D01*
X190774133Y-93080600D01*
X190821752Y-92985361D01*
X190869371Y-92937742D01*
X190964609Y-92890123D01*
X191202704Y-92890123D01*
X191297942Y-92937742D01*
X191345561Y-92985361D01*
X191393180Y-93080600D01*
X191393180Y-93366314D01*
X191345561Y-93461552D01*
X191297942Y-93509171D01*
X190990800Y-101330600D02*
X190990800Y-95630600D01*
X141790800Y-87544885D02*
X141886038Y-87640123D01*
X141790800Y-87735361D01*
X141695561Y-87640123D01*
X141790800Y-87544885D01*
X141790800Y-87735361D01*
X139910800Y-105464885D02*
X140006038Y-105560123D01*
X139910800Y-105655361D01*
X139815561Y-105560123D01*
X139910800Y-105464885D01*
X139910800Y-105655361D01*
X135252704Y-55532980D02*
X135824133Y-55532980D01*
X135538419Y-56532980D02*
X135538419Y-55532980D01*
X136062228Y-56532980D02*
X136586038Y-55866314D01*
X136062228Y-55866314D02*
X136586038Y-56532980D01*
X137681276Y-55485361D02*
X136824133Y-56771076D01*
X138586038Y-56532980D02*
X138252704Y-56056790D01*
X138014609Y-56532980D02*
X138014609Y-55532980D01*
X138395561Y-55532980D01*
X138490800Y-55580600D01*
X138538419Y-55628219D01*
X138586038Y-55723457D01*
X138586038Y-55866314D01*
X138538419Y-55961552D01*
X138490800Y-56009171D01*
X138395561Y-56056790D01*
X138014609Y-56056790D01*
X138919371Y-56532980D02*
X139443180Y-55866314D01*
X138919371Y-55866314D02*
X139443180Y-56532980D01*
X141157466Y-56437742D02*
X141109847Y-56485361D01*
X140966990Y-56532980D01*
X140871752Y-56532980D01*
X140728895Y-56485361D01*
X140633657Y-56390123D01*
X140586038Y-56294885D01*
X140538419Y-56104409D01*
X140538419Y-55961552D01*
X140586038Y-55771076D01*
X140633657Y-55675838D01*
X140728895Y-55580600D01*
X140871752Y-55532980D01*
X140966990Y-55532980D01*
X141109847Y-55580600D01*
X141157466Y-55628219D01*
X141966990Y-56485361D02*
X141871752Y-56532980D01*
X141681276Y-56532980D01*
X141586038Y-56485361D01*
X141538419Y-56390123D01*
X141538419Y-56009171D01*
X141586038Y-55913933D01*
X141681276Y-55866314D01*
X141871752Y-55866314D01*
X141966990Y-55913933D01*
X142014609Y-56009171D01*
X142014609Y-56104409D01*
X141538419Y-56199647D01*
X142443180Y-55866314D02*
X142443180Y-56532980D01*
X142443180Y-55961552D02*
X142490800Y-55913933D01*
X142586038Y-55866314D01*
X142728895Y-55866314D01*
X142824133Y-55913933D01*
X142871752Y-56009171D01*
X142871752Y-56532980D01*
X143205085Y-55866314D02*
X143586038Y-55866314D01*
X143347942Y-55532980D02*
X143347942Y-56390123D01*
X143395561Y-56485361D01*
X143490800Y-56532980D01*
X143586038Y-56532980D01*
X143919371Y-56532980D02*
X143919371Y-55866314D01*
X143919371Y-56056790D02*
X143966990Y-55961552D01*
X144014609Y-55913933D01*
X144109847Y-55866314D01*
X144205085Y-55866314D01*
X144966990Y-56532980D02*
X144966990Y-56009171D01*
X144919371Y-55913933D01*
X144824133Y-55866314D01*
X144633657Y-55866314D01*
X144538419Y-55913933D01*
X144966990Y-56485361D02*
X144871752Y-56532980D01*
X144633657Y-56532980D01*
X144538419Y-56485361D01*
X144490800Y-56390123D01*
X144490800Y-56294885D01*
X144538419Y-56199647D01*
X144633657Y-56152028D01*
X144871752Y-56152028D01*
X144966990Y-56104409D01*
X145586038Y-56532980D02*
X145490800Y-56485361D01*
X145443180Y-56390123D01*
X145443180Y-55532980D01*
X147062228Y-56009171D02*
X147205085Y-56056790D01*
X147252704Y-56104409D01*
X147300323Y-56199647D01*
X147300323Y-56342504D01*
X147252704Y-56437742D01*
X147205085Y-56485361D01*
X147109847Y-56532980D01*
X146728895Y-56532980D01*
X146728895Y-55532980D01*
X147062228Y-55532980D01*
X147157466Y-55580600D01*
X147205085Y-55628219D01*
X147252704Y-55723457D01*
X147252704Y-55818695D01*
X147205085Y-55913933D01*
X147157466Y-55961552D01*
X147062228Y-56009171D01*
X146728895Y-56009171D01*
X147871752Y-56532980D02*
X147776514Y-56485361D01*
X147728895Y-56437742D01*
X147681276Y-56342504D01*
X147681276Y-56056790D01*
X147728895Y-55961552D01*
X147776514Y-55913933D01*
X147871752Y-55866314D01*
X148014609Y-55866314D01*
X148109847Y-55913933D01*
X148157466Y-55961552D01*
X148205085Y-56056790D01*
X148205085Y-56342504D01*
X148157466Y-56437742D01*
X148109847Y-56485361D01*
X148014609Y-56532980D01*
X147871752Y-56532980D01*
X149062228Y-56532980D02*
X149062228Y-56009171D01*
X149014609Y-55913933D01*
X148919371Y-55866314D01*
X148728895Y-55866314D01*
X148633657Y-55913933D01*
X149062228Y-56485361D02*
X148966990Y-56532980D01*
X148728895Y-56532980D01*
X148633657Y-56485361D01*
X148586038Y-56390123D01*
X148586038Y-56294885D01*
X148633657Y-56199647D01*
X148728895Y-56152028D01*
X148966990Y-56152028D01*
X149062228Y-56104409D01*
X149538419Y-56532980D02*
X149538419Y-55866314D01*
X149538419Y-56056790D02*
X149586038Y-55961552D01*
X149633657Y-55913933D01*
X149728895Y-55866314D01*
X149824133Y-55866314D01*
X150586038Y-56532980D02*
X150586038Y-55532980D01*
X150586038Y-56485361D02*
X150490800Y-56532980D01*
X150300323Y-56532980D01*
X150205085Y-56485361D01*
X150157466Y-56437742D01*
X150109847Y-56342504D01*
X150109847Y-56056790D01*
X150157466Y-55961552D01*
X150205085Y-55913933D01*
X150300323Y-55866314D01*
X150490800Y-55866314D01*
X150586038Y-55913933D01*
X151681276Y-55532980D02*
X152014609Y-56532980D01*
X152347942Y-55532980D01*
X152633657Y-55628219D02*
X152681276Y-55580600D01*
X152776514Y-55532980D01*
X153014609Y-55532980D01*
X153109847Y-55580600D01*
X153157466Y-55628219D01*
X153205085Y-55723457D01*
X153205085Y-55818695D01*
X153157466Y-55961552D01*
X152586038Y-56532980D01*
X153205085Y-56532980D01*
X153633657Y-56437742D02*
X153681276Y-56485361D01*
X153633657Y-56532980D01*
X153586038Y-56485361D01*
X153633657Y-56437742D01*
X153633657Y-56532980D01*
X154300323Y-55532980D02*
X154395561Y-55532980D01*
X154490800Y-55580600D01*
X154538419Y-55628219D01*
X154586038Y-55723457D01*
X154633657Y-55913933D01*
X154633657Y-56152028D01*
X154586038Y-56342504D01*
X154538419Y-56437742D01*
X154490800Y-56485361D01*
X154395561Y-56532980D01*
X154300323Y-56532980D01*
X154205085Y-56485361D01*
X154157466Y-56437742D01*
X154109847Y-56342504D01*
X154062228Y-56152028D01*
X154062228Y-55913933D01*
X154109847Y-55723457D01*
X154157466Y-55628219D01*
X154205085Y-55580600D01*
X154300323Y-55532980D01*
X134705085Y-57659171D02*
X134371752Y-57659171D01*
X134371752Y-58182980D02*
X134371752Y-57182980D01*
X134847942Y-57182980D01*
X135228895Y-58182980D02*
X135228895Y-57516314D01*
X135228895Y-57182980D02*
X135181276Y-57230600D01*
X135228895Y-57278219D01*
X135276514Y-57230600D01*
X135228895Y-57182980D01*
X135228895Y-57278219D01*
X135657466Y-58135361D02*
X135752704Y-58182980D01*
X135943180Y-58182980D01*
X136038419Y-58135361D01*
X136086038Y-58040123D01*
X136086038Y-57992504D01*
X136038419Y-57897266D01*
X135943180Y-57849647D01*
X135800323Y-57849647D01*
X135705085Y-57802028D01*
X135657466Y-57706790D01*
X135657466Y-57659171D01*
X135705085Y-57563933D01*
X135800323Y-57516314D01*
X135943180Y-57516314D01*
X136038419Y-57563933D01*
X136514609Y-58182980D02*
X136514609Y-57182980D01*
X136943180Y-58182980D02*
X136943180Y-57659171D01*
X136895561Y-57563933D01*
X136800323Y-57516314D01*
X136657466Y-57516314D01*
X136562228Y-57563933D01*
X136514609Y-57611552D01*
X138990800Y-58182980D02*
X138943180Y-58182980D01*
X138847942Y-58135361D01*
X138705085Y-57992504D01*
X138466990Y-57706790D01*
X138371752Y-57563933D01*
X138324133Y-57421076D01*
X138324133Y-57325838D01*
X138371752Y-57230600D01*
X138466990Y-57182980D01*
X138514609Y-57182980D01*
X138609847Y-57230600D01*
X138657466Y-57325838D01*
X138657466Y-57373457D01*
X138609847Y-57468695D01*
X138562228Y-57516314D01*
X138276514Y-57706790D01*
X138228895Y-57754409D01*
X138181276Y-57849647D01*
X138181276Y-57992504D01*
X138228895Y-58087742D01*
X138276514Y-58135361D01*
X138371752Y-58182980D01*
X138514609Y-58182980D01*
X138609847Y-58135361D01*
X138657466Y-58087742D01*
X138800323Y-57897266D01*
X138847942Y-57754409D01*
X138847942Y-57659171D01*
X140752704Y-58087742D02*
X140705085Y-58135361D01*
X140562228Y-58182980D01*
X140466990Y-58182980D01*
X140324133Y-58135361D01*
X140228895Y-58040123D01*
X140181276Y-57944885D01*
X140133657Y-57754409D01*
X140133657Y-57611552D01*
X140181276Y-57421076D01*
X140228895Y-57325838D01*
X140324133Y-57230600D01*
X140466990Y-57182980D01*
X140562228Y-57182980D01*
X140705085Y-57230600D01*
X140752704Y-57278219D01*
X141181276Y-58182980D02*
X141181276Y-57182980D01*
X141609847Y-58182980D02*
X141609847Y-57659171D01*
X141562228Y-57563933D01*
X141466990Y-57516314D01*
X141324133Y-57516314D01*
X141228895Y-57563933D01*
X141181276Y-57611552D01*
X142086038Y-58182980D02*
X142086038Y-57516314D01*
X142086038Y-57182980D02*
X142038419Y-57230600D01*
X142086038Y-57278219D01*
X142133657Y-57230600D01*
X142086038Y-57182980D01*
X142086038Y-57278219D01*
X142562228Y-57516314D02*
X142562228Y-58516314D01*
X142562228Y-57563933D02*
X142657466Y-57516314D01*
X142847942Y-57516314D01*
X142943180Y-57563933D01*
X142990800Y-57611552D01*
X143038419Y-57706790D01*
X143038419Y-57992504D01*
X142990800Y-58087742D01*
X142943180Y-58135361D01*
X142847942Y-58182980D01*
X142657466Y-58182980D01*
X142562228Y-58135361D01*
X143419371Y-58135361D02*
X143514609Y-58182980D01*
X143705085Y-58182980D01*
X143800323Y-58135361D01*
X143847942Y-58040123D01*
X143847942Y-57992504D01*
X143800323Y-57897266D01*
X143705085Y-57849647D01*
X143562228Y-57849647D01*
X143466990Y-57802028D01*
X143419371Y-57706790D01*
X143419371Y-57659171D01*
X143466990Y-57563933D01*
X143562228Y-57516314D01*
X143705085Y-57516314D01*
X143800323Y-57563933D01*
X144324133Y-58135361D02*
X144324133Y-58182980D01*
X144276514Y-58278219D01*
X144228895Y-58325838D01*
X145466990Y-58135361D02*
X145609847Y-58182980D01*
X145847942Y-58182980D01*
X145943180Y-58135361D01*
X145990800Y-58087742D01*
X146038419Y-57992504D01*
X146038419Y-57897266D01*
X145990800Y-57802028D01*
X145943180Y-57754409D01*
X145847942Y-57706790D01*
X145657466Y-57659171D01*
X145562228Y-57611552D01*
X145514609Y-57563933D01*
X145466990Y-57468695D01*
X145466990Y-57373457D01*
X145514609Y-57278219D01*
X145562228Y-57230600D01*
X145657466Y-57182980D01*
X145895561Y-57182980D01*
X146038419Y-57230600D01*
X146895561Y-57516314D02*
X146895561Y-58182980D01*
X146466990Y-57516314D02*
X146466990Y-58040123D01*
X146514609Y-58135361D01*
X146609847Y-58182980D01*
X146752704Y-58182980D01*
X146847942Y-58135361D01*
X146895561Y-58087742D01*
X147371752Y-58182980D02*
X147371752Y-57516314D01*
X147371752Y-57611552D02*
X147419371Y-57563933D01*
X147514609Y-57516314D01*
X147657466Y-57516314D01*
X147752704Y-57563933D01*
X147800323Y-57659171D01*
X147800323Y-58182980D01*
X147800323Y-57659171D02*
X147847942Y-57563933D01*
X147943180Y-57516314D01*
X148086038Y-57516314D01*
X148181276Y-57563933D01*
X148228895Y-57659171D01*
X148228895Y-58182980D01*
X148705085Y-58182980D02*
X148705085Y-57516314D01*
X148705085Y-57611552D02*
X148752704Y-57563933D01*
X148847942Y-57516314D01*
X148990800Y-57516314D01*
X149086038Y-57563933D01*
X149133657Y-57659171D01*
X149133657Y-58182980D01*
X149133657Y-57659171D02*
X149181276Y-57563933D01*
X149276514Y-57516314D01*
X149419371Y-57516314D01*
X149514609Y-57563933D01*
X149562228Y-57659171D01*
X149562228Y-58182980D01*
X150419371Y-58135361D02*
X150324133Y-58182980D01*
X150133657Y-58182980D01*
X150038419Y-58135361D01*
X149990800Y-58040123D01*
X149990800Y-57659171D01*
X150038419Y-57563933D01*
X150133657Y-57516314D01*
X150324133Y-57516314D01*
X150419371Y-57563933D01*
X150466990Y-57659171D01*
X150466990Y-57754409D01*
X149990800Y-57849647D01*
X150895561Y-58182980D02*
X150895561Y-57516314D01*
X150895561Y-57706790D02*
X150943180Y-57611552D01*
X150990800Y-57563933D01*
X151086038Y-57516314D01*
X151181276Y-57516314D01*
X152228895Y-57278219D02*
X152276514Y-57230600D01*
X152371752Y-57182980D01*
X152609847Y-57182980D01*
X152705085Y-57230600D01*
X152752704Y-57278219D01*
X152800323Y-57373457D01*
X152800323Y-57468695D01*
X152752704Y-57611552D01*
X152181276Y-58182980D01*
X152800323Y-58182980D01*
X153419371Y-57182980D02*
X153514609Y-57182980D01*
X153609847Y-57230600D01*
X153657466Y-57278219D01*
X153705085Y-57373457D01*
X153752704Y-57563933D01*
X153752704Y-57802028D01*
X153705085Y-57992504D01*
X153657466Y-58087742D01*
X153609847Y-58135361D01*
X153514609Y-58182980D01*
X153419371Y-58182980D01*
X153324133Y-58135361D01*
X153276514Y-58087742D01*
X153228895Y-57992504D01*
X153181276Y-57802028D01*
X153181276Y-57563933D01*
X153228895Y-57373457D01*
X153276514Y-57278219D01*
X153324133Y-57230600D01*
X153419371Y-57182980D01*
X154133657Y-57278219D02*
X154181276Y-57230600D01*
X154276514Y-57182980D01*
X154514609Y-57182980D01*
X154609847Y-57230600D01*
X154657466Y-57278219D01*
X154705085Y-57373457D01*
X154705085Y-57468695D01*
X154657466Y-57611552D01*
X154086038Y-58182980D01*
X154705085Y-58182980D01*
X155324133Y-57182980D02*
X155419371Y-57182980D01*
X155514609Y-57230600D01*
X155562228Y-57278219D01*
X155609847Y-57373457D01*
X155657466Y-57563933D01*
X155657466Y-57802028D01*
X155609847Y-57992504D01*
X155562228Y-58087742D01*
X155514609Y-58135361D01*
X155419371Y-58182980D01*
X155324133Y-58182980D01*
X155228895Y-58135361D01*
X155181276Y-58087742D01*
X155133657Y-57992504D01*
X155086038Y-57802028D01*
X155086038Y-57563933D01*
X155133657Y-57373457D01*
X155181276Y-57278219D01*
X155228895Y-57230600D01*
X155324133Y-57182980D01*
X141109847Y-58832980D02*
X141681276Y-58832980D01*
X141395561Y-59832980D02*
X141395561Y-58832980D01*
X142014609Y-59737742D02*
X142062228Y-59785361D01*
X142014609Y-59832980D01*
X141966990Y-59785361D01*
X142014609Y-59737742D01*
X142014609Y-59832980D01*
X143824133Y-59832980D02*
X143490800Y-59356790D01*
X143252704Y-59832980D02*
X143252704Y-58832980D01*
X143633657Y-58832980D01*
X143728895Y-58880600D01*
X143776514Y-58928219D01*
X143824133Y-59023457D01*
X143824133Y-59166314D01*
X143776514Y-59261552D01*
X143728895Y-59309171D01*
X143633657Y-59356790D01*
X143252704Y-59356790D01*
X144681276Y-59832980D02*
X144681276Y-59309171D01*
X144633657Y-59213933D01*
X144538419Y-59166314D01*
X144347942Y-59166314D01*
X144252704Y-59213933D01*
X144681276Y-59785361D02*
X144586038Y-59832980D01*
X144347942Y-59832980D01*
X144252704Y-59785361D01*
X144205085Y-59690123D01*
X144205085Y-59594885D01*
X144252704Y-59499647D01*
X144347942Y-59452028D01*
X144586038Y-59452028D01*
X144681276Y-59404409D01*
X145300323Y-59832980D02*
X145205085Y-59785361D01*
X145157466Y-59737742D01*
X145109847Y-59642504D01*
X145109847Y-59356790D01*
X145157466Y-59261552D01*
X145205085Y-59213933D01*
X145300323Y-59166314D01*
X145443180Y-59166314D01*
X145538419Y-59213933D01*
X145586038Y-59261552D01*
X145633657Y-59356790D01*
X145633657Y-59642504D01*
X145586038Y-59737742D01*
X145538419Y-59785361D01*
X145443180Y-59832980D01*
X145300323Y-59832980D01*
X146776514Y-58880600D02*
X146776514Y-58832980D01*
X146824133Y-58737742D01*
X146871752Y-58690123D01*
X147252704Y-58928219D02*
X147300323Y-58880600D01*
X147395561Y-58832980D01*
X147633657Y-58832980D01*
X147728895Y-58880600D01*
X147776514Y-58928219D01*
X147824133Y-59023457D01*
X147824133Y-59118695D01*
X147776514Y-59261552D01*
X147205085Y-59832980D01*
X147824133Y-59832980D01*
X148205085Y-58928219D02*
X148252704Y-58880600D01*
X148347942Y-58832980D01*
X148586038Y-58832980D01*
X148681276Y-58880600D01*
X148728895Y-58928219D01*
X148776514Y-59023457D01*
X148776514Y-59118695D01*
X148728895Y-59261552D01*
X148157466Y-59832980D01*
X148776514Y-59832980D01*
X199828895Y-48780600D02*
X199733657Y-48732980D01*
X199590800Y-48732980D01*
X199447942Y-48780600D01*
X199352704Y-48875838D01*
X199305085Y-48971076D01*
X199257466Y-49161552D01*
X199257466Y-49304409D01*
X199305085Y-49494885D01*
X199352704Y-49590123D01*
X199447942Y-49685361D01*
X199590800Y-49732980D01*
X199686038Y-49732980D01*
X199828895Y-49685361D01*
X199876514Y-49637742D01*
X199876514Y-49304409D01*
X199686038Y-49304409D01*
X200305085Y-49732980D02*
X200305085Y-48732980D01*
X200876514Y-49732980D01*
X200876514Y-48732980D01*
X201352704Y-49732980D02*
X201352704Y-48732980D01*
X201590800Y-48732980D01*
X201733657Y-48780600D01*
X201828895Y-48875838D01*
X201876514Y-48971076D01*
X201924133Y-49161552D01*
X201924133Y-49304409D01*
X201876514Y-49494885D01*
X201828895Y-49590123D01*
X201733657Y-49685361D01*
X201590800Y-49732980D01*
X201352704Y-49732980D01*
X200402704Y-52347266D02*
X200878895Y-52347266D01*
X200307466Y-52632980D02*
X200640800Y-51632980D01*
X200974133Y-52632980D01*
X201640800Y-52109171D02*
X201783657Y-52156790D01*
X201831276Y-52204409D01*
X201878895Y-52299647D01*
X201878895Y-52442504D01*
X201831276Y-52537742D01*
X201783657Y-52585361D01*
X201688419Y-52632980D01*
X201307466Y-52632980D01*
X201307466Y-51632980D01*
X201640800Y-51632980D01*
X201736038Y-51680600D01*
X201783657Y-51728219D01*
X201831276Y-51823457D01*
X201831276Y-51918695D01*
X201783657Y-52013933D01*
X201736038Y-52061552D01*
X201640800Y-52109171D01*
X201307466Y-52109171D01*
X114302380Y-50214285D02*
X113302380Y-50214285D01*
X113302380Y-49833333D01*
X113350000Y-49738095D01*
X113397619Y-49690476D01*
X113492857Y-49642857D01*
X113635714Y-49642857D01*
X113730952Y-49690476D01*
X113778571Y-49738095D01*
X113826190Y-49833333D01*
X113826190Y-50214285D01*
X114302380Y-48690476D02*
X114302380Y-49261904D01*
X114302380Y-48976190D02*
X113302380Y-48976190D01*
X113445238Y-49071428D01*
X113540476Y-49166666D01*
X113588095Y-49261904D01*
X113302380Y-48357142D02*
X113302380Y-47738095D01*
X113683333Y-48071428D01*
X113683333Y-47928571D01*
X113730952Y-47833333D01*
X113778571Y-47785714D01*
X113873809Y-47738095D01*
X114111904Y-47738095D01*
X114207142Y-47785714D01*
X114254761Y-47833333D01*
X114302380Y-47928571D01*
X114302380Y-48214285D01*
X114254761Y-48309523D01*
X114207142Y-48357142D01*
X110850000Y-49811904D02*
X110802380Y-49907142D01*
X110802380Y-50050000D01*
X110850000Y-50192857D01*
X110945238Y-50288095D01*
X111040476Y-50335714D01*
X111230952Y-50383333D01*
X111373809Y-50383333D01*
X111564285Y-50335714D01*
X111659523Y-50288095D01*
X111754761Y-50192857D01*
X111802380Y-50050000D01*
X111802380Y-49954761D01*
X111754761Y-49811904D01*
X111707142Y-49764285D01*
X111373809Y-49764285D01*
X111373809Y-49954761D01*
X111802380Y-49335714D02*
X110802380Y-49335714D01*
X111802380Y-48764285D01*
X110802380Y-48764285D01*
X111802380Y-48288095D02*
X110802380Y-48288095D01*
X110802380Y-48050000D01*
X110850000Y-47907142D01*
X110945238Y-47811904D01*
X111040476Y-47764285D01*
X111230952Y-47716666D01*
X111373809Y-47716666D01*
X111564285Y-47764285D01*
X111659523Y-47811904D01*
X111754761Y-47907142D01*
X111802380Y-48050000D01*
X111802380Y-48288095D01*
X105750000Y-49811904D02*
X105702380Y-49907142D01*
X105702380Y-50050000D01*
X105750000Y-50192857D01*
X105845238Y-50288095D01*
X105940476Y-50335714D01*
X106130952Y-50383333D01*
X106273809Y-50383333D01*
X106464285Y-50335714D01*
X106559523Y-50288095D01*
X106654761Y-50192857D01*
X106702380Y-50050000D01*
X106702380Y-49954761D01*
X106654761Y-49811904D01*
X106607142Y-49764285D01*
X106273809Y-49764285D01*
X106273809Y-49954761D01*
X106702380Y-49335714D02*
X105702380Y-49335714D01*
X106702380Y-48764285D01*
X105702380Y-48764285D01*
X106702380Y-48288095D02*
X105702380Y-48288095D01*
X105702380Y-48050000D01*
X105750000Y-47907142D01*
X105845238Y-47811904D01*
X105940476Y-47764285D01*
X106130952Y-47716666D01*
X106273809Y-47716666D01*
X106464285Y-47764285D01*
X106559523Y-47811904D01*
X106654761Y-47907142D01*
X106702380Y-48050000D01*
X106702380Y-48288095D01*
X104102380Y-50264285D02*
X103102380Y-50264285D01*
X103102380Y-49883333D01*
X103150000Y-49788095D01*
X103197619Y-49740476D01*
X103292857Y-49692857D01*
X103435714Y-49692857D01*
X103530952Y-49740476D01*
X103578571Y-49788095D01*
X103626190Y-49883333D01*
X103626190Y-50264285D01*
X104102380Y-48740476D02*
X104102380Y-49311904D01*
X104102380Y-49026190D02*
X103102380Y-49026190D01*
X103245238Y-49121428D01*
X103340476Y-49216666D01*
X103388095Y-49311904D01*
X103102380Y-47835714D02*
X103102380Y-48311904D01*
X103578571Y-48359523D01*
X103530952Y-48311904D01*
X103483333Y-48216666D01*
X103483333Y-47978571D01*
X103530952Y-47883333D01*
X103578571Y-47835714D01*
X103673809Y-47788095D01*
X103911904Y-47788095D01*
X104007142Y-47835714D01*
X104054761Y-47883333D01*
X104102380Y-47978571D01*
X104102380Y-48216666D01*
X104054761Y-48311904D01*
X104007142Y-48359523D01*
X100650000Y-49811904D02*
X100602380Y-49907142D01*
X100602380Y-50050000D01*
X100650000Y-50192857D01*
X100745238Y-50288095D01*
X100840476Y-50335714D01*
X101030952Y-50383333D01*
X101173809Y-50383333D01*
X101364285Y-50335714D01*
X101459523Y-50288095D01*
X101554761Y-50192857D01*
X101602380Y-50050000D01*
X101602380Y-49954761D01*
X101554761Y-49811904D01*
X101507142Y-49764285D01*
X101173809Y-49764285D01*
X101173809Y-49954761D01*
X101602380Y-49335714D02*
X100602380Y-49335714D01*
X101602380Y-48764285D01*
X100602380Y-48764285D01*
X101602380Y-48288095D02*
X100602380Y-48288095D01*
X100602380Y-48050000D01*
X100650000Y-47907142D01*
X100745238Y-47811904D01*
X100840476Y-47764285D01*
X101030952Y-47716666D01*
X101173809Y-47716666D01*
X101364285Y-47764285D01*
X101459523Y-47811904D01*
X101554761Y-47907142D01*
X101602380Y-48050000D01*
X101602380Y-48288095D01*
X115950000Y-49811904D02*
X115902380Y-49907142D01*
X115902380Y-50050000D01*
X115950000Y-50192857D01*
X116045238Y-50288095D01*
X116140476Y-50335714D01*
X116330952Y-50383333D01*
X116473809Y-50383333D01*
X116664285Y-50335714D01*
X116759523Y-50288095D01*
X116854761Y-50192857D01*
X116902380Y-50050000D01*
X116902380Y-49954761D01*
X116854761Y-49811904D01*
X116807142Y-49764285D01*
X116473809Y-49764285D01*
X116473809Y-49954761D01*
X116902380Y-49335714D02*
X115902380Y-49335714D01*
X116902380Y-48764285D01*
X115902380Y-48764285D01*
X116902380Y-48288095D02*
X115902380Y-48288095D01*
X115902380Y-48050000D01*
X115950000Y-47907142D01*
X116045238Y-47811904D01*
X116140476Y-47764285D01*
X116330952Y-47716666D01*
X116473809Y-47716666D01*
X116664285Y-47764285D01*
X116759523Y-47811904D01*
X116854761Y-47907142D01*
X116902380Y-48050000D01*
X116902380Y-48288095D01*
X109202380Y-50264285D02*
X108202380Y-50264285D01*
X108202380Y-49883333D01*
X108250000Y-49788095D01*
X108297619Y-49740476D01*
X108392857Y-49692857D01*
X108535714Y-49692857D01*
X108630952Y-49740476D01*
X108678571Y-49788095D01*
X108726190Y-49883333D01*
X108726190Y-50264285D01*
X109202380Y-48740476D02*
X109202380Y-49311904D01*
X109202380Y-49026190D02*
X108202380Y-49026190D01*
X108345238Y-49121428D01*
X108440476Y-49216666D01*
X108488095Y-49311904D01*
X108535714Y-47883333D02*
X109202380Y-47883333D01*
X108154761Y-48121428D02*
X108869047Y-48359523D01*
X108869047Y-47740476D01*
X119402380Y-50214285D02*
X118402380Y-50214285D01*
X118402380Y-49833333D01*
X118450000Y-49738095D01*
X118497619Y-49690476D01*
X118592857Y-49642857D01*
X118735714Y-49642857D01*
X118830952Y-49690476D01*
X118878571Y-49738095D01*
X118926190Y-49833333D01*
X118926190Y-50214285D01*
X119402380Y-48690476D02*
X119402380Y-49261904D01*
X119402380Y-48976190D02*
X118402380Y-48976190D01*
X118545238Y-49071428D01*
X118640476Y-49166666D01*
X118688095Y-49261904D01*
X118497619Y-48309523D02*
X118450000Y-48261904D01*
X118402380Y-48166666D01*
X118402380Y-47928571D01*
X118450000Y-47833333D01*
X118497619Y-47785714D01*
X118592857Y-47738095D01*
X118688095Y-47738095D01*
X118830952Y-47785714D01*
X119402380Y-48357142D01*
X119402380Y-47738095D01*
X137602380Y-49288095D02*
X136602380Y-49288095D01*
X136602380Y-48907142D01*
X136650000Y-48811904D01*
X136697619Y-48764285D01*
X136792857Y-48716666D01*
X136935714Y-48716666D01*
X137030952Y-48764285D01*
X137078571Y-48811904D01*
X137126190Y-48907142D01*
X137126190Y-49288095D01*
X137602380Y-48240476D02*
X137602380Y-48050000D01*
X137554761Y-47954761D01*
X137507142Y-47907142D01*
X137364285Y-47811904D01*
X137173809Y-47764285D01*
X136792857Y-47764285D01*
X136697619Y-47811904D01*
X136650000Y-47859523D01*
X136602380Y-47954761D01*
X136602380Y-48145238D01*
X136650000Y-48240476D01*
X136697619Y-48288095D01*
X136792857Y-48335714D01*
X137030952Y-48335714D01*
X137126190Y-48288095D01*
X137173809Y-48240476D01*
X137221428Y-48145238D01*
X137221428Y-47954761D01*
X137173809Y-47859523D01*
X137126190Y-47811904D01*
X137030952Y-47764285D01*
X134150000Y-49761904D02*
X134102380Y-49857142D01*
X134102380Y-50000000D01*
X134150000Y-50142857D01*
X134245238Y-50238095D01*
X134340476Y-50285714D01*
X134530952Y-50333333D01*
X134673809Y-50333333D01*
X134864285Y-50285714D01*
X134959523Y-50238095D01*
X135054761Y-50142857D01*
X135102380Y-50000000D01*
X135102380Y-49904761D01*
X135054761Y-49761904D01*
X135007142Y-49714285D01*
X134673809Y-49714285D01*
X134673809Y-49904761D01*
X135102380Y-49285714D02*
X134102380Y-49285714D01*
X135102380Y-48714285D01*
X134102380Y-48714285D01*
X135102380Y-48238095D02*
X134102380Y-48238095D01*
X134102380Y-48000000D01*
X134150000Y-47857142D01*
X134245238Y-47761904D01*
X134340476Y-47714285D01*
X134530952Y-47666666D01*
X134673809Y-47666666D01*
X134864285Y-47714285D01*
X134959523Y-47761904D01*
X135054761Y-47857142D01*
X135102380Y-48000000D01*
X135102380Y-48238095D01*
X129050000Y-49761904D02*
X129002380Y-49857142D01*
X129002380Y-50000000D01*
X129050000Y-50142857D01*
X129145238Y-50238095D01*
X129240476Y-50285714D01*
X129430952Y-50333333D01*
X129573809Y-50333333D01*
X129764285Y-50285714D01*
X129859523Y-50238095D01*
X129954761Y-50142857D01*
X130002380Y-50000000D01*
X130002380Y-49904761D01*
X129954761Y-49761904D01*
X129907142Y-49714285D01*
X129573809Y-49714285D01*
X129573809Y-49904761D01*
X130002380Y-49285714D02*
X129002380Y-49285714D01*
X130002380Y-48714285D01*
X129002380Y-48714285D01*
X130002380Y-48238095D02*
X129002380Y-48238095D01*
X129002380Y-48000000D01*
X129050000Y-47857142D01*
X129145238Y-47761904D01*
X129240476Y-47714285D01*
X129430952Y-47666666D01*
X129573809Y-47666666D01*
X129764285Y-47714285D01*
X129859523Y-47761904D01*
X129954761Y-47857142D01*
X130002380Y-48000000D01*
X130002380Y-48238095D01*
X127402380Y-50164285D02*
X126402380Y-50164285D01*
X126402380Y-49783333D01*
X126450000Y-49688095D01*
X126497619Y-49640476D01*
X126592857Y-49592857D01*
X126735714Y-49592857D01*
X126830952Y-49640476D01*
X126878571Y-49688095D01*
X126926190Y-49783333D01*
X126926190Y-50164285D01*
X127402380Y-48640476D02*
X127402380Y-49211904D01*
X127402380Y-48926190D02*
X126402380Y-48926190D01*
X126545238Y-49021428D01*
X126640476Y-49116666D01*
X126688095Y-49211904D01*
X127402380Y-47688095D02*
X127402380Y-48259523D01*
X127402380Y-47973809D02*
X126402380Y-47973809D01*
X126545238Y-48069047D01*
X126640476Y-48164285D01*
X126688095Y-48259523D01*
X123950000Y-49761904D02*
X123902380Y-49857142D01*
X123902380Y-50000000D01*
X123950000Y-50142857D01*
X124045238Y-50238095D01*
X124140476Y-50285714D01*
X124330952Y-50333333D01*
X124473809Y-50333333D01*
X124664285Y-50285714D01*
X124759523Y-50238095D01*
X124854761Y-50142857D01*
X124902380Y-50000000D01*
X124902380Y-49904761D01*
X124854761Y-49761904D01*
X124807142Y-49714285D01*
X124473809Y-49714285D01*
X124473809Y-49904761D01*
X124902380Y-49285714D02*
X123902380Y-49285714D01*
X124902380Y-48714285D01*
X123902380Y-48714285D01*
X124902380Y-48238095D02*
X123902380Y-48238095D01*
X123902380Y-48000000D01*
X123950000Y-47857142D01*
X124045238Y-47761904D01*
X124140476Y-47714285D01*
X124330952Y-47666666D01*
X124473809Y-47666666D01*
X124664285Y-47714285D01*
X124759523Y-47761904D01*
X124854761Y-47857142D01*
X124902380Y-48000000D01*
X124902380Y-48238095D01*
X139250000Y-49761904D02*
X139202380Y-49857142D01*
X139202380Y-50000000D01*
X139250000Y-50142857D01*
X139345238Y-50238095D01*
X139440476Y-50285714D01*
X139630952Y-50333333D01*
X139773809Y-50333333D01*
X139964285Y-50285714D01*
X140059523Y-50238095D01*
X140154761Y-50142857D01*
X140202380Y-50000000D01*
X140202380Y-49904761D01*
X140154761Y-49761904D01*
X140107142Y-49714285D01*
X139773809Y-49714285D01*
X139773809Y-49904761D01*
X140202380Y-49285714D02*
X139202380Y-49285714D01*
X140202380Y-48714285D01*
X139202380Y-48714285D01*
X140202380Y-48238095D02*
X139202380Y-48238095D01*
X139202380Y-48000000D01*
X139250000Y-47857142D01*
X139345238Y-47761904D01*
X139440476Y-47714285D01*
X139630952Y-47666666D01*
X139773809Y-47666666D01*
X139964285Y-47714285D01*
X140059523Y-47761904D01*
X140154761Y-47857142D01*
X140202380Y-48000000D01*
X140202380Y-48238095D01*
X132552380Y-50114285D02*
X131552380Y-50114285D01*
X131552380Y-49733333D01*
X131600000Y-49638095D01*
X131647619Y-49590476D01*
X131742857Y-49542857D01*
X131885714Y-49542857D01*
X131980952Y-49590476D01*
X132028571Y-49638095D01*
X132076190Y-49733333D01*
X132076190Y-50114285D01*
X132552380Y-48590476D02*
X132552380Y-49161904D01*
X132552380Y-48876190D02*
X131552380Y-48876190D01*
X131695238Y-48971428D01*
X131790476Y-49066666D01*
X131838095Y-49161904D01*
X131552380Y-47971428D02*
X131552380Y-47876190D01*
X131600000Y-47780952D01*
X131647619Y-47733333D01*
X131742857Y-47685714D01*
X131933333Y-47638095D01*
X132171428Y-47638095D01*
X132361904Y-47685714D01*
X132457142Y-47733333D01*
X132504761Y-47780952D01*
X132552380Y-47876190D01*
X132552380Y-47971428D01*
X132504761Y-48066666D01*
X132457142Y-48114285D01*
X132361904Y-48161904D01*
X132171428Y-48209523D01*
X131933333Y-48209523D01*
X131742857Y-48161904D01*
X131647619Y-48114285D01*
X131600000Y-48066666D01*
X131552380Y-47971428D01*
X142702380Y-49288095D02*
X141702380Y-49288095D01*
X141702380Y-48907142D01*
X141750000Y-48811904D01*
X141797619Y-48764285D01*
X141892857Y-48716666D01*
X142035714Y-48716666D01*
X142130952Y-48764285D01*
X142178571Y-48811904D01*
X142226190Y-48907142D01*
X142226190Y-49288095D01*
X142130952Y-48145238D02*
X142083333Y-48240476D01*
X142035714Y-48288095D01*
X141940476Y-48335714D01*
X141892857Y-48335714D01*
X141797619Y-48288095D01*
X141750000Y-48240476D01*
X141702380Y-48145238D01*
X141702380Y-47954761D01*
X141750000Y-47859523D01*
X141797619Y-47811904D01*
X141892857Y-47764285D01*
X141940476Y-47764285D01*
X142035714Y-47811904D01*
X142083333Y-47859523D01*
X142130952Y-47954761D01*
X142130952Y-48145238D01*
X142178571Y-48240476D01*
X142226190Y-48288095D01*
X142321428Y-48335714D01*
X142511904Y-48335714D01*
X142607142Y-48288095D01*
X142654761Y-48240476D01*
X142702380Y-48145238D01*
X142702380Y-47954761D01*
X142654761Y-47859523D01*
X142607142Y-47811904D01*
X142511904Y-47764285D01*
X142321428Y-47764285D01*
X142226190Y-47811904D01*
X142178571Y-47859523D01*
X142130952Y-47954761D01*
X161052380Y-49288095D02*
X160052380Y-49288095D01*
X160052380Y-48907142D01*
X160100000Y-48811904D01*
X160147619Y-48764285D01*
X160242857Y-48716666D01*
X160385714Y-48716666D01*
X160480952Y-48764285D01*
X160528571Y-48811904D01*
X160576190Y-48907142D01*
X160576190Y-49288095D01*
X160052380Y-47811904D02*
X160052380Y-48288095D01*
X160528571Y-48335714D01*
X160480952Y-48288095D01*
X160433333Y-48192857D01*
X160433333Y-47954761D01*
X160480952Y-47859523D01*
X160528571Y-47811904D01*
X160623809Y-47764285D01*
X160861904Y-47764285D01*
X160957142Y-47811904D01*
X161004761Y-47859523D01*
X161052380Y-47954761D01*
X161052380Y-48192857D01*
X161004761Y-48288095D01*
X160957142Y-48335714D01*
X157600000Y-49761904D02*
X157552380Y-49857142D01*
X157552380Y-50000000D01*
X157600000Y-50142857D01*
X157695238Y-50238095D01*
X157790476Y-50285714D01*
X157980952Y-50333333D01*
X158123809Y-50333333D01*
X158314285Y-50285714D01*
X158409523Y-50238095D01*
X158504761Y-50142857D01*
X158552380Y-50000000D01*
X158552380Y-49904761D01*
X158504761Y-49761904D01*
X158457142Y-49714285D01*
X158123809Y-49714285D01*
X158123809Y-49904761D01*
X158552380Y-49285714D02*
X157552380Y-49285714D01*
X158552380Y-48714285D01*
X157552380Y-48714285D01*
X158552380Y-48238095D02*
X157552380Y-48238095D01*
X157552380Y-48000000D01*
X157600000Y-47857142D01*
X157695238Y-47761904D01*
X157790476Y-47714285D01*
X157980952Y-47666666D01*
X158123809Y-47666666D01*
X158314285Y-47714285D01*
X158409523Y-47761904D01*
X158504761Y-47857142D01*
X158552380Y-48000000D01*
X158552380Y-48238095D01*
X152500000Y-49761904D02*
X152452380Y-49857142D01*
X152452380Y-50000000D01*
X152500000Y-50142857D01*
X152595238Y-50238095D01*
X152690476Y-50285714D01*
X152880952Y-50333333D01*
X153023809Y-50333333D01*
X153214285Y-50285714D01*
X153309523Y-50238095D01*
X153404761Y-50142857D01*
X153452380Y-50000000D01*
X153452380Y-49904761D01*
X153404761Y-49761904D01*
X153357142Y-49714285D01*
X153023809Y-49714285D01*
X153023809Y-49904761D01*
X153452380Y-49285714D02*
X152452380Y-49285714D01*
X153452380Y-48714285D01*
X152452380Y-48714285D01*
X153452380Y-48238095D02*
X152452380Y-48238095D01*
X152452380Y-48000000D01*
X152500000Y-47857142D01*
X152595238Y-47761904D01*
X152690476Y-47714285D01*
X152880952Y-47666666D01*
X153023809Y-47666666D01*
X153214285Y-47714285D01*
X153309523Y-47761904D01*
X153404761Y-47857142D01*
X153452380Y-48000000D01*
X153452380Y-48238095D01*
X150852380Y-49288095D02*
X149852380Y-49288095D01*
X149852380Y-48907142D01*
X149900000Y-48811904D01*
X149947619Y-48764285D01*
X150042857Y-48716666D01*
X150185714Y-48716666D01*
X150280952Y-48764285D01*
X150328571Y-48811904D01*
X150376190Y-48907142D01*
X150376190Y-49288095D01*
X149852380Y-48383333D02*
X149852380Y-47716666D01*
X150852380Y-48145238D01*
X147400000Y-49761904D02*
X147352380Y-49857142D01*
X147352380Y-50000000D01*
X147400000Y-50142857D01*
X147495238Y-50238095D01*
X147590476Y-50285714D01*
X147780952Y-50333333D01*
X147923809Y-50333333D01*
X148114285Y-50285714D01*
X148209523Y-50238095D01*
X148304761Y-50142857D01*
X148352380Y-50000000D01*
X148352380Y-49904761D01*
X148304761Y-49761904D01*
X148257142Y-49714285D01*
X147923809Y-49714285D01*
X147923809Y-49904761D01*
X148352380Y-49285714D02*
X147352380Y-49285714D01*
X148352380Y-48714285D01*
X147352380Y-48714285D01*
X148352380Y-48238095D02*
X147352380Y-48238095D01*
X147352380Y-48000000D01*
X147400000Y-47857142D01*
X147495238Y-47761904D01*
X147590476Y-47714285D01*
X147780952Y-47666666D01*
X147923809Y-47666666D01*
X148114285Y-47714285D01*
X148209523Y-47761904D01*
X148304761Y-47857142D01*
X148352380Y-48000000D01*
X148352380Y-48238095D01*
X162700000Y-49761904D02*
X162652380Y-49857142D01*
X162652380Y-50000000D01*
X162700000Y-50142857D01*
X162795238Y-50238095D01*
X162890476Y-50285714D01*
X163080952Y-50333333D01*
X163223809Y-50333333D01*
X163414285Y-50285714D01*
X163509523Y-50238095D01*
X163604761Y-50142857D01*
X163652380Y-50000000D01*
X163652380Y-49904761D01*
X163604761Y-49761904D01*
X163557142Y-49714285D01*
X163223809Y-49714285D01*
X163223809Y-49904761D01*
X163652380Y-49285714D02*
X162652380Y-49285714D01*
X163652380Y-48714285D01*
X162652380Y-48714285D01*
X163652380Y-48238095D02*
X162652380Y-48238095D01*
X162652380Y-48000000D01*
X162700000Y-47857142D01*
X162795238Y-47761904D01*
X162890476Y-47714285D01*
X163080952Y-47666666D01*
X163223809Y-47666666D01*
X163414285Y-47714285D01*
X163509523Y-47761904D01*
X163604761Y-47857142D01*
X163652380Y-48000000D01*
X163652380Y-48238095D01*
X155952380Y-49288095D02*
X154952380Y-49288095D01*
X154952380Y-48907142D01*
X155000000Y-48811904D01*
X155047619Y-48764285D01*
X155142857Y-48716666D01*
X155285714Y-48716666D01*
X155380952Y-48764285D01*
X155428571Y-48811904D01*
X155476190Y-48907142D01*
X155476190Y-49288095D01*
X154952380Y-47859523D02*
X154952380Y-48050000D01*
X155000000Y-48145238D01*
X155047619Y-48192857D01*
X155190476Y-48288095D01*
X155380952Y-48335714D01*
X155761904Y-48335714D01*
X155857142Y-48288095D01*
X155904761Y-48240476D01*
X155952380Y-48145238D01*
X155952380Y-47954761D01*
X155904761Y-47859523D01*
X155857142Y-47811904D01*
X155761904Y-47764285D01*
X155523809Y-47764285D01*
X155428571Y-47811904D01*
X155380952Y-47859523D01*
X155333333Y-47954761D01*
X155333333Y-48145238D01*
X155380952Y-48240476D01*
X155428571Y-48288095D01*
X155523809Y-48335714D01*
X166152380Y-49288095D02*
X165152380Y-49288095D01*
X165152380Y-48907142D01*
X165200000Y-48811904D01*
X165247619Y-48764285D01*
X165342857Y-48716666D01*
X165485714Y-48716666D01*
X165580952Y-48764285D01*
X165628571Y-48811904D01*
X165676190Y-48907142D01*
X165676190Y-49288095D01*
X165485714Y-47859523D02*
X166152380Y-47859523D01*
X165104761Y-48097619D02*
X165819047Y-48335714D01*
X165819047Y-47716666D01*
X170650000Y-49811904D02*
X170602380Y-49907142D01*
X170602380Y-50050000D01*
X170650000Y-50192857D01*
X170745238Y-50288095D01*
X170840476Y-50335714D01*
X171030952Y-50383333D01*
X171173809Y-50383333D01*
X171364285Y-50335714D01*
X171459523Y-50288095D01*
X171554761Y-50192857D01*
X171602380Y-50050000D01*
X171602380Y-49954761D01*
X171554761Y-49811904D01*
X171507142Y-49764285D01*
X171173809Y-49764285D01*
X171173809Y-49954761D01*
X171602380Y-49335714D02*
X170602380Y-49335714D01*
X171602380Y-48764285D01*
X170602380Y-48764285D01*
X171602380Y-48288095D02*
X170602380Y-48288095D01*
X170602380Y-48050000D01*
X170650000Y-47907142D01*
X170745238Y-47811904D01*
X170840476Y-47764285D01*
X171030952Y-47716666D01*
X171173809Y-47716666D01*
X171364285Y-47764285D01*
X171459523Y-47811904D01*
X171554761Y-47907142D01*
X171602380Y-48050000D01*
X171602380Y-48288095D01*
X174102380Y-49338095D02*
X173102380Y-49338095D01*
X173102380Y-48957142D01*
X173150000Y-48861904D01*
X173197619Y-48814285D01*
X173292857Y-48766666D01*
X173435714Y-48766666D01*
X173530952Y-48814285D01*
X173578571Y-48861904D01*
X173626190Y-48957142D01*
X173626190Y-49338095D01*
X173102380Y-48433333D02*
X173102380Y-47814285D01*
X173483333Y-48147619D01*
X173483333Y-48004761D01*
X173530952Y-47909523D01*
X173578571Y-47861904D01*
X173673809Y-47814285D01*
X173911904Y-47814285D01*
X174007142Y-47861904D01*
X174054761Y-47909523D01*
X174102380Y-48004761D01*
X174102380Y-48290476D01*
X174054761Y-48385714D01*
X174007142Y-48433333D01*
X175750000Y-49811904D02*
X175702380Y-49907142D01*
X175702380Y-50050000D01*
X175750000Y-50192857D01*
X175845238Y-50288095D01*
X175940476Y-50335714D01*
X176130952Y-50383333D01*
X176273809Y-50383333D01*
X176464285Y-50335714D01*
X176559523Y-50288095D01*
X176654761Y-50192857D01*
X176702380Y-50050000D01*
X176702380Y-49954761D01*
X176654761Y-49811904D01*
X176607142Y-49764285D01*
X176273809Y-49764285D01*
X176273809Y-49954761D01*
X176702380Y-49335714D02*
X175702380Y-49335714D01*
X176702380Y-48764285D01*
X175702380Y-48764285D01*
X176702380Y-48288095D02*
X175702380Y-48288095D01*
X175702380Y-48050000D01*
X175750000Y-47907142D01*
X175845238Y-47811904D01*
X175940476Y-47764285D01*
X176130952Y-47716666D01*
X176273809Y-47716666D01*
X176464285Y-47764285D01*
X176559523Y-47811904D01*
X176654761Y-47907142D01*
X176702380Y-48050000D01*
X176702380Y-48288095D01*
X179202380Y-49338095D02*
X178202380Y-49338095D01*
X178202380Y-48957142D01*
X178250000Y-48861904D01*
X178297619Y-48814285D01*
X178392857Y-48766666D01*
X178535714Y-48766666D01*
X178630952Y-48814285D01*
X178678571Y-48861904D01*
X178726190Y-48957142D01*
X178726190Y-49338095D01*
X178297619Y-48385714D02*
X178250000Y-48338095D01*
X178202380Y-48242857D01*
X178202380Y-48004761D01*
X178250000Y-47909523D01*
X178297619Y-47861904D01*
X178392857Y-47814285D01*
X178488095Y-47814285D01*
X178630952Y-47861904D01*
X179202380Y-48433333D01*
X179202380Y-47814285D01*
X180850000Y-49811904D02*
X180802380Y-49907142D01*
X180802380Y-50050000D01*
X180850000Y-50192857D01*
X180945238Y-50288095D01*
X181040476Y-50335714D01*
X181230952Y-50383333D01*
X181373809Y-50383333D01*
X181564285Y-50335714D01*
X181659523Y-50288095D01*
X181754761Y-50192857D01*
X181802380Y-50050000D01*
X181802380Y-49954761D01*
X181754761Y-49811904D01*
X181707142Y-49764285D01*
X181373809Y-49764285D01*
X181373809Y-49954761D01*
X181802380Y-49335714D02*
X180802380Y-49335714D01*
X181802380Y-48764285D01*
X180802380Y-48764285D01*
X181802380Y-48288095D02*
X180802380Y-48288095D01*
X180802380Y-48050000D01*
X180850000Y-47907142D01*
X180945238Y-47811904D01*
X181040476Y-47764285D01*
X181230952Y-47716666D01*
X181373809Y-47716666D01*
X181564285Y-47764285D01*
X181659523Y-47811904D01*
X181754761Y-47907142D01*
X181802380Y-48050000D01*
X181802380Y-48288095D01*
X184302380Y-49338095D02*
X183302380Y-49338095D01*
X183302380Y-48957142D01*
X183350000Y-48861904D01*
X183397619Y-48814285D01*
X183492857Y-48766666D01*
X183635714Y-48766666D01*
X183730952Y-48814285D01*
X183778571Y-48861904D01*
X183826190Y-48957142D01*
X183826190Y-49338095D01*
X184302380Y-47814285D02*
X184302380Y-48385714D01*
X184302380Y-48100000D02*
X183302380Y-48100000D01*
X183445238Y-48195238D01*
X183540476Y-48290476D01*
X183588095Y-48385714D01*
X185950000Y-49811904D02*
X185902380Y-49907142D01*
X185902380Y-50050000D01*
X185950000Y-50192857D01*
X186045238Y-50288095D01*
X186140476Y-50335714D01*
X186330952Y-50383333D01*
X186473809Y-50383333D01*
X186664285Y-50335714D01*
X186759523Y-50288095D01*
X186854761Y-50192857D01*
X186902380Y-50050000D01*
X186902380Y-49954761D01*
X186854761Y-49811904D01*
X186807142Y-49764285D01*
X186473809Y-49764285D01*
X186473809Y-49954761D01*
X186902380Y-49335714D02*
X185902380Y-49335714D01*
X186902380Y-48764285D01*
X185902380Y-48764285D01*
X186902380Y-48288095D02*
X185902380Y-48288095D01*
X185902380Y-48050000D01*
X185950000Y-47907142D01*
X186045238Y-47811904D01*
X186140476Y-47764285D01*
X186330952Y-47716666D01*
X186473809Y-47716666D01*
X186664285Y-47764285D01*
X186759523Y-47811904D01*
X186854761Y-47907142D01*
X186902380Y-48050000D01*
X186902380Y-48288095D01*
X189402380Y-49338095D02*
X188402380Y-49338095D01*
X188402380Y-48957142D01*
X188450000Y-48861904D01*
X188497619Y-48814285D01*
X188592857Y-48766666D01*
X188735714Y-48766666D01*
X188830952Y-48814285D01*
X188878571Y-48861904D01*
X188926190Y-48957142D01*
X188926190Y-49338095D01*
X188402380Y-48147619D02*
X188402380Y-48052380D01*
X188450000Y-47957142D01*
X188497619Y-47909523D01*
X188592857Y-47861904D01*
X188783333Y-47814285D01*
X189021428Y-47814285D01*
X189211904Y-47861904D01*
X189307142Y-47909523D01*
X189354761Y-47957142D01*
X189402380Y-48052380D01*
X189402380Y-48147619D01*
X189354761Y-48242857D01*
X189307142Y-48290476D01*
X189211904Y-48338095D01*
X189021428Y-48385714D01*
X188783333Y-48385714D01*
X188592857Y-48338095D01*
X188497619Y-48290476D01*
X188450000Y-48242857D01*
X188402380Y-48147619D01*
X113850000Y-44500000D02*
X113850000Y-47300000D01*
X103650000Y-44500000D02*
X103650000Y-47300000D01*
X108750000Y-44500000D02*
X108750000Y-47300000D01*
X101100000Y-44500000D02*
X101100000Y-47300000D01*
X106200000Y-44500000D02*
X106200000Y-47300000D01*
X118950000Y-44500000D02*
X118950000Y-47300000D01*
X111300000Y-44500000D02*
X111300000Y-47300000D01*
X116400000Y-44500000D02*
X116400000Y-47300000D01*
X137150000Y-44600000D02*
X137150000Y-47400000D01*
X126950000Y-44600000D02*
X126950000Y-47400000D01*
X132050000Y-44600000D02*
X132050000Y-47400000D01*
X124400000Y-44600000D02*
X124400000Y-47400000D01*
X129500000Y-44600000D02*
X129500000Y-47400000D01*
X142250000Y-44600000D02*
X142250000Y-47400000D01*
X134600000Y-44600000D02*
X134600000Y-47400000D01*
X139700000Y-44600000D02*
X139700000Y-47400000D01*
X160600000Y-44600000D02*
X160600000Y-47400000D01*
X150400000Y-44600000D02*
X150400000Y-47400000D01*
X155500000Y-44600000D02*
X155500000Y-47400000D01*
X147850000Y-44600000D02*
X147850000Y-47400000D01*
X152950000Y-44600000D02*
X152950000Y-47400000D01*
X165700000Y-44600000D02*
X165700000Y-47400000D01*
X158050000Y-44600000D02*
X158050000Y-47400000D01*
X163150000Y-44600000D02*
X163150000Y-47400000D01*
X173700000Y-44550000D02*
X173700000Y-47350000D01*
X178800000Y-44550000D02*
X178800000Y-47350000D01*
X171150000Y-44550000D02*
X171150000Y-47350000D01*
X176250000Y-44550000D02*
X176250000Y-47350000D01*
X183900000Y-44550000D02*
X183900000Y-47350000D01*
X181350000Y-44550000D02*
X181350000Y-47350000D01*
X186450000Y-44550000D02*
X186450000Y-47350000D01*
X189000000Y-44550000D02*
X189000000Y-47350000D01*
X88240000Y-112300000D02*
X86420000Y-112300000D01*
X89038095Y-111850000D02*
X88942857Y-111802380D01*
X88800000Y-111802380D01*
X88657142Y-111850000D01*
X88561904Y-111945238D01*
X88514285Y-112040476D01*
X88466666Y-112230952D01*
X88466666Y-112373809D01*
X88514285Y-112564285D01*
X88561904Y-112659523D01*
X88657142Y-112754761D01*
X88800000Y-112802380D01*
X88895238Y-112802380D01*
X89038095Y-112754761D01*
X89085714Y-112707142D01*
X89085714Y-112373809D01*
X88895238Y-112373809D01*
X89514285Y-112802380D02*
X89514285Y-111802380D01*
X90085714Y-112802380D01*
X90085714Y-111802380D01*
X90561904Y-112802380D02*
X90561904Y-111802380D01*
X90800000Y-111802380D01*
X90942857Y-111850000D01*
X91038095Y-111945238D01*
X91085714Y-112040476D01*
X91133333Y-112230952D01*
X91133333Y-112373809D01*
X91085714Y-112564285D01*
X91038095Y-112659523D01*
X90942857Y-112754761D01*
X90800000Y-112802380D01*
X90561904Y-112802380D01*
X88307142Y-114302380D02*
X88878571Y-114302380D01*
X88592857Y-115302380D02*
X88592857Y-114302380D01*
X89116666Y-115302380D02*
X89640476Y-114635714D01*
X89116666Y-114635714D02*
X89640476Y-115302380D01*
X90545238Y-115302380D02*
X89973809Y-115302380D01*
X90259523Y-115302380D02*
X90259523Y-114302380D01*
X90164285Y-114445238D01*
X90069047Y-114540476D01*
X89973809Y-114588095D01*
X90878571Y-114302380D02*
X91497619Y-114302380D01*
X91164285Y-114683333D01*
X91307142Y-114683333D01*
X91402380Y-114730952D01*
X91450000Y-114778571D01*
X91497619Y-114873809D01*
X91497619Y-115111904D01*
X91450000Y-115207142D01*
X91402380Y-115254761D01*
X91307142Y-115302380D01*
X91021428Y-115302380D01*
X90926190Y-115254761D01*
X90878571Y-115207142D01*
X86400000Y-114850000D02*
X88300000Y-114850000D01*
X88240000Y-101700000D02*
X86420000Y-101700000D01*
X89038095Y-101250000D02*
X88942857Y-101202380D01*
X88800000Y-101202380D01*
X88657142Y-101250000D01*
X88561904Y-101345238D01*
X88514285Y-101440476D01*
X88466666Y-101630952D01*
X88466666Y-101773809D01*
X88514285Y-101964285D01*
X88561904Y-102059523D01*
X88657142Y-102154761D01*
X88800000Y-102202380D01*
X88895238Y-102202380D01*
X89038095Y-102154761D01*
X89085714Y-102107142D01*
X89085714Y-101773809D01*
X88895238Y-101773809D01*
X89514285Y-102202380D02*
X89514285Y-101202380D01*
X90085714Y-102202380D01*
X90085714Y-101202380D01*
X90561904Y-102202380D02*
X90561904Y-101202380D01*
X90800000Y-101202380D01*
X90942857Y-101250000D01*
X91038095Y-101345238D01*
X91085714Y-101440476D01*
X91133333Y-101630952D01*
X91133333Y-101773809D01*
X91085714Y-101964285D01*
X91038095Y-102059523D01*
X90942857Y-102154761D01*
X90800000Y-102202380D01*
X90561904Y-102202380D01*
X88257142Y-103702380D02*
X88828571Y-103702380D01*
X88542857Y-104702380D02*
X88542857Y-103702380D01*
X89066666Y-104702380D02*
X89590476Y-104035714D01*
X89066666Y-104035714D02*
X89590476Y-104702380D01*
X90495238Y-104702380D02*
X89923809Y-104702380D01*
X90209523Y-104702380D02*
X90209523Y-103702380D01*
X90114285Y-103845238D01*
X90019047Y-103940476D01*
X89923809Y-103988095D01*
X90876190Y-103797619D02*
X90923809Y-103750000D01*
X91019047Y-103702380D01*
X91257142Y-103702380D01*
X91352380Y-103750000D01*
X91400000Y-103797619D01*
X91447619Y-103892857D01*
X91447619Y-103988095D01*
X91400000Y-104130952D01*
X90828571Y-104702380D01*
X91447619Y-104702380D01*
X86400000Y-104250000D02*
X88300000Y-104250000D01*
X88240000Y-91050000D02*
X86420000Y-91050000D01*
X89038095Y-90600000D02*
X88942857Y-90552380D01*
X88800000Y-90552380D01*
X88657142Y-90600000D01*
X88561904Y-90695238D01*
X88514285Y-90790476D01*
X88466666Y-90980952D01*
X88466666Y-91123809D01*
X88514285Y-91314285D01*
X88561904Y-91409523D01*
X88657142Y-91504761D01*
X88800000Y-91552380D01*
X88895238Y-91552380D01*
X89038095Y-91504761D01*
X89085714Y-91457142D01*
X89085714Y-91123809D01*
X88895238Y-91123809D01*
X89514285Y-91552380D02*
X89514285Y-90552380D01*
X90085714Y-91552380D01*
X90085714Y-90552380D01*
X90561904Y-91552380D02*
X90561904Y-90552380D01*
X90800000Y-90552380D01*
X90942857Y-90600000D01*
X91038095Y-90695238D01*
X91085714Y-90790476D01*
X91133333Y-90980952D01*
X91133333Y-91123809D01*
X91085714Y-91314285D01*
X91038095Y-91409523D01*
X90942857Y-91504761D01*
X90800000Y-91552380D01*
X90561904Y-91552380D01*
X88307142Y-93102380D02*
X88878571Y-93102380D01*
X88592857Y-94102380D02*
X88592857Y-93102380D01*
X89116666Y-94102380D02*
X89640476Y-93435714D01*
X89116666Y-93435714D02*
X89640476Y-94102380D01*
X90545238Y-94102380D02*
X89973809Y-94102380D01*
X90259523Y-94102380D02*
X90259523Y-93102380D01*
X90164285Y-93245238D01*
X90069047Y-93340476D01*
X89973809Y-93388095D01*
X91497619Y-94102380D02*
X90926190Y-94102380D01*
X91211904Y-94102380D02*
X91211904Y-93102380D01*
X91116666Y-93245238D01*
X91021428Y-93340476D01*
X90926190Y-93388095D01*
X86400000Y-93600000D02*
X88300000Y-93600000D01*
X88240000Y-80400000D02*
X86420000Y-80400000D01*
X89038095Y-79950000D02*
X88942857Y-79902380D01*
X88800000Y-79902380D01*
X88657142Y-79950000D01*
X88561904Y-80045238D01*
X88514285Y-80140476D01*
X88466666Y-80330952D01*
X88466666Y-80473809D01*
X88514285Y-80664285D01*
X88561904Y-80759523D01*
X88657142Y-80854761D01*
X88800000Y-80902380D01*
X88895238Y-80902380D01*
X89038095Y-80854761D01*
X89085714Y-80807142D01*
X89085714Y-80473809D01*
X88895238Y-80473809D01*
X89514285Y-80902380D02*
X89514285Y-79902380D01*
X90085714Y-80902380D01*
X90085714Y-79902380D01*
X90561904Y-80902380D02*
X90561904Y-79902380D01*
X90800000Y-79902380D01*
X90942857Y-79950000D01*
X91038095Y-80045238D01*
X91085714Y-80140476D01*
X91133333Y-80330952D01*
X91133333Y-80473809D01*
X91085714Y-80664285D01*
X91038095Y-80759523D01*
X90942857Y-80854761D01*
X90800000Y-80902380D01*
X90561904Y-80902380D01*
X88257142Y-82452380D02*
X88828571Y-82452380D01*
X88542857Y-83452380D02*
X88542857Y-82452380D01*
X89066666Y-83452380D02*
X89590476Y-82785714D01*
X89066666Y-82785714D02*
X89590476Y-83452380D01*
X90495238Y-83452380D02*
X89923809Y-83452380D01*
X90209523Y-83452380D02*
X90209523Y-82452380D01*
X90114285Y-82595238D01*
X90019047Y-82690476D01*
X89923809Y-82738095D01*
X91114285Y-82452380D02*
X91209523Y-82452380D01*
X91304761Y-82500000D01*
X91352380Y-82547619D01*
X91400000Y-82642857D01*
X91447619Y-82833333D01*
X91447619Y-83071428D01*
X91400000Y-83261904D01*
X91352380Y-83357142D01*
X91304761Y-83404761D01*
X91209523Y-83452380D01*
X91114285Y-83452380D01*
X91019047Y-83404761D01*
X90971428Y-83357142D01*
X90923809Y-83261904D01*
X90876190Y-83071428D01*
X90876190Y-82833333D01*
X90923809Y-82642857D01*
X90971428Y-82547619D01*
X91019047Y-82500000D01*
X91114285Y-82452380D01*
X86400000Y-82950000D02*
X88300000Y-82950000D01*
X88240000Y-69700000D02*
X86420000Y-69700000D01*
X89038095Y-69250000D02*
X88942857Y-69202380D01*
X88800000Y-69202380D01*
X88657142Y-69250000D01*
X88561904Y-69345238D01*
X88514285Y-69440476D01*
X88466666Y-69630952D01*
X88466666Y-69773809D01*
X88514285Y-69964285D01*
X88561904Y-70059523D01*
X88657142Y-70154761D01*
X88800000Y-70202380D01*
X88895238Y-70202380D01*
X89038095Y-70154761D01*
X89085714Y-70107142D01*
X89085714Y-69773809D01*
X88895238Y-69773809D01*
X89514285Y-70202380D02*
X89514285Y-69202380D01*
X90085714Y-70202380D01*
X90085714Y-69202380D01*
X90561904Y-70202380D02*
X90561904Y-69202380D01*
X90800000Y-69202380D01*
X90942857Y-69250000D01*
X91038095Y-69345238D01*
X91085714Y-69440476D01*
X91133333Y-69630952D01*
X91133333Y-69773809D01*
X91085714Y-69964285D01*
X91038095Y-70059523D01*
X90942857Y-70154761D01*
X90800000Y-70202380D01*
X90561904Y-70202380D01*
X88383333Y-71702380D02*
X88954761Y-71702380D01*
X88669047Y-72702380D02*
X88669047Y-71702380D01*
X89192857Y-72702380D02*
X89716666Y-72035714D01*
X89192857Y-72035714D02*
X89716666Y-72702380D01*
X90145238Y-72702380D02*
X90335714Y-72702380D01*
X90430952Y-72654761D01*
X90478571Y-72607142D01*
X90573809Y-72464285D01*
X90621428Y-72273809D01*
X90621428Y-71892857D01*
X90573809Y-71797619D01*
X90526190Y-71750000D01*
X90430952Y-71702380D01*
X90240476Y-71702380D01*
X90145238Y-71750000D01*
X90097619Y-71797619D01*
X90050000Y-71892857D01*
X90050000Y-72130952D01*
X90097619Y-72226190D01*
X90145238Y-72273809D01*
X90240476Y-72321428D01*
X90430952Y-72321428D01*
X90526190Y-72273809D01*
X90573809Y-72226190D01*
X90621428Y-72130952D01*
X86400000Y-72250000D02*
X88300000Y-72250000D01*
X88240000Y-59100000D02*
X86420000Y-59100000D01*
X89038095Y-58650000D02*
X88942857Y-58602380D01*
X88800000Y-58602380D01*
X88657142Y-58650000D01*
X88561904Y-58745238D01*
X88514285Y-58840476D01*
X88466666Y-59030952D01*
X88466666Y-59173809D01*
X88514285Y-59364285D01*
X88561904Y-59459523D01*
X88657142Y-59554761D01*
X88800000Y-59602380D01*
X88895238Y-59602380D01*
X89038095Y-59554761D01*
X89085714Y-59507142D01*
X89085714Y-59173809D01*
X88895238Y-59173809D01*
X89514285Y-59602380D02*
X89514285Y-58602380D01*
X90085714Y-59602380D01*
X90085714Y-58602380D01*
X90561904Y-59602380D02*
X90561904Y-58602380D01*
X90800000Y-58602380D01*
X90942857Y-58650000D01*
X91038095Y-58745238D01*
X91085714Y-58840476D01*
X91133333Y-59030952D01*
X91133333Y-59173809D01*
X91085714Y-59364285D01*
X91038095Y-59459523D01*
X90942857Y-59554761D01*
X90800000Y-59602380D01*
X90561904Y-59602380D01*
X88383333Y-61102380D02*
X88954761Y-61102380D01*
X88669047Y-62102380D02*
X88669047Y-61102380D01*
X89192857Y-62102380D02*
X89716666Y-61435714D01*
X89192857Y-61435714D02*
X89716666Y-62102380D01*
X90240476Y-61530952D02*
X90145238Y-61483333D01*
X90097619Y-61435714D01*
X90050000Y-61340476D01*
X90050000Y-61292857D01*
X90097619Y-61197619D01*
X90145238Y-61150000D01*
X90240476Y-61102380D01*
X90430952Y-61102380D01*
X90526190Y-61150000D01*
X90573809Y-61197619D01*
X90621428Y-61292857D01*
X90621428Y-61340476D01*
X90573809Y-61435714D01*
X90526190Y-61483333D01*
X90430952Y-61530952D01*
X90240476Y-61530952D01*
X90145238Y-61578571D01*
X90097619Y-61626190D01*
X90050000Y-61721428D01*
X90050000Y-61911904D01*
X90097619Y-62007142D01*
X90145238Y-62054761D01*
X90240476Y-62102380D01*
X90430952Y-62102380D01*
X90526190Y-62054761D01*
X90573809Y-62007142D01*
X90621428Y-61911904D01*
X90621428Y-61721428D01*
X90573809Y-61626190D01*
X90526190Y-61578571D01*
X90430952Y-61530952D01*
X86400000Y-61650000D02*
X88300000Y-61650000D01*
X203720000Y-59000000D02*
X201900000Y-59000000D01*
X199538095Y-58550000D02*
X199442857Y-58502380D01*
X199300000Y-58502380D01*
X199157142Y-58550000D01*
X199061904Y-58645238D01*
X199014285Y-58740476D01*
X198966666Y-58930952D01*
X198966666Y-59073809D01*
X199014285Y-59264285D01*
X199061904Y-59359523D01*
X199157142Y-59454761D01*
X199300000Y-59502380D01*
X199395238Y-59502380D01*
X199538095Y-59454761D01*
X199585714Y-59407142D01*
X199585714Y-59073809D01*
X199395238Y-59073809D01*
X200014285Y-59502380D02*
X200014285Y-58502380D01*
X200585714Y-59502380D01*
X200585714Y-58502380D01*
X201061904Y-59502380D02*
X201061904Y-58502380D01*
X201300000Y-58502380D01*
X201442857Y-58550000D01*
X201538095Y-58645238D01*
X201585714Y-58740476D01*
X201633333Y-58930952D01*
X201633333Y-59073809D01*
X201585714Y-59264285D01*
X201538095Y-59359523D01*
X201442857Y-59454761D01*
X201300000Y-59502380D01*
X201061904Y-59502380D01*
X199283333Y-61052380D02*
X199854761Y-61052380D01*
X199569047Y-62052380D02*
X199569047Y-61052380D01*
X200092857Y-62052380D02*
X200616666Y-61385714D01*
X200092857Y-61385714D02*
X200616666Y-62052380D01*
X200902380Y-61052380D02*
X201569047Y-61052380D01*
X201140476Y-62052380D01*
X201800000Y-61550000D02*
X203700000Y-61550000D01*
X203720000Y-69650000D02*
X201900000Y-69650000D01*
X199538095Y-69200000D02*
X199442857Y-69152380D01*
X199300000Y-69152380D01*
X199157142Y-69200000D01*
X199061904Y-69295238D01*
X199014285Y-69390476D01*
X198966666Y-69580952D01*
X198966666Y-69723809D01*
X199014285Y-69914285D01*
X199061904Y-70009523D01*
X199157142Y-70104761D01*
X199300000Y-70152380D01*
X199395238Y-70152380D01*
X199538095Y-70104761D01*
X199585714Y-70057142D01*
X199585714Y-69723809D01*
X199395238Y-69723809D01*
X200014285Y-70152380D02*
X200014285Y-69152380D01*
X200585714Y-70152380D01*
X200585714Y-69152380D01*
X201061904Y-70152380D02*
X201061904Y-69152380D01*
X201300000Y-69152380D01*
X201442857Y-69200000D01*
X201538095Y-69295238D01*
X201585714Y-69390476D01*
X201633333Y-69580952D01*
X201633333Y-69723809D01*
X201585714Y-69914285D01*
X201538095Y-70009523D01*
X201442857Y-70104761D01*
X201300000Y-70152380D01*
X201061904Y-70152380D01*
X199283333Y-71702380D02*
X199854761Y-71702380D01*
X199569047Y-72702380D02*
X199569047Y-71702380D01*
X200092857Y-72702380D02*
X200616666Y-72035714D01*
X200092857Y-72035714D02*
X200616666Y-72702380D01*
X201426190Y-71702380D02*
X201235714Y-71702380D01*
X201140476Y-71750000D01*
X201092857Y-71797619D01*
X200997619Y-71940476D01*
X200950000Y-72130952D01*
X200950000Y-72511904D01*
X200997619Y-72607142D01*
X201045238Y-72654761D01*
X201140476Y-72702380D01*
X201330952Y-72702380D01*
X201426190Y-72654761D01*
X201473809Y-72607142D01*
X201521428Y-72511904D01*
X201521428Y-72273809D01*
X201473809Y-72178571D01*
X201426190Y-72130952D01*
X201330952Y-72083333D01*
X201140476Y-72083333D01*
X201045238Y-72130952D01*
X200997619Y-72178571D01*
X200950000Y-72273809D01*
X201800000Y-72200000D02*
X203700000Y-72200000D01*
X203570000Y-80350000D02*
X201750000Y-80350000D01*
X199388095Y-79900000D02*
X199292857Y-79852380D01*
X199150000Y-79852380D01*
X199007142Y-79900000D01*
X198911904Y-79995238D01*
X198864285Y-80090476D01*
X198816666Y-80280952D01*
X198816666Y-80423809D01*
X198864285Y-80614285D01*
X198911904Y-80709523D01*
X199007142Y-80804761D01*
X199150000Y-80852380D01*
X199245238Y-80852380D01*
X199388095Y-80804761D01*
X199435714Y-80757142D01*
X199435714Y-80423809D01*
X199245238Y-80423809D01*
X199864285Y-80852380D02*
X199864285Y-79852380D01*
X200435714Y-80852380D01*
X200435714Y-79852380D01*
X200911904Y-80852380D02*
X200911904Y-79852380D01*
X201150000Y-79852380D01*
X201292857Y-79900000D01*
X201388095Y-79995238D01*
X201435714Y-80090476D01*
X201483333Y-80280952D01*
X201483333Y-80423809D01*
X201435714Y-80614285D01*
X201388095Y-80709523D01*
X201292857Y-80804761D01*
X201150000Y-80852380D01*
X200911904Y-80852380D01*
X199133333Y-82402380D02*
X199704761Y-82402380D01*
X199419047Y-83402380D02*
X199419047Y-82402380D01*
X199942857Y-83402380D02*
X200466666Y-82735714D01*
X199942857Y-82735714D02*
X200466666Y-83402380D01*
X201323809Y-82402380D02*
X200847619Y-82402380D01*
X200800000Y-82878571D01*
X200847619Y-82830952D01*
X200942857Y-82783333D01*
X201180952Y-82783333D01*
X201276190Y-82830952D01*
X201323809Y-82878571D01*
X201371428Y-82973809D01*
X201371428Y-83211904D01*
X201323809Y-83307142D01*
X201276190Y-83354761D01*
X201180952Y-83402380D01*
X200942857Y-83402380D01*
X200847619Y-83354761D01*
X200800000Y-83307142D01*
X201650000Y-82900000D02*
X203550000Y-82900000D01*
X203720000Y-90950000D02*
X201900000Y-90950000D01*
X199538095Y-90500000D02*
X199442857Y-90452380D01*
X199300000Y-90452380D01*
X199157142Y-90500000D01*
X199061904Y-90595238D01*
X199014285Y-90690476D01*
X198966666Y-90880952D01*
X198966666Y-91023809D01*
X199014285Y-91214285D01*
X199061904Y-91309523D01*
X199157142Y-91404761D01*
X199300000Y-91452380D01*
X199395238Y-91452380D01*
X199538095Y-91404761D01*
X199585714Y-91357142D01*
X199585714Y-91023809D01*
X199395238Y-91023809D01*
X200014285Y-91452380D02*
X200014285Y-90452380D01*
X200585714Y-91452380D01*
X200585714Y-90452380D01*
X201061904Y-91452380D02*
X201061904Y-90452380D01*
X201300000Y-90452380D01*
X201442857Y-90500000D01*
X201538095Y-90595238D01*
X201585714Y-90690476D01*
X201633333Y-90880952D01*
X201633333Y-91023809D01*
X201585714Y-91214285D01*
X201538095Y-91309523D01*
X201442857Y-91404761D01*
X201300000Y-91452380D01*
X201061904Y-91452380D01*
X199283333Y-93002380D02*
X199854761Y-93002380D01*
X199569047Y-94002380D02*
X199569047Y-93002380D01*
X200092857Y-94002380D02*
X200616666Y-93335714D01*
X200092857Y-93335714D02*
X200616666Y-94002380D01*
X201426190Y-93335714D02*
X201426190Y-94002380D01*
X201188095Y-92954761D02*
X200950000Y-93669047D01*
X201569047Y-93669047D01*
X201800000Y-93500000D02*
X203700000Y-93500000D01*
X203720000Y-101600000D02*
X201900000Y-101600000D01*
X199538095Y-101150000D02*
X199442857Y-101102380D01*
X199300000Y-101102380D01*
X199157142Y-101150000D01*
X199061904Y-101245238D01*
X199014285Y-101340476D01*
X198966666Y-101530952D01*
X198966666Y-101673809D01*
X199014285Y-101864285D01*
X199061904Y-101959523D01*
X199157142Y-102054761D01*
X199300000Y-102102380D01*
X199395238Y-102102380D01*
X199538095Y-102054761D01*
X199585714Y-102007142D01*
X199585714Y-101673809D01*
X199395238Y-101673809D01*
X200014285Y-102102380D02*
X200014285Y-101102380D01*
X200585714Y-102102380D01*
X200585714Y-101102380D01*
X201061904Y-102102380D02*
X201061904Y-101102380D01*
X201300000Y-101102380D01*
X201442857Y-101150000D01*
X201538095Y-101245238D01*
X201585714Y-101340476D01*
X201633333Y-101530952D01*
X201633333Y-101673809D01*
X201585714Y-101864285D01*
X201538095Y-101959523D01*
X201442857Y-102054761D01*
X201300000Y-102102380D01*
X201061904Y-102102380D01*
X199283333Y-103652380D02*
X199854761Y-103652380D01*
X199569047Y-104652380D02*
X199569047Y-103652380D01*
X200092857Y-104652380D02*
X200616666Y-103985714D01*
X200092857Y-103985714D02*
X200616666Y-104652380D01*
X200902380Y-103652380D02*
X201521428Y-103652380D01*
X201188095Y-104033333D01*
X201330952Y-104033333D01*
X201426190Y-104080952D01*
X201473809Y-104128571D01*
X201521428Y-104223809D01*
X201521428Y-104461904D01*
X201473809Y-104557142D01*
X201426190Y-104604761D01*
X201330952Y-104652380D01*
X201045238Y-104652380D01*
X200950000Y-104604761D01*
X200902380Y-104557142D01*
X201800000Y-104150000D02*
X203700000Y-104150000D01*
X203720000Y-112250000D02*
X201900000Y-112250000D01*
X199283333Y-114302380D02*
X199854761Y-114302380D01*
X199569047Y-115302380D02*
X199569047Y-114302380D01*
X200092857Y-115302380D02*
X200616666Y-114635714D01*
X200092857Y-114635714D02*
X200616666Y-115302380D01*
X200950000Y-114397619D02*
X200997619Y-114350000D01*
X201092857Y-114302380D01*
X201330952Y-114302380D01*
X201426190Y-114350000D01*
X201473809Y-114397619D01*
X201521428Y-114492857D01*
X201521428Y-114588095D01*
X201473809Y-114730952D01*
X200902380Y-115302380D01*
X201521428Y-115302380D01*
X201800000Y-114800000D02*
X203700000Y-114800000D01*
X199538095Y-111800000D02*
X199442857Y-111752380D01*
X199300000Y-111752380D01*
X199157142Y-111800000D01*
X199061904Y-111895238D01*
X199014285Y-111990476D01*
X198966666Y-112180952D01*
X198966666Y-112323809D01*
X199014285Y-112514285D01*
X199061904Y-112609523D01*
X199157142Y-112704761D01*
X199300000Y-112752380D01*
X199395238Y-112752380D01*
X199538095Y-112704761D01*
X199585714Y-112657142D01*
X199585714Y-112323809D01*
X199395238Y-112323809D01*
X200014285Y-112752380D02*
X200014285Y-111752380D01*
X200585714Y-112752380D01*
X200585714Y-111752380D01*
X201061904Y-112752380D02*
X201061904Y-111752380D01*
X201300000Y-111752380D01*
X201442857Y-111800000D01*
X201538095Y-111895238D01*
X201585714Y-111990476D01*
X201633333Y-112180952D01*
X201633333Y-112323809D01*
X201585714Y-112514285D01*
X201538095Y-112609523D01*
X201442857Y-112704761D01*
X201300000Y-112752380D01*
X201061904Y-112752380D01*
X100450000Y-137220000D02*
X100450000Y-135400000D01*
X97402380Y-135292857D02*
X97402380Y-134721428D01*
X98402380Y-135007142D02*
X97402380Y-135007142D01*
X98402380Y-134483333D02*
X97735714Y-133959523D01*
X97735714Y-134483333D02*
X98402380Y-133959523D01*
X98402380Y-133054761D02*
X98402380Y-133626190D01*
X98402380Y-133340476D02*
X97402380Y-133340476D01*
X97545238Y-133435714D01*
X97640476Y-133530952D01*
X97688095Y-133626190D01*
X97735714Y-132197619D02*
X98402380Y-132197619D01*
X97354761Y-132435714D02*
X98069047Y-132673809D01*
X98069047Y-132054761D01*
X97900000Y-135300000D02*
X97900000Y-137200000D01*
X99950000Y-134561904D02*
X99902380Y-134657142D01*
X99902380Y-134800000D01*
X99950000Y-134942857D01*
X100045238Y-135038095D01*
X100140476Y-135085714D01*
X100330952Y-135133333D01*
X100473809Y-135133333D01*
X100664285Y-135085714D01*
X100759523Y-135038095D01*
X100854761Y-134942857D01*
X100902380Y-134800000D01*
X100902380Y-134704761D01*
X100854761Y-134561904D01*
X100807142Y-134514285D01*
X100473809Y-134514285D01*
X100473809Y-134704761D01*
X100902380Y-134085714D02*
X99902380Y-134085714D01*
X100902380Y-133514285D01*
X99902380Y-133514285D01*
X100902380Y-133038095D02*
X99902380Y-133038095D01*
X99902380Y-132800000D01*
X99950000Y-132657142D01*
X100045238Y-132561904D01*
X100140476Y-132514285D01*
X100330952Y-132466666D01*
X100473809Y-132466666D01*
X100664285Y-132514285D01*
X100759523Y-132561904D01*
X100854761Y-132657142D01*
X100902380Y-132800000D01*
X100902380Y-133038095D01*
X121850000Y-137220000D02*
X121850000Y-135400000D01*
X118852380Y-135342857D02*
X118852380Y-134771428D01*
X119852380Y-135057142D02*
X118852380Y-135057142D01*
X119852380Y-134533333D02*
X119185714Y-134009523D01*
X119185714Y-134533333D02*
X119852380Y-134009523D01*
X119852380Y-133104761D02*
X119852380Y-133676190D01*
X119852380Y-133390476D02*
X118852380Y-133390476D01*
X118995238Y-133485714D01*
X119090476Y-133580952D01*
X119138095Y-133676190D01*
X118852380Y-132200000D02*
X118852380Y-132676190D01*
X119328571Y-132723809D01*
X119280952Y-132676190D01*
X119233333Y-132580952D01*
X119233333Y-132342857D01*
X119280952Y-132247619D01*
X119328571Y-132200000D01*
X119423809Y-132152380D01*
X119661904Y-132152380D01*
X119757142Y-132200000D01*
X119804761Y-132247619D01*
X119852380Y-132342857D01*
X119852380Y-132580952D01*
X119804761Y-132676190D01*
X119757142Y-132723809D01*
X119300000Y-135300000D02*
X119300000Y-137200000D01*
X121350000Y-134561904D02*
X121302380Y-134657142D01*
X121302380Y-134800000D01*
X121350000Y-134942857D01*
X121445238Y-135038095D01*
X121540476Y-135085714D01*
X121730952Y-135133333D01*
X121873809Y-135133333D01*
X122064285Y-135085714D01*
X122159523Y-135038095D01*
X122254761Y-134942857D01*
X122302380Y-134800000D01*
X122302380Y-134704761D01*
X122254761Y-134561904D01*
X122207142Y-134514285D01*
X121873809Y-134514285D01*
X121873809Y-134704761D01*
X122302380Y-134085714D02*
X121302380Y-134085714D01*
X122302380Y-133514285D01*
X121302380Y-133514285D01*
X122302380Y-133038095D02*
X121302380Y-133038095D01*
X121302380Y-132800000D01*
X121350000Y-132657142D01*
X121445238Y-132561904D01*
X121540476Y-132514285D01*
X121730952Y-132466666D01*
X121873809Y-132466666D01*
X122064285Y-132514285D01*
X122159523Y-132561904D01*
X122254761Y-132657142D01*
X122302380Y-132800000D01*
X122302380Y-133038095D01*
X192150000Y-137220000D02*
X192150000Y-135400000D01*
X189102380Y-135166666D02*
X189102380Y-134595238D01*
X190102380Y-134880952D02*
X189102380Y-134880952D01*
X190102380Y-134357142D02*
X189435714Y-133833333D01*
X189435714Y-134357142D02*
X190102380Y-133833333D01*
X190102380Y-132928571D02*
X190102380Y-133500000D01*
X190102380Y-133214285D02*
X189102380Y-133214285D01*
X189245238Y-133309523D01*
X189340476Y-133404761D01*
X189388095Y-133500000D01*
X189600000Y-135300000D02*
X189600000Y-137200000D01*
X191650000Y-134561904D02*
X191602380Y-134657142D01*
X191602380Y-134800000D01*
X191650000Y-134942857D01*
X191745238Y-135038095D01*
X191840476Y-135085714D01*
X192030952Y-135133333D01*
X192173809Y-135133333D01*
X192364285Y-135085714D01*
X192459523Y-135038095D01*
X192554761Y-134942857D01*
X192602380Y-134800000D01*
X192602380Y-134704761D01*
X192554761Y-134561904D01*
X192507142Y-134514285D01*
X192173809Y-134514285D01*
X192173809Y-134704761D01*
X192602380Y-134085714D02*
X191602380Y-134085714D01*
X192602380Y-133514285D01*
X191602380Y-133514285D01*
X192602380Y-133038095D02*
X191602380Y-133038095D01*
X191602380Y-132800000D01*
X191650000Y-132657142D01*
X191745238Y-132561904D01*
X191840476Y-132514285D01*
X192030952Y-132466666D01*
X192173809Y-132466666D01*
X192364285Y-132514285D01*
X192459523Y-132561904D01*
X192554761Y-132657142D01*
X192602380Y-132800000D01*
X192602380Y-133038095D01*
X170750000Y-137220000D02*
X170750000Y-135400000D01*
X168200000Y-135300000D02*
X168200000Y-137200000D01*
X170250000Y-134561904D02*
X170202380Y-134657142D01*
X170202380Y-134800000D01*
X170250000Y-134942857D01*
X170345238Y-135038095D01*
X170440476Y-135085714D01*
X170630952Y-135133333D01*
X170773809Y-135133333D01*
X170964285Y-135085714D01*
X171059523Y-135038095D01*
X171154761Y-134942857D01*
X171202380Y-134800000D01*
X171202380Y-134704761D01*
X171154761Y-134561904D01*
X171107142Y-134514285D01*
X170773809Y-134514285D01*
X170773809Y-134704761D01*
X171202380Y-134085714D02*
X170202380Y-134085714D01*
X171202380Y-133514285D01*
X170202380Y-133514285D01*
X171202380Y-133038095D02*
X170202380Y-133038095D01*
X170202380Y-132800000D01*
X170250000Y-132657142D01*
X170345238Y-132561904D01*
X170440476Y-132514285D01*
X170630952Y-132466666D01*
X170773809Y-132466666D01*
X170964285Y-132514285D01*
X171059523Y-132561904D01*
X171154761Y-132657142D01*
X171202380Y-132800000D01*
X171202380Y-133038095D01*
X167702380Y-135166666D02*
X167702380Y-134595238D01*
X168702380Y-134880952D02*
X167702380Y-134880952D01*
X168702380Y-134357142D02*
X168035714Y-133833333D01*
X168035714Y-134357142D02*
X168702380Y-133833333D01*
X167702380Y-133261904D02*
X167702380Y-133166666D01*
X167750000Y-133071428D01*
X167797619Y-133023809D01*
X167892857Y-132976190D01*
X168083333Y-132928571D01*
X168321428Y-132928571D01*
X168511904Y-132976190D01*
X168607142Y-133023809D01*
X168654761Y-133071428D01*
X168702380Y-133166666D01*
X168702380Y-133261904D01*
X168654761Y-133357142D01*
X168607142Y-133404761D01*
X168511904Y-133452380D01*
X168321428Y-133500000D01*
X168083333Y-133500000D01*
X167892857Y-133452380D01*
X167797619Y-133404761D01*
X167750000Y-133357142D01*
X167702380Y-133261904D01*
X144950000Y-121050000D02*
X144950000Y-126500000D01*
X154950000Y-131600000D02*
X154950000Y-137050000D01*
X135000000Y-131850000D02*
X135000000Y-137300000D01*
X152988095Y-130821428D02*
X153750000Y-130821428D01*
X153369047Y-131202380D02*
X153369047Y-130440476D01*
X154654761Y-130535714D02*
X154654761Y-131202380D01*
X154416666Y-130154761D02*
X154178571Y-130869047D01*
X154797619Y-130869047D01*
X155369047Y-130202380D02*
X155464285Y-130202380D01*
X155559523Y-130250000D01*
X155607142Y-130297619D01*
X155654761Y-130392857D01*
X155702380Y-130583333D01*
X155702380Y-130821428D01*
X155654761Y-131011904D01*
X155607142Y-131107142D01*
X155559523Y-131154761D01*
X155464285Y-131202380D01*
X155369047Y-131202380D01*
X155273809Y-131154761D01*
X155226190Y-131107142D01*
X155178571Y-131011904D01*
X155130952Y-130821428D01*
X155130952Y-130583333D01*
X155178571Y-130392857D01*
X155226190Y-130297619D01*
X155273809Y-130250000D01*
X155369047Y-130202380D01*
X155988095Y-130202380D02*
X156321428Y-131202380D01*
X156654761Y-130202380D01*
X144238095Y-119650000D02*
X144142857Y-119602380D01*
X144000000Y-119602380D01*
X143857142Y-119650000D01*
X143761904Y-119745238D01*
X143714285Y-119840476D01*
X143666666Y-120030952D01*
X143666666Y-120173809D01*
X143714285Y-120364285D01*
X143761904Y-120459523D01*
X143857142Y-120554761D01*
X144000000Y-120602380D01*
X144095238Y-120602380D01*
X144238095Y-120554761D01*
X144285714Y-120507142D01*
X144285714Y-120173809D01*
X144095238Y-120173809D01*
X144714285Y-120602380D02*
X144714285Y-119602380D01*
X145285714Y-120602380D01*
X145285714Y-119602380D01*
X145761904Y-120602380D02*
X145761904Y-119602380D01*
X146000000Y-119602380D01*
X146142857Y-119650000D01*
X146238095Y-119745238D01*
X146285714Y-119840476D01*
X146333333Y-120030952D01*
X146333333Y-120173809D01*
X146285714Y-120364285D01*
X146238095Y-120459523D01*
X146142857Y-120554761D01*
X146000000Y-120602380D01*
X145761904Y-120602380D01*
X132888095Y-131121428D02*
X133650000Y-131121428D01*
X134554761Y-130835714D02*
X134554761Y-131502380D01*
X134316666Y-130454761D02*
X134078571Y-131169047D01*
X134697619Y-131169047D01*
X135269047Y-130502380D02*
X135364285Y-130502380D01*
X135459523Y-130550000D01*
X135507142Y-130597619D01*
X135554761Y-130692857D01*
X135602380Y-130883333D01*
X135602380Y-131121428D01*
X135554761Y-131311904D01*
X135507142Y-131407142D01*
X135459523Y-131454761D01*
X135364285Y-131502380D01*
X135269047Y-131502380D01*
X135173809Y-131454761D01*
X135126190Y-131407142D01*
X135078571Y-131311904D01*
X135030952Y-131121428D01*
X135030952Y-130883333D01*
X135078571Y-130692857D01*
X135126190Y-130597619D01*
X135173809Y-130550000D01*
X135269047Y-130502380D01*
X135888095Y-130502380D02*
X136221428Y-131502380D01*
X136554761Y-130502380D01*
D11*
X203720000Y-105480000D02*
X206380000Y-105480000D01*
X203720000Y-102880000D02*
X203720000Y-105480000D01*
X206380000Y-102880000D02*
X206380000Y-105480000D01*
X203720000Y-102880000D02*
X206380000Y-102880000D01*
X203720000Y-101610000D02*
X203720000Y-100280000D01*
X203720000Y-100280000D02*
X205050000Y-100280000D01*
X203710800Y-53260600D02*
X206370800Y-53260600D01*
X203710800Y-50660600D02*
X203710800Y-53260600D01*
X206370800Y-50660600D02*
X206370800Y-53260600D01*
X203710800Y-50660600D02*
X206370800Y-50660600D01*
X203710800Y-49390600D02*
X203710800Y-48060600D01*
X203710800Y-48060600D02*
X205040800Y-48060600D01*
X99840000Y-41820000D02*
X99840000Y-44480000D01*
X117680000Y-41820000D02*
X99840000Y-41820000D01*
X117680000Y-44480000D02*
X99840000Y-44480000D01*
X117680000Y-41820000D02*
X117680000Y-44480000D01*
X118950000Y-41820000D02*
X120280000Y-41820000D01*
X120280000Y-41820000D02*
X120280000Y-43150000D01*
X123140000Y-41920000D02*
X123140000Y-44580000D01*
X140980000Y-41920000D02*
X123140000Y-41920000D01*
X140980000Y-44580000D02*
X123140000Y-44580000D01*
X140980000Y-41920000D02*
X140980000Y-44580000D01*
X142250000Y-41920000D02*
X143580000Y-41920000D01*
X143580000Y-41920000D02*
X143580000Y-43250000D01*
X146580000Y-41920000D02*
X146580000Y-44580000D01*
X164420000Y-41920000D02*
X146580000Y-41920000D01*
X164420000Y-44580000D02*
X146580000Y-44580000D01*
X164420000Y-41920000D02*
X164420000Y-44580000D01*
X165690000Y-41920000D02*
X167020000Y-41920000D01*
X167020000Y-41920000D02*
X167020000Y-43250000D01*
X169896200Y-41863800D02*
X169896200Y-44523800D01*
X187736200Y-41863800D02*
X169896200Y-41863800D01*
X187736200Y-44523800D02*
X169896200Y-44523800D01*
X187736200Y-41863800D02*
X187736200Y-44523800D01*
X189006200Y-41863800D02*
X190336200Y-41863800D01*
X190336200Y-41863800D02*
X190336200Y-43193800D01*
X135239300Y-112497100D02*
X135239300Y-111997100D01*
X134989300Y-112247100D02*
X135489300Y-112247100D01*
X143785800Y-106290000D02*
X140335800Y-106290000D01*
X143785800Y-106290000D02*
X145735800Y-106290000D01*
X143785800Y-111410000D02*
X141835800Y-111410000D01*
X143785800Y-111410000D02*
X145735800Y-111410000D01*
X140940000Y-86485000D02*
X140940000Y-86960000D01*
X149160000Y-78740000D02*
X148685000Y-78740000D01*
X149160000Y-79215000D02*
X149160000Y-78740000D01*
X149160000Y-86960000D02*
X148685000Y-86960000D01*
X149160000Y-86485000D02*
X149160000Y-86960000D01*
X140940000Y-78740000D02*
X141415000Y-78740000D01*
X140940000Y-79215000D02*
X140940000Y-78740000D01*
X83720000Y-100370000D02*
X85050000Y-100370000D01*
X83720000Y-101700000D02*
X83720000Y-100370000D01*
X83720000Y-102970000D02*
X86380000Y-102970000D01*
X86380000Y-102970000D02*
X86380000Y-105570000D01*
X83720000Y-102970000D02*
X83720000Y-105570000D01*
X83720000Y-105570000D02*
X86380000Y-105570000D01*
X83720000Y-89670000D02*
X85050000Y-89670000D01*
X83720000Y-91000000D02*
X83720000Y-89670000D01*
X83720000Y-92270000D02*
X86380000Y-92270000D01*
X86380000Y-92270000D02*
X86380000Y-94870000D01*
X83720000Y-92270000D02*
X83720000Y-94870000D01*
X83720000Y-94870000D02*
X86380000Y-94870000D01*
X83720000Y-79070000D02*
X85050000Y-79070000D01*
X83720000Y-80400000D02*
X83720000Y-79070000D01*
X83720000Y-81670000D02*
X86380000Y-81670000D01*
X86380000Y-81670000D02*
X86380000Y-84270000D01*
X83720000Y-81670000D02*
X83720000Y-84270000D01*
X83720000Y-84270000D02*
X86380000Y-84270000D01*
X83720000Y-68370000D02*
X85050000Y-68370000D01*
X83720000Y-69700000D02*
X83720000Y-68370000D01*
X83720000Y-70970000D02*
X86380000Y-70970000D01*
X86380000Y-70970000D02*
X86380000Y-73570000D01*
X83720000Y-70970000D02*
X83720000Y-73570000D01*
X83720000Y-73570000D02*
X86380000Y-73570000D01*
X83720000Y-57770000D02*
X85050000Y-57770000D01*
X83720000Y-59100000D02*
X83720000Y-57770000D01*
X83720000Y-60370000D02*
X86380000Y-60370000D01*
X86380000Y-60370000D02*
X86380000Y-62970000D01*
X83720000Y-60370000D02*
X83720000Y-62970000D01*
X83720000Y-62970000D02*
X86380000Y-62970000D01*
X123180000Y-137220000D02*
X123180000Y-138550000D01*
X121850000Y-137220000D02*
X123180000Y-137220000D01*
X120580000Y-137220000D02*
X120580000Y-139880000D01*
X120580000Y-139880000D02*
X117980000Y-139880000D01*
X120580000Y-137220000D02*
X117980000Y-137220000D01*
X117980000Y-137220000D02*
X117980000Y-139880000D01*
X101820000Y-137220000D02*
X101820000Y-138550000D01*
X100490000Y-137220000D02*
X101820000Y-137220000D01*
X99220000Y-137220000D02*
X99220000Y-139880000D01*
X99220000Y-139880000D02*
X96620000Y-139880000D01*
X99220000Y-137220000D02*
X96620000Y-137220000D01*
X96620000Y-137220000D02*
X96620000Y-139880000D01*
X83720000Y-110970000D02*
X85050000Y-110970000D01*
X83720000Y-112300000D02*
X83720000Y-110970000D01*
X83720000Y-113570000D02*
X86380000Y-113570000D01*
X86380000Y-113570000D02*
X86380000Y-116170000D01*
X83720000Y-113570000D02*
X83720000Y-116170000D01*
X83720000Y-116170000D02*
X86380000Y-116170000D01*
X203720000Y-62880000D02*
X206380000Y-62880000D01*
X203720000Y-60280000D02*
X203720000Y-62880000D01*
X206380000Y-60280000D02*
X206380000Y-62880000D01*
X203720000Y-60280000D02*
X206380000Y-60280000D01*
X203720000Y-59010000D02*
X203720000Y-57680000D01*
X203720000Y-57680000D02*
X205050000Y-57680000D01*
X203720000Y-68320000D02*
X205050000Y-68320000D01*
X203720000Y-69650000D02*
X203720000Y-68320000D01*
X203720000Y-70920000D02*
X206380000Y-70920000D01*
X206380000Y-70920000D02*
X206380000Y-73520000D01*
X203720000Y-70920000D02*
X203720000Y-73520000D01*
X203720000Y-73520000D02*
X206380000Y-73520000D01*
X203570000Y-79020000D02*
X204900000Y-79020000D01*
X203570000Y-80350000D02*
X203570000Y-79020000D01*
X203570000Y-81620000D02*
X206230000Y-81620000D01*
X206230000Y-81620000D02*
X206230000Y-84220000D01*
X203570000Y-81620000D02*
X203570000Y-84220000D01*
X203570000Y-84220000D02*
X206230000Y-84220000D01*
X203720000Y-89620000D02*
X205050000Y-89620000D01*
X203720000Y-90950000D02*
X203720000Y-89620000D01*
X203720000Y-92220000D02*
X206380000Y-92220000D01*
X206380000Y-92220000D02*
X206380000Y-94820000D01*
X203720000Y-92220000D02*
X203720000Y-94820000D01*
X203720000Y-94820000D02*
X206380000Y-94820000D01*
X203720000Y-116120000D02*
X206380000Y-116120000D01*
X203720000Y-113520000D02*
X203720000Y-116120000D01*
X206380000Y-113520000D02*
X206380000Y-116120000D01*
X203720000Y-113520000D02*
X206380000Y-113520000D01*
X203720000Y-112250000D02*
X203720000Y-110920000D01*
X203720000Y-110920000D02*
X205050000Y-110920000D01*
X193480000Y-137220000D02*
X193480000Y-138550000D01*
X192150000Y-137220000D02*
X193480000Y-137220000D01*
X190880000Y-137220000D02*
X190880000Y-139880000D01*
X190880000Y-139880000D02*
X188280000Y-139880000D01*
X190880000Y-137220000D02*
X188280000Y-137220000D01*
X188280000Y-137220000D02*
X188280000Y-139880000D01*
X172080000Y-137220000D02*
X172080000Y-138550000D01*
X170750000Y-137220000D02*
X172080000Y-137220000D01*
X169480000Y-137220000D02*
X169480000Y-139880000D01*
X169480000Y-139880000D02*
X166880000Y-139880000D01*
X169480000Y-137220000D02*
X166880000Y-137220000D01*
X166880000Y-137220000D02*
X166880000Y-139880000D01*
X145611252Y-134740000D02*
X145088748Y-134740000D01*
X145611252Y-136160000D02*
X145088748Y-136160000D01*
X139940000Y-101713748D02*
X139940000Y-102236252D01*
X141360000Y-101713748D02*
X141360000Y-102236252D01*
X145611252Y-138640000D02*
X145088748Y-138640000D01*
X145611252Y-140060000D02*
X145088748Y-140060000D01*
X154513748Y-79760000D02*
X155036252Y-79760000D01*
X154513748Y-78340000D02*
X155036252Y-78340000D01*
X145860000Y-68086252D02*
X145860000Y-67563748D01*
X144440000Y-68086252D02*
X144440000Y-67563748D01*
X144760000Y-102186252D02*
X144760000Y-101663748D01*
X143340000Y-102186252D02*
X143340000Y-101663748D01*
X149360800Y-108054348D02*
X149360800Y-108576852D01*
X150780800Y-108054348D02*
X150780800Y-108576852D01*
D10*
X149790476Y-136752380D02*
X149790476Y-137466666D01*
X149742857Y-137609523D01*
X149647619Y-137704761D01*
X149504761Y-137752380D01*
X149409523Y-137752380D01*
X150171428Y-136752380D02*
X150790476Y-136752380D01*
X150457142Y-137133333D01*
X150600000Y-137133333D01*
X150695238Y-137180952D01*
X150742857Y-137228571D01*
X150790476Y-137323809D01*
X150790476Y-137561904D01*
X150742857Y-137657142D01*
X150695238Y-137704761D01*
X150600000Y-137752380D01*
X150314285Y-137752380D01*
X150219047Y-137704761D01*
X150171428Y-137657142D01*
X151647619Y-137085714D02*
X151647619Y-137752380D01*
X151409523Y-136704761D02*
X151171428Y-137419047D01*
X151790476Y-137419047D01*
X137104133Y-114247742D02*
X137056514Y-114295361D01*
X136913657Y-114342980D01*
X136818419Y-114342980D01*
X136675561Y-114295361D01*
X136580323Y-114200123D01*
X136532704Y-114104885D01*
X136485085Y-113914409D01*
X136485085Y-113771552D01*
X136532704Y-113581076D01*
X136580323Y-113485838D01*
X136675561Y-113390600D01*
X136818419Y-113342980D01*
X136913657Y-113342980D01*
X137056514Y-113390600D01*
X137104133Y-113438219D01*
X137437466Y-113342980D02*
X138104133Y-113342980D01*
X137675561Y-114342980D01*
X144190476Y-130252380D02*
X144190476Y-130966666D01*
X144142857Y-131109523D01*
X144047619Y-131204761D01*
X143904761Y-131252380D01*
X143809523Y-131252380D01*
X144571428Y-130252380D02*
X145190476Y-130252380D01*
X144857142Y-130633333D01*
X145000000Y-130633333D01*
X145095238Y-130680952D01*
X145142857Y-130728571D01*
X145190476Y-130823809D01*
X145190476Y-131061904D01*
X145142857Y-131157142D01*
X145095238Y-131204761D01*
X145000000Y-131252380D01*
X144714285Y-131252380D01*
X144619047Y-131204761D01*
X144571428Y-131157142D01*
X146095238Y-130252380D02*
X145619047Y-130252380D01*
X145571428Y-130728571D01*
X145619047Y-130680952D01*
X145714285Y-130633333D01*
X145952380Y-130633333D01*
X146047619Y-130680952D01*
X146095238Y-130728571D01*
X146142857Y-130823809D01*
X146142857Y-131061904D01*
X146095238Y-131157142D01*
X146047619Y-131204761D01*
X145952380Y-131252380D01*
X145714285Y-131252380D01*
X145619047Y-131204761D01*
X145571428Y-131157142D01*
X138590476Y-136752380D02*
X138590476Y-137466666D01*
X138542857Y-137609523D01*
X138447619Y-137704761D01*
X138304761Y-137752380D01*
X138209523Y-137752380D01*
X138971428Y-136752380D02*
X139590476Y-136752380D01*
X139257142Y-137133333D01*
X139400000Y-137133333D01*
X139495238Y-137180952D01*
X139542857Y-137228571D01*
X139590476Y-137323809D01*
X139590476Y-137561904D01*
X139542857Y-137657142D01*
X139495238Y-137704761D01*
X139400000Y-137752380D01*
X139114285Y-137752380D01*
X139019047Y-137704761D01*
X138971428Y-137657142D01*
X139923809Y-136752380D02*
X140542857Y-136752380D01*
X140209523Y-137133333D01*
X140352380Y-137133333D01*
X140447619Y-137180952D01*
X140495238Y-137228571D01*
X140542857Y-137323809D01*
X140542857Y-137561904D01*
X140495238Y-137657142D01*
X140447619Y-137704761D01*
X140352380Y-137752380D01*
X140066666Y-137752380D01*
X139971428Y-137704761D01*
X139923809Y-137657142D01*
X145633095Y-104371780D02*
X145633095Y-105181304D01*
X145680714Y-105276542D01*
X145728333Y-105324161D01*
X145823571Y-105371780D01*
X146014047Y-105371780D01*
X146109285Y-105324161D01*
X146156904Y-105276542D01*
X146204523Y-105181304D01*
X146204523Y-104371780D01*
X146633095Y-104467019D02*
X146680714Y-104419400D01*
X146775952Y-104371780D01*
X147014047Y-104371780D01*
X147109285Y-104419400D01*
X147156904Y-104467019D01*
X147204523Y-104562257D01*
X147204523Y-104657495D01*
X147156904Y-104800352D01*
X146585476Y-105371780D01*
X147204523Y-105371780D01*
X144278895Y-87882980D02*
X144278895Y-88692504D01*
X144326514Y-88787742D01*
X144374133Y-88835361D01*
X144469371Y-88882980D01*
X144659847Y-88882980D01*
X144755085Y-88835361D01*
X144802704Y-88787742D01*
X144850323Y-88692504D01*
X144850323Y-87882980D01*
X145850323Y-88882980D02*
X145278895Y-88882980D01*
X145564609Y-88882980D02*
X145564609Y-87882980D01*
X145469371Y-88025838D01*
X145374133Y-88121076D01*
X145278895Y-88168695D01*
X145083333Y-133807142D02*
X145035714Y-133854761D01*
X144892857Y-133902380D01*
X144797619Y-133902380D01*
X144654761Y-133854761D01*
X144559523Y-133759523D01*
X144511904Y-133664285D01*
X144464285Y-133473809D01*
X144464285Y-133330952D01*
X144511904Y-133140476D01*
X144559523Y-133045238D01*
X144654761Y-132950000D01*
X144797619Y-132902380D01*
X144892857Y-132902380D01*
X145035714Y-132950000D01*
X145083333Y-132997619D01*
X146035714Y-133902380D02*
X145464285Y-133902380D01*
X145750000Y-133902380D02*
X145750000Y-132902380D01*
X145654761Y-133045238D01*
X145559523Y-133140476D01*
X145464285Y-133188095D01*
X139202380Y-102116666D02*
X138726190Y-102450000D01*
X139202380Y-102688095D02*
X138202380Y-102688095D01*
X138202380Y-102307142D01*
X138250000Y-102211904D01*
X138297619Y-102164285D01*
X138392857Y-102116666D01*
X138535714Y-102116666D01*
X138630952Y-102164285D01*
X138678571Y-102211904D01*
X138726190Y-102307142D01*
X138726190Y-102688095D01*
X139202380Y-101164285D02*
X139202380Y-101735714D01*
X139202380Y-101450000D02*
X138202380Y-101450000D01*
X138345238Y-101545238D01*
X138440476Y-101640476D01*
X138488095Y-101735714D01*
X145183333Y-137657142D02*
X145135714Y-137704761D01*
X144992857Y-137752380D01*
X144897619Y-137752380D01*
X144754761Y-137704761D01*
X144659523Y-137609523D01*
X144611904Y-137514285D01*
X144564285Y-137323809D01*
X144564285Y-137180952D01*
X144611904Y-136990476D01*
X144659523Y-136895238D01*
X144754761Y-136800000D01*
X144897619Y-136752380D01*
X144992857Y-136752380D01*
X145135714Y-136800000D01*
X145183333Y-136847619D01*
X145564285Y-136847619D02*
X145611904Y-136800000D01*
X145707142Y-136752380D01*
X145945238Y-136752380D01*
X146040476Y-136800000D01*
X146088095Y-136847619D01*
X146135714Y-136942857D01*
X146135714Y-137038095D01*
X146088095Y-137180952D01*
X145516666Y-137752380D01*
X146135714Y-137752380D01*
X154583333Y-77307142D02*
X154535714Y-77354761D01*
X154392857Y-77402380D01*
X154297619Y-77402380D01*
X154154761Y-77354761D01*
X154059523Y-77259523D01*
X154011904Y-77164285D01*
X153964285Y-76973809D01*
X153964285Y-76830952D01*
X154011904Y-76640476D01*
X154059523Y-76545238D01*
X154154761Y-76450000D01*
X154297619Y-76402380D01*
X154392857Y-76402380D01*
X154535714Y-76450000D01*
X154583333Y-76497619D01*
X154916666Y-76402380D02*
X155535714Y-76402380D01*
X155202380Y-76783333D01*
X155345238Y-76783333D01*
X155440476Y-76830952D01*
X155488095Y-76878571D01*
X155535714Y-76973809D01*
X155535714Y-77211904D01*
X155488095Y-77307142D01*
X155440476Y-77354761D01*
X155345238Y-77402380D01*
X155059523Y-77402380D01*
X154964285Y-77354761D01*
X154916666Y-77307142D01*
X143397942Y-67897266D02*
X143445561Y-67944885D01*
X143493180Y-68087742D01*
X143493180Y-68182980D01*
X143445561Y-68325838D01*
X143350323Y-68421076D01*
X143255085Y-68468695D01*
X143064609Y-68516314D01*
X142921752Y-68516314D01*
X142731276Y-68468695D01*
X142636038Y-68421076D01*
X142540800Y-68325838D01*
X142493180Y-68182980D01*
X142493180Y-68087742D01*
X142540800Y-67944885D01*
X142588419Y-67897266D01*
X142493180Y-66992504D02*
X142493180Y-67468695D01*
X142969371Y-67516314D01*
X142921752Y-67468695D01*
X142874133Y-67373457D01*
X142874133Y-67135361D01*
X142921752Y-67040123D01*
X142969371Y-66992504D01*
X143064609Y-66944885D01*
X143302704Y-66944885D01*
X143397942Y-66992504D01*
X143445561Y-67040123D01*
X143493180Y-67135361D01*
X143493180Y-67373457D01*
X143445561Y-67468695D01*
X143397942Y-67516314D01*
X143933333Y-99457142D02*
X143885714Y-99504761D01*
X143742857Y-99552380D01*
X143647619Y-99552380D01*
X143504761Y-99504761D01*
X143409523Y-99409523D01*
X143361904Y-99314285D01*
X143314285Y-99123809D01*
X143314285Y-98980952D01*
X143361904Y-98790476D01*
X143409523Y-98695238D01*
X143504761Y-98600000D01*
X143647619Y-98552380D01*
X143742857Y-98552380D01*
X143885714Y-98600000D01*
X143933333Y-98647619D01*
X144790476Y-98885714D02*
X144790476Y-99552380D01*
X144552380Y-98504761D02*
X144314285Y-99219047D01*
X144933333Y-99219047D01*
X149979133Y-111422742D02*
X149931514Y-111470361D01*
X149788657Y-111517980D01*
X149693419Y-111517980D01*
X149550561Y-111470361D01*
X149455323Y-111375123D01*
X149407704Y-111279885D01*
X149360085Y-111089409D01*
X149360085Y-110946552D01*
X149407704Y-110756076D01*
X149455323Y-110660838D01*
X149550561Y-110565600D01*
X149693419Y-110517980D01*
X149788657Y-110517980D01*
X149931514Y-110565600D01*
X149979133Y-110613219D01*
X150836276Y-110517980D02*
X150645800Y-110517980D01*
X150550561Y-110565600D01*
X150502942Y-110613219D01*
X150407704Y-110756076D01*
X150360085Y-110946552D01*
X150360085Y-111327504D01*
X150407704Y-111422742D01*
X150455323Y-111470361D01*
X150550561Y-111517980D01*
X150741038Y-111517980D01*
X150836276Y-111470361D01*
X150883895Y-111422742D01*
X150931514Y-111327504D01*
X150931514Y-111089409D01*
X150883895Y-110994171D01*
X150836276Y-110946552D01*
X150741038Y-110898933D01*
X150550561Y-110898933D01*
X150455323Y-110946552D01*
X150407704Y-110994171D01*
X150360085Y-111089409D01*
M02*
