G04 #@! TF.GenerationSoftware,KiCad,Pcbnew,(5.1.10-1-10_14)*
G04 #@! TF.CreationDate,2022-10-09T23:43:03+02:00*
G04 #@! TF.ProjectId,BoatCentralBoard,426f6174-4365-46e7-9472-616c426f6172,rev?*
G04 #@! TF.SameCoordinates,Original*
G04 #@! TF.FileFunction,Soldermask,Top*
G04 #@! TF.FilePolarity,Negative*
%FSLAX46Y46*%
G04 Gerber Fmt 4.6, Leading zero omitted, Abs format (unit mm)*
G04 Created by KiCad (PCBNEW (5.1.10-1-10_14)) date 2022-10-09 23:43:03*
%MOMM*%
%LPD*%
G01*
G04 APERTURE LIST*
%ADD10C,5.000000*%
%ADD11C,2.500000*%
%ADD12R,1.700000X1.700000*%
%ADD13O,1.700000X1.700000*%
G04 APERTURE END LIST*
D10*
X86790800Y-137280600D03*
X203440800Y-137280600D03*
X203390800Y-44030600D03*
X86790800Y-43980600D03*
D11*
X169625000Y-102975000D03*
X166450000Y-106150000D03*
X172800000Y-106150000D03*
X166450000Y-99800000D03*
X172800000Y-99800000D03*
D12*
X205050000Y-101610000D03*
D13*
X205050000Y-104150000D03*
D11*
X153210000Y-135510000D03*
X156580000Y-135510000D03*
X156580000Y-138880000D03*
X153210000Y-138880000D03*
D12*
X205040800Y-49390600D03*
D13*
X205040800Y-51930600D03*
D12*
X118950000Y-43150000D03*
D13*
X116410000Y-43150000D03*
X113870000Y-43150000D03*
X111330000Y-43150000D03*
X108790000Y-43150000D03*
X106250000Y-43150000D03*
X103710000Y-43150000D03*
X101170000Y-43150000D03*
D12*
X142250000Y-43250000D03*
D13*
X139710000Y-43250000D03*
X137170000Y-43250000D03*
X134630000Y-43250000D03*
X132090000Y-43250000D03*
X129550000Y-43250000D03*
X127010000Y-43250000D03*
X124470000Y-43250000D03*
D12*
X165690000Y-43250000D03*
D13*
X163150000Y-43250000D03*
X160610000Y-43250000D03*
X158070000Y-43250000D03*
X155530000Y-43250000D03*
X152990000Y-43250000D03*
X150450000Y-43250000D03*
X147910000Y-43250000D03*
D12*
X189006200Y-43193800D03*
D13*
X186466200Y-43193800D03*
X183926200Y-43193800D03*
X181386200Y-43193800D03*
X178846200Y-43193800D03*
X176306200Y-43193800D03*
X173766200Y-43193800D03*
X171226200Y-43193800D03*
G36*
G01*
X137870400Y-112690600D02*
X136769600Y-112690600D01*
G75*
G02*
X136520000Y-112441000I0J249600D01*
G01*
X136520000Y-110140200D01*
G75*
G02*
X136769600Y-109890600I249600J0D01*
G01*
X137870400Y-109890600D01*
G75*
G02*
X138120000Y-110140200I0J-249600D01*
G01*
X138120000Y-112441000D01*
G75*
G02*
X137870400Y-112690600I-249600J0D01*
G01*
G37*
G36*
G01*
X137921200Y-108690600D02*
X136820400Y-108690600D01*
G75*
G02*
X136570800Y-108441000I0J249600D01*
G01*
X136570800Y-106140200D01*
G75*
G02*
X136820400Y-105890600I249600J0D01*
G01*
X137921200Y-105890600D01*
G75*
G02*
X138170800Y-106140200I0J-249600D01*
G01*
X138170800Y-108441000D01*
G75*
G02*
X137921200Y-108690600I-249600J0D01*
G01*
G37*
D11*
X169550000Y-124350000D03*
X172725000Y-127525000D03*
X172725000Y-121175000D03*
X166375000Y-127525000D03*
X166375000Y-121175000D03*
X169590800Y-81630600D03*
X172765800Y-78455600D03*
X166415800Y-78455600D03*
X172765800Y-84805600D03*
X166415800Y-84805600D03*
X190890800Y-81625000D03*
X194065800Y-78450000D03*
X187715800Y-78450000D03*
X194065800Y-84800000D03*
X187715800Y-84800000D03*
X169590800Y-60275000D03*
X172765800Y-57100000D03*
X166415800Y-57100000D03*
X172765800Y-63450000D03*
X166415800Y-63450000D03*
X120650000Y-102850000D03*
X117475000Y-99675000D03*
X117475000Y-106025000D03*
X123825000Y-99675000D03*
X123825000Y-106025000D03*
X99350000Y-124250000D03*
X96175000Y-121075000D03*
X96175000Y-127425000D03*
X102525000Y-121075000D03*
X102525000Y-127425000D03*
X120650000Y-124275000D03*
X123825000Y-121100000D03*
X117475000Y-121100000D03*
X123825000Y-127450000D03*
X117475000Y-127450000D03*
X99350000Y-60150000D03*
X96175000Y-56975000D03*
X96175000Y-63325000D03*
X102525000Y-56975000D03*
X102525000Y-63325000D03*
X120550000Y-81550000D03*
X117375000Y-78375000D03*
X117375000Y-84725000D03*
X123725000Y-78375000D03*
X123725000Y-84725000D03*
X99150000Y-81650000D03*
X95975000Y-78475000D03*
X95975000Y-84825000D03*
X102325000Y-78475000D03*
X102325000Y-84825000D03*
X99250000Y-102850000D03*
X96075000Y-99675000D03*
X96075000Y-106025000D03*
X102425000Y-99675000D03*
X102425000Y-106025000D03*
X143250000Y-124950000D03*
X146620000Y-124950000D03*
X146620000Y-128320000D03*
X143250000Y-128320000D03*
X190850000Y-124350000D03*
X194025000Y-121175000D03*
X187675000Y-121175000D03*
X194025000Y-127525000D03*
X187675000Y-127525000D03*
X190940800Y-60280600D03*
X187765800Y-57105600D03*
X187765800Y-63455600D03*
X194115800Y-57105600D03*
X194115800Y-63455600D03*
X120650000Y-60150000D03*
X117475000Y-56975000D03*
X117475000Y-63325000D03*
X123825000Y-56975000D03*
X123825000Y-63325000D03*
X191025000Y-102875000D03*
X187850000Y-106050000D03*
X194200000Y-106050000D03*
X187850000Y-99700000D03*
X194200000Y-99700000D03*
X136650000Y-138920000D03*
X133280000Y-138920000D03*
X133280000Y-135550000D03*
X136650000Y-135550000D03*
G36*
G01*
X145285800Y-107095000D02*
X145285800Y-106795000D01*
G75*
G02*
X145435800Y-106645000I150000J0D01*
G01*
X147085800Y-106645000D01*
G75*
G02*
X147235800Y-106795000I0J-150000D01*
G01*
X147235800Y-107095000D01*
G75*
G02*
X147085800Y-107245000I-150000J0D01*
G01*
X145435800Y-107245000D01*
G75*
G02*
X145285800Y-107095000I0J150000D01*
G01*
G37*
G36*
G01*
X145285800Y-108365000D02*
X145285800Y-108065000D01*
G75*
G02*
X145435800Y-107915000I150000J0D01*
G01*
X147085800Y-107915000D01*
G75*
G02*
X147235800Y-108065000I0J-150000D01*
G01*
X147235800Y-108365000D01*
G75*
G02*
X147085800Y-108515000I-150000J0D01*
G01*
X145435800Y-108515000D01*
G75*
G02*
X145285800Y-108365000I0J150000D01*
G01*
G37*
G36*
G01*
X145285800Y-109635000D02*
X145285800Y-109335000D01*
G75*
G02*
X145435800Y-109185000I150000J0D01*
G01*
X147085800Y-109185000D01*
G75*
G02*
X147235800Y-109335000I0J-150000D01*
G01*
X147235800Y-109635000D01*
G75*
G02*
X147085800Y-109785000I-150000J0D01*
G01*
X145435800Y-109785000D01*
G75*
G02*
X145285800Y-109635000I0J150000D01*
G01*
G37*
G36*
G01*
X145285800Y-110905000D02*
X145285800Y-110605000D01*
G75*
G02*
X145435800Y-110455000I150000J0D01*
G01*
X147085800Y-110455000D01*
G75*
G02*
X147235800Y-110605000I0J-150000D01*
G01*
X147235800Y-110905000D01*
G75*
G02*
X147085800Y-111055000I-150000J0D01*
G01*
X145435800Y-111055000D01*
G75*
G02*
X145285800Y-110905000I0J150000D01*
G01*
G37*
G36*
G01*
X140335800Y-110905000D02*
X140335800Y-110605000D01*
G75*
G02*
X140485800Y-110455000I150000J0D01*
G01*
X142135800Y-110455000D01*
G75*
G02*
X142285800Y-110605000I0J-150000D01*
G01*
X142285800Y-110905000D01*
G75*
G02*
X142135800Y-111055000I-150000J0D01*
G01*
X140485800Y-111055000D01*
G75*
G02*
X140335800Y-110905000I0J150000D01*
G01*
G37*
G36*
G01*
X140335800Y-109635000D02*
X140335800Y-109335000D01*
G75*
G02*
X140485800Y-109185000I150000J0D01*
G01*
X142135800Y-109185000D01*
G75*
G02*
X142285800Y-109335000I0J-150000D01*
G01*
X142285800Y-109635000D01*
G75*
G02*
X142135800Y-109785000I-150000J0D01*
G01*
X140485800Y-109785000D01*
G75*
G02*
X140335800Y-109635000I0J150000D01*
G01*
G37*
G36*
G01*
X140335800Y-108365000D02*
X140335800Y-108065000D01*
G75*
G02*
X140485800Y-107915000I150000J0D01*
G01*
X142135800Y-107915000D01*
G75*
G02*
X142285800Y-108065000I0J-150000D01*
G01*
X142285800Y-108365000D01*
G75*
G02*
X142135800Y-108515000I-150000J0D01*
G01*
X140485800Y-108515000D01*
G75*
G02*
X140335800Y-108365000I0J150000D01*
G01*
G37*
G36*
G01*
X140335800Y-107095000D02*
X140335800Y-106795000D01*
G75*
G02*
X140485800Y-106645000I150000J0D01*
G01*
X142135800Y-106645000D01*
G75*
G02*
X142285800Y-106795000I0J-150000D01*
G01*
X142285800Y-107095000D01*
G75*
G02*
X142135800Y-107245000I-150000J0D01*
G01*
X140485800Y-107245000D01*
G75*
G02*
X140335800Y-107095000I0J150000D01*
G01*
G37*
G36*
G01*
X141487500Y-86225000D02*
X140737500Y-86225000D01*
G75*
G02*
X140675000Y-86162500I0J62500D01*
G01*
X140675000Y-86037500D01*
G75*
G02*
X140737500Y-85975000I62500J0D01*
G01*
X141487500Y-85975000D01*
G75*
G02*
X141550000Y-86037500I0J-62500D01*
G01*
X141550000Y-86162500D01*
G75*
G02*
X141487500Y-86225000I-62500J0D01*
G01*
G37*
G36*
G01*
X141487500Y-85725000D02*
X140737500Y-85725000D01*
G75*
G02*
X140675000Y-85662500I0J62500D01*
G01*
X140675000Y-85537500D01*
G75*
G02*
X140737500Y-85475000I62500J0D01*
G01*
X141487500Y-85475000D01*
G75*
G02*
X141550000Y-85537500I0J-62500D01*
G01*
X141550000Y-85662500D01*
G75*
G02*
X141487500Y-85725000I-62500J0D01*
G01*
G37*
G36*
G01*
X141487500Y-85225000D02*
X140737500Y-85225000D01*
G75*
G02*
X140675000Y-85162500I0J62500D01*
G01*
X140675000Y-85037500D01*
G75*
G02*
X140737500Y-84975000I62500J0D01*
G01*
X141487500Y-84975000D01*
G75*
G02*
X141550000Y-85037500I0J-62500D01*
G01*
X141550000Y-85162500D01*
G75*
G02*
X141487500Y-85225000I-62500J0D01*
G01*
G37*
G36*
G01*
X141487500Y-84725000D02*
X140737500Y-84725000D01*
G75*
G02*
X140675000Y-84662500I0J62500D01*
G01*
X140675000Y-84537500D01*
G75*
G02*
X140737500Y-84475000I62500J0D01*
G01*
X141487500Y-84475000D01*
G75*
G02*
X141550000Y-84537500I0J-62500D01*
G01*
X141550000Y-84662500D01*
G75*
G02*
X141487500Y-84725000I-62500J0D01*
G01*
G37*
G36*
G01*
X141487500Y-84225000D02*
X140737500Y-84225000D01*
G75*
G02*
X140675000Y-84162500I0J62500D01*
G01*
X140675000Y-84037500D01*
G75*
G02*
X140737500Y-83975000I62500J0D01*
G01*
X141487500Y-83975000D01*
G75*
G02*
X141550000Y-84037500I0J-62500D01*
G01*
X141550000Y-84162500D01*
G75*
G02*
X141487500Y-84225000I-62500J0D01*
G01*
G37*
G36*
G01*
X141487500Y-83725000D02*
X140737500Y-83725000D01*
G75*
G02*
X140675000Y-83662500I0J62500D01*
G01*
X140675000Y-83537500D01*
G75*
G02*
X140737500Y-83475000I62500J0D01*
G01*
X141487500Y-83475000D01*
G75*
G02*
X141550000Y-83537500I0J-62500D01*
G01*
X141550000Y-83662500D01*
G75*
G02*
X141487500Y-83725000I-62500J0D01*
G01*
G37*
G36*
G01*
X141487500Y-83225000D02*
X140737500Y-83225000D01*
G75*
G02*
X140675000Y-83162500I0J62500D01*
G01*
X140675000Y-83037500D01*
G75*
G02*
X140737500Y-82975000I62500J0D01*
G01*
X141487500Y-82975000D01*
G75*
G02*
X141550000Y-83037500I0J-62500D01*
G01*
X141550000Y-83162500D01*
G75*
G02*
X141487500Y-83225000I-62500J0D01*
G01*
G37*
G36*
G01*
X141487500Y-82725000D02*
X140737500Y-82725000D01*
G75*
G02*
X140675000Y-82662500I0J62500D01*
G01*
X140675000Y-82537500D01*
G75*
G02*
X140737500Y-82475000I62500J0D01*
G01*
X141487500Y-82475000D01*
G75*
G02*
X141550000Y-82537500I0J-62500D01*
G01*
X141550000Y-82662500D01*
G75*
G02*
X141487500Y-82725000I-62500J0D01*
G01*
G37*
G36*
G01*
X141487500Y-82225000D02*
X140737500Y-82225000D01*
G75*
G02*
X140675000Y-82162500I0J62500D01*
G01*
X140675000Y-82037500D01*
G75*
G02*
X140737500Y-81975000I62500J0D01*
G01*
X141487500Y-81975000D01*
G75*
G02*
X141550000Y-82037500I0J-62500D01*
G01*
X141550000Y-82162500D01*
G75*
G02*
X141487500Y-82225000I-62500J0D01*
G01*
G37*
G36*
G01*
X141487500Y-81725000D02*
X140737500Y-81725000D01*
G75*
G02*
X140675000Y-81662500I0J62500D01*
G01*
X140675000Y-81537500D01*
G75*
G02*
X140737500Y-81475000I62500J0D01*
G01*
X141487500Y-81475000D01*
G75*
G02*
X141550000Y-81537500I0J-62500D01*
G01*
X141550000Y-81662500D01*
G75*
G02*
X141487500Y-81725000I-62500J0D01*
G01*
G37*
G36*
G01*
X141487500Y-81225000D02*
X140737500Y-81225000D01*
G75*
G02*
X140675000Y-81162500I0J62500D01*
G01*
X140675000Y-81037500D01*
G75*
G02*
X140737500Y-80975000I62500J0D01*
G01*
X141487500Y-80975000D01*
G75*
G02*
X141550000Y-81037500I0J-62500D01*
G01*
X141550000Y-81162500D01*
G75*
G02*
X141487500Y-81225000I-62500J0D01*
G01*
G37*
G36*
G01*
X141487500Y-80725000D02*
X140737500Y-80725000D01*
G75*
G02*
X140675000Y-80662500I0J62500D01*
G01*
X140675000Y-80537500D01*
G75*
G02*
X140737500Y-80475000I62500J0D01*
G01*
X141487500Y-80475000D01*
G75*
G02*
X141550000Y-80537500I0J-62500D01*
G01*
X141550000Y-80662500D01*
G75*
G02*
X141487500Y-80725000I-62500J0D01*
G01*
G37*
G36*
G01*
X141487500Y-80225000D02*
X140737500Y-80225000D01*
G75*
G02*
X140675000Y-80162500I0J62500D01*
G01*
X140675000Y-80037500D01*
G75*
G02*
X140737500Y-79975000I62500J0D01*
G01*
X141487500Y-79975000D01*
G75*
G02*
X141550000Y-80037500I0J-62500D01*
G01*
X141550000Y-80162500D01*
G75*
G02*
X141487500Y-80225000I-62500J0D01*
G01*
G37*
G36*
G01*
X141487500Y-79725000D02*
X140737500Y-79725000D01*
G75*
G02*
X140675000Y-79662500I0J62500D01*
G01*
X140675000Y-79537500D01*
G75*
G02*
X140737500Y-79475000I62500J0D01*
G01*
X141487500Y-79475000D01*
G75*
G02*
X141550000Y-79537500I0J-62500D01*
G01*
X141550000Y-79662500D01*
G75*
G02*
X141487500Y-79725000I-62500J0D01*
G01*
G37*
G36*
G01*
X141862500Y-79350000D02*
X141737500Y-79350000D01*
G75*
G02*
X141675000Y-79287500I0J62500D01*
G01*
X141675000Y-78537500D01*
G75*
G02*
X141737500Y-78475000I62500J0D01*
G01*
X141862500Y-78475000D01*
G75*
G02*
X141925000Y-78537500I0J-62500D01*
G01*
X141925000Y-79287500D01*
G75*
G02*
X141862500Y-79350000I-62500J0D01*
G01*
G37*
G36*
G01*
X142362500Y-79350000D02*
X142237500Y-79350000D01*
G75*
G02*
X142175000Y-79287500I0J62500D01*
G01*
X142175000Y-78537500D01*
G75*
G02*
X142237500Y-78475000I62500J0D01*
G01*
X142362500Y-78475000D01*
G75*
G02*
X142425000Y-78537500I0J-62500D01*
G01*
X142425000Y-79287500D01*
G75*
G02*
X142362500Y-79350000I-62500J0D01*
G01*
G37*
G36*
G01*
X142862500Y-79350000D02*
X142737500Y-79350000D01*
G75*
G02*
X142675000Y-79287500I0J62500D01*
G01*
X142675000Y-78537500D01*
G75*
G02*
X142737500Y-78475000I62500J0D01*
G01*
X142862500Y-78475000D01*
G75*
G02*
X142925000Y-78537500I0J-62500D01*
G01*
X142925000Y-79287500D01*
G75*
G02*
X142862500Y-79350000I-62500J0D01*
G01*
G37*
G36*
G01*
X143362500Y-79350000D02*
X143237500Y-79350000D01*
G75*
G02*
X143175000Y-79287500I0J62500D01*
G01*
X143175000Y-78537500D01*
G75*
G02*
X143237500Y-78475000I62500J0D01*
G01*
X143362500Y-78475000D01*
G75*
G02*
X143425000Y-78537500I0J-62500D01*
G01*
X143425000Y-79287500D01*
G75*
G02*
X143362500Y-79350000I-62500J0D01*
G01*
G37*
G36*
G01*
X143862500Y-79350000D02*
X143737500Y-79350000D01*
G75*
G02*
X143675000Y-79287500I0J62500D01*
G01*
X143675000Y-78537500D01*
G75*
G02*
X143737500Y-78475000I62500J0D01*
G01*
X143862500Y-78475000D01*
G75*
G02*
X143925000Y-78537500I0J-62500D01*
G01*
X143925000Y-79287500D01*
G75*
G02*
X143862500Y-79350000I-62500J0D01*
G01*
G37*
G36*
G01*
X144362500Y-79350000D02*
X144237500Y-79350000D01*
G75*
G02*
X144175000Y-79287500I0J62500D01*
G01*
X144175000Y-78537500D01*
G75*
G02*
X144237500Y-78475000I62500J0D01*
G01*
X144362500Y-78475000D01*
G75*
G02*
X144425000Y-78537500I0J-62500D01*
G01*
X144425000Y-79287500D01*
G75*
G02*
X144362500Y-79350000I-62500J0D01*
G01*
G37*
G36*
G01*
X144862500Y-79350000D02*
X144737500Y-79350000D01*
G75*
G02*
X144675000Y-79287500I0J62500D01*
G01*
X144675000Y-78537500D01*
G75*
G02*
X144737500Y-78475000I62500J0D01*
G01*
X144862500Y-78475000D01*
G75*
G02*
X144925000Y-78537500I0J-62500D01*
G01*
X144925000Y-79287500D01*
G75*
G02*
X144862500Y-79350000I-62500J0D01*
G01*
G37*
G36*
G01*
X145362500Y-79350000D02*
X145237500Y-79350000D01*
G75*
G02*
X145175000Y-79287500I0J62500D01*
G01*
X145175000Y-78537500D01*
G75*
G02*
X145237500Y-78475000I62500J0D01*
G01*
X145362500Y-78475000D01*
G75*
G02*
X145425000Y-78537500I0J-62500D01*
G01*
X145425000Y-79287500D01*
G75*
G02*
X145362500Y-79350000I-62500J0D01*
G01*
G37*
G36*
G01*
X145862500Y-79350000D02*
X145737500Y-79350000D01*
G75*
G02*
X145675000Y-79287500I0J62500D01*
G01*
X145675000Y-78537500D01*
G75*
G02*
X145737500Y-78475000I62500J0D01*
G01*
X145862500Y-78475000D01*
G75*
G02*
X145925000Y-78537500I0J-62500D01*
G01*
X145925000Y-79287500D01*
G75*
G02*
X145862500Y-79350000I-62500J0D01*
G01*
G37*
G36*
G01*
X146362500Y-79350000D02*
X146237500Y-79350000D01*
G75*
G02*
X146175000Y-79287500I0J62500D01*
G01*
X146175000Y-78537500D01*
G75*
G02*
X146237500Y-78475000I62500J0D01*
G01*
X146362500Y-78475000D01*
G75*
G02*
X146425000Y-78537500I0J-62500D01*
G01*
X146425000Y-79287500D01*
G75*
G02*
X146362500Y-79350000I-62500J0D01*
G01*
G37*
G36*
G01*
X146862500Y-79350000D02*
X146737500Y-79350000D01*
G75*
G02*
X146675000Y-79287500I0J62500D01*
G01*
X146675000Y-78537500D01*
G75*
G02*
X146737500Y-78475000I62500J0D01*
G01*
X146862500Y-78475000D01*
G75*
G02*
X146925000Y-78537500I0J-62500D01*
G01*
X146925000Y-79287500D01*
G75*
G02*
X146862500Y-79350000I-62500J0D01*
G01*
G37*
G36*
G01*
X147362500Y-79350000D02*
X147237500Y-79350000D01*
G75*
G02*
X147175000Y-79287500I0J62500D01*
G01*
X147175000Y-78537500D01*
G75*
G02*
X147237500Y-78475000I62500J0D01*
G01*
X147362500Y-78475000D01*
G75*
G02*
X147425000Y-78537500I0J-62500D01*
G01*
X147425000Y-79287500D01*
G75*
G02*
X147362500Y-79350000I-62500J0D01*
G01*
G37*
G36*
G01*
X147862500Y-79350000D02*
X147737500Y-79350000D01*
G75*
G02*
X147675000Y-79287500I0J62500D01*
G01*
X147675000Y-78537500D01*
G75*
G02*
X147737500Y-78475000I62500J0D01*
G01*
X147862500Y-78475000D01*
G75*
G02*
X147925000Y-78537500I0J-62500D01*
G01*
X147925000Y-79287500D01*
G75*
G02*
X147862500Y-79350000I-62500J0D01*
G01*
G37*
G36*
G01*
X148362500Y-79350000D02*
X148237500Y-79350000D01*
G75*
G02*
X148175000Y-79287500I0J62500D01*
G01*
X148175000Y-78537500D01*
G75*
G02*
X148237500Y-78475000I62500J0D01*
G01*
X148362500Y-78475000D01*
G75*
G02*
X148425000Y-78537500I0J-62500D01*
G01*
X148425000Y-79287500D01*
G75*
G02*
X148362500Y-79350000I-62500J0D01*
G01*
G37*
G36*
G01*
X149362500Y-79725000D02*
X148612500Y-79725000D01*
G75*
G02*
X148550000Y-79662500I0J62500D01*
G01*
X148550000Y-79537500D01*
G75*
G02*
X148612500Y-79475000I62500J0D01*
G01*
X149362500Y-79475000D01*
G75*
G02*
X149425000Y-79537500I0J-62500D01*
G01*
X149425000Y-79662500D01*
G75*
G02*
X149362500Y-79725000I-62500J0D01*
G01*
G37*
G36*
G01*
X149362500Y-80225000D02*
X148612500Y-80225000D01*
G75*
G02*
X148550000Y-80162500I0J62500D01*
G01*
X148550000Y-80037500D01*
G75*
G02*
X148612500Y-79975000I62500J0D01*
G01*
X149362500Y-79975000D01*
G75*
G02*
X149425000Y-80037500I0J-62500D01*
G01*
X149425000Y-80162500D01*
G75*
G02*
X149362500Y-80225000I-62500J0D01*
G01*
G37*
G36*
G01*
X149362500Y-80725000D02*
X148612500Y-80725000D01*
G75*
G02*
X148550000Y-80662500I0J62500D01*
G01*
X148550000Y-80537500D01*
G75*
G02*
X148612500Y-80475000I62500J0D01*
G01*
X149362500Y-80475000D01*
G75*
G02*
X149425000Y-80537500I0J-62500D01*
G01*
X149425000Y-80662500D01*
G75*
G02*
X149362500Y-80725000I-62500J0D01*
G01*
G37*
G36*
G01*
X149362500Y-81225000D02*
X148612500Y-81225000D01*
G75*
G02*
X148550000Y-81162500I0J62500D01*
G01*
X148550000Y-81037500D01*
G75*
G02*
X148612500Y-80975000I62500J0D01*
G01*
X149362500Y-80975000D01*
G75*
G02*
X149425000Y-81037500I0J-62500D01*
G01*
X149425000Y-81162500D01*
G75*
G02*
X149362500Y-81225000I-62500J0D01*
G01*
G37*
G36*
G01*
X149362500Y-81725000D02*
X148612500Y-81725000D01*
G75*
G02*
X148550000Y-81662500I0J62500D01*
G01*
X148550000Y-81537500D01*
G75*
G02*
X148612500Y-81475000I62500J0D01*
G01*
X149362500Y-81475000D01*
G75*
G02*
X149425000Y-81537500I0J-62500D01*
G01*
X149425000Y-81662500D01*
G75*
G02*
X149362500Y-81725000I-62500J0D01*
G01*
G37*
G36*
G01*
X149362500Y-82225000D02*
X148612500Y-82225000D01*
G75*
G02*
X148550000Y-82162500I0J62500D01*
G01*
X148550000Y-82037500D01*
G75*
G02*
X148612500Y-81975000I62500J0D01*
G01*
X149362500Y-81975000D01*
G75*
G02*
X149425000Y-82037500I0J-62500D01*
G01*
X149425000Y-82162500D01*
G75*
G02*
X149362500Y-82225000I-62500J0D01*
G01*
G37*
G36*
G01*
X149362500Y-82725000D02*
X148612500Y-82725000D01*
G75*
G02*
X148550000Y-82662500I0J62500D01*
G01*
X148550000Y-82537500D01*
G75*
G02*
X148612500Y-82475000I62500J0D01*
G01*
X149362500Y-82475000D01*
G75*
G02*
X149425000Y-82537500I0J-62500D01*
G01*
X149425000Y-82662500D01*
G75*
G02*
X149362500Y-82725000I-62500J0D01*
G01*
G37*
G36*
G01*
X149362500Y-83225000D02*
X148612500Y-83225000D01*
G75*
G02*
X148550000Y-83162500I0J62500D01*
G01*
X148550000Y-83037500D01*
G75*
G02*
X148612500Y-82975000I62500J0D01*
G01*
X149362500Y-82975000D01*
G75*
G02*
X149425000Y-83037500I0J-62500D01*
G01*
X149425000Y-83162500D01*
G75*
G02*
X149362500Y-83225000I-62500J0D01*
G01*
G37*
G36*
G01*
X149362500Y-83725000D02*
X148612500Y-83725000D01*
G75*
G02*
X148550000Y-83662500I0J62500D01*
G01*
X148550000Y-83537500D01*
G75*
G02*
X148612500Y-83475000I62500J0D01*
G01*
X149362500Y-83475000D01*
G75*
G02*
X149425000Y-83537500I0J-62500D01*
G01*
X149425000Y-83662500D01*
G75*
G02*
X149362500Y-83725000I-62500J0D01*
G01*
G37*
G36*
G01*
X149362500Y-84225000D02*
X148612500Y-84225000D01*
G75*
G02*
X148550000Y-84162500I0J62500D01*
G01*
X148550000Y-84037500D01*
G75*
G02*
X148612500Y-83975000I62500J0D01*
G01*
X149362500Y-83975000D01*
G75*
G02*
X149425000Y-84037500I0J-62500D01*
G01*
X149425000Y-84162500D01*
G75*
G02*
X149362500Y-84225000I-62500J0D01*
G01*
G37*
G36*
G01*
X149362500Y-84725000D02*
X148612500Y-84725000D01*
G75*
G02*
X148550000Y-84662500I0J62500D01*
G01*
X148550000Y-84537500D01*
G75*
G02*
X148612500Y-84475000I62500J0D01*
G01*
X149362500Y-84475000D01*
G75*
G02*
X149425000Y-84537500I0J-62500D01*
G01*
X149425000Y-84662500D01*
G75*
G02*
X149362500Y-84725000I-62500J0D01*
G01*
G37*
G36*
G01*
X149362500Y-85225000D02*
X148612500Y-85225000D01*
G75*
G02*
X148550000Y-85162500I0J62500D01*
G01*
X148550000Y-85037500D01*
G75*
G02*
X148612500Y-84975000I62500J0D01*
G01*
X149362500Y-84975000D01*
G75*
G02*
X149425000Y-85037500I0J-62500D01*
G01*
X149425000Y-85162500D01*
G75*
G02*
X149362500Y-85225000I-62500J0D01*
G01*
G37*
G36*
G01*
X149362500Y-85725000D02*
X148612500Y-85725000D01*
G75*
G02*
X148550000Y-85662500I0J62500D01*
G01*
X148550000Y-85537500D01*
G75*
G02*
X148612500Y-85475000I62500J0D01*
G01*
X149362500Y-85475000D01*
G75*
G02*
X149425000Y-85537500I0J-62500D01*
G01*
X149425000Y-85662500D01*
G75*
G02*
X149362500Y-85725000I-62500J0D01*
G01*
G37*
G36*
G01*
X149362500Y-86225000D02*
X148612500Y-86225000D01*
G75*
G02*
X148550000Y-86162500I0J62500D01*
G01*
X148550000Y-86037500D01*
G75*
G02*
X148612500Y-85975000I62500J0D01*
G01*
X149362500Y-85975000D01*
G75*
G02*
X149425000Y-86037500I0J-62500D01*
G01*
X149425000Y-86162500D01*
G75*
G02*
X149362500Y-86225000I-62500J0D01*
G01*
G37*
G36*
G01*
X148362500Y-87225000D02*
X148237500Y-87225000D01*
G75*
G02*
X148175000Y-87162500I0J62500D01*
G01*
X148175000Y-86412500D01*
G75*
G02*
X148237500Y-86350000I62500J0D01*
G01*
X148362500Y-86350000D01*
G75*
G02*
X148425000Y-86412500I0J-62500D01*
G01*
X148425000Y-87162500D01*
G75*
G02*
X148362500Y-87225000I-62500J0D01*
G01*
G37*
G36*
G01*
X147862500Y-87225000D02*
X147737500Y-87225000D01*
G75*
G02*
X147675000Y-87162500I0J62500D01*
G01*
X147675000Y-86412500D01*
G75*
G02*
X147737500Y-86350000I62500J0D01*
G01*
X147862500Y-86350000D01*
G75*
G02*
X147925000Y-86412500I0J-62500D01*
G01*
X147925000Y-87162500D01*
G75*
G02*
X147862500Y-87225000I-62500J0D01*
G01*
G37*
G36*
G01*
X147362500Y-87225000D02*
X147237500Y-87225000D01*
G75*
G02*
X147175000Y-87162500I0J62500D01*
G01*
X147175000Y-86412500D01*
G75*
G02*
X147237500Y-86350000I62500J0D01*
G01*
X147362500Y-86350000D01*
G75*
G02*
X147425000Y-86412500I0J-62500D01*
G01*
X147425000Y-87162500D01*
G75*
G02*
X147362500Y-87225000I-62500J0D01*
G01*
G37*
G36*
G01*
X146862500Y-87225000D02*
X146737500Y-87225000D01*
G75*
G02*
X146675000Y-87162500I0J62500D01*
G01*
X146675000Y-86412500D01*
G75*
G02*
X146737500Y-86350000I62500J0D01*
G01*
X146862500Y-86350000D01*
G75*
G02*
X146925000Y-86412500I0J-62500D01*
G01*
X146925000Y-87162500D01*
G75*
G02*
X146862500Y-87225000I-62500J0D01*
G01*
G37*
G36*
G01*
X146362500Y-87225000D02*
X146237500Y-87225000D01*
G75*
G02*
X146175000Y-87162500I0J62500D01*
G01*
X146175000Y-86412500D01*
G75*
G02*
X146237500Y-86350000I62500J0D01*
G01*
X146362500Y-86350000D01*
G75*
G02*
X146425000Y-86412500I0J-62500D01*
G01*
X146425000Y-87162500D01*
G75*
G02*
X146362500Y-87225000I-62500J0D01*
G01*
G37*
G36*
G01*
X145862500Y-87225000D02*
X145737500Y-87225000D01*
G75*
G02*
X145675000Y-87162500I0J62500D01*
G01*
X145675000Y-86412500D01*
G75*
G02*
X145737500Y-86350000I62500J0D01*
G01*
X145862500Y-86350000D01*
G75*
G02*
X145925000Y-86412500I0J-62500D01*
G01*
X145925000Y-87162500D01*
G75*
G02*
X145862500Y-87225000I-62500J0D01*
G01*
G37*
G36*
G01*
X145362500Y-87225000D02*
X145237500Y-87225000D01*
G75*
G02*
X145175000Y-87162500I0J62500D01*
G01*
X145175000Y-86412500D01*
G75*
G02*
X145237500Y-86350000I62500J0D01*
G01*
X145362500Y-86350000D01*
G75*
G02*
X145425000Y-86412500I0J-62500D01*
G01*
X145425000Y-87162500D01*
G75*
G02*
X145362500Y-87225000I-62500J0D01*
G01*
G37*
G36*
G01*
X144862500Y-87225000D02*
X144737500Y-87225000D01*
G75*
G02*
X144675000Y-87162500I0J62500D01*
G01*
X144675000Y-86412500D01*
G75*
G02*
X144737500Y-86350000I62500J0D01*
G01*
X144862500Y-86350000D01*
G75*
G02*
X144925000Y-86412500I0J-62500D01*
G01*
X144925000Y-87162500D01*
G75*
G02*
X144862500Y-87225000I-62500J0D01*
G01*
G37*
G36*
G01*
X144362500Y-87225000D02*
X144237500Y-87225000D01*
G75*
G02*
X144175000Y-87162500I0J62500D01*
G01*
X144175000Y-86412500D01*
G75*
G02*
X144237500Y-86350000I62500J0D01*
G01*
X144362500Y-86350000D01*
G75*
G02*
X144425000Y-86412500I0J-62500D01*
G01*
X144425000Y-87162500D01*
G75*
G02*
X144362500Y-87225000I-62500J0D01*
G01*
G37*
G36*
G01*
X143862500Y-87225000D02*
X143737500Y-87225000D01*
G75*
G02*
X143675000Y-87162500I0J62500D01*
G01*
X143675000Y-86412500D01*
G75*
G02*
X143737500Y-86350000I62500J0D01*
G01*
X143862500Y-86350000D01*
G75*
G02*
X143925000Y-86412500I0J-62500D01*
G01*
X143925000Y-87162500D01*
G75*
G02*
X143862500Y-87225000I-62500J0D01*
G01*
G37*
G36*
G01*
X143362500Y-87225000D02*
X143237500Y-87225000D01*
G75*
G02*
X143175000Y-87162500I0J62500D01*
G01*
X143175000Y-86412500D01*
G75*
G02*
X143237500Y-86350000I62500J0D01*
G01*
X143362500Y-86350000D01*
G75*
G02*
X143425000Y-86412500I0J-62500D01*
G01*
X143425000Y-87162500D01*
G75*
G02*
X143362500Y-87225000I-62500J0D01*
G01*
G37*
G36*
G01*
X142862500Y-87225000D02*
X142737500Y-87225000D01*
G75*
G02*
X142675000Y-87162500I0J62500D01*
G01*
X142675000Y-86412500D01*
G75*
G02*
X142737500Y-86350000I62500J0D01*
G01*
X142862500Y-86350000D01*
G75*
G02*
X142925000Y-86412500I0J-62500D01*
G01*
X142925000Y-87162500D01*
G75*
G02*
X142862500Y-87225000I-62500J0D01*
G01*
G37*
G36*
G01*
X142362500Y-87225000D02*
X142237500Y-87225000D01*
G75*
G02*
X142175000Y-87162500I0J62500D01*
G01*
X142175000Y-86412500D01*
G75*
G02*
X142237500Y-86350000I62500J0D01*
G01*
X142362500Y-86350000D01*
G75*
G02*
X142425000Y-86412500I0J-62500D01*
G01*
X142425000Y-87162500D01*
G75*
G02*
X142362500Y-87225000I-62500J0D01*
G01*
G37*
G36*
G01*
X141862500Y-87225000D02*
X141737500Y-87225000D01*
G75*
G02*
X141675000Y-87162500I0J62500D01*
G01*
X141675000Y-86412500D01*
G75*
G02*
X141737500Y-86350000I62500J0D01*
G01*
X141862500Y-86350000D01*
G75*
G02*
X141925000Y-86412500I0J-62500D01*
G01*
X141925000Y-87162500D01*
G75*
G02*
X141862500Y-87225000I-62500J0D01*
G01*
G37*
G36*
G01*
X147399998Y-85100000D02*
X142700002Y-85100000D01*
G75*
G02*
X142450000Y-84849998I0J250002D01*
G01*
X142450000Y-80850002D01*
G75*
G02*
X142700002Y-80600000I250002J0D01*
G01*
X147399998Y-80600000D01*
G75*
G02*
X147650000Y-80850002I0J-250002D01*
G01*
X147650000Y-84849998D01*
G75*
G02*
X147399998Y-85100000I-250002J0D01*
G01*
G37*
D13*
X85050000Y-104240000D03*
D12*
X85050000Y-101700000D03*
D13*
X85050000Y-93540000D03*
D12*
X85050000Y-91000000D03*
D13*
X85050000Y-82940000D03*
D12*
X85050000Y-80400000D03*
D13*
X85050000Y-72240000D03*
D12*
X85050000Y-69700000D03*
D13*
X85050000Y-61640000D03*
D12*
X85050000Y-59100000D03*
D13*
X119310000Y-138550000D03*
D12*
X121850000Y-138550000D03*
D13*
X97950000Y-138550000D03*
D12*
X100490000Y-138550000D03*
D13*
X85050000Y-114840000D03*
D12*
X85050000Y-112300000D03*
X205050000Y-59010000D03*
D13*
X205050000Y-61550000D03*
X205050000Y-72190000D03*
D12*
X205050000Y-69650000D03*
D13*
X204900000Y-82890000D03*
D12*
X204900000Y-80350000D03*
D13*
X205050000Y-93490000D03*
D12*
X205050000Y-90950000D03*
X205050000Y-112250000D03*
D13*
X205050000Y-114790000D03*
X189610000Y-138550000D03*
D12*
X192150000Y-138550000D03*
D13*
X168210000Y-138550000D03*
D12*
X170750000Y-138550000D03*
G36*
G01*
X144900000Y-134999999D02*
X144900000Y-135900001D01*
G75*
G02*
X144650001Y-136150000I-249999J0D01*
G01*
X143999999Y-136150000D01*
G75*
G02*
X143750000Y-135900001I0J249999D01*
G01*
X143750000Y-134999999D01*
G75*
G02*
X143999999Y-134750000I249999J0D01*
G01*
X144650001Y-134750000D01*
G75*
G02*
X144900000Y-134999999I0J-249999D01*
G01*
G37*
G36*
G01*
X146950000Y-134999999D02*
X146950000Y-135900001D01*
G75*
G02*
X146700001Y-136150000I-249999J0D01*
G01*
X146049999Y-136150000D01*
G75*
G02*
X145800000Y-135900001I0J249999D01*
G01*
X145800000Y-134999999D01*
G75*
G02*
X146049999Y-134750000I249999J0D01*
G01*
X146700001Y-134750000D01*
G75*
G02*
X146950000Y-134999999I0J-249999D01*
G01*
G37*
G36*
G01*
X140199999Y-102425000D02*
X141100001Y-102425000D01*
G75*
G02*
X141350000Y-102674999I0J-249999D01*
G01*
X141350000Y-103325001D01*
G75*
G02*
X141100001Y-103575000I-249999J0D01*
G01*
X140199999Y-103575000D01*
G75*
G02*
X139950000Y-103325001I0J249999D01*
G01*
X139950000Y-102674999D01*
G75*
G02*
X140199999Y-102425000I249999J0D01*
G01*
G37*
G36*
G01*
X140199999Y-100375000D02*
X141100001Y-100375000D01*
G75*
G02*
X141350000Y-100624999I0J-249999D01*
G01*
X141350000Y-101275001D01*
G75*
G02*
X141100001Y-101525000I-249999J0D01*
G01*
X140199999Y-101525000D01*
G75*
G02*
X139950000Y-101275001I0J249999D01*
G01*
X139950000Y-100624999D01*
G75*
G02*
X140199999Y-100375000I249999J0D01*
G01*
G37*
G36*
G01*
X144900000Y-138899999D02*
X144900000Y-139800001D01*
G75*
G02*
X144650001Y-140050000I-249999J0D01*
G01*
X143999999Y-140050000D01*
G75*
G02*
X143750000Y-139800001I0J249999D01*
G01*
X143750000Y-138899999D01*
G75*
G02*
X143999999Y-138650000I249999J0D01*
G01*
X144650001Y-138650000D01*
G75*
G02*
X144900000Y-138899999I0J-249999D01*
G01*
G37*
G36*
G01*
X146950000Y-138899999D02*
X146950000Y-139800001D01*
G75*
G02*
X146700001Y-140050000I-249999J0D01*
G01*
X146049999Y-140050000D01*
G75*
G02*
X145800000Y-139800001I0J249999D01*
G01*
X145800000Y-138899999D01*
G75*
G02*
X146049999Y-138650000I249999J0D01*
G01*
X146700001Y-138650000D01*
G75*
G02*
X146950000Y-138899999I0J-249999D01*
G01*
G37*
G36*
G01*
X155225000Y-79500001D02*
X155225000Y-78599999D01*
G75*
G02*
X155474999Y-78350000I249999J0D01*
G01*
X156125001Y-78350000D01*
G75*
G02*
X156375000Y-78599999I0J-249999D01*
G01*
X156375000Y-79500001D01*
G75*
G02*
X156125001Y-79750000I-249999J0D01*
G01*
X155474999Y-79750000D01*
G75*
G02*
X155225000Y-79500001I0J249999D01*
G01*
G37*
G36*
G01*
X153175000Y-79500001D02*
X153175000Y-78599999D01*
G75*
G02*
X153424999Y-78350000I249999J0D01*
G01*
X154075001Y-78350000D01*
G75*
G02*
X154325000Y-78599999I0J-249999D01*
G01*
X154325000Y-79500001D01*
G75*
G02*
X154075001Y-79750000I-249999J0D01*
G01*
X153424999Y-79750000D01*
G75*
G02*
X153175000Y-79500001I0J249999D01*
G01*
G37*
G36*
G01*
X145600001Y-67375000D02*
X144699999Y-67375000D01*
G75*
G02*
X144450000Y-67125001I0J249999D01*
G01*
X144450000Y-66474999D01*
G75*
G02*
X144699999Y-66225000I249999J0D01*
G01*
X145600001Y-66225000D01*
G75*
G02*
X145850000Y-66474999I0J-249999D01*
G01*
X145850000Y-67125001D01*
G75*
G02*
X145600001Y-67375000I-249999J0D01*
G01*
G37*
G36*
G01*
X145600001Y-69425000D02*
X144699999Y-69425000D01*
G75*
G02*
X144450000Y-69175001I0J249999D01*
G01*
X144450000Y-68524999D01*
G75*
G02*
X144699999Y-68275000I249999J0D01*
G01*
X145600001Y-68275000D01*
G75*
G02*
X145850000Y-68524999I0J-249999D01*
G01*
X145850000Y-69175001D01*
G75*
G02*
X145600001Y-69425000I-249999J0D01*
G01*
G37*
G36*
G01*
X144500001Y-101475000D02*
X143599999Y-101475000D01*
G75*
G02*
X143350000Y-101225001I0J249999D01*
G01*
X143350000Y-100574999D01*
G75*
G02*
X143599999Y-100325000I249999J0D01*
G01*
X144500001Y-100325000D01*
G75*
G02*
X144750000Y-100574999I0J-249999D01*
G01*
X144750000Y-101225001D01*
G75*
G02*
X144500001Y-101475000I-249999J0D01*
G01*
G37*
G36*
G01*
X144500001Y-103525000D02*
X143599999Y-103525000D01*
G75*
G02*
X143350000Y-103275001I0J249999D01*
G01*
X143350000Y-102624999D01*
G75*
G02*
X143599999Y-102375000I249999J0D01*
G01*
X144500001Y-102375000D01*
G75*
G02*
X144750000Y-102624999I0J-249999D01*
G01*
X144750000Y-103275001D01*
G75*
G02*
X144500001Y-103525000I-249999J0D01*
G01*
G37*
G36*
G01*
X149620799Y-108765600D02*
X150520801Y-108765600D01*
G75*
G02*
X150770800Y-109015599I0J-249999D01*
G01*
X150770800Y-109665601D01*
G75*
G02*
X150520801Y-109915600I-249999J0D01*
G01*
X149620799Y-109915600D01*
G75*
G02*
X149370800Y-109665601I0J249999D01*
G01*
X149370800Y-109015599D01*
G75*
G02*
X149620799Y-108765600I249999J0D01*
G01*
G37*
G36*
G01*
X149620799Y-106715600D02*
X150520801Y-106715600D01*
G75*
G02*
X150770800Y-106965599I0J-249999D01*
G01*
X150770800Y-107615601D01*
G75*
G02*
X150520801Y-107865600I-249999J0D01*
G01*
X149620799Y-107865600D01*
G75*
G02*
X149370800Y-107615601I0J249999D01*
G01*
X149370800Y-106965599D01*
G75*
G02*
X149620799Y-106715600I249999J0D01*
G01*
G37*
M02*
