G04 #@! TF.GenerationSoftware,KiCad,Pcbnew,(5.1.12-1-10_14)*
G04 #@! TF.CreationDate,2022-10-09T23:27:55+02:00*
G04 #@! TF.ProjectId,Boat Channel Board,426f6174-2043-4686-916e-6e656c20426f,rev?*
G04 #@! TF.SameCoordinates,Original*
G04 #@! TF.FileFunction,Paste,Top*
G04 #@! TF.FilePolarity,Positive*
%FSLAX46Y46*%
G04 Gerber Fmt 4.6, Leading zero omitted, Abs format (unit mm)*
G04 Created by KiCad (PCBNEW (5.1.12-1-10_14)) date 2022-10-09 23:27:55*
%MOMM*%
%LPD*%
G01*
G04 APERTURE LIST*
%ADD10R,1.250000X1.500000*%
%ADD11R,1.500000X1.250000*%
%ADD12O,1.700000X1.700000*%
%ADD13R,1.500000X1.300000*%
%ADD14R,1.300000X1.500000*%
%ADD15R,0.800000X0.900000*%
%ADD16R,0.250000X1.000000*%
%ADD17R,2.500000X1.000000*%
%ADD18R,4.000000X2.000000*%
%ADD19C,0.025400*%
%ADD20R,1.000000X2.500000*%
%ADD21R,2.000000X4.000000*%
%ADD22R,2.600000X1.600000*%
%ADD23R,1.600000X3.500000*%
%ADD24R,1.102500X1.102500*%
%ADD25R,0.850000X0.300000*%
%ADD26R,0.300000X0.850000*%
%ADD27R,0.450000X1.450000*%
G04 APERTURE END LIST*
D10*
X85010000Y-59240000D03*
X85010000Y-61740000D03*
D11*
X71950000Y-80810000D03*
X74450000Y-80810000D03*
X75360000Y-94780000D03*
X72860000Y-94780000D03*
D10*
X73370000Y-78550000D03*
X73370000Y-76050000D03*
X77510000Y-108370000D03*
X77510000Y-105870000D03*
D11*
X70770000Y-72540000D03*
X73270000Y-72540000D03*
D10*
X107750000Y-60250000D03*
X107750000Y-62750000D03*
X114500000Y-60350000D03*
X114500000Y-62850000D03*
X72610000Y-67170000D03*
X72610000Y-69670000D03*
D12*
X136740000Y-48460000D03*
D13*
X95000000Y-79700000D03*
X92300000Y-79700000D03*
X78300000Y-92400000D03*
X75600000Y-92400000D03*
D14*
X86800000Y-72000000D03*
X86800000Y-74700000D03*
D15*
X90200000Y-77700000D03*
X88100000Y-77700000D03*
X81300000Y-95900000D03*
X79200000Y-95900000D03*
X87350000Y-69400000D03*
X85250000Y-69400000D03*
D14*
X103900000Y-101100000D03*
X103900000Y-98400000D03*
X107300000Y-101100000D03*
X107300000Y-98400000D03*
D13*
X100300000Y-88300000D03*
X97600000Y-88300000D03*
X94300000Y-88300000D03*
X91600000Y-88300000D03*
D14*
X88200000Y-99000000D03*
X88200000Y-101700000D03*
X85000000Y-99000000D03*
X85000000Y-101700000D03*
X112500000Y-105300000D03*
X112500000Y-108000000D03*
X116300000Y-105200000D03*
X116300000Y-107900000D03*
D10*
X81300000Y-101600000D03*
X81300000Y-99100000D03*
X107600000Y-108000000D03*
X107600000Y-105500000D03*
X81400000Y-105500000D03*
X81400000Y-108000000D03*
X104100000Y-105500000D03*
X104100000Y-108000000D03*
D16*
X120550000Y-105300000D03*
X119550000Y-105300000D03*
X120050000Y-105300000D03*
X121050000Y-105300000D03*
X119550000Y-108500000D03*
X120050000Y-108500000D03*
X120550000Y-108500000D03*
X121050000Y-108500000D03*
D13*
X106500000Y-88300000D03*
X103800000Y-88300000D03*
D17*
X77240000Y-76800000D03*
X77240000Y-78300000D03*
X77240000Y-79800000D03*
D18*
X81200000Y-78300000D03*
D19*
G36*
X79225000Y-79300000D02*
G01*
X78475000Y-78800000D01*
X78475000Y-77800000D01*
X79225000Y-77300000D01*
X79225000Y-79300000D01*
G37*
D17*
X77140000Y-69500000D03*
X77140000Y-71000000D03*
X77140000Y-72500000D03*
D18*
X81100000Y-71000000D03*
D19*
G36*
X79125000Y-72000000D02*
G01*
X78375000Y-71500000D01*
X78375000Y-70500000D01*
X79125000Y-70000000D01*
X79125000Y-72000000D01*
G37*
D20*
X73800000Y-102100000D03*
X75300000Y-102100000D03*
X76800000Y-102100000D03*
D21*
X75300000Y-98140000D03*
D19*
G36*
X76300000Y-100115000D02*
G01*
X75800000Y-100865000D01*
X74800000Y-100865000D01*
X74300000Y-100115000D01*
X76300000Y-100115000D01*
G37*
D14*
X131600000Y-71800000D03*
X131600000Y-74500000D03*
D13*
X114400000Y-102100000D03*
X117100000Y-102100000D03*
X127700000Y-104800000D03*
X125000000Y-104800000D03*
D22*
X111000000Y-95500000D03*
X114600000Y-95500000D03*
D11*
X125100000Y-102300000D03*
X127600000Y-102300000D03*
D22*
X124100000Y-97250000D03*
X127700000Y-97250000D03*
D11*
X128000000Y-63500000D03*
X125500000Y-63500000D03*
D23*
X134400000Y-59450000D03*
X134400000Y-64850000D03*
D11*
X95200000Y-66400000D03*
X97700000Y-66400000D03*
D10*
X101600000Y-59650000D03*
X101600000Y-57150000D03*
X85000000Y-56800000D03*
X85000000Y-54300000D03*
X132100000Y-97900000D03*
X132100000Y-95400000D03*
D11*
X116900000Y-99300000D03*
X114400000Y-99300000D03*
D10*
X120500000Y-102200000D03*
X120500000Y-99700000D03*
D11*
X102060000Y-74680000D03*
X99560000Y-74680000D03*
X99560000Y-77280000D03*
X102060000Y-77280000D03*
X99560000Y-79880000D03*
X102060000Y-79880000D03*
X134900000Y-71600000D03*
X137400000Y-71600000D03*
X99550000Y-69270000D03*
X102050000Y-69270000D03*
X102050000Y-71970000D03*
X99550000Y-71970000D03*
X125300000Y-71700000D03*
X127800000Y-71700000D03*
X125400000Y-74700000D03*
X127900000Y-74700000D03*
X109900000Y-88300000D03*
X112400000Y-88300000D03*
D13*
X79400000Y-50800000D03*
X82100000Y-50800000D03*
X92100000Y-66400000D03*
X89400000Y-66400000D03*
X121950000Y-63750000D03*
X119250000Y-63750000D03*
X119300000Y-59750000D03*
X122000000Y-59750000D03*
X127950000Y-59750000D03*
X125250000Y-59750000D03*
X85200000Y-50800000D03*
X87900000Y-50800000D03*
D14*
X103850000Y-92700000D03*
X103850000Y-95400000D03*
X88300000Y-92600000D03*
X88300000Y-95300000D03*
X88300000Y-108000000D03*
X88300000Y-105300000D03*
X132100000Y-100800000D03*
X132100000Y-103500000D03*
X107300000Y-92800000D03*
X107300000Y-95500000D03*
X84900000Y-92600000D03*
X84900000Y-95300000D03*
X84900000Y-108000000D03*
X84900000Y-105300000D03*
X124300000Y-107500000D03*
X124300000Y-110200000D03*
X127600000Y-110300000D03*
X127600000Y-107600000D03*
D13*
X137400000Y-74800000D03*
X134700000Y-74800000D03*
X124500000Y-88300000D03*
X121800000Y-88300000D03*
X115800000Y-88300000D03*
X118500000Y-88300000D03*
D24*
X118856250Y-72843750D03*
X117018750Y-72843750D03*
X115181250Y-72843750D03*
X113343750Y-72843750D03*
X118856250Y-74681250D03*
X117018750Y-74681250D03*
X115181250Y-74681250D03*
X113343750Y-74681250D03*
X118856250Y-76518750D03*
X117018750Y-76518750D03*
X115181250Y-76518750D03*
X113343750Y-76518750D03*
X118856250Y-78356250D03*
X117018750Y-78356250D03*
X115181250Y-78356250D03*
X113343750Y-78356250D03*
D25*
X120550000Y-71850000D03*
X120550000Y-72350000D03*
X120550000Y-72850000D03*
X120550000Y-73350000D03*
X120550000Y-73850000D03*
X120550000Y-74350000D03*
X120550000Y-74850000D03*
X120550000Y-75350000D03*
X120550000Y-75850000D03*
X120550000Y-76350000D03*
X120550000Y-76850000D03*
X120550000Y-77350000D03*
X120550000Y-77850000D03*
X120550000Y-78350000D03*
X120550000Y-78850000D03*
X120550000Y-79350000D03*
D26*
X119850000Y-80050000D03*
X119350000Y-80050000D03*
X118850000Y-80050000D03*
X118350000Y-80050000D03*
X117850000Y-80050000D03*
X117350000Y-80050000D03*
X116850000Y-80050000D03*
X116350000Y-80050000D03*
X115850000Y-80050000D03*
X115350000Y-80050000D03*
X114850000Y-80050000D03*
X114350000Y-80050000D03*
X113850000Y-80050000D03*
X113350000Y-80050000D03*
X112850000Y-80050000D03*
X112350000Y-80050000D03*
D25*
X111650000Y-79350000D03*
X111650000Y-78850000D03*
X111650000Y-78350000D03*
X111650000Y-77850000D03*
X111650000Y-77350000D03*
X111650000Y-76850000D03*
X111650000Y-76350000D03*
X111650000Y-75850000D03*
X111650000Y-75350000D03*
X111650000Y-74850000D03*
X111650000Y-74350000D03*
X111650000Y-73850000D03*
X111650000Y-73350000D03*
X111650000Y-72850000D03*
X111650000Y-72350000D03*
X111650000Y-71850000D03*
D26*
X112350000Y-71150000D03*
X112850000Y-71150000D03*
X113350000Y-71150000D03*
X113850000Y-71150000D03*
X114350000Y-71150000D03*
X114850000Y-71150000D03*
X115350000Y-71150000D03*
X115850000Y-71150000D03*
X116350000Y-71150000D03*
X116850000Y-71150000D03*
X117350000Y-71150000D03*
X117850000Y-71150000D03*
X118350000Y-71150000D03*
X118850000Y-71150000D03*
X119350000Y-71150000D03*
X119850000Y-71150000D03*
D27*
X80850000Y-65000000D03*
X80200000Y-65000000D03*
X79550000Y-65000000D03*
X78900000Y-65000000D03*
X78900000Y-60600000D03*
X79550000Y-60600000D03*
X80200000Y-60600000D03*
X80850000Y-60600000D03*
M02*
