M48
; DRILL file {KiCad (5.1.12-1-10_14)} date Sunday, October 09, 2022 at 11:27:48 PM
; FORMAT={-:-/ absolute / metric / decimal}
; #@! TF.CreationDate,2022-10-09T23:27:48+02:00
; #@! TF.GenerationSoftware,Kicad,Pcbnew,(5.1.12-1-10_14)
; #@! TF.FileFunction,Plated,1,4,PTH
FMAT,2
METRIC
T1C0.400
T2C0.635
T3C0.700
T4C0.800
T5C1.000
T6C1.170
T7C1.600
T8C2.110
T9C2.500
%
G90
G05
T1
X70.68Y-71.2
X71.2Y-94.82
X71.62Y-78.95
X71.94Y-82.46
X72.01Y-102.78
X72.04Y-101.13
X72.87Y-96.3
X73.38Y-74.32
X73.88Y-92.37
X73.91Y-66.69
X75.0Y-76.8
X75.63Y-90.75
X77.05Y-68.08
X77.23Y-75.24
X77.49Y-110.0
X78.4Y-58.75
X79.4Y-53.0
X79.44Y-68.07
X79.5Y-97.8
X81.39Y-109.63
X83.04Y-101.62
X83.14Y-108.0
X83.29Y-92.58
X83.6Y-52.4
X83.6Y-64.8
X85.77Y-52.51
X87.9Y-89.25
X93.57Y-55.9
X98.65Y-64.0
X102.0Y-83.2
X102.15Y-106.75
X102.6Y-103.8
X103.1Y-83.2
X103.4Y-59.64
X103.64Y-77.28
X104.09Y-109.6
X104.3Y-83.2
X106.04Y-62.79
X107.63Y-109.62
X109.5Y-72.35
X109.65Y-76.85
X110.15Y-71.0
X110.55Y-73.3
X111.2Y-61.9
X112.8Y-82.6
X112.81Y-60.35
X113.3Y-72.8
X113.3Y-75.4
X113.3Y-78.25
X114.0Y-69.8
X114.0Y-81.2
X114.4Y-103.6
X115.0Y-69.9
X115.8Y-86.3
X115.8Y-100.6
X116.15Y-72.85
X116.15Y-75.4
X116.15Y-78.25
X116.588Y-82.859
X116.74Y-95.48
X117.6Y-69.9
X117.71Y-90.01
X117.9Y-64.8
X118.1Y-81.9
X118.3Y-109.2
X118.856Y-78.356
X118.925Y-72.775
X119.0Y-75.4
X119.1Y-102.1
X120.2Y-69.2
X120.8Y-70.2
X120.85Y-94.85
X121.4Y-81.8
X121.8Y-74.3
X121.8Y-75.8
X122.4Y-77.4
X122.7Y-102.0
X122.8Y-71.9
X123.1Y-72.9
X123.72Y-95.41
X125.1Y-83.5
X125.4Y-76.3
X125.49Y-62.0
X126.4Y-88.2
X127.1Y-73.4
X128.8Y-99.4
X128.97Y-107.47
X129.55Y-73.15
X129.7Y-105.4
X132.11Y-105.27
X134.37Y-56.71
X137.0Y-78.1
X137.615Y-84.225
X138.9Y-80.4
X146.03Y-68.48
X147.2Y-85.1
T2
X82.73Y-66.34
X92.7Y-50.1
X98.2Y-50.1
X103.7Y-50.1
X115.6Y-91.9
X119.4Y-91.9
X123.2Y-91.9
X131.4Y-80.7
T3
X120.3Y-106.9
X142.93Y-72.56
X142.93Y-73.83
X142.93Y-75.1
X142.93Y-76.37
X142.93Y-77.64
X144.2Y-72.56
X144.2Y-73.83
X144.2Y-75.1
X144.2Y-76.37
X144.2Y-77.64
T4
X73.05Y-105.9
X74.7Y-70.06
X77.05Y-81.7
X78.3Y-103.9
X82.55Y-73.65
X89.0Y-71.6
X89.78Y-54.58
X89.78Y-57.12
X89.78Y-59.66
X89.78Y-62.2
X91.39Y-71.61
X92.23Y-92.71
X92.23Y-95.25
X92.23Y-97.79
X92.23Y-100.33
X92.23Y-102.87
X92.23Y-105.41
X92.23Y-107.95
X97.4Y-54.58
X97.4Y-57.12
X97.4Y-59.66
X97.4Y-62.2
X99.85Y-92.71
X99.85Y-95.25
X99.85Y-97.79
X99.85Y-100.33
X99.85Y-102.87
X99.85Y-105.41
X99.85Y-107.95
X105.4Y-75.1
X105.4Y-77.1
X105.4Y-79.1
X107.4Y-75.1
X107.4Y-77.1
X107.4Y-79.1
T5
X109.5Y-55.0
X111.2Y-49.92
X112.9Y-55.0
X114.6Y-49.92
X116.3Y-55.0
X118.0Y-49.92
X119.7Y-55.0
X121.4Y-49.92
X123.1Y-55.0
X124.8Y-49.92
X126.5Y-55.0
X131.66Y-48.46
X131.66Y-51.0
X131.68Y-108.75
X131.68Y-111.29
X134.2Y-48.46
X134.2Y-51.0
X134.22Y-108.75
X134.22Y-111.29
X136.74Y-48.46
X136.74Y-51.0
X136.76Y-108.75
X136.76Y-111.29
X139.28Y-48.46
X139.28Y-51.0
X139.3Y-108.75
X139.3Y-111.29
X145.6Y-56.36
X145.6Y-58.9
X145.8Y-63.0
X145.8Y-65.54
T6
X139.65Y-97.65
T7
X62.81Y-103.7
X62.81Y-108.78
X62.82Y-51.01
X62.82Y-56.09
X62.83Y-64.19
X62.83Y-69.27
X62.83Y-77.35
X62.83Y-82.43
X62.83Y-90.52
X62.83Y-95.6
X67.89Y-103.7
X67.89Y-108.78
X67.9Y-51.01
X67.9Y-56.09
X67.91Y-64.19
X67.91Y-69.27
X67.91Y-77.35
X67.91Y-82.43
X67.91Y-90.52
X67.91Y-95.6
T8
X136.35Y-94.35
X136.35Y-100.95
X142.95Y-94.45
X142.95Y-100.95
T9
X73.2Y-51.0
X73.2Y-108.8
X145.0Y-51.0
X145.0Y-108.8
T0
M30
