G04 #@! TF.GenerationSoftware,KiCad,Pcbnew,(5.1.12-1-10_14)*
G04 #@! TF.CreationDate,2022-10-09T23:27:55+02:00*
G04 #@! TF.ProjectId,Boat Channel Board,426f6174-2043-4686-916e-6e656c20426f,rev?*
G04 #@! TF.SameCoordinates,Original*
G04 #@! TF.FileFunction,Legend,Top*
G04 #@! TF.FilePolarity,Positive*
%FSLAX46Y46*%
G04 Gerber Fmt 4.6, Leading zero omitted, Abs format (unit mm)*
G04 Created by KiCad (PCBNEW (5.1.12-1-10_14)) date 2022-10-09 23:27:55*
%MOMM*%
%LPD*%
G01*
G04 APERTURE LIST*
%ADD10C,0.120000*%
%ADD11C,0.150000*%
%ADD12C,0.125000*%
%ADD13C,0.130000*%
G04 APERTURE END LIST*
D10*
X107420000Y-79930000D02*
X107420000Y-81130000D01*
D11*
X105403333Y-81706666D02*
X105736666Y-81706666D01*
X105336666Y-81906666D02*
X105570000Y-81206666D01*
X105803333Y-81906666D01*
X106036666Y-81906666D02*
X106036666Y-81206666D01*
X106203333Y-81206666D01*
X106303333Y-81240000D01*
X106370000Y-81306666D01*
X106403333Y-81373333D01*
X106436666Y-81506666D01*
X106436666Y-81606666D01*
X106403333Y-81740000D01*
X106370000Y-81806666D01*
X106303333Y-81873333D01*
X106203333Y-81906666D01*
X106036666Y-81906666D01*
X107136666Y-81840000D02*
X107103333Y-81873333D01*
X107003333Y-81906666D01*
X106936666Y-81906666D01*
X106836666Y-81873333D01*
X106770000Y-81806666D01*
X106736666Y-81740000D01*
X106703333Y-81606666D01*
X106703333Y-81506666D01*
X106736666Y-81373333D01*
X106770000Y-81306666D01*
X106836666Y-81240000D01*
X106936666Y-81206666D01*
X107003333Y-81206666D01*
X107103333Y-81240000D01*
X107136666Y-81273333D01*
X107270000Y-81973333D02*
X107803333Y-81973333D01*
X108370000Y-81840000D02*
X108336666Y-81873333D01*
X108236666Y-81906666D01*
X108170000Y-81906666D01*
X108070000Y-81873333D01*
X108003333Y-81806666D01*
X107970000Y-81740000D01*
X107936666Y-81606666D01*
X107936666Y-81506666D01*
X107970000Y-81373333D01*
X108003333Y-81306666D01*
X108070000Y-81240000D01*
X108170000Y-81206666D01*
X108236666Y-81206666D01*
X108336666Y-81240000D01*
X108370000Y-81273333D01*
X109003333Y-81906666D02*
X108670000Y-81906666D01*
X108670000Y-81206666D01*
X109236666Y-81906666D02*
X109236666Y-81206666D01*
X109636666Y-81906666D02*
X109336666Y-81506666D01*
X109636666Y-81206666D02*
X109236666Y-81606666D01*
X78033333Y-96450000D02*
X78566666Y-96450000D01*
X78300000Y-96716666D02*
X78300000Y-96183333D01*
X87033333Y-78350000D02*
X87566666Y-78350000D01*
X87300000Y-78616666D02*
X87300000Y-78083333D01*
X83883333Y-69400000D02*
X84416666Y-69400000D01*
X84150000Y-69666666D02*
X84150000Y-69133333D01*
D10*
X108500000Y-80150000D02*
X108500000Y-74300000D01*
X104300000Y-80150000D02*
X108500000Y-80150000D01*
X104300000Y-74300000D02*
X104300000Y-80150000D01*
D11*
X103640476Y-73428571D02*
X103973809Y-73428571D01*
X104116666Y-73952380D02*
X103640476Y-73952380D01*
X103640476Y-72952380D01*
X104116666Y-72952380D01*
X104450000Y-73952380D02*
X104973809Y-73285714D01*
X104450000Y-73285714D02*
X104973809Y-73952380D01*
X105211904Y-73285714D02*
X105592857Y-73285714D01*
X105354761Y-72952380D02*
X105354761Y-73809523D01*
X105402380Y-73904761D01*
X105497619Y-73952380D01*
X105592857Y-73952380D01*
X105926190Y-73952380D02*
X105926190Y-73285714D01*
X105926190Y-73476190D02*
X105973809Y-73380952D01*
X106021428Y-73333333D01*
X106116666Y-73285714D01*
X106211904Y-73285714D01*
X106973809Y-73952380D02*
X106973809Y-73428571D01*
X106926190Y-73333333D01*
X106830952Y-73285714D01*
X106640476Y-73285714D01*
X106545238Y-73333333D01*
X106973809Y-73904761D02*
X106878571Y-73952380D01*
X106640476Y-73952380D01*
X106545238Y-73904761D01*
X106497619Y-73809523D01*
X106497619Y-73714285D01*
X106545238Y-73619047D01*
X106640476Y-73571428D01*
X106878571Y-73571428D01*
X106973809Y-73523809D01*
X108211904Y-73952380D02*
X108211904Y-72952380D01*
X108878571Y-72952380D02*
X109069047Y-72952380D01*
X109164285Y-73000000D01*
X109259523Y-73095238D01*
X109307142Y-73285714D01*
X109307142Y-73619047D01*
X109259523Y-73809523D01*
X109164285Y-73904761D01*
X109069047Y-73952380D01*
X108878571Y-73952380D01*
X108783333Y-73904761D01*
X108688095Y-73809523D01*
X108640476Y-73619047D01*
X108640476Y-73285714D01*
X108688095Y-73095238D01*
X108783333Y-73000000D01*
X108878571Y-72952380D01*
D10*
X78900000Y-97000000D02*
X78900000Y-97400000D01*
X78900000Y-97000000D02*
X78500000Y-97200000D01*
X78300000Y-98000000D02*
X78900000Y-97000000D01*
X78300000Y-104700000D02*
X78300000Y-98000000D01*
X76750000Y-104700000D02*
X78300000Y-104700000D01*
X84700000Y-68500000D02*
X84200000Y-68500000D01*
X84500000Y-68100000D02*
X84700000Y-68500000D01*
X84700000Y-68500000D02*
X84500000Y-68100000D01*
X83200000Y-67600000D02*
X84700000Y-68500000D01*
X83200000Y-67600000D02*
X77000000Y-67600000D01*
X87500000Y-77000000D02*
X87000000Y-77000000D01*
X87300000Y-76500000D02*
X87500000Y-77000000D01*
X84400000Y-75000000D02*
X87500000Y-77000000D01*
X77100000Y-75000000D02*
X84400000Y-75000000D01*
X105200000Y-72910000D02*
X105200000Y-72950000D01*
X75500000Y-104700000D02*
X76750000Y-104700000D01*
X76750000Y-103750000D02*
X76450000Y-104050000D01*
X76750000Y-104700000D02*
X76750000Y-103750000D01*
X76750000Y-103750000D02*
X77050000Y-104050000D01*
X74500000Y-68400000D02*
X74500000Y-72600000D01*
X75450000Y-72600000D02*
X75150000Y-72300000D01*
X74500000Y-72600000D02*
X75450000Y-72600000D01*
X75450000Y-72600000D02*
X75150000Y-72900000D01*
X75600000Y-78350000D02*
X75300000Y-78650000D01*
X75600000Y-78350000D02*
X75300000Y-78050000D01*
X74650000Y-78350000D02*
X75600000Y-78350000D01*
X74650000Y-75750000D02*
X74650000Y-78350000D01*
D11*
X72664285Y-104721428D02*
X73426190Y-104721428D01*
X74378571Y-104102380D02*
X73902380Y-104102380D01*
X73854761Y-104578571D01*
X73902380Y-104530952D01*
X73997619Y-104483333D01*
X74235714Y-104483333D01*
X74330952Y-104530952D01*
X74378571Y-104578571D01*
X74426190Y-104673809D01*
X74426190Y-104911904D01*
X74378571Y-105007142D01*
X74330952Y-105054761D01*
X74235714Y-105102380D01*
X73997619Y-105102380D01*
X73902380Y-105054761D01*
X73854761Y-105007142D01*
X74711904Y-104102380D02*
X75045238Y-105102380D01*
X75378571Y-104102380D01*
X74411904Y-74452380D02*
X75030952Y-74452380D01*
X74697619Y-74833333D01*
X74840476Y-74833333D01*
X74935714Y-74880952D01*
X74983333Y-74928571D01*
X75030952Y-75023809D01*
X75030952Y-75261904D01*
X74983333Y-75357142D01*
X74935714Y-75404761D01*
X74840476Y-75452380D01*
X74554761Y-75452380D01*
X74459523Y-75404761D01*
X74411904Y-75357142D01*
X75316666Y-74452380D02*
X75650000Y-75452380D01*
X75983333Y-74452380D01*
X76221428Y-74452380D02*
X76840476Y-74452380D01*
X76507142Y-74833333D01*
X76650000Y-74833333D01*
X76745238Y-74880952D01*
X76792857Y-74928571D01*
X76840476Y-75023809D01*
X76840476Y-75261904D01*
X76792857Y-75357142D01*
X76745238Y-75404761D01*
X76650000Y-75452380D01*
X76364285Y-75452380D01*
X76269047Y-75404761D01*
X76221428Y-75357142D01*
X74114285Y-67771428D02*
X74876190Y-67771428D01*
X74495238Y-68152380D02*
X74495238Y-67390476D01*
X75828571Y-67152380D02*
X75352380Y-67152380D01*
X75304761Y-67628571D01*
X75352380Y-67580952D01*
X75447619Y-67533333D01*
X75685714Y-67533333D01*
X75780952Y-67580952D01*
X75828571Y-67628571D01*
X75876190Y-67723809D01*
X75876190Y-67961904D01*
X75828571Y-68057142D01*
X75780952Y-68104761D01*
X75685714Y-68152380D01*
X75447619Y-68152380D01*
X75352380Y-68104761D01*
X75304761Y-68057142D01*
X76161904Y-67152380D02*
X76495238Y-68152380D01*
X76828571Y-67152380D01*
X127416666Y-87433333D02*
X127516666Y-87466666D01*
X127683333Y-87466666D01*
X127750000Y-87433333D01*
X127783333Y-87400000D01*
X127816666Y-87333333D01*
X127816666Y-87266666D01*
X127783333Y-87200000D01*
X127750000Y-87166666D01*
X127683333Y-87133333D01*
X127550000Y-87100000D01*
X127483333Y-87066666D01*
X127450000Y-87033333D01*
X127416666Y-86966666D01*
X127416666Y-86900000D01*
X127450000Y-86833333D01*
X127483333Y-86800000D01*
X127550000Y-86766666D01*
X127716666Y-86766666D01*
X127816666Y-86800000D01*
X128116666Y-87466666D02*
X128116666Y-86766666D01*
X128416666Y-87466666D02*
X128416666Y-87100000D01*
X128383333Y-87033333D01*
X128316666Y-87000000D01*
X128216666Y-87000000D01*
X128150000Y-87033333D01*
X128116666Y-87066666D01*
X128850000Y-87466666D02*
X128783333Y-87433333D01*
X128750000Y-87400000D01*
X128716666Y-87333333D01*
X128716666Y-87133333D01*
X128750000Y-87066666D01*
X128783333Y-87033333D01*
X128850000Y-87000000D01*
X128950000Y-87000000D01*
X129016666Y-87033333D01*
X129050000Y-87066666D01*
X129083333Y-87133333D01*
X129083333Y-87333333D01*
X129050000Y-87400000D01*
X129016666Y-87433333D01*
X128950000Y-87466666D01*
X128850000Y-87466666D01*
X129383333Y-87466666D02*
X129383333Y-87000000D01*
X129383333Y-87133333D02*
X129416666Y-87066666D01*
X129450000Y-87033333D01*
X129516666Y-87000000D01*
X129583333Y-87000000D01*
X129716666Y-87000000D02*
X129983333Y-87000000D01*
X129816666Y-86766666D02*
X129816666Y-87366666D01*
X129850000Y-87433333D01*
X129916666Y-87466666D01*
X129983333Y-87466666D01*
X130950000Y-86800000D02*
X130950000Y-86766666D01*
X130983333Y-86700000D01*
X131016666Y-86666666D01*
X130683333Y-86800000D02*
X130683333Y-86766666D01*
X130716666Y-86700000D01*
X130750000Y-86666666D01*
X131250000Y-87433333D02*
X131350000Y-87466666D01*
X131516666Y-87466666D01*
X131583333Y-87433333D01*
X131616666Y-87400000D01*
X131650000Y-87333333D01*
X131650000Y-87266666D01*
X131616666Y-87200000D01*
X131583333Y-87166666D01*
X131516666Y-87133333D01*
X131383333Y-87100000D01*
X131316666Y-87066666D01*
X131283333Y-87033333D01*
X131250000Y-86966666D01*
X131250000Y-86900000D01*
X131283333Y-86833333D01*
X131316666Y-86800000D01*
X131383333Y-86766666D01*
X131550000Y-86766666D01*
X131650000Y-86800000D01*
X131950000Y-87466666D02*
X131950000Y-86766666D01*
X132016666Y-87200000D02*
X132216666Y-87466666D01*
X132216666Y-87000000D02*
X131950000Y-87266666D01*
X132516666Y-87466666D02*
X132516666Y-87000000D01*
X132516666Y-86766666D02*
X132483333Y-86800000D01*
X132516666Y-86833333D01*
X132550000Y-86800000D01*
X132516666Y-86766666D01*
X132516666Y-86833333D01*
X132850000Y-87000000D02*
X132850000Y-87700000D01*
X132850000Y-87033333D02*
X132916666Y-87000000D01*
X133050000Y-87000000D01*
X133116666Y-87033333D01*
X133150000Y-87066666D01*
X133183333Y-87133333D01*
X133183333Y-87333333D01*
X133150000Y-87400000D01*
X133116666Y-87433333D01*
X133050000Y-87466666D01*
X132916666Y-87466666D01*
X132850000Y-87433333D01*
X133483333Y-86766666D02*
X133483333Y-86800000D01*
X133450000Y-86866666D01*
X133416666Y-86900000D01*
X133750000Y-86766666D02*
X133750000Y-86800000D01*
X133716666Y-86866666D01*
X133683333Y-86900000D01*
X134950000Y-87466666D02*
X134716666Y-87133333D01*
X134550000Y-87466666D02*
X134550000Y-86766666D01*
X134816666Y-86766666D01*
X134883333Y-86800000D01*
X134916666Y-86833333D01*
X134950000Y-86900000D01*
X134950000Y-87000000D01*
X134916666Y-87066666D01*
X134883333Y-87100000D01*
X134816666Y-87133333D01*
X134550000Y-87133333D01*
X135516666Y-87433333D02*
X135450000Y-87466666D01*
X135316666Y-87466666D01*
X135250000Y-87433333D01*
X135216666Y-87366666D01*
X135216666Y-87100000D01*
X135250000Y-87033333D01*
X135316666Y-87000000D01*
X135450000Y-87000000D01*
X135516666Y-87033333D01*
X135550000Y-87100000D01*
X135550000Y-87166666D01*
X135216666Y-87233333D01*
X135816666Y-87433333D02*
X135883333Y-87466666D01*
X136016666Y-87466666D01*
X136083333Y-87433333D01*
X136116666Y-87366666D01*
X136116666Y-87333333D01*
X136083333Y-87266666D01*
X136016666Y-87233333D01*
X135916666Y-87233333D01*
X135850000Y-87200000D01*
X135816666Y-87133333D01*
X135816666Y-87100000D01*
X135850000Y-87033333D01*
X135916666Y-87000000D01*
X136016666Y-87000000D01*
X136083333Y-87033333D01*
X136416666Y-87466666D02*
X136416666Y-87000000D01*
X136416666Y-86766666D02*
X136383333Y-86800000D01*
X136416666Y-86833333D01*
X136450000Y-86800000D01*
X136416666Y-86766666D01*
X136416666Y-86833333D01*
X136716666Y-87433333D02*
X136783333Y-87466666D01*
X136916666Y-87466666D01*
X136983333Y-87433333D01*
X137016666Y-87366666D01*
X137016666Y-87333333D01*
X136983333Y-87266666D01*
X136916666Y-87233333D01*
X136816666Y-87233333D01*
X136750000Y-87200000D01*
X136716666Y-87133333D01*
X136716666Y-87100000D01*
X136750000Y-87033333D01*
X136816666Y-87000000D01*
X136916666Y-87000000D01*
X136983333Y-87033333D01*
X137216666Y-87000000D02*
X137483333Y-87000000D01*
X137316666Y-86766666D02*
X137316666Y-87366666D01*
X137350000Y-87433333D01*
X137416666Y-87466666D01*
X137483333Y-87466666D01*
X137816666Y-87466666D02*
X137750000Y-87433333D01*
X137716666Y-87400000D01*
X137683333Y-87333333D01*
X137683333Y-87133333D01*
X137716666Y-87066666D01*
X137750000Y-87033333D01*
X137816666Y-87000000D01*
X137916666Y-87000000D01*
X137983333Y-87033333D01*
X138016666Y-87066666D01*
X138050000Y-87133333D01*
X138050000Y-87333333D01*
X138016666Y-87400000D01*
X137983333Y-87433333D01*
X137916666Y-87466666D01*
X137816666Y-87466666D01*
X138350000Y-87466666D02*
X138350000Y-87000000D01*
X138350000Y-87133333D02*
X138383333Y-87066666D01*
X138416666Y-87033333D01*
X138483333Y-87000000D01*
X138550000Y-87000000D01*
X139216666Y-87000000D02*
X139483333Y-87000000D01*
X139316666Y-86766666D02*
X139316666Y-87366666D01*
X139350000Y-87433333D01*
X139416666Y-87466666D01*
X139483333Y-87466666D01*
X139816666Y-87466666D02*
X139750000Y-87433333D01*
X139716666Y-87400000D01*
X139683333Y-87333333D01*
X139683333Y-87133333D01*
X139716666Y-87066666D01*
X139750000Y-87033333D01*
X139816666Y-87000000D01*
X139916666Y-87000000D01*
X139983333Y-87033333D01*
X140016666Y-87066666D01*
X140050000Y-87133333D01*
X140050000Y-87333333D01*
X140016666Y-87400000D01*
X139983333Y-87433333D01*
X139916666Y-87466666D01*
X139816666Y-87466666D01*
X141116666Y-87100000D02*
X141216666Y-87133333D01*
X141250000Y-87166666D01*
X141283333Y-87233333D01*
X141283333Y-87333333D01*
X141250000Y-87400000D01*
X141216666Y-87433333D01*
X141150000Y-87466666D01*
X140883333Y-87466666D01*
X140883333Y-86766666D01*
X141116666Y-86766666D01*
X141183333Y-86800000D01*
X141216666Y-86833333D01*
X141250000Y-86900000D01*
X141250000Y-86966666D01*
X141216666Y-87033333D01*
X141183333Y-87066666D01*
X141116666Y-87100000D01*
X140883333Y-87100000D01*
X141516666Y-87000000D02*
X141683333Y-87466666D01*
X141850000Y-87000000D02*
X141683333Y-87466666D01*
X141616666Y-87633333D01*
X141583333Y-87666666D01*
X141516666Y-87700000D01*
X142116666Y-87000000D02*
X142116666Y-87700000D01*
X142116666Y-87033333D02*
X142183333Y-87000000D01*
X142316666Y-87000000D01*
X142383333Y-87033333D01*
X142416666Y-87066666D01*
X142450000Y-87133333D01*
X142450000Y-87333333D01*
X142416666Y-87400000D01*
X142383333Y-87433333D01*
X142316666Y-87466666D01*
X142183333Y-87466666D01*
X142116666Y-87433333D01*
X143050000Y-87466666D02*
X143050000Y-87100000D01*
X143016666Y-87033333D01*
X142950000Y-87000000D01*
X142816666Y-87000000D01*
X142750000Y-87033333D01*
X143050000Y-87433333D02*
X142983333Y-87466666D01*
X142816666Y-87466666D01*
X142750000Y-87433333D01*
X142716666Y-87366666D01*
X142716666Y-87300000D01*
X142750000Y-87233333D01*
X142816666Y-87200000D01*
X142983333Y-87200000D01*
X143050000Y-87166666D01*
X143350000Y-87433333D02*
X143416666Y-87466666D01*
X143550000Y-87466666D01*
X143616666Y-87433333D01*
X143650000Y-87366666D01*
X143650000Y-87333333D01*
X143616666Y-87266666D01*
X143550000Y-87233333D01*
X143450000Y-87233333D01*
X143383333Y-87200000D01*
X143350000Y-87133333D01*
X143350000Y-87100000D01*
X143383333Y-87033333D01*
X143450000Y-87000000D01*
X143550000Y-87000000D01*
X143616666Y-87033333D01*
X143916666Y-87433333D02*
X143983333Y-87466666D01*
X144116666Y-87466666D01*
X144183333Y-87433333D01*
X144216666Y-87366666D01*
X144216666Y-87333333D01*
X144183333Y-87266666D01*
X144116666Y-87233333D01*
X144016666Y-87233333D01*
X143950000Y-87200000D01*
X143916666Y-87133333D01*
X143916666Y-87100000D01*
X143950000Y-87033333D01*
X144016666Y-87000000D01*
X144116666Y-87000000D01*
X144183333Y-87033333D01*
X145016666Y-87433333D02*
X145116666Y-87466666D01*
X145283333Y-87466666D01*
X145350000Y-87433333D01*
X145383333Y-87400000D01*
X145416666Y-87333333D01*
X145416666Y-87266666D01*
X145383333Y-87200000D01*
X145350000Y-87166666D01*
X145283333Y-87133333D01*
X145150000Y-87100000D01*
X145083333Y-87066666D01*
X145050000Y-87033333D01*
X145016666Y-86966666D01*
X145016666Y-86900000D01*
X145050000Y-86833333D01*
X145083333Y-86800000D01*
X145150000Y-86766666D01*
X145316666Y-86766666D01*
X145416666Y-86800000D01*
X145616666Y-87000000D02*
X145883333Y-87000000D01*
X145716666Y-86766666D02*
X145716666Y-87366666D01*
X145750000Y-87433333D01*
X145816666Y-87466666D01*
X145883333Y-87466666D01*
X146416666Y-87466666D02*
X146416666Y-87100000D01*
X146383333Y-87033333D01*
X146316666Y-87000000D01*
X146183333Y-87000000D01*
X146116666Y-87033333D01*
X146416666Y-87433333D02*
X146350000Y-87466666D01*
X146183333Y-87466666D01*
X146116666Y-87433333D01*
X146083333Y-87366666D01*
X146083333Y-87300000D01*
X146116666Y-87233333D01*
X146183333Y-87200000D01*
X146350000Y-87200000D01*
X146416666Y-87166666D01*
X147050000Y-87000000D02*
X147050000Y-87566666D01*
X147016666Y-87633333D01*
X146983333Y-87666666D01*
X146916666Y-87700000D01*
X146816666Y-87700000D01*
X146750000Y-87666666D01*
X147050000Y-87433333D02*
X146983333Y-87466666D01*
X146850000Y-87466666D01*
X146783333Y-87433333D01*
X146750000Y-87400000D01*
X146716666Y-87333333D01*
X146716666Y-87133333D01*
X146750000Y-87066666D01*
X146783333Y-87033333D01*
X146850000Y-87000000D01*
X146983333Y-87000000D01*
X147050000Y-87033333D01*
X147650000Y-87433333D02*
X147583333Y-87466666D01*
X147450000Y-87466666D01*
X147383333Y-87433333D01*
X147350000Y-87366666D01*
X147350000Y-87100000D01*
X147383333Y-87033333D01*
X147450000Y-87000000D01*
X147583333Y-87000000D01*
X147650000Y-87033333D01*
X147683333Y-87100000D01*
X147683333Y-87166666D01*
X147350000Y-87233333D01*
X128116666Y-88633333D02*
X128216666Y-88666666D01*
X128383333Y-88666666D01*
X128450000Y-88633333D01*
X128483333Y-88600000D01*
X128516666Y-88533333D01*
X128516666Y-88466666D01*
X128483333Y-88400000D01*
X128450000Y-88366666D01*
X128383333Y-88333333D01*
X128250000Y-88300000D01*
X128183333Y-88266666D01*
X128150000Y-88233333D01*
X128116666Y-88166666D01*
X128116666Y-88100000D01*
X128150000Y-88033333D01*
X128183333Y-88000000D01*
X128250000Y-87966666D01*
X128416666Y-87966666D01*
X128516666Y-88000000D01*
X128816666Y-88666666D02*
X128816666Y-87966666D01*
X129116666Y-88666666D02*
X129116666Y-88300000D01*
X129083333Y-88233333D01*
X129016666Y-88200000D01*
X128916666Y-88200000D01*
X128850000Y-88233333D01*
X128816666Y-88266666D01*
X129550000Y-88666666D02*
X129483333Y-88633333D01*
X129450000Y-88600000D01*
X129416666Y-88533333D01*
X129416666Y-88333333D01*
X129450000Y-88266666D01*
X129483333Y-88233333D01*
X129550000Y-88200000D01*
X129650000Y-88200000D01*
X129716666Y-88233333D01*
X129750000Y-88266666D01*
X129783333Y-88333333D01*
X129783333Y-88533333D01*
X129750000Y-88600000D01*
X129716666Y-88633333D01*
X129650000Y-88666666D01*
X129550000Y-88666666D01*
X130083333Y-88666666D02*
X130083333Y-88200000D01*
X130083333Y-88333333D02*
X130116666Y-88266666D01*
X130150000Y-88233333D01*
X130216666Y-88200000D01*
X130283333Y-88200000D01*
X130416666Y-88200000D02*
X130683333Y-88200000D01*
X130516666Y-87966666D02*
X130516666Y-88566666D01*
X130550000Y-88633333D01*
X130616666Y-88666666D01*
X130683333Y-88666666D01*
X131650000Y-88000000D02*
X131650000Y-87966666D01*
X131683333Y-87900000D01*
X131716666Y-87866666D01*
X131383333Y-88000000D02*
X131383333Y-87966666D01*
X131416666Y-87900000D01*
X131450000Y-87866666D01*
X131983333Y-87966666D02*
X131983333Y-88533333D01*
X132016666Y-88600000D01*
X132050000Y-88633333D01*
X132116666Y-88666666D01*
X132250000Y-88666666D01*
X132316666Y-88633333D01*
X132350000Y-88600000D01*
X132383333Y-88533333D01*
X132383333Y-87966666D01*
X132683333Y-88633333D02*
X132750000Y-88666666D01*
X132883333Y-88666666D01*
X132950000Y-88633333D01*
X132983333Y-88566666D01*
X132983333Y-88533333D01*
X132950000Y-88466666D01*
X132883333Y-88433333D01*
X132783333Y-88433333D01*
X132716666Y-88400000D01*
X132683333Y-88333333D01*
X132683333Y-88300000D01*
X132716666Y-88233333D01*
X132783333Y-88200000D01*
X132883333Y-88200000D01*
X132950000Y-88233333D01*
X133550000Y-88633333D02*
X133483333Y-88666666D01*
X133350000Y-88666666D01*
X133283333Y-88633333D01*
X133250000Y-88566666D01*
X133250000Y-88300000D01*
X133283333Y-88233333D01*
X133350000Y-88200000D01*
X133483333Y-88200000D01*
X133550000Y-88233333D01*
X133583333Y-88300000D01*
X133583333Y-88366666D01*
X133250000Y-88433333D01*
X133883333Y-87966666D02*
X133883333Y-88000000D01*
X133850000Y-88066666D01*
X133816666Y-88100000D01*
X134150000Y-87966666D02*
X134150000Y-88000000D01*
X134116666Y-88066666D01*
X134083333Y-88100000D01*
X135350000Y-88666666D02*
X135116666Y-88333333D01*
X134950000Y-88666666D02*
X134950000Y-87966666D01*
X135216666Y-87966666D01*
X135283333Y-88000000D01*
X135316666Y-88033333D01*
X135350000Y-88100000D01*
X135350000Y-88200000D01*
X135316666Y-88266666D01*
X135283333Y-88300000D01*
X135216666Y-88333333D01*
X134950000Y-88333333D01*
X135916666Y-88633333D02*
X135850000Y-88666666D01*
X135716666Y-88666666D01*
X135650000Y-88633333D01*
X135616666Y-88566666D01*
X135616666Y-88300000D01*
X135650000Y-88233333D01*
X135716666Y-88200000D01*
X135850000Y-88200000D01*
X135916666Y-88233333D01*
X135950000Y-88300000D01*
X135950000Y-88366666D01*
X135616666Y-88433333D01*
X136216666Y-88633333D02*
X136283333Y-88666666D01*
X136416666Y-88666666D01*
X136483333Y-88633333D01*
X136516666Y-88566666D01*
X136516666Y-88533333D01*
X136483333Y-88466666D01*
X136416666Y-88433333D01*
X136316666Y-88433333D01*
X136250000Y-88400000D01*
X136216666Y-88333333D01*
X136216666Y-88300000D01*
X136250000Y-88233333D01*
X136316666Y-88200000D01*
X136416666Y-88200000D01*
X136483333Y-88233333D01*
X136816666Y-88666666D02*
X136816666Y-88200000D01*
X136816666Y-87966666D02*
X136783333Y-88000000D01*
X136816666Y-88033333D01*
X136850000Y-88000000D01*
X136816666Y-87966666D01*
X136816666Y-88033333D01*
X137116666Y-88633333D02*
X137183333Y-88666666D01*
X137316666Y-88666666D01*
X137383333Y-88633333D01*
X137416666Y-88566666D01*
X137416666Y-88533333D01*
X137383333Y-88466666D01*
X137316666Y-88433333D01*
X137216666Y-88433333D01*
X137150000Y-88400000D01*
X137116666Y-88333333D01*
X137116666Y-88300000D01*
X137150000Y-88233333D01*
X137216666Y-88200000D01*
X137316666Y-88200000D01*
X137383333Y-88233333D01*
X137616666Y-88200000D02*
X137883333Y-88200000D01*
X137716666Y-87966666D02*
X137716666Y-88566666D01*
X137750000Y-88633333D01*
X137816666Y-88666666D01*
X137883333Y-88666666D01*
X138216666Y-88666666D02*
X138150000Y-88633333D01*
X138116666Y-88600000D01*
X138083333Y-88533333D01*
X138083333Y-88333333D01*
X138116666Y-88266666D01*
X138150000Y-88233333D01*
X138216666Y-88200000D01*
X138316666Y-88200000D01*
X138383333Y-88233333D01*
X138416666Y-88266666D01*
X138450000Y-88333333D01*
X138450000Y-88533333D01*
X138416666Y-88600000D01*
X138383333Y-88633333D01*
X138316666Y-88666666D01*
X138216666Y-88666666D01*
X138750000Y-88666666D02*
X138750000Y-88200000D01*
X138750000Y-88333333D02*
X138783333Y-88266666D01*
X138816666Y-88233333D01*
X138883333Y-88200000D01*
X138950000Y-88200000D01*
X139616666Y-88200000D02*
X139883333Y-88200000D01*
X139716666Y-87966666D02*
X139716666Y-88566666D01*
X139750000Y-88633333D01*
X139816666Y-88666666D01*
X139883333Y-88666666D01*
X140216666Y-88666666D02*
X140150000Y-88633333D01*
X140116666Y-88600000D01*
X140083333Y-88533333D01*
X140083333Y-88333333D01*
X140116666Y-88266666D01*
X140150000Y-88233333D01*
X140216666Y-88200000D01*
X140316666Y-88200000D01*
X140383333Y-88233333D01*
X140416666Y-88266666D01*
X140450000Y-88333333D01*
X140450000Y-88533333D01*
X140416666Y-88600000D01*
X140383333Y-88633333D01*
X140316666Y-88666666D01*
X140216666Y-88666666D01*
X141283333Y-88666666D02*
X141283333Y-87966666D01*
X141683333Y-88666666D02*
X141383333Y-88266666D01*
X141683333Y-87966666D02*
X141283333Y-88366666D01*
X142250000Y-88633333D02*
X142183333Y-88666666D01*
X142050000Y-88666666D01*
X141983333Y-88633333D01*
X141950000Y-88566666D01*
X141950000Y-88300000D01*
X141983333Y-88233333D01*
X142050000Y-88200000D01*
X142183333Y-88200000D01*
X142250000Y-88233333D01*
X142283333Y-88300000D01*
X142283333Y-88366666D01*
X141950000Y-88433333D01*
X142850000Y-88633333D02*
X142783333Y-88666666D01*
X142650000Y-88666666D01*
X142583333Y-88633333D01*
X142550000Y-88566666D01*
X142550000Y-88300000D01*
X142583333Y-88233333D01*
X142650000Y-88200000D01*
X142783333Y-88200000D01*
X142850000Y-88233333D01*
X142883333Y-88300000D01*
X142883333Y-88366666D01*
X142550000Y-88433333D01*
X143183333Y-88200000D02*
X143183333Y-88900000D01*
X143183333Y-88233333D02*
X143250000Y-88200000D01*
X143383333Y-88200000D01*
X143450000Y-88233333D01*
X143483333Y-88266666D01*
X143516666Y-88333333D01*
X143516666Y-88533333D01*
X143483333Y-88600000D01*
X143450000Y-88633333D01*
X143383333Y-88666666D01*
X143250000Y-88666666D01*
X143183333Y-88633333D01*
X144316666Y-88633333D02*
X144416666Y-88666666D01*
X144583333Y-88666666D01*
X144650000Y-88633333D01*
X144683333Y-88600000D01*
X144716666Y-88533333D01*
X144716666Y-88466666D01*
X144683333Y-88400000D01*
X144650000Y-88366666D01*
X144583333Y-88333333D01*
X144450000Y-88300000D01*
X144383333Y-88266666D01*
X144350000Y-88233333D01*
X144316666Y-88166666D01*
X144316666Y-88100000D01*
X144350000Y-88033333D01*
X144383333Y-88000000D01*
X144450000Y-87966666D01*
X144616666Y-87966666D01*
X144716666Y-88000000D01*
X144916666Y-88200000D02*
X145183333Y-88200000D01*
X145016666Y-87966666D02*
X145016666Y-88566666D01*
X145050000Y-88633333D01*
X145116666Y-88666666D01*
X145183333Y-88666666D01*
X145716666Y-88666666D02*
X145716666Y-88300000D01*
X145683333Y-88233333D01*
X145616666Y-88200000D01*
X145483333Y-88200000D01*
X145416666Y-88233333D01*
X145716666Y-88633333D02*
X145650000Y-88666666D01*
X145483333Y-88666666D01*
X145416666Y-88633333D01*
X145383333Y-88566666D01*
X145383333Y-88500000D01*
X145416666Y-88433333D01*
X145483333Y-88400000D01*
X145650000Y-88400000D01*
X145716666Y-88366666D01*
X146350000Y-88200000D02*
X146350000Y-88766666D01*
X146316666Y-88833333D01*
X146283333Y-88866666D01*
X146216666Y-88900000D01*
X146116666Y-88900000D01*
X146050000Y-88866666D01*
X146350000Y-88633333D02*
X146283333Y-88666666D01*
X146150000Y-88666666D01*
X146083333Y-88633333D01*
X146050000Y-88600000D01*
X146016666Y-88533333D01*
X146016666Y-88333333D01*
X146050000Y-88266666D01*
X146083333Y-88233333D01*
X146150000Y-88200000D01*
X146283333Y-88200000D01*
X146350000Y-88233333D01*
X146950000Y-88633333D02*
X146883333Y-88666666D01*
X146750000Y-88666666D01*
X146683333Y-88633333D01*
X146650000Y-88566666D01*
X146650000Y-88300000D01*
X146683333Y-88233333D01*
X146750000Y-88200000D01*
X146883333Y-88200000D01*
X146950000Y-88233333D01*
X146983333Y-88300000D01*
X146983333Y-88366666D01*
X146650000Y-88433333D01*
D10*
X89300000Y-102900000D02*
X89300000Y-101500000D01*
X89300000Y-97700000D02*
X89300000Y-99200000D01*
D11*
X86683333Y-102566666D02*
X86716666Y-102466666D01*
X86716666Y-102300000D01*
X86683333Y-102233333D01*
X86650000Y-102200000D01*
X86583333Y-102166666D01*
X86516666Y-102166666D01*
X86450000Y-102200000D01*
X86416666Y-102233333D01*
X86383333Y-102300000D01*
X86350000Y-102433333D01*
X86316666Y-102500000D01*
X86283333Y-102533333D01*
X86216666Y-102566666D01*
X86150000Y-102566666D01*
X86083333Y-102533333D01*
X86050000Y-102500000D01*
X86016666Y-102433333D01*
X86016666Y-102266666D01*
X86050000Y-102166666D01*
X86716666Y-101866666D02*
X86016666Y-101866666D01*
X86450000Y-101800000D02*
X86716666Y-101600000D01*
X86250000Y-101600000D02*
X86516666Y-101866666D01*
X86716666Y-101300000D02*
X86250000Y-101300000D01*
X86016666Y-101300000D02*
X86050000Y-101333333D01*
X86083333Y-101300000D01*
X86050000Y-101266666D01*
X86016666Y-101300000D01*
X86083333Y-101300000D01*
X86250000Y-100966666D02*
X86950000Y-100966666D01*
X86283333Y-100966666D02*
X86250000Y-100900000D01*
X86250000Y-100766666D01*
X86283333Y-100700000D01*
X86316666Y-100666666D01*
X86383333Y-100633333D01*
X86583333Y-100633333D01*
X86650000Y-100666666D01*
X86683333Y-100700000D01*
X86716666Y-100766666D01*
X86716666Y-100900000D01*
X86683333Y-100966666D01*
X86416666Y-99583333D02*
X86983333Y-99583333D01*
X87050000Y-99550000D01*
X87083333Y-99516666D01*
X87116666Y-99450000D01*
X87116666Y-99316666D01*
X87083333Y-99250000D01*
X87050000Y-99216666D01*
X86983333Y-99183333D01*
X86416666Y-99183333D01*
X87083333Y-98883333D02*
X87116666Y-98816666D01*
X87116666Y-98683333D01*
X87083333Y-98616666D01*
X87016666Y-98583333D01*
X86983333Y-98583333D01*
X86916666Y-98616666D01*
X86883333Y-98683333D01*
X86883333Y-98783333D01*
X86850000Y-98850000D01*
X86783333Y-98883333D01*
X86750000Y-98883333D01*
X86683333Y-98850000D01*
X86650000Y-98783333D01*
X86650000Y-98683333D01*
X86683333Y-98616666D01*
X87083333Y-98016666D02*
X87116666Y-98083333D01*
X87116666Y-98216666D01*
X87083333Y-98283333D01*
X87016666Y-98316666D01*
X86750000Y-98316666D01*
X86683333Y-98283333D01*
X86650000Y-98216666D01*
X86650000Y-98083333D01*
X86683333Y-98016666D01*
X86750000Y-97983333D01*
X86816666Y-97983333D01*
X86883333Y-98316666D01*
D10*
X102700000Y-102300000D02*
X102700000Y-101400000D01*
X102700000Y-98200000D02*
X102700000Y-98300000D01*
X102700000Y-97200000D02*
X102700000Y-98200000D01*
D11*
X104916666Y-98883333D02*
X105483333Y-98883333D01*
X105550000Y-98850000D01*
X105583333Y-98816666D01*
X105616666Y-98750000D01*
X105616666Y-98616666D01*
X105583333Y-98550000D01*
X105550000Y-98516666D01*
X105483333Y-98483333D01*
X104916666Y-98483333D01*
X105583333Y-98183333D02*
X105616666Y-98116666D01*
X105616666Y-97983333D01*
X105583333Y-97916666D01*
X105516666Y-97883333D01*
X105483333Y-97883333D01*
X105416666Y-97916666D01*
X105383333Y-97983333D01*
X105383333Y-98083333D01*
X105350000Y-98150000D01*
X105283333Y-98183333D01*
X105250000Y-98183333D01*
X105183333Y-98150000D01*
X105150000Y-98083333D01*
X105150000Y-97983333D01*
X105183333Y-97916666D01*
X105583333Y-97316666D02*
X105616666Y-97383333D01*
X105616666Y-97516666D01*
X105583333Y-97583333D01*
X105516666Y-97616666D01*
X105250000Y-97616666D01*
X105183333Y-97583333D01*
X105150000Y-97516666D01*
X105150000Y-97383333D01*
X105183333Y-97316666D01*
X105250000Y-97283333D01*
X105316666Y-97283333D01*
X105383333Y-97616666D01*
X105983333Y-101966666D02*
X106016666Y-101866666D01*
X106016666Y-101700000D01*
X105983333Y-101633333D01*
X105950000Y-101600000D01*
X105883333Y-101566666D01*
X105816666Y-101566666D01*
X105750000Y-101600000D01*
X105716666Y-101633333D01*
X105683333Y-101700000D01*
X105650000Y-101833333D01*
X105616666Y-101900000D01*
X105583333Y-101933333D01*
X105516666Y-101966666D01*
X105450000Y-101966666D01*
X105383333Y-101933333D01*
X105350000Y-101900000D01*
X105316666Y-101833333D01*
X105316666Y-101666666D01*
X105350000Y-101566666D01*
X106016666Y-101266666D02*
X105316666Y-101266666D01*
X105750000Y-101200000D02*
X106016666Y-101000000D01*
X105550000Y-101000000D02*
X105816666Y-101266666D01*
X106016666Y-100700000D02*
X105550000Y-100700000D01*
X105316666Y-100700000D02*
X105350000Y-100733333D01*
X105383333Y-100700000D01*
X105350000Y-100666666D01*
X105316666Y-100700000D01*
X105383333Y-100700000D01*
X105550000Y-100366666D02*
X106250000Y-100366666D01*
X105583333Y-100366666D02*
X105550000Y-100300000D01*
X105550000Y-100166666D01*
X105583333Y-100100000D01*
X105616666Y-100066666D01*
X105683333Y-100033333D01*
X105883333Y-100033333D01*
X105950000Y-100066666D01*
X105983333Y-100100000D01*
X106016666Y-100166666D01*
X106016666Y-100300000D01*
X105983333Y-100366666D01*
D10*
X101600000Y-89500000D02*
X100100000Y-89500000D01*
X94100000Y-89500000D02*
X97900000Y-89500000D01*
X90200000Y-89500000D02*
X91600000Y-89500000D01*
D11*
X98216666Y-89416666D02*
X98216666Y-89983333D01*
X98250000Y-90050000D01*
X98283333Y-90083333D01*
X98350000Y-90116666D01*
X98483333Y-90116666D01*
X98550000Y-90083333D01*
X98583333Y-90050000D01*
X98616666Y-89983333D01*
X98616666Y-89416666D01*
X98916666Y-90083333D02*
X98983333Y-90116666D01*
X99116666Y-90116666D01*
X99183333Y-90083333D01*
X99216666Y-90016666D01*
X99216666Y-89983333D01*
X99183333Y-89916666D01*
X99116666Y-89883333D01*
X99016666Y-89883333D01*
X98950000Y-89850000D01*
X98916666Y-89783333D01*
X98916666Y-89750000D01*
X98950000Y-89683333D01*
X99016666Y-89650000D01*
X99116666Y-89650000D01*
X99183333Y-89683333D01*
X99783333Y-90083333D02*
X99716666Y-90116666D01*
X99583333Y-90116666D01*
X99516666Y-90083333D01*
X99483333Y-90016666D01*
X99483333Y-89750000D01*
X99516666Y-89683333D01*
X99583333Y-89650000D01*
X99716666Y-89650000D01*
X99783333Y-89683333D01*
X99816666Y-89750000D01*
X99816666Y-89816666D01*
X99483333Y-89883333D01*
X91933333Y-90083333D02*
X92033333Y-90116666D01*
X92200000Y-90116666D01*
X92266666Y-90083333D01*
X92300000Y-90050000D01*
X92333333Y-89983333D01*
X92333333Y-89916666D01*
X92300000Y-89850000D01*
X92266666Y-89816666D01*
X92200000Y-89783333D01*
X92066666Y-89750000D01*
X92000000Y-89716666D01*
X91966666Y-89683333D01*
X91933333Y-89616666D01*
X91933333Y-89550000D01*
X91966666Y-89483333D01*
X92000000Y-89450000D01*
X92066666Y-89416666D01*
X92233333Y-89416666D01*
X92333333Y-89450000D01*
X92633333Y-90116666D02*
X92633333Y-89416666D01*
X92700000Y-89850000D02*
X92900000Y-90116666D01*
X92900000Y-89650000D02*
X92633333Y-89916666D01*
X93200000Y-90116666D02*
X93200000Y-89650000D01*
X93200000Y-89416666D02*
X93166666Y-89450000D01*
X93200000Y-89483333D01*
X93233333Y-89450000D01*
X93200000Y-89416666D01*
X93200000Y-89483333D01*
X93533333Y-89650000D02*
X93533333Y-90350000D01*
X93533333Y-89683333D02*
X93600000Y-89650000D01*
X93733333Y-89650000D01*
X93800000Y-89683333D01*
X93833333Y-89716666D01*
X93866666Y-89783333D01*
X93866666Y-89983333D01*
X93833333Y-90050000D01*
X93800000Y-90083333D01*
X93733333Y-90116666D01*
X93600000Y-90116666D01*
X93533333Y-90083333D01*
X113516666Y-105983333D02*
X114083333Y-105983333D01*
X114150000Y-105950000D01*
X114183333Y-105916666D01*
X114216666Y-105850000D01*
X114216666Y-105716666D01*
X114183333Y-105650000D01*
X114150000Y-105616666D01*
X114083333Y-105583333D01*
X113516666Y-105583333D01*
X114183333Y-105283333D02*
X114216666Y-105216666D01*
X114216666Y-105083333D01*
X114183333Y-105016666D01*
X114116666Y-104983333D01*
X114083333Y-104983333D01*
X114016666Y-105016666D01*
X113983333Y-105083333D01*
X113983333Y-105183333D01*
X113950000Y-105250000D01*
X113883333Y-105283333D01*
X113850000Y-105283333D01*
X113783333Y-105250000D01*
X113750000Y-105183333D01*
X113750000Y-105083333D01*
X113783333Y-105016666D01*
X114183333Y-104416666D02*
X114216666Y-104483333D01*
X114216666Y-104616666D01*
X114183333Y-104683333D01*
X114116666Y-104716666D01*
X113850000Y-104716666D01*
X113783333Y-104683333D01*
X113750000Y-104616666D01*
X113750000Y-104483333D01*
X113783333Y-104416666D01*
X113850000Y-104383333D01*
X113916666Y-104383333D01*
X113983333Y-104716666D01*
D10*
X111100000Y-104100000D02*
X111600000Y-104100000D01*
X113700000Y-104100000D02*
X113600000Y-104100000D01*
X117700000Y-104100000D02*
X113700000Y-104100000D01*
D11*
X114983333Y-108866666D02*
X115016666Y-108766666D01*
X115016666Y-108600000D01*
X114983333Y-108533333D01*
X114950000Y-108500000D01*
X114883333Y-108466666D01*
X114816666Y-108466666D01*
X114750000Y-108500000D01*
X114716666Y-108533333D01*
X114683333Y-108600000D01*
X114650000Y-108733333D01*
X114616666Y-108800000D01*
X114583333Y-108833333D01*
X114516666Y-108866666D01*
X114450000Y-108866666D01*
X114383333Y-108833333D01*
X114350000Y-108800000D01*
X114316666Y-108733333D01*
X114316666Y-108566666D01*
X114350000Y-108466666D01*
X115016666Y-108166666D02*
X114316666Y-108166666D01*
X114750000Y-108100000D02*
X115016666Y-107900000D01*
X114550000Y-107900000D02*
X114816666Y-108166666D01*
X115016666Y-107600000D02*
X114550000Y-107600000D01*
X114316666Y-107600000D02*
X114350000Y-107633333D01*
X114383333Y-107600000D01*
X114350000Y-107566666D01*
X114316666Y-107600000D01*
X114383333Y-107600000D01*
X114550000Y-107266666D02*
X115250000Y-107266666D01*
X114583333Y-107266666D02*
X114550000Y-107200000D01*
X114550000Y-107066666D01*
X114583333Y-107000000D01*
X114616666Y-106966666D01*
X114683333Y-106933333D01*
X114883333Y-106933333D01*
X114950000Y-106966666D01*
X114983333Y-107000000D01*
X115016666Y-107066666D01*
X115016666Y-107200000D01*
X114983333Y-107266666D01*
D10*
X83700000Y-97800000D02*
X83700000Y-99200000D01*
X84000000Y-97800000D02*
X83700000Y-97800000D01*
X89300000Y-97700000D02*
X85800000Y-97700000D01*
X83700000Y-102900000D02*
X89300000Y-102900000D01*
X83700000Y-101400000D02*
X83700000Y-102900000D01*
D11*
X131150000Y-55461904D02*
X131102380Y-55557142D01*
X131102380Y-55700000D01*
X131150000Y-55842857D01*
X131245238Y-55938095D01*
X131340476Y-55985714D01*
X131530952Y-56033333D01*
X131673809Y-56033333D01*
X131864285Y-55985714D01*
X131959523Y-55938095D01*
X132054761Y-55842857D01*
X132102380Y-55700000D01*
X132102380Y-55604761D01*
X132054761Y-55461904D01*
X132007142Y-55414285D01*
X131673809Y-55414285D01*
X131673809Y-55604761D01*
X132102380Y-54985714D02*
X131102380Y-54985714D01*
X132102380Y-54414285D01*
X131102380Y-54414285D01*
X132102380Y-53938095D02*
X131102380Y-53938095D01*
X131102380Y-53700000D01*
X131150000Y-53557142D01*
X131245238Y-53461904D01*
X131340476Y-53414285D01*
X131530952Y-53366666D01*
X131673809Y-53366666D01*
X131864285Y-53414285D01*
X131959523Y-53461904D01*
X132054761Y-53557142D01*
X132102380Y-53700000D01*
X132102380Y-53938095D01*
X139754761Y-56838095D02*
X139802380Y-56695238D01*
X139802380Y-56457142D01*
X139754761Y-56361904D01*
X139707142Y-56314285D01*
X139611904Y-56266666D01*
X139516666Y-56266666D01*
X139421428Y-56314285D01*
X139373809Y-56361904D01*
X139326190Y-56457142D01*
X139278571Y-56647619D01*
X139230952Y-56742857D01*
X139183333Y-56790476D01*
X139088095Y-56838095D01*
X138992857Y-56838095D01*
X138897619Y-56790476D01*
X138850000Y-56742857D01*
X138802380Y-56647619D01*
X138802380Y-56409523D01*
X138850000Y-56266666D01*
X139326190Y-55647619D02*
X139802380Y-55647619D01*
X138802380Y-55980952D02*
X139326190Y-55647619D01*
X138802380Y-55314285D01*
X139802380Y-54980952D02*
X138802380Y-54980952D01*
X139802380Y-54409523D01*
X138802380Y-54409523D01*
X139707142Y-53361904D02*
X139754761Y-53409523D01*
X139802380Y-53552380D01*
X139802380Y-53647619D01*
X139754761Y-53790476D01*
X139659523Y-53885714D01*
X139564285Y-53933333D01*
X139373809Y-53980952D01*
X139230952Y-53980952D01*
X139040476Y-53933333D01*
X138945238Y-53885714D01*
X138850000Y-53790476D01*
X138802380Y-53647619D01*
X138802380Y-53552380D01*
X138850000Y-53409523D01*
X138897619Y-53361904D01*
X133752380Y-57007142D02*
X133752380Y-56435714D01*
X134752380Y-56721428D02*
X133752380Y-56721428D01*
X133752380Y-56197619D02*
X134752380Y-55959523D01*
X134038095Y-55769047D01*
X134752380Y-55578571D01*
X133752380Y-55340476D01*
X134657142Y-54388095D02*
X134704761Y-54435714D01*
X134752380Y-54578571D01*
X134752380Y-54673809D01*
X134704761Y-54816666D01*
X134609523Y-54911904D01*
X134514285Y-54959523D01*
X134323809Y-55007142D01*
X134180952Y-55007142D01*
X133990476Y-54959523D01*
X133895238Y-54911904D01*
X133800000Y-54816666D01*
X133752380Y-54673809D01*
X133752380Y-54578571D01*
X133800000Y-54435714D01*
X133847619Y-54388095D01*
X134752380Y-53959523D02*
X133752380Y-53959523D01*
X134752380Y-53388095D02*
X134180952Y-53816666D01*
X133752380Y-53388095D02*
X134323809Y-53959523D01*
X136352380Y-56007142D02*
X136352380Y-55435714D01*
X137352380Y-55721428D02*
X136352380Y-55721428D01*
X136352380Y-55197619D02*
X137352380Y-54959523D01*
X136638095Y-54769047D01*
X137352380Y-54578571D01*
X136352380Y-54340476D01*
X137352380Y-53959523D02*
X136352380Y-53959523D01*
X136352380Y-53721428D01*
X136400000Y-53578571D01*
X136495238Y-53483333D01*
X136590476Y-53435714D01*
X136780952Y-53388095D01*
X136923809Y-53388095D01*
X137114285Y-53435714D01*
X137209523Y-53483333D01*
X137304761Y-53578571D01*
X137352380Y-53721428D01*
X137352380Y-53959523D01*
X72983214Y-83107142D02*
X73497500Y-83107142D01*
X73240357Y-84007142D02*
X73240357Y-83107142D01*
X73711785Y-84007142D02*
X74183214Y-83407142D01*
X73711785Y-83407142D02*
X74183214Y-84007142D01*
X75168928Y-83064285D02*
X74397500Y-84221428D01*
X75983214Y-84007142D02*
X75683214Y-83578571D01*
X75468928Y-84007142D02*
X75468928Y-83107142D01*
X75811785Y-83107142D01*
X75897500Y-83150000D01*
X75940357Y-83192857D01*
X75983214Y-83278571D01*
X75983214Y-83407142D01*
X75940357Y-83492857D01*
X75897500Y-83535714D01*
X75811785Y-83578571D01*
X75468928Y-83578571D01*
X76283214Y-84007142D02*
X76754642Y-83407142D01*
X76283214Y-83407142D02*
X76754642Y-84007142D01*
X78297500Y-83921428D02*
X78254642Y-83964285D01*
X78126071Y-84007142D01*
X78040357Y-84007142D01*
X77911785Y-83964285D01*
X77826071Y-83878571D01*
X77783214Y-83792857D01*
X77740357Y-83621428D01*
X77740357Y-83492857D01*
X77783214Y-83321428D01*
X77826071Y-83235714D01*
X77911785Y-83150000D01*
X78040357Y-83107142D01*
X78126071Y-83107142D01*
X78254642Y-83150000D01*
X78297500Y-83192857D01*
X78683214Y-84007142D02*
X78683214Y-83107142D01*
X79068928Y-84007142D02*
X79068928Y-83535714D01*
X79026071Y-83450000D01*
X78940357Y-83407142D01*
X78811785Y-83407142D01*
X78726071Y-83450000D01*
X78683214Y-83492857D01*
X79883214Y-84007142D02*
X79883214Y-83535714D01*
X79840357Y-83450000D01*
X79754642Y-83407142D01*
X79583214Y-83407142D01*
X79497500Y-83450000D01*
X79883214Y-83964285D02*
X79797500Y-84007142D01*
X79583214Y-84007142D01*
X79497500Y-83964285D01*
X79454642Y-83878571D01*
X79454642Y-83792857D01*
X79497500Y-83707142D01*
X79583214Y-83664285D01*
X79797500Y-83664285D01*
X79883214Y-83621428D01*
X80311785Y-83407142D02*
X80311785Y-84007142D01*
X80311785Y-83492857D02*
X80354642Y-83450000D01*
X80440357Y-83407142D01*
X80568928Y-83407142D01*
X80654642Y-83450000D01*
X80697500Y-83535714D01*
X80697500Y-84007142D01*
X81126071Y-83407142D02*
X81126071Y-84007142D01*
X81126071Y-83492857D02*
X81168928Y-83450000D01*
X81254642Y-83407142D01*
X81383214Y-83407142D01*
X81468928Y-83450000D01*
X81511785Y-83535714D01*
X81511785Y-84007142D01*
X82283214Y-83964285D02*
X82197500Y-84007142D01*
X82026071Y-84007142D01*
X81940357Y-83964285D01*
X81897500Y-83878571D01*
X81897500Y-83535714D01*
X81940357Y-83450000D01*
X82026071Y-83407142D01*
X82197500Y-83407142D01*
X82283214Y-83450000D01*
X82326071Y-83535714D01*
X82326071Y-83621428D01*
X81897500Y-83707142D01*
X82840357Y-84007142D02*
X82754642Y-83964285D01*
X82711785Y-83878571D01*
X82711785Y-83107142D01*
X84168928Y-83535714D02*
X84297500Y-83578571D01*
X84340357Y-83621428D01*
X84383214Y-83707142D01*
X84383214Y-83835714D01*
X84340357Y-83921428D01*
X84297500Y-83964285D01*
X84211785Y-84007142D01*
X83868928Y-84007142D01*
X83868928Y-83107142D01*
X84168928Y-83107142D01*
X84254642Y-83150000D01*
X84297500Y-83192857D01*
X84340357Y-83278571D01*
X84340357Y-83364285D01*
X84297500Y-83450000D01*
X84254642Y-83492857D01*
X84168928Y-83535714D01*
X83868928Y-83535714D01*
X84897500Y-84007142D02*
X84811785Y-83964285D01*
X84768928Y-83921428D01*
X84726071Y-83835714D01*
X84726071Y-83578571D01*
X84768928Y-83492857D01*
X84811785Y-83450000D01*
X84897500Y-83407142D01*
X85026071Y-83407142D01*
X85111785Y-83450000D01*
X85154642Y-83492857D01*
X85197500Y-83578571D01*
X85197500Y-83835714D01*
X85154642Y-83921428D01*
X85111785Y-83964285D01*
X85026071Y-84007142D01*
X84897500Y-84007142D01*
X85968928Y-84007142D02*
X85968928Y-83535714D01*
X85926071Y-83450000D01*
X85840357Y-83407142D01*
X85668928Y-83407142D01*
X85583214Y-83450000D01*
X85968928Y-83964285D02*
X85883214Y-84007142D01*
X85668928Y-84007142D01*
X85583214Y-83964285D01*
X85540357Y-83878571D01*
X85540357Y-83792857D01*
X85583214Y-83707142D01*
X85668928Y-83664285D01*
X85883214Y-83664285D01*
X85968928Y-83621428D01*
X86397500Y-84007142D02*
X86397500Y-83407142D01*
X86397500Y-83578571D02*
X86440357Y-83492857D01*
X86483214Y-83450000D01*
X86568928Y-83407142D01*
X86654642Y-83407142D01*
X87340357Y-84007142D02*
X87340357Y-83107142D01*
X87340357Y-83964285D02*
X87254642Y-84007142D01*
X87083214Y-84007142D01*
X86997500Y-83964285D01*
X86954642Y-83921428D01*
X86911785Y-83835714D01*
X86911785Y-83578571D01*
X86954642Y-83492857D01*
X86997500Y-83450000D01*
X87083214Y-83407142D01*
X87254642Y-83407142D01*
X87340357Y-83450000D01*
X88326071Y-83107142D02*
X88626071Y-84007142D01*
X88926071Y-83107142D01*
X89697500Y-84007142D02*
X89183214Y-84007142D01*
X89440357Y-84007142D02*
X89440357Y-83107142D01*
X89354642Y-83235714D01*
X89268928Y-83321428D01*
X89183214Y-83364285D01*
X90083214Y-83921428D02*
X90126071Y-83964285D01*
X90083214Y-84007142D01*
X90040357Y-83964285D01*
X90083214Y-83921428D01*
X90083214Y-84007142D01*
X90683214Y-83107142D02*
X90768928Y-83107142D01*
X90854642Y-83150000D01*
X90897500Y-83192857D01*
X90940357Y-83278571D01*
X90983214Y-83450000D01*
X90983214Y-83664285D01*
X90940357Y-83835714D01*
X90897500Y-83921428D01*
X90854642Y-83964285D01*
X90768928Y-84007142D01*
X90683214Y-84007142D01*
X90597500Y-83964285D01*
X90554642Y-83921428D01*
X90511785Y-83835714D01*
X90468928Y-83664285D01*
X90468928Y-83450000D01*
X90511785Y-83278571D01*
X90554642Y-83192857D01*
X90597500Y-83150000D01*
X90683214Y-83107142D01*
X73411785Y-85035714D02*
X73111785Y-85035714D01*
X73111785Y-85507142D02*
X73111785Y-84607142D01*
X73540357Y-84607142D01*
X73883214Y-85507142D02*
X73883214Y-84907142D01*
X73883214Y-84607142D02*
X73840357Y-84650000D01*
X73883214Y-84692857D01*
X73926071Y-84650000D01*
X73883214Y-84607142D01*
X73883214Y-84692857D01*
X74268928Y-85464285D02*
X74354642Y-85507142D01*
X74526071Y-85507142D01*
X74611785Y-85464285D01*
X74654642Y-85378571D01*
X74654642Y-85335714D01*
X74611785Y-85250000D01*
X74526071Y-85207142D01*
X74397500Y-85207142D01*
X74311785Y-85164285D01*
X74268928Y-85078571D01*
X74268928Y-85035714D01*
X74311785Y-84950000D01*
X74397500Y-84907142D01*
X74526071Y-84907142D01*
X74611785Y-84950000D01*
X75040357Y-85507142D02*
X75040357Y-84607142D01*
X75426071Y-85507142D02*
X75426071Y-85035714D01*
X75383214Y-84950000D01*
X75297500Y-84907142D01*
X75168928Y-84907142D01*
X75083214Y-84950000D01*
X75040357Y-84992857D01*
X77268928Y-85507142D02*
X77226071Y-85507142D01*
X77140357Y-85464285D01*
X77011785Y-85335714D01*
X76797500Y-85078571D01*
X76711785Y-84950000D01*
X76668928Y-84821428D01*
X76668928Y-84735714D01*
X76711785Y-84650000D01*
X76797500Y-84607142D01*
X76840357Y-84607142D01*
X76926071Y-84650000D01*
X76968928Y-84735714D01*
X76968928Y-84778571D01*
X76926071Y-84864285D01*
X76883214Y-84907142D01*
X76626071Y-85078571D01*
X76583214Y-85121428D01*
X76540357Y-85207142D01*
X76540357Y-85335714D01*
X76583214Y-85421428D01*
X76626071Y-85464285D01*
X76711785Y-85507142D01*
X76840357Y-85507142D01*
X76926071Y-85464285D01*
X76968928Y-85421428D01*
X77097500Y-85250000D01*
X77140357Y-85121428D01*
X77140357Y-85035714D01*
X78854642Y-85421428D02*
X78811785Y-85464285D01*
X78683214Y-85507142D01*
X78597500Y-85507142D01*
X78468928Y-85464285D01*
X78383214Y-85378571D01*
X78340357Y-85292857D01*
X78297500Y-85121428D01*
X78297500Y-84992857D01*
X78340357Y-84821428D01*
X78383214Y-84735714D01*
X78468928Y-84650000D01*
X78597500Y-84607142D01*
X78683214Y-84607142D01*
X78811785Y-84650000D01*
X78854642Y-84692857D01*
X79240357Y-85507142D02*
X79240357Y-84607142D01*
X79626071Y-85507142D02*
X79626071Y-85035714D01*
X79583214Y-84950000D01*
X79497500Y-84907142D01*
X79368928Y-84907142D01*
X79283214Y-84950000D01*
X79240357Y-84992857D01*
X80054642Y-85507142D02*
X80054642Y-84907142D01*
X80054642Y-84607142D02*
X80011785Y-84650000D01*
X80054642Y-84692857D01*
X80097500Y-84650000D01*
X80054642Y-84607142D01*
X80054642Y-84692857D01*
X80483214Y-84907142D02*
X80483214Y-85807142D01*
X80483214Y-84950000D02*
X80568928Y-84907142D01*
X80740357Y-84907142D01*
X80826071Y-84950000D01*
X80868928Y-84992857D01*
X80911785Y-85078571D01*
X80911785Y-85335714D01*
X80868928Y-85421428D01*
X80826071Y-85464285D01*
X80740357Y-85507142D01*
X80568928Y-85507142D01*
X80483214Y-85464285D01*
X81254642Y-85464285D02*
X81340357Y-85507142D01*
X81511785Y-85507142D01*
X81597500Y-85464285D01*
X81640357Y-85378571D01*
X81640357Y-85335714D01*
X81597500Y-85250000D01*
X81511785Y-85207142D01*
X81383214Y-85207142D01*
X81297500Y-85164285D01*
X81254642Y-85078571D01*
X81254642Y-85035714D01*
X81297500Y-84950000D01*
X81383214Y-84907142D01*
X81511785Y-84907142D01*
X81597500Y-84950000D01*
X82668928Y-85464285D02*
X82797500Y-85507142D01*
X83011785Y-85507142D01*
X83097500Y-85464285D01*
X83140357Y-85421428D01*
X83183214Y-85335714D01*
X83183214Y-85250000D01*
X83140357Y-85164285D01*
X83097500Y-85121428D01*
X83011785Y-85078571D01*
X82840357Y-85035714D01*
X82754642Y-84992857D01*
X82711785Y-84950000D01*
X82668928Y-84864285D01*
X82668928Y-84778571D01*
X82711785Y-84692857D01*
X82754642Y-84650000D01*
X82840357Y-84607142D01*
X83054642Y-84607142D01*
X83183214Y-84650000D01*
X83568928Y-84907142D02*
X83568928Y-85807142D01*
X83568928Y-84950000D02*
X83654642Y-84907142D01*
X83826071Y-84907142D01*
X83911785Y-84950000D01*
X83954642Y-84992857D01*
X83997500Y-85078571D01*
X83997500Y-85335714D01*
X83954642Y-85421428D01*
X83911785Y-85464285D01*
X83826071Y-85507142D01*
X83654642Y-85507142D01*
X83568928Y-85464285D01*
X84426071Y-84607142D02*
X84426071Y-84650000D01*
X84383214Y-84735714D01*
X84340357Y-84778571D01*
X84768928Y-84692857D02*
X84811785Y-84650000D01*
X84897500Y-84607142D01*
X85111785Y-84607142D01*
X85197500Y-84650000D01*
X85240357Y-84692857D01*
X85283214Y-84778571D01*
X85283214Y-84864285D01*
X85240357Y-84992857D01*
X84726071Y-85507142D01*
X85283214Y-85507142D01*
X85840357Y-84607142D02*
X85926071Y-84607142D01*
X86011785Y-84650000D01*
X86054642Y-84692857D01*
X86097500Y-84778571D01*
X86140357Y-84950000D01*
X86140357Y-85164285D01*
X86097500Y-85335714D01*
X86054642Y-85421428D01*
X86011785Y-85464285D01*
X85926071Y-85507142D01*
X85840357Y-85507142D01*
X85754642Y-85464285D01*
X85711785Y-85421428D01*
X85668928Y-85335714D01*
X85626071Y-85164285D01*
X85626071Y-84950000D01*
X85668928Y-84778571D01*
X85711785Y-84692857D01*
X85754642Y-84650000D01*
X85840357Y-84607142D01*
X86483214Y-84692857D02*
X86526071Y-84650000D01*
X86611785Y-84607142D01*
X86826071Y-84607142D01*
X86911785Y-84650000D01*
X86954642Y-84692857D01*
X86997500Y-84778571D01*
X86997500Y-84864285D01*
X86954642Y-84992857D01*
X86440357Y-85507142D01*
X86997500Y-85507142D01*
X87554642Y-84607142D02*
X87640357Y-84607142D01*
X87726071Y-84650000D01*
X87768928Y-84692857D01*
X87811785Y-84778571D01*
X87854642Y-84950000D01*
X87854642Y-85164285D01*
X87811785Y-85335714D01*
X87768928Y-85421428D01*
X87726071Y-85464285D01*
X87640357Y-85507142D01*
X87554642Y-85507142D01*
X87468928Y-85464285D01*
X87426071Y-85421428D01*
X87383214Y-85335714D01*
X87340357Y-85164285D01*
X87340357Y-84950000D01*
X87383214Y-84778571D01*
X87426071Y-84692857D01*
X87468928Y-84650000D01*
X87554642Y-84607142D01*
X72983214Y-86107142D02*
X73497500Y-86107142D01*
X73240357Y-87007142D02*
X73240357Y-86107142D01*
X73797500Y-86921428D02*
X73840357Y-86964285D01*
X73797500Y-87007142D01*
X73754642Y-86964285D01*
X73797500Y-86921428D01*
X73797500Y-87007142D01*
X75426071Y-87007142D02*
X75126071Y-86578571D01*
X74911785Y-87007142D02*
X74911785Y-86107142D01*
X75254642Y-86107142D01*
X75340357Y-86150000D01*
X75383214Y-86192857D01*
X75426071Y-86278571D01*
X75426071Y-86407142D01*
X75383214Y-86492857D01*
X75340357Y-86535714D01*
X75254642Y-86578571D01*
X74911785Y-86578571D01*
X76197500Y-87007142D02*
X76197500Y-86535714D01*
X76154642Y-86450000D01*
X76068928Y-86407142D01*
X75897500Y-86407142D01*
X75811785Y-86450000D01*
X76197500Y-86964285D02*
X76111785Y-87007142D01*
X75897500Y-87007142D01*
X75811785Y-86964285D01*
X75768928Y-86878571D01*
X75768928Y-86792857D01*
X75811785Y-86707142D01*
X75897500Y-86664285D01*
X76111785Y-86664285D01*
X76197500Y-86621428D01*
X76754642Y-87007142D02*
X76668928Y-86964285D01*
X76626071Y-86921428D01*
X76583214Y-86835714D01*
X76583214Y-86578571D01*
X76626071Y-86492857D01*
X76668928Y-86450000D01*
X76754642Y-86407142D01*
X76883214Y-86407142D01*
X76968928Y-86450000D01*
X77011785Y-86492857D01*
X77054642Y-86578571D01*
X77054642Y-86835714D01*
X77011785Y-86921428D01*
X76968928Y-86964285D01*
X76883214Y-87007142D01*
X76754642Y-87007142D01*
X78168928Y-86107142D02*
X78168928Y-86150000D01*
X78126071Y-86235714D01*
X78083214Y-86278571D01*
X78511785Y-86192857D02*
X78554642Y-86150000D01*
X78640357Y-86107142D01*
X78854642Y-86107142D01*
X78940357Y-86150000D01*
X78983214Y-86192857D01*
X79026071Y-86278571D01*
X79026071Y-86364285D01*
X78983214Y-86492857D01*
X78468928Y-87007142D01*
X79026071Y-87007142D01*
X79368928Y-86192857D02*
X79411785Y-86150000D01*
X79497500Y-86107142D01*
X79711785Y-86107142D01*
X79797500Y-86150000D01*
X79840357Y-86192857D01*
X79883214Y-86278571D01*
X79883214Y-86364285D01*
X79840357Y-86492857D01*
X79326071Y-87007142D01*
X79883214Y-87007142D01*
X73626071Y-88421428D02*
X73583214Y-88464285D01*
X73454642Y-88507142D01*
X73368928Y-88507142D01*
X73240357Y-88464285D01*
X73154642Y-88378571D01*
X73111785Y-88292857D01*
X73068928Y-88121428D01*
X73068928Y-87992857D01*
X73111785Y-87821428D01*
X73154642Y-87735714D01*
X73240357Y-87650000D01*
X73368928Y-87607142D01*
X73454642Y-87607142D01*
X73583214Y-87650000D01*
X73626071Y-87692857D01*
X74011785Y-88421428D02*
X74054642Y-88464285D01*
X74011785Y-88507142D01*
X73968928Y-88464285D01*
X74011785Y-88421428D01*
X74011785Y-88507142D01*
X75426071Y-88035714D02*
X75126071Y-88035714D01*
X75126071Y-88507142D02*
X75126071Y-87607142D01*
X75554642Y-87607142D01*
X76240357Y-88464285D02*
X76154642Y-88507142D01*
X75983214Y-88507142D01*
X75897500Y-88464285D01*
X75854642Y-88378571D01*
X75854642Y-88035714D01*
X75897500Y-87950000D01*
X75983214Y-87907142D01*
X76154642Y-87907142D01*
X76240357Y-87950000D01*
X76283214Y-88035714D01*
X76283214Y-88121428D01*
X75854642Y-88207142D01*
X76668928Y-88507142D02*
X76668928Y-87907142D01*
X76668928Y-88078571D02*
X76711785Y-87992857D01*
X76754642Y-87950000D01*
X76840357Y-87907142D01*
X76926071Y-87907142D01*
X77226071Y-88507142D02*
X77226071Y-87907142D01*
X77226071Y-88078571D02*
X77268928Y-87992857D01*
X77311785Y-87950000D01*
X77397500Y-87907142D01*
X77483214Y-87907142D01*
X78168928Y-88507142D02*
X78168928Y-88035714D01*
X78126071Y-87950000D01*
X78040357Y-87907142D01*
X77868928Y-87907142D01*
X77783214Y-87950000D01*
X78168928Y-88464285D02*
X78083214Y-88507142D01*
X77868928Y-88507142D01*
X77783214Y-88464285D01*
X77740357Y-88378571D01*
X77740357Y-88292857D01*
X77783214Y-88207142D01*
X77868928Y-88164285D01*
X78083214Y-88164285D01*
X78168928Y-88121428D01*
X78597500Y-88507142D02*
X78597500Y-87907142D01*
X78597500Y-88078571D02*
X78640357Y-87992857D01*
X78683214Y-87950000D01*
X78768928Y-87907142D01*
X78854642Y-87907142D01*
X79154642Y-88507142D02*
X79154642Y-87907142D01*
X79154642Y-87607142D02*
X79111785Y-87650000D01*
X79154642Y-87692857D01*
X79197500Y-87650000D01*
X79154642Y-87607142D01*
X79154642Y-87692857D01*
X79583214Y-87907142D02*
X79583214Y-88507142D01*
X79583214Y-87992857D02*
X79626071Y-87950000D01*
X79711785Y-87907142D01*
X79840357Y-87907142D01*
X79926071Y-87950000D01*
X79968928Y-88035714D01*
X79968928Y-88507142D01*
X81126071Y-87607142D02*
X81126071Y-87650000D01*
X81083214Y-87735714D01*
X81040357Y-87778571D01*
X81468928Y-87692857D02*
X81511785Y-87650000D01*
X81597500Y-87607142D01*
X81811785Y-87607142D01*
X81897500Y-87650000D01*
X81940357Y-87692857D01*
X81983214Y-87778571D01*
X81983214Y-87864285D01*
X81940357Y-87992857D01*
X81426071Y-88507142D01*
X81983214Y-88507142D01*
X82540357Y-87607142D02*
X82626071Y-87607142D01*
X82711785Y-87650000D01*
X82754642Y-87692857D01*
X82797500Y-87778571D01*
X82840357Y-87950000D01*
X82840357Y-88164285D01*
X82797500Y-88335714D01*
X82754642Y-88421428D01*
X82711785Y-88464285D01*
X82626071Y-88507142D01*
X82540357Y-88507142D01*
X82454642Y-88464285D01*
X82411785Y-88421428D01*
X82368928Y-88335714D01*
X82326071Y-88164285D01*
X82326071Y-87950000D01*
X82368928Y-87778571D01*
X82411785Y-87692857D01*
X82454642Y-87650000D01*
X82540357Y-87607142D01*
X73111785Y-90007142D02*
X73111785Y-89107142D01*
X73411785Y-89750000D01*
X73711785Y-89107142D01*
X73711785Y-90007142D01*
X74140357Y-89921428D02*
X74183214Y-89964285D01*
X74140357Y-90007142D01*
X74097500Y-89964285D01*
X74140357Y-89921428D01*
X74140357Y-90007142D01*
X75726071Y-89150000D02*
X75640357Y-89107142D01*
X75511785Y-89107142D01*
X75383214Y-89150000D01*
X75297500Y-89235714D01*
X75254642Y-89321428D01*
X75211785Y-89492857D01*
X75211785Y-89621428D01*
X75254642Y-89792857D01*
X75297500Y-89878571D01*
X75383214Y-89964285D01*
X75511785Y-90007142D01*
X75597500Y-90007142D01*
X75726071Y-89964285D01*
X75768928Y-89921428D01*
X75768928Y-89621428D01*
X75597500Y-89621428D01*
X76540357Y-90007142D02*
X76540357Y-89535714D01*
X76497500Y-89450000D01*
X76411785Y-89407142D01*
X76240357Y-89407142D01*
X76154642Y-89450000D01*
X76540357Y-89964285D02*
X76454642Y-90007142D01*
X76240357Y-90007142D01*
X76154642Y-89964285D01*
X76111785Y-89878571D01*
X76111785Y-89792857D01*
X76154642Y-89707142D01*
X76240357Y-89664285D01*
X76454642Y-89664285D01*
X76540357Y-89621428D01*
X77097500Y-90007142D02*
X77011785Y-89964285D01*
X76968928Y-89921428D01*
X76926071Y-89835714D01*
X76926071Y-89578571D01*
X76968928Y-89492857D01*
X77011785Y-89450000D01*
X77097500Y-89407142D01*
X77226071Y-89407142D01*
X77311785Y-89450000D01*
X77354642Y-89492857D01*
X77397500Y-89578571D01*
X77397500Y-89835714D01*
X77354642Y-89921428D01*
X77311785Y-89964285D01*
X77226071Y-90007142D01*
X77097500Y-90007142D01*
X78511785Y-89107142D02*
X78511785Y-89150000D01*
X78468928Y-89235714D01*
X78426071Y-89278571D01*
X78854642Y-89192857D02*
X78897500Y-89150000D01*
X78983214Y-89107142D01*
X79197500Y-89107142D01*
X79283214Y-89150000D01*
X79326071Y-89192857D01*
X79368928Y-89278571D01*
X79368928Y-89364285D01*
X79326071Y-89492857D01*
X78811785Y-90007142D01*
X79368928Y-90007142D01*
X80226071Y-90007142D02*
X79711785Y-90007142D01*
X79968928Y-90007142D02*
X79968928Y-89107142D01*
X79883214Y-89235714D01*
X79797500Y-89321428D01*
X79711785Y-89364285D01*
X139064285Y-91502380D02*
X138730952Y-91026190D01*
X138492857Y-91502380D02*
X138492857Y-90502380D01*
X138873809Y-90502380D01*
X138969047Y-90550000D01*
X139016666Y-90597619D01*
X139064285Y-90692857D01*
X139064285Y-90835714D01*
X139016666Y-90930952D01*
X138969047Y-90978571D01*
X138873809Y-91026190D01*
X138492857Y-91026190D01*
X139397619Y-91502380D02*
X139921428Y-90835714D01*
X139397619Y-90835714D02*
X139921428Y-91502380D01*
X140302380Y-91502380D02*
X140302380Y-90502380D01*
X140778571Y-90835714D02*
X140778571Y-91502380D01*
X140778571Y-90930952D02*
X140826190Y-90883333D01*
X140921428Y-90835714D01*
X141064285Y-90835714D01*
X141159523Y-90883333D01*
X141207142Y-90978571D01*
X141207142Y-91502380D01*
X142666666Y-53950000D02*
X142600000Y-53916666D01*
X142500000Y-53916666D01*
X142400000Y-53950000D01*
X142333333Y-54016666D01*
X142300000Y-54083333D01*
X142266666Y-54216666D01*
X142266666Y-54316666D01*
X142300000Y-54450000D01*
X142333333Y-54516666D01*
X142400000Y-54583333D01*
X142500000Y-54616666D01*
X142566666Y-54616666D01*
X142666666Y-54583333D01*
X142700000Y-54550000D01*
X142700000Y-54316666D01*
X142566666Y-54316666D01*
X143000000Y-54616666D02*
X143000000Y-53916666D01*
X143400000Y-54616666D01*
X143400000Y-53916666D01*
X143733333Y-54616666D02*
X143733333Y-53916666D01*
X143900000Y-53916666D01*
X144000000Y-53950000D01*
X144066666Y-54016666D01*
X144100000Y-54083333D01*
X144133333Y-54216666D01*
X144133333Y-54316666D01*
X144100000Y-54450000D01*
X144066666Y-54516666D01*
X144000000Y-54583333D01*
X143900000Y-54616666D01*
X143733333Y-54616666D01*
X141652380Y-59752380D02*
X140652380Y-59752380D01*
X140652380Y-59371428D01*
X140700000Y-59276190D01*
X140747619Y-59228571D01*
X140842857Y-59180952D01*
X140985714Y-59180952D01*
X141080952Y-59228571D01*
X141128571Y-59276190D01*
X141176190Y-59371428D01*
X141176190Y-59752380D01*
X141366666Y-58800000D02*
X141366666Y-58323809D01*
X141652380Y-58895238D02*
X140652380Y-58561904D01*
X141652380Y-58228571D01*
X140652380Y-57704761D02*
X140652380Y-57514285D01*
X140700000Y-57419047D01*
X140795238Y-57323809D01*
X140985714Y-57276190D01*
X141319047Y-57276190D01*
X141509523Y-57323809D01*
X141604761Y-57419047D01*
X141652380Y-57514285D01*
X141652380Y-57704761D01*
X141604761Y-57800000D01*
X141509523Y-57895238D01*
X141319047Y-57942857D01*
X140985714Y-57942857D01*
X140795238Y-57895238D01*
X140700000Y-57800000D01*
X140652380Y-57704761D01*
X140985714Y-56419047D02*
X141652380Y-56419047D01*
X140985714Y-56847619D02*
X141509523Y-56847619D01*
X141604761Y-56800000D01*
X141652380Y-56704761D01*
X141652380Y-56561904D01*
X141604761Y-56466666D01*
X141557142Y-56419047D01*
X140985714Y-56085714D02*
X140985714Y-55704761D01*
X140652380Y-55942857D02*
X141509523Y-55942857D01*
X141604761Y-55895238D01*
X141652380Y-55800000D01*
X141652380Y-55704761D01*
X140852380Y-66419047D02*
X140852380Y-65847619D01*
X141852380Y-66133333D02*
X140852380Y-66133333D01*
X141852380Y-65609523D02*
X141185714Y-65085714D01*
X141185714Y-65609523D02*
X141852380Y-65085714D01*
X140804761Y-63990476D02*
X142090476Y-64847619D01*
X141852380Y-63085714D02*
X141376190Y-63419047D01*
X141852380Y-63657142D02*
X140852380Y-63657142D01*
X140852380Y-63276190D01*
X140900000Y-63180952D01*
X140947619Y-63133333D01*
X141042857Y-63085714D01*
X141185714Y-63085714D01*
X141280952Y-63133333D01*
X141328571Y-63180952D01*
X141376190Y-63276190D01*
X141376190Y-63657142D01*
X141852380Y-62752380D02*
X141185714Y-62228571D01*
X141185714Y-62752380D02*
X141852380Y-62228571D01*
D12*
X142666666Y-60650000D02*
X142600000Y-60616666D01*
X142500000Y-60616666D01*
X142400000Y-60650000D01*
X142333333Y-60716666D01*
X142300000Y-60783333D01*
X142266666Y-60916666D01*
X142266666Y-61016666D01*
X142300000Y-61150000D01*
X142333333Y-61216666D01*
X142400000Y-61283333D01*
X142500000Y-61316666D01*
X142566666Y-61316666D01*
X142666666Y-61283333D01*
X142700000Y-61250000D01*
X142700000Y-61016666D01*
X142566666Y-61016666D01*
X143000000Y-61316666D02*
X143000000Y-60616666D01*
X143400000Y-61316666D01*
X143400000Y-60616666D01*
X143733333Y-61316666D02*
X143733333Y-60616666D01*
X143900000Y-60616666D01*
X144000000Y-60650000D01*
X144066666Y-60716666D01*
X144100000Y-60783333D01*
X144133333Y-60916666D01*
X144133333Y-61016666D01*
X144100000Y-61150000D01*
X144066666Y-61216666D01*
X144000000Y-61283333D01*
X143900000Y-61316666D01*
X143733333Y-61316666D01*
D11*
X70421428Y-55611904D02*
X70421428Y-54850000D01*
X70802380Y-55230952D02*
X70040476Y-55230952D01*
X70135714Y-53945238D02*
X70802380Y-53945238D01*
X69754761Y-54183333D02*
X70469047Y-54421428D01*
X70469047Y-53802380D01*
X69802380Y-53230952D02*
X69802380Y-53135714D01*
X69850000Y-53040476D01*
X69897619Y-52992857D01*
X69992857Y-52945238D01*
X70183333Y-52897619D01*
X70421428Y-52897619D01*
X70611904Y-52945238D01*
X70707142Y-52992857D01*
X70754761Y-53040476D01*
X70802380Y-53135714D01*
X70802380Y-53230952D01*
X70754761Y-53326190D01*
X70707142Y-53373809D01*
X70611904Y-53421428D01*
X70421428Y-53469047D01*
X70183333Y-53469047D01*
X69992857Y-53421428D01*
X69897619Y-53373809D01*
X69850000Y-53326190D01*
X69802380Y-53230952D01*
X69802380Y-52611904D02*
X70802380Y-52278571D01*
X69802380Y-51945238D01*
X70171428Y-69011904D02*
X70171428Y-68250000D01*
X69885714Y-67345238D02*
X70552380Y-67345238D01*
X69504761Y-67583333D02*
X70219047Y-67821428D01*
X70219047Y-67202380D01*
X69552380Y-66630952D02*
X69552380Y-66535714D01*
X69600000Y-66440476D01*
X69647619Y-66392857D01*
X69742857Y-66345238D01*
X69933333Y-66297619D01*
X70171428Y-66297619D01*
X70361904Y-66345238D01*
X70457142Y-66392857D01*
X70504761Y-66440476D01*
X70552380Y-66535714D01*
X70552380Y-66630952D01*
X70504761Y-66726190D01*
X70457142Y-66773809D01*
X70361904Y-66821428D01*
X70171428Y-66869047D01*
X69933333Y-66869047D01*
X69742857Y-66821428D01*
X69647619Y-66773809D01*
X69600000Y-66726190D01*
X69552380Y-66630952D01*
X69552380Y-66011904D02*
X70552380Y-65678571D01*
X69552380Y-65345238D01*
X69750000Y-80561904D02*
X69702380Y-80657142D01*
X69702380Y-80800000D01*
X69750000Y-80942857D01*
X69845238Y-81038095D01*
X69940476Y-81085714D01*
X70130952Y-81133333D01*
X70273809Y-81133333D01*
X70464285Y-81085714D01*
X70559523Y-81038095D01*
X70654761Y-80942857D01*
X70702380Y-80800000D01*
X70702380Y-80704761D01*
X70654761Y-80561904D01*
X70607142Y-80514285D01*
X70273809Y-80514285D01*
X70273809Y-80704761D01*
X70702380Y-80085714D02*
X69702380Y-80085714D01*
X70702380Y-79514285D01*
X69702380Y-79514285D01*
X70702380Y-79038095D02*
X69702380Y-79038095D01*
X69702380Y-78800000D01*
X69750000Y-78657142D01*
X69845238Y-78561904D01*
X69940476Y-78514285D01*
X70130952Y-78466666D01*
X70273809Y-78466666D01*
X70464285Y-78514285D01*
X70559523Y-78561904D01*
X70654761Y-78657142D01*
X70702380Y-78800000D01*
X70702380Y-79038095D01*
X70646428Y-95111904D02*
X70646428Y-94350000D01*
X71027380Y-94730952D02*
X70265476Y-94730952D01*
X71027380Y-93350000D02*
X71027380Y-93921428D01*
X71027380Y-93635714D02*
X70027380Y-93635714D01*
X70170238Y-93730952D01*
X70265476Y-93826190D01*
X70313095Y-93921428D01*
X70027380Y-92445238D02*
X70027380Y-92921428D01*
X70503571Y-92969047D01*
X70455952Y-92921428D01*
X70408333Y-92826190D01*
X70408333Y-92588095D01*
X70455952Y-92492857D01*
X70503571Y-92445238D01*
X70598809Y-92397619D01*
X70836904Y-92397619D01*
X70932142Y-92445238D01*
X70979761Y-92492857D01*
X71027380Y-92588095D01*
X71027380Y-92826190D01*
X70979761Y-92921428D01*
X70932142Y-92969047D01*
X70027380Y-92111904D02*
X71027380Y-91778571D01*
X70027380Y-91445238D01*
X70471428Y-108561904D02*
X70471428Y-107800000D01*
X70852380Y-106800000D02*
X70852380Y-107371428D01*
X70852380Y-107085714D02*
X69852380Y-107085714D01*
X69995238Y-107180952D01*
X70090476Y-107276190D01*
X70138095Y-107371428D01*
X69852380Y-105895238D02*
X69852380Y-106371428D01*
X70328571Y-106419047D01*
X70280952Y-106371428D01*
X70233333Y-106276190D01*
X70233333Y-106038095D01*
X70280952Y-105942857D01*
X70328571Y-105895238D01*
X70423809Y-105847619D01*
X70661904Y-105847619D01*
X70757142Y-105895238D01*
X70804761Y-105942857D01*
X70852380Y-106038095D01*
X70852380Y-106276190D01*
X70804761Y-106371428D01*
X70757142Y-106419047D01*
X69852380Y-105561904D02*
X70852380Y-105228571D01*
X69852380Y-104895238D01*
X81700000Y-59857142D02*
X81747619Y-59904761D01*
X81700000Y-59952380D01*
X81652380Y-59904761D01*
X81700000Y-59857142D01*
X81700000Y-59952380D01*
X119633333Y-70450000D02*
X119633333Y-70050000D01*
X119633333Y-70250000D02*
X120333333Y-70250000D01*
X120233333Y-70183333D01*
X120166666Y-70116666D01*
X120133333Y-70050000D01*
X83819047Y-96928571D02*
X83961904Y-96976190D01*
X84009523Y-97023809D01*
X84057142Y-97119047D01*
X84057142Y-97261904D01*
X84009523Y-97357142D01*
X83961904Y-97404761D01*
X83866666Y-97452380D01*
X83485714Y-97452380D01*
X83485714Y-96452380D01*
X83819047Y-96452380D01*
X83914285Y-96500000D01*
X83961904Y-96547619D01*
X84009523Y-96642857D01*
X84009523Y-96738095D01*
X83961904Y-96833333D01*
X83914285Y-96880952D01*
X83819047Y-96928571D01*
X83485714Y-96928571D01*
X84390476Y-96785714D02*
X84628571Y-97452380D01*
X84866666Y-96785714D02*
X84628571Y-97452380D01*
X84533333Y-97690476D01*
X84485714Y-97738095D01*
X84390476Y-97785714D01*
X85247619Y-96785714D02*
X85247619Y-97785714D01*
X85247619Y-96833333D02*
X85342857Y-96785714D01*
X85533333Y-96785714D01*
X85628571Y-96833333D01*
X85676190Y-96880952D01*
X85723809Y-96976190D01*
X85723809Y-97261904D01*
X85676190Y-97357142D01*
X85628571Y-97404761D01*
X85533333Y-97452380D01*
X85342857Y-97452380D01*
X85247619Y-97404761D01*
X86580952Y-97452380D02*
X86580952Y-96928571D01*
X86533333Y-96833333D01*
X86438095Y-96785714D01*
X86247619Y-96785714D01*
X86152380Y-96833333D01*
X86580952Y-97404761D02*
X86485714Y-97452380D01*
X86247619Y-97452380D01*
X86152380Y-97404761D01*
X86104761Y-97309523D01*
X86104761Y-97214285D01*
X86152380Y-97119047D01*
X86247619Y-97071428D01*
X86485714Y-97071428D01*
X86580952Y-97023809D01*
X87009523Y-97404761D02*
X87104761Y-97452380D01*
X87295238Y-97452380D01*
X87390476Y-97404761D01*
X87438095Y-97309523D01*
X87438095Y-97261904D01*
X87390476Y-97166666D01*
X87295238Y-97119047D01*
X87152380Y-97119047D01*
X87057142Y-97071428D01*
X87009523Y-96976190D01*
X87009523Y-96928571D01*
X87057142Y-96833333D01*
X87152380Y-96785714D01*
X87295238Y-96785714D01*
X87390476Y-96833333D01*
X87819047Y-97404761D02*
X87914285Y-97452380D01*
X88104761Y-97452380D01*
X88200000Y-97404761D01*
X88247619Y-97309523D01*
X88247619Y-97261904D01*
X88200000Y-97166666D01*
X88104761Y-97119047D01*
X87961904Y-97119047D01*
X87866666Y-97071428D01*
X87819047Y-96976190D01*
X87819047Y-96928571D01*
X87866666Y-96833333D01*
X87961904Y-96785714D01*
X88104761Y-96785714D01*
X88200000Y-96833333D01*
X89342857Y-96452380D02*
X89961904Y-96452380D01*
X89628571Y-96833333D01*
X89771428Y-96833333D01*
X89866666Y-96880952D01*
X89914285Y-96928571D01*
X89961904Y-97023809D01*
X89961904Y-97261904D01*
X89914285Y-97357142D01*
X89866666Y-97404761D01*
X89771428Y-97452380D01*
X89485714Y-97452380D01*
X89390476Y-97404761D01*
X89342857Y-97357142D01*
X93319047Y-84728571D02*
X93461904Y-84776190D01*
X93509523Y-84823809D01*
X93557142Y-84919047D01*
X93557142Y-85061904D01*
X93509523Y-85157142D01*
X93461904Y-85204761D01*
X93366666Y-85252380D01*
X92985714Y-85252380D01*
X92985714Y-84252380D01*
X93319047Y-84252380D01*
X93414285Y-84300000D01*
X93461904Y-84347619D01*
X93509523Y-84442857D01*
X93509523Y-84538095D01*
X93461904Y-84633333D01*
X93414285Y-84680952D01*
X93319047Y-84728571D01*
X92985714Y-84728571D01*
X93890476Y-84585714D02*
X94128571Y-85252380D01*
X94366666Y-84585714D02*
X94128571Y-85252380D01*
X94033333Y-85490476D01*
X93985714Y-85538095D01*
X93890476Y-85585714D01*
X94747619Y-84585714D02*
X94747619Y-85585714D01*
X94747619Y-84633333D02*
X94842857Y-84585714D01*
X95033333Y-84585714D01*
X95128571Y-84633333D01*
X95176190Y-84680952D01*
X95223809Y-84776190D01*
X95223809Y-85061904D01*
X95176190Y-85157142D01*
X95128571Y-85204761D01*
X95033333Y-85252380D01*
X94842857Y-85252380D01*
X94747619Y-85204761D01*
X96080952Y-85252380D02*
X96080952Y-84728571D01*
X96033333Y-84633333D01*
X95938095Y-84585714D01*
X95747619Y-84585714D01*
X95652380Y-84633333D01*
X96080952Y-85204761D02*
X95985714Y-85252380D01*
X95747619Y-85252380D01*
X95652380Y-85204761D01*
X95604761Y-85109523D01*
X95604761Y-85014285D01*
X95652380Y-84919047D01*
X95747619Y-84871428D01*
X95985714Y-84871428D01*
X96080952Y-84823809D01*
X96509523Y-85204761D02*
X96604761Y-85252380D01*
X96795238Y-85252380D01*
X96890476Y-85204761D01*
X96938095Y-85109523D01*
X96938095Y-85061904D01*
X96890476Y-84966666D01*
X96795238Y-84919047D01*
X96652380Y-84919047D01*
X96557142Y-84871428D01*
X96509523Y-84776190D01*
X96509523Y-84728571D01*
X96557142Y-84633333D01*
X96652380Y-84585714D01*
X96795238Y-84585714D01*
X96890476Y-84633333D01*
X97319047Y-85204761D02*
X97414285Y-85252380D01*
X97604761Y-85252380D01*
X97700000Y-85204761D01*
X97747619Y-85109523D01*
X97747619Y-85061904D01*
X97700000Y-84966666D01*
X97604761Y-84919047D01*
X97461904Y-84919047D01*
X97366666Y-84871428D01*
X97319047Y-84776190D01*
X97319047Y-84728571D01*
X97366666Y-84633333D01*
X97461904Y-84585714D01*
X97604761Y-84585714D01*
X97700000Y-84633333D01*
X98890476Y-84347619D02*
X98938095Y-84300000D01*
X99033333Y-84252380D01*
X99271428Y-84252380D01*
X99366666Y-84300000D01*
X99414285Y-84347619D01*
X99461904Y-84442857D01*
X99461904Y-84538095D01*
X99414285Y-84680952D01*
X98842857Y-85252380D01*
X99461904Y-85252380D01*
D10*
X94400000Y-86500000D02*
X97600000Y-86500000D01*
X101600000Y-86600000D02*
X100800000Y-86600000D01*
X101600000Y-89500000D02*
X101600000Y-86600000D01*
X90200000Y-86500000D02*
X90200000Y-89500000D01*
X91300000Y-86500000D02*
X90200000Y-86500000D01*
D11*
X103569047Y-103028571D02*
X103711904Y-103076190D01*
X103759523Y-103123809D01*
X103807142Y-103219047D01*
X103807142Y-103361904D01*
X103759523Y-103457142D01*
X103711904Y-103504761D01*
X103616666Y-103552380D01*
X103235714Y-103552380D01*
X103235714Y-102552380D01*
X103569047Y-102552380D01*
X103664285Y-102600000D01*
X103711904Y-102647619D01*
X103759523Y-102742857D01*
X103759523Y-102838095D01*
X103711904Y-102933333D01*
X103664285Y-102980952D01*
X103569047Y-103028571D01*
X103235714Y-103028571D01*
X104140476Y-102885714D02*
X104378571Y-103552380D01*
X104616666Y-102885714D02*
X104378571Y-103552380D01*
X104283333Y-103790476D01*
X104235714Y-103838095D01*
X104140476Y-103885714D01*
X104997619Y-102885714D02*
X104997619Y-103885714D01*
X104997619Y-102933333D02*
X105092857Y-102885714D01*
X105283333Y-102885714D01*
X105378571Y-102933333D01*
X105426190Y-102980952D01*
X105473809Y-103076190D01*
X105473809Y-103361904D01*
X105426190Y-103457142D01*
X105378571Y-103504761D01*
X105283333Y-103552380D01*
X105092857Y-103552380D01*
X104997619Y-103504761D01*
X106330952Y-103552380D02*
X106330952Y-103028571D01*
X106283333Y-102933333D01*
X106188095Y-102885714D01*
X105997619Y-102885714D01*
X105902380Y-102933333D01*
X106330952Y-103504761D02*
X106235714Y-103552380D01*
X105997619Y-103552380D01*
X105902380Y-103504761D01*
X105854761Y-103409523D01*
X105854761Y-103314285D01*
X105902380Y-103219047D01*
X105997619Y-103171428D01*
X106235714Y-103171428D01*
X106330952Y-103123809D01*
X106759523Y-103504761D02*
X106854761Y-103552380D01*
X107045238Y-103552380D01*
X107140476Y-103504761D01*
X107188095Y-103409523D01*
X107188095Y-103361904D01*
X107140476Y-103266666D01*
X107045238Y-103219047D01*
X106902380Y-103219047D01*
X106807142Y-103171428D01*
X106759523Y-103076190D01*
X106759523Y-103028571D01*
X106807142Y-102933333D01*
X106902380Y-102885714D01*
X107045238Y-102885714D01*
X107140476Y-102933333D01*
X107569047Y-103504761D02*
X107664285Y-103552380D01*
X107854761Y-103552380D01*
X107950000Y-103504761D01*
X107997619Y-103409523D01*
X107997619Y-103361904D01*
X107950000Y-103266666D01*
X107854761Y-103219047D01*
X107711904Y-103219047D01*
X107616666Y-103171428D01*
X107569047Y-103076190D01*
X107569047Y-103028571D01*
X107616666Y-102933333D01*
X107711904Y-102885714D01*
X107854761Y-102885714D01*
X107950000Y-102933333D01*
X109711904Y-103552380D02*
X109140476Y-103552380D01*
X109426190Y-103552380D02*
X109426190Y-102552380D01*
X109330952Y-102695238D01*
X109235714Y-102790476D01*
X109140476Y-102838095D01*
D10*
X108500000Y-97100000D02*
X108500000Y-97900000D01*
X102700000Y-97100000D02*
X108500000Y-97100000D01*
X108500000Y-102300000D02*
X108500000Y-101500000D01*
X102700000Y-102300000D02*
X108500000Y-102300000D01*
D11*
X109738095Y-110228571D02*
X109880952Y-110276190D01*
X109928571Y-110323809D01*
X109976190Y-110419047D01*
X109976190Y-110561904D01*
X109928571Y-110657142D01*
X109880952Y-110704761D01*
X109785714Y-110752380D01*
X109404761Y-110752380D01*
X109404761Y-109752380D01*
X109738095Y-109752380D01*
X109833333Y-109800000D01*
X109880952Y-109847619D01*
X109928571Y-109942857D01*
X109928571Y-110038095D01*
X109880952Y-110133333D01*
X109833333Y-110180952D01*
X109738095Y-110228571D01*
X109404761Y-110228571D01*
X110309523Y-110085714D02*
X110547619Y-110752380D01*
X110785714Y-110085714D02*
X110547619Y-110752380D01*
X110452380Y-110990476D01*
X110404761Y-111038095D01*
X110309523Y-111085714D01*
X111166666Y-110085714D02*
X111166666Y-111085714D01*
X111166666Y-110133333D02*
X111261904Y-110085714D01*
X111452380Y-110085714D01*
X111547619Y-110133333D01*
X111595238Y-110180952D01*
X111642857Y-110276190D01*
X111642857Y-110561904D01*
X111595238Y-110657142D01*
X111547619Y-110704761D01*
X111452380Y-110752380D01*
X111261904Y-110752380D01*
X111166666Y-110704761D01*
X112500000Y-110752380D02*
X112500000Y-110228571D01*
X112452380Y-110133333D01*
X112357142Y-110085714D01*
X112166666Y-110085714D01*
X112071428Y-110133333D01*
X112500000Y-110704761D02*
X112404761Y-110752380D01*
X112166666Y-110752380D01*
X112071428Y-110704761D01*
X112023809Y-110609523D01*
X112023809Y-110514285D01*
X112071428Y-110419047D01*
X112166666Y-110371428D01*
X112404761Y-110371428D01*
X112500000Y-110323809D01*
X112928571Y-110704761D02*
X113023809Y-110752380D01*
X113214285Y-110752380D01*
X113309523Y-110704761D01*
X113357142Y-110609523D01*
X113357142Y-110561904D01*
X113309523Y-110466666D01*
X113214285Y-110419047D01*
X113071428Y-110419047D01*
X112976190Y-110371428D01*
X112928571Y-110276190D01*
X112928571Y-110228571D01*
X112976190Y-110133333D01*
X113071428Y-110085714D01*
X113214285Y-110085714D01*
X113309523Y-110133333D01*
X113738095Y-110704761D02*
X113833333Y-110752380D01*
X114023809Y-110752380D01*
X114119047Y-110704761D01*
X114166666Y-110609523D01*
X114166666Y-110561904D01*
X114119047Y-110466666D01*
X114023809Y-110419047D01*
X113880952Y-110419047D01*
X113785714Y-110371428D01*
X113738095Y-110276190D01*
X113738095Y-110228571D01*
X113785714Y-110133333D01*
X113880952Y-110085714D01*
X114023809Y-110085714D01*
X114119047Y-110133333D01*
X115214285Y-109752380D02*
X115547619Y-110752380D01*
X115880952Y-109752380D01*
X116738095Y-109800000D02*
X116642857Y-109752380D01*
X116500000Y-109752380D01*
X116357142Y-109800000D01*
X116261904Y-109895238D01*
X116214285Y-109990476D01*
X116166666Y-110180952D01*
X116166666Y-110323809D01*
X116214285Y-110514285D01*
X116261904Y-110609523D01*
X116357142Y-110704761D01*
X116500000Y-110752380D01*
X116595238Y-110752380D01*
X116738095Y-110704761D01*
X116785714Y-110657142D01*
X116785714Y-110323809D01*
X116595238Y-110323809D01*
X117166666Y-110466666D02*
X117642857Y-110466666D01*
X117071428Y-110752380D02*
X117404761Y-109752380D01*
X117738095Y-110752380D01*
D10*
X117700000Y-104100000D02*
X117700000Y-105700000D01*
X117700000Y-109300000D02*
X117700000Y-107900000D01*
X111100000Y-109300000D02*
X117700000Y-109300000D01*
X111100000Y-104100000D02*
X111100000Y-109300000D01*
X83533219Y-66340000D02*
G75*
G03*
X83533219Y-66340000I-803219J0D01*
G01*
X84160000Y-59990000D02*
X84160000Y-60990000D01*
X85860000Y-60990000D02*
X85860000Y-59990000D01*
X145150000Y-73195000D02*
X145150000Y-78335000D01*
X145150000Y-78335000D02*
X141980000Y-78335000D01*
X141980000Y-78335000D02*
X141980000Y-71865000D01*
X141980000Y-71865000D02*
X143565000Y-71865000D01*
X143565000Y-71865000D02*
X143565000Y-73195000D01*
X143565000Y-73195000D02*
X145150000Y-73195000D01*
X145150000Y-72560000D02*
X145150000Y-71865000D01*
X145150000Y-71865000D02*
X144515000Y-71865000D01*
X73700000Y-79960000D02*
X72700000Y-79960000D01*
X72700000Y-81660000D02*
X73700000Y-81660000D01*
X73610000Y-95630000D02*
X74610000Y-95630000D01*
X74610000Y-93930000D02*
X73610000Y-93930000D01*
X72520000Y-76800000D02*
X72520000Y-77800000D01*
X74220000Y-77800000D02*
X74220000Y-76800000D01*
X76660000Y-106620000D02*
X76660000Y-107620000D01*
X78360000Y-107620000D02*
X78360000Y-106620000D01*
X72520000Y-71690000D02*
X71520000Y-71690000D01*
X71520000Y-73390000D02*
X72520000Y-73390000D01*
X108600000Y-62000000D02*
X108600000Y-61000000D01*
X106900000Y-61000000D02*
X106900000Y-62000000D01*
X115350000Y-62100000D02*
X115350000Y-61100000D01*
X113650000Y-61100000D02*
X113650000Y-62100000D01*
X73460000Y-68920000D02*
X73460000Y-67920000D01*
X71760000Y-67920000D02*
X71760000Y-68920000D01*
D11*
X133650000Y-91850000D02*
X145650000Y-91850000D01*
X133650000Y-103550000D02*
X133650000Y-91850000D01*
X145650000Y-103550000D02*
X133650000Y-103550000D01*
X145650000Y-91850000D02*
X145650000Y-103550000D01*
D10*
X140630000Y-107420000D02*
X140630000Y-108750000D01*
X139300000Y-107420000D02*
X140630000Y-107420000D01*
X140630000Y-110020000D02*
X140630000Y-112620000D01*
X138030000Y-110020000D02*
X140630000Y-110020000D01*
X138030000Y-107420000D02*
X138030000Y-110020000D01*
X140630000Y-112620000D02*
X130350000Y-112620000D01*
X138030000Y-107420000D02*
X130350000Y-107420000D01*
X130350000Y-107420000D02*
X130350000Y-112620000D01*
X140610000Y-47130000D02*
X140610000Y-48460000D01*
X139280000Y-47130000D02*
X140610000Y-47130000D01*
X140610000Y-49730000D02*
X140610000Y-52330000D01*
X138010000Y-49730000D02*
X140610000Y-49730000D01*
X138010000Y-47130000D02*
X138010000Y-49730000D01*
X140610000Y-52330000D02*
X130330000Y-52330000D01*
X138010000Y-47130000D02*
X130330000Y-47130000D01*
X130330000Y-47130000D02*
X130330000Y-52330000D01*
X94250000Y-80580000D02*
X93050000Y-80580000D01*
X93050000Y-78820000D02*
X94250000Y-78820000D01*
X77550000Y-93280000D02*
X76350000Y-93280000D01*
X76350000Y-91520000D02*
X77550000Y-91520000D01*
X87680000Y-72750000D02*
X87680000Y-73950000D01*
X85920000Y-73950000D02*
X85920000Y-72750000D01*
X90750000Y-78500000D02*
X88150000Y-78500000D01*
X90750000Y-76900000D02*
X88150000Y-76900000D01*
X90750000Y-78500000D02*
X90750000Y-76900000D01*
X81850000Y-96700000D02*
X79250000Y-96700000D01*
X81850000Y-95100000D02*
X79250000Y-95100000D01*
X81850000Y-96700000D02*
X81850000Y-95100000D01*
X87900000Y-70200000D02*
X85300000Y-70200000D01*
X87900000Y-68600000D02*
X85300000Y-68600000D01*
X87900000Y-70200000D02*
X87900000Y-68600000D01*
X120203219Y-91900000D02*
G75*
G03*
X120203219Y-91900000I-803219J0D01*
G01*
X132203219Y-80700000D02*
G75*
G03*
X132203219Y-80700000I-803219J0D01*
G01*
X124003219Y-91900000D02*
G75*
G03*
X124003219Y-91900000I-803219J0D01*
G01*
X116403219Y-91900000D02*
G75*
G03*
X116403219Y-91900000I-803219J0D01*
G01*
X104503219Y-50100000D02*
G75*
G03*
X104503219Y-50100000I-803219J0D01*
G01*
X99003219Y-50100000D02*
G75*
G03*
X99003219Y-50100000I-803219J0D01*
G01*
X93503219Y-50100000D02*
G75*
G03*
X93503219Y-50100000I-803219J0D01*
G01*
X126500000Y-50541000D02*
X126500000Y-53935000D01*
X123100000Y-50541000D02*
X123100000Y-53935000D01*
X119700000Y-50541000D02*
X119700000Y-53935000D01*
X116300000Y-50541000D02*
X116300000Y-53935000D01*
X112900000Y-50541000D02*
X112900000Y-53935000D01*
X109500000Y-50541000D02*
X109500000Y-53950000D01*
X107780000Y-47140000D02*
X128220000Y-47140000D01*
X128220000Y-47140000D02*
X128220000Y-50541000D01*
X107780000Y-47140000D02*
X107780000Y-50541000D01*
X125725000Y-50541000D02*
X128220000Y-50541000D01*
X122325000Y-50541000D02*
X123876000Y-50541000D01*
X118925000Y-50541000D02*
X120476000Y-50541000D01*
X115525000Y-50541000D02*
X117076000Y-50541000D01*
X112125000Y-50541000D02*
X113676000Y-50541000D01*
X107780000Y-50541000D02*
X110276000Y-50541000D01*
X103020000Y-100350000D02*
X103020000Y-99150000D01*
X104780000Y-99150000D02*
X104780000Y-100350000D01*
X106420000Y-100350000D02*
X106420000Y-99150000D01*
X108180000Y-99150000D02*
X108180000Y-100350000D01*
X99550000Y-89180000D02*
X98350000Y-89180000D01*
X98350000Y-87420000D02*
X99550000Y-87420000D01*
X93550000Y-89180000D02*
X92350000Y-89180000D01*
X92350000Y-87420000D02*
X93550000Y-87420000D01*
X89080000Y-99750000D02*
X89080000Y-100950000D01*
X87320000Y-100950000D02*
X87320000Y-99750000D01*
X85880000Y-99750000D02*
X85880000Y-100950000D01*
X84120000Y-100950000D02*
X84120000Y-99750000D01*
X113380000Y-106050000D02*
X113380000Y-107250000D01*
X111620000Y-107250000D02*
X111620000Y-106050000D01*
X117180000Y-105950000D02*
X117180000Y-107150000D01*
X115420000Y-107150000D02*
X115420000Y-105950000D01*
X82150000Y-100850000D02*
X82150000Y-99850000D01*
X80450000Y-99850000D02*
X80450000Y-100850000D01*
X108450000Y-107250000D02*
X108450000Y-106250000D01*
X106750000Y-106250000D02*
X106750000Y-107250000D01*
X80550000Y-106250000D02*
X80550000Y-107250000D01*
X82250000Y-107250000D02*
X82250000Y-106250000D01*
X103250000Y-106250000D02*
X103250000Y-107250000D01*
X104950000Y-107250000D02*
X104950000Y-106250000D01*
D11*
X119200000Y-104600000D02*
X121325000Y-104600000D01*
X121325000Y-104600000D02*
X121325000Y-109175000D01*
X119350000Y-109200000D02*
X121325000Y-109200000D01*
X119375000Y-109200000D02*
X119250000Y-109200000D01*
X119250000Y-109200000D02*
X119250000Y-104600000D01*
X119000000Y-108650000D02*
G75*
G03*
X119000000Y-108650000I-75000J0D01*
G01*
D10*
X105750000Y-89180000D02*
X104550000Y-89180000D01*
X104550000Y-87420000D02*
X105750000Y-87420000D01*
X81000000Y-75900000D02*
X81000000Y-77100000D01*
X77000000Y-75900000D02*
X81000000Y-75900000D01*
X81000000Y-80700000D02*
X78300000Y-80700000D01*
X81000000Y-79500000D02*
X81000000Y-80700000D01*
X80900000Y-68600000D02*
X80900000Y-69800000D01*
X76900000Y-68600000D02*
X80900000Y-68600000D01*
X80900000Y-73400000D02*
X78200000Y-73400000D01*
X80900000Y-72200000D02*
X80900000Y-73400000D01*
X72900000Y-98340000D02*
X74100000Y-98340000D01*
X72900000Y-102340000D02*
X72900000Y-98340000D01*
X77700000Y-98340000D02*
X77700000Y-101040000D01*
X76500000Y-98340000D02*
X77700000Y-98340000D01*
X96240000Y-53250000D02*
X94590000Y-53250000D01*
X96240000Y-63530000D02*
X96240000Y-53250000D01*
X90940000Y-63530000D02*
X96240000Y-63530000D01*
X90940000Y-53250000D02*
X90940000Y-63530000D01*
X92590000Y-53250000D02*
X90940000Y-53250000D01*
X94590000Y-53250000D02*
G75*
G02*
X92590000Y-53250000I-1000000J0D01*
G01*
X132480000Y-72550000D02*
X132480000Y-73750000D01*
X130720000Y-73750000D02*
X130720000Y-72550000D01*
X115150000Y-101220000D02*
X116350000Y-101220000D01*
X116350000Y-102980000D02*
X115150000Y-102980000D01*
X126950000Y-105680000D02*
X125750000Y-105680000D01*
X125750000Y-103920000D02*
X126950000Y-103920000D01*
X142630000Y-61730000D02*
X148970000Y-61730000D01*
X142630000Y-66810000D02*
X148970000Y-66810000D01*
X142630000Y-66810000D02*
X142630000Y-61730000D01*
X148970000Y-61730000D02*
X148970000Y-66810000D01*
X144530000Y-61730000D02*
X144530000Y-66810000D01*
X142430000Y-55090000D02*
X148770000Y-55090000D01*
X142430000Y-60170000D02*
X148770000Y-60170000D01*
X142430000Y-60170000D02*
X142430000Y-55090000D01*
X148770000Y-55090000D02*
X148770000Y-60170000D01*
X144330000Y-55090000D02*
X144330000Y-60170000D01*
X111280000Y-93210000D02*
X110510000Y-93980000D01*
X111280000Y-93210000D02*
X115090000Y-93210000D01*
X111280000Y-97790000D02*
X110510000Y-97020000D01*
X111280000Y-97790000D02*
X115090000Y-97790000D01*
X110510000Y-97020000D02*
X110510000Y-96620000D01*
X110510000Y-93980000D02*
X110510000Y-94380000D01*
X115090000Y-93210000D02*
X115090000Y-94380000D01*
X115090000Y-97790000D02*
X115090000Y-96620000D01*
X125850000Y-103150000D02*
X126850000Y-103150000D01*
X126850000Y-101450000D02*
X125850000Y-101450000D01*
X124380000Y-94960000D02*
X123610000Y-95730000D01*
X124380000Y-94960000D02*
X128190000Y-94960000D01*
X124380000Y-99540000D02*
X123610000Y-98770000D01*
X124380000Y-99540000D02*
X128190000Y-99540000D01*
X123610000Y-98770000D02*
X123610000Y-98370000D01*
X123610000Y-95730000D02*
X123610000Y-96130000D01*
X128190000Y-94960000D02*
X128190000Y-96130000D01*
X128190000Y-99540000D02*
X128190000Y-98370000D01*
X127250000Y-62650000D02*
X126250000Y-62650000D01*
X126250000Y-64350000D02*
X127250000Y-64350000D01*
X137700000Y-59610000D02*
X137700000Y-65450000D01*
X136940000Y-58850000D02*
X137700000Y-59610000D01*
X131100000Y-59610000D02*
X131860000Y-58850000D01*
X131100000Y-65450000D02*
X131100000Y-59610000D01*
X136940000Y-58850000D02*
X135520000Y-58850000D01*
X131860000Y-58850000D02*
X133280000Y-58850000D01*
X131100000Y-65450000D02*
X133280000Y-65450000D01*
X137700000Y-65450000D02*
X135520000Y-65450000D01*
X93390000Y-109280000D02*
X95040000Y-109280000D01*
X93390000Y-91380000D02*
X93390000Y-109280000D01*
X98690000Y-91380000D02*
X93390000Y-91380000D01*
X98690000Y-109280000D02*
X98690000Y-91380000D01*
X97040000Y-109280000D02*
X98690000Y-109280000D01*
X95040000Y-109280000D02*
G75*
G02*
X97040000Y-109280000I1000000J0D01*
G01*
X95950000Y-67250000D02*
X96950000Y-67250000D01*
X96950000Y-65550000D02*
X95950000Y-65550000D01*
X102450000Y-58900000D02*
X102450000Y-57900000D01*
X100750000Y-57900000D02*
X100750000Y-58900000D01*
X85850000Y-56050000D02*
X85850000Y-55050000D01*
X84150000Y-55050000D02*
X84150000Y-56050000D01*
X132950000Y-97150000D02*
X132950000Y-96150000D01*
X131250000Y-96150000D02*
X131250000Y-97150000D01*
X116150000Y-98450000D02*
X115150000Y-98450000D01*
X115150000Y-100150000D02*
X116150000Y-100150000D01*
X121350000Y-101450000D02*
X121350000Y-100450000D01*
X119650000Y-100450000D02*
X119650000Y-101450000D01*
X101310000Y-73830000D02*
X100310000Y-73830000D01*
X100310000Y-75530000D02*
X101310000Y-75530000D01*
X100310000Y-78130000D02*
X101310000Y-78130000D01*
X101310000Y-76430000D02*
X100310000Y-76430000D01*
X100310000Y-80730000D02*
X101310000Y-80730000D01*
X101310000Y-79030000D02*
X100310000Y-79030000D01*
X135650000Y-72450000D02*
X136650000Y-72450000D01*
X136650000Y-70750000D02*
X135650000Y-70750000D01*
X100300000Y-70120000D02*
X101300000Y-70120000D01*
X101300000Y-68420000D02*
X100300000Y-68420000D01*
X101300000Y-71120000D02*
X100300000Y-71120000D01*
X100300000Y-72820000D02*
X101300000Y-72820000D01*
X126050000Y-72550000D02*
X127050000Y-72550000D01*
X127050000Y-70850000D02*
X126050000Y-70850000D01*
X126150000Y-75550000D02*
X127150000Y-75550000D01*
X127150000Y-73850000D02*
X126150000Y-73850000D01*
X110650000Y-89150000D02*
X111650000Y-89150000D01*
X111650000Y-87450000D02*
X110650000Y-87450000D01*
X80150000Y-49920000D02*
X81350000Y-49920000D01*
X81350000Y-51680000D02*
X80150000Y-51680000D01*
X91350000Y-67280000D02*
X90150000Y-67280000D01*
X90150000Y-65520000D02*
X91350000Y-65520000D01*
X121200000Y-64630000D02*
X120000000Y-64630000D01*
X120000000Y-62870000D02*
X121200000Y-62870000D01*
X120050000Y-58870000D02*
X121250000Y-58870000D01*
X121250000Y-60630000D02*
X120050000Y-60630000D01*
X127200000Y-60630000D02*
X126000000Y-60630000D01*
X126000000Y-58870000D02*
X127200000Y-58870000D01*
X85950000Y-49920000D02*
X87150000Y-49920000D01*
X87150000Y-51680000D02*
X85950000Y-51680000D01*
X104730000Y-93450000D02*
X104730000Y-94650000D01*
X102970000Y-94650000D02*
X102970000Y-93450000D01*
X89180000Y-93350000D02*
X89180000Y-94550000D01*
X87420000Y-94550000D02*
X87420000Y-93350000D01*
X87420000Y-107250000D02*
X87420000Y-106050000D01*
X89180000Y-106050000D02*
X89180000Y-107250000D01*
X132980000Y-101550000D02*
X132980000Y-102750000D01*
X131220000Y-102750000D02*
X131220000Y-101550000D01*
X108180000Y-93550000D02*
X108180000Y-94750000D01*
X106420000Y-94750000D02*
X106420000Y-93550000D01*
X85780000Y-93350000D02*
X85780000Y-94550000D01*
X84020000Y-94550000D02*
X84020000Y-93350000D01*
X84020000Y-107250000D02*
X84020000Y-106050000D01*
X85780000Y-106050000D02*
X85780000Y-107250000D01*
X125180000Y-108250000D02*
X125180000Y-109450000D01*
X123420000Y-109450000D02*
X123420000Y-108250000D01*
X126720000Y-109550000D02*
X126720000Y-108350000D01*
X128480000Y-108350000D02*
X128480000Y-109550000D01*
X136650000Y-75680000D02*
X135450000Y-75680000D01*
X135450000Y-73920000D02*
X136650000Y-73920000D01*
X123750000Y-89180000D02*
X122550000Y-89180000D01*
X122550000Y-87420000D02*
X123750000Y-87420000D01*
X116550000Y-87420000D02*
X117750000Y-87420000D01*
X117750000Y-89180000D02*
X116550000Y-89180000D01*
D11*
X120800000Y-80300000D02*
X120225000Y-80300000D01*
X111400000Y-70900000D02*
X111975000Y-70900000D01*
X111400000Y-80300000D02*
X111975000Y-80300000D01*
X120800000Y-70900000D02*
X120800000Y-71475000D01*
X111400000Y-70900000D02*
X111400000Y-71475000D01*
X111400000Y-80300000D02*
X111400000Y-79725000D01*
X120800000Y-80300000D02*
X120800000Y-79725000D01*
X81550000Y-61125000D02*
X81375000Y-61125000D01*
X81550000Y-64475000D02*
X81300000Y-64475000D01*
X78200000Y-64475000D02*
X78450000Y-64475000D01*
X78200000Y-61125000D02*
X78450000Y-61125000D01*
X81550000Y-61125000D02*
X81550000Y-64475000D01*
X78200000Y-61125000D02*
X78200000Y-64475000D01*
X81375000Y-61125000D02*
X81375000Y-59875000D01*
X84023020Y-66326666D02*
X84110520Y-65626666D01*
X84377187Y-65626666D01*
X84439687Y-65660000D01*
X84468854Y-65693333D01*
X84493854Y-65760000D01*
X84481354Y-65860000D01*
X84439687Y-65926666D01*
X84402187Y-65960000D01*
X84331354Y-65993333D01*
X84064687Y-65993333D01*
X84743854Y-65626666D02*
X84823020Y-66326666D01*
X85018854Y-65826666D01*
X85089687Y-66326666D01*
X85343854Y-65626666D01*
X85523020Y-66326666D02*
X85610520Y-65626666D01*
X85781354Y-66126666D01*
X86077187Y-65626666D01*
X85989687Y-66326666D01*
X87167142Y-61082857D02*
X87214761Y-61130476D01*
X87262380Y-61273333D01*
X87262380Y-61368571D01*
X87214761Y-61511428D01*
X87119523Y-61606666D01*
X87024285Y-61654285D01*
X86833809Y-61701904D01*
X86690952Y-61701904D01*
X86500476Y-61654285D01*
X86405238Y-61606666D01*
X86310000Y-61511428D01*
X86262380Y-61368571D01*
X86262380Y-61273333D01*
X86310000Y-61130476D01*
X86357619Y-61082857D01*
X87262380Y-60130476D02*
X87262380Y-60701904D01*
X87262380Y-60416190D02*
X86262380Y-60416190D01*
X86405238Y-60511428D01*
X86500476Y-60606666D01*
X86548095Y-60701904D01*
X87262380Y-59178095D02*
X87262380Y-59749523D01*
X87262380Y-59463809D02*
X86262380Y-59463809D01*
X86405238Y-59559047D01*
X86500476Y-59654285D01*
X86548095Y-59749523D01*
X143231666Y-70317380D02*
X143231666Y-71031666D01*
X143184047Y-71174523D01*
X143088809Y-71269761D01*
X142945952Y-71317380D01*
X142850714Y-71317380D01*
X143660238Y-70412619D02*
X143707857Y-70365000D01*
X143803095Y-70317380D01*
X144041190Y-70317380D01*
X144136428Y-70365000D01*
X144184047Y-70412619D01*
X144231666Y-70507857D01*
X144231666Y-70603095D01*
X144184047Y-70745952D01*
X143612619Y-71317380D01*
X144231666Y-71317380D01*
X70687142Y-82847142D02*
X70639523Y-82894761D01*
X70496666Y-82942380D01*
X70401428Y-82942380D01*
X70258571Y-82894761D01*
X70163333Y-82799523D01*
X70115714Y-82704285D01*
X70068095Y-82513809D01*
X70068095Y-82370952D01*
X70115714Y-82180476D01*
X70163333Y-82085238D01*
X70258571Y-81990000D01*
X70401428Y-81942380D01*
X70496666Y-81942380D01*
X70639523Y-81990000D01*
X70687142Y-82037619D01*
X71020476Y-81942380D02*
X71639523Y-81942380D01*
X71306190Y-82323333D01*
X71449047Y-82323333D01*
X71544285Y-82370952D01*
X71591904Y-82418571D01*
X71639523Y-82513809D01*
X71639523Y-82751904D01*
X71591904Y-82847142D01*
X71544285Y-82894761D01*
X71449047Y-82942380D01*
X71163333Y-82942380D01*
X71068095Y-82894761D01*
X71020476Y-82847142D01*
X71972857Y-81942380D02*
X72591904Y-81942380D01*
X72258571Y-82323333D01*
X72401428Y-82323333D01*
X72496666Y-82370952D01*
X72544285Y-82418571D01*
X72591904Y-82513809D01*
X72591904Y-82751904D01*
X72544285Y-82847142D01*
X72496666Y-82894761D01*
X72401428Y-82942380D01*
X72115714Y-82942380D01*
X72020476Y-82894761D01*
X71972857Y-82847142D01*
X72457142Y-93527142D02*
X72409523Y-93574761D01*
X72266666Y-93622380D01*
X72171428Y-93622380D01*
X72028571Y-93574761D01*
X71933333Y-93479523D01*
X71885714Y-93384285D01*
X71838095Y-93193809D01*
X71838095Y-93050952D01*
X71885714Y-92860476D01*
X71933333Y-92765238D01*
X72028571Y-92670000D01*
X72171428Y-92622380D01*
X72266666Y-92622380D01*
X72409523Y-92670000D01*
X72457142Y-92717619D01*
X72790476Y-92622380D02*
X73409523Y-92622380D01*
X73076190Y-93003333D01*
X73219047Y-93003333D01*
X73314285Y-93050952D01*
X73361904Y-93098571D01*
X73409523Y-93193809D01*
X73409523Y-93431904D01*
X73361904Y-93527142D01*
X73314285Y-93574761D01*
X73219047Y-93622380D01*
X72933333Y-93622380D01*
X72838095Y-93574761D01*
X72790476Y-93527142D01*
X73790476Y-92717619D02*
X73838095Y-92670000D01*
X73933333Y-92622380D01*
X74171428Y-92622380D01*
X74266666Y-92670000D01*
X74314285Y-92717619D01*
X74361904Y-92812857D01*
X74361904Y-92908095D01*
X74314285Y-93050952D01*
X73742857Y-93622380D01*
X74361904Y-93622380D01*
X70407142Y-76297142D02*
X70359523Y-76344761D01*
X70216666Y-76392380D01*
X70121428Y-76392380D01*
X69978571Y-76344761D01*
X69883333Y-76249523D01*
X69835714Y-76154285D01*
X69788095Y-75963809D01*
X69788095Y-75820952D01*
X69835714Y-75630476D01*
X69883333Y-75535238D01*
X69978571Y-75440000D01*
X70121428Y-75392380D01*
X70216666Y-75392380D01*
X70359523Y-75440000D01*
X70407142Y-75487619D01*
X70740476Y-75392380D02*
X71359523Y-75392380D01*
X71026190Y-75773333D01*
X71169047Y-75773333D01*
X71264285Y-75820952D01*
X71311904Y-75868571D01*
X71359523Y-75963809D01*
X71359523Y-76201904D01*
X71311904Y-76297142D01*
X71264285Y-76344761D01*
X71169047Y-76392380D01*
X70883333Y-76392380D01*
X70788095Y-76344761D01*
X70740476Y-76297142D01*
X72311904Y-76392380D02*
X71740476Y-76392380D01*
X72026190Y-76392380D02*
X72026190Y-75392380D01*
X71930952Y-75535238D01*
X71835714Y-75630476D01*
X71740476Y-75678095D01*
X77127142Y-110577142D02*
X77079523Y-110624761D01*
X76936666Y-110672380D01*
X76841428Y-110672380D01*
X76698571Y-110624761D01*
X76603333Y-110529523D01*
X76555714Y-110434285D01*
X76508095Y-110243809D01*
X76508095Y-110100952D01*
X76555714Y-109910476D01*
X76603333Y-109815238D01*
X76698571Y-109720000D01*
X76841428Y-109672380D01*
X76936666Y-109672380D01*
X77079523Y-109720000D01*
X77127142Y-109767619D01*
X77460476Y-109672380D02*
X78079523Y-109672380D01*
X77746190Y-110053333D01*
X77889047Y-110053333D01*
X77984285Y-110100952D01*
X78031904Y-110148571D01*
X78079523Y-110243809D01*
X78079523Y-110481904D01*
X78031904Y-110577142D01*
X77984285Y-110624761D01*
X77889047Y-110672380D01*
X77603333Y-110672380D01*
X77508095Y-110624761D01*
X77460476Y-110577142D01*
X78698571Y-109672380D02*
X78793809Y-109672380D01*
X78889047Y-109720000D01*
X78936666Y-109767619D01*
X78984285Y-109862857D01*
X79031904Y-110053333D01*
X79031904Y-110291428D01*
X78984285Y-110481904D01*
X78936666Y-110577142D01*
X78889047Y-110624761D01*
X78793809Y-110672380D01*
X78698571Y-110672380D01*
X78603333Y-110624761D01*
X78555714Y-110577142D01*
X78508095Y-110481904D01*
X78460476Y-110291428D01*
X78460476Y-110053333D01*
X78508095Y-109862857D01*
X78555714Y-109767619D01*
X78603333Y-109720000D01*
X78698571Y-109672380D01*
X71397142Y-74677142D02*
X71349523Y-74724761D01*
X71206666Y-74772380D01*
X71111428Y-74772380D01*
X70968571Y-74724761D01*
X70873333Y-74629523D01*
X70825714Y-74534285D01*
X70778095Y-74343809D01*
X70778095Y-74200952D01*
X70825714Y-74010476D01*
X70873333Y-73915238D01*
X70968571Y-73820000D01*
X71111428Y-73772380D01*
X71206666Y-73772380D01*
X71349523Y-73820000D01*
X71397142Y-73867619D01*
X71778095Y-73867619D02*
X71825714Y-73820000D01*
X71920952Y-73772380D01*
X72159047Y-73772380D01*
X72254285Y-73820000D01*
X72301904Y-73867619D01*
X72349523Y-73962857D01*
X72349523Y-74058095D01*
X72301904Y-74200952D01*
X71730476Y-74772380D01*
X72349523Y-74772380D01*
X72825714Y-74772380D02*
X73016190Y-74772380D01*
X73111428Y-74724761D01*
X73159047Y-74677142D01*
X73254285Y-74534285D01*
X73301904Y-74343809D01*
X73301904Y-73962857D01*
X73254285Y-73867619D01*
X73206666Y-73820000D01*
X73111428Y-73772380D01*
X72920952Y-73772380D01*
X72825714Y-73820000D01*
X72778095Y-73867619D01*
X72730476Y-73962857D01*
X72730476Y-74200952D01*
X72778095Y-74296190D01*
X72825714Y-74343809D01*
X72920952Y-74391428D01*
X73111428Y-74391428D01*
X73206666Y-74343809D01*
X73254285Y-74296190D01*
X73301904Y-74200952D01*
X109857142Y-62142857D02*
X109904761Y-62190476D01*
X109952380Y-62333333D01*
X109952380Y-62428571D01*
X109904761Y-62571428D01*
X109809523Y-62666666D01*
X109714285Y-62714285D01*
X109523809Y-62761904D01*
X109380952Y-62761904D01*
X109190476Y-62714285D01*
X109095238Y-62666666D01*
X109000000Y-62571428D01*
X108952380Y-62428571D01*
X108952380Y-62333333D01*
X109000000Y-62190476D01*
X109047619Y-62142857D01*
X109047619Y-61761904D02*
X109000000Y-61714285D01*
X108952380Y-61619047D01*
X108952380Y-61380952D01*
X109000000Y-61285714D01*
X109047619Y-61238095D01*
X109142857Y-61190476D01*
X109238095Y-61190476D01*
X109380952Y-61238095D01*
X109952380Y-61809523D01*
X109952380Y-61190476D01*
X109952380Y-60238095D02*
X109952380Y-60809523D01*
X109952380Y-60523809D02*
X108952380Y-60523809D01*
X109095238Y-60619047D01*
X109190476Y-60714285D01*
X109238095Y-60809523D01*
X116607142Y-62242857D02*
X116654761Y-62290476D01*
X116702380Y-62433333D01*
X116702380Y-62528571D01*
X116654761Y-62671428D01*
X116559523Y-62766666D01*
X116464285Y-62814285D01*
X116273809Y-62861904D01*
X116130952Y-62861904D01*
X115940476Y-62814285D01*
X115845238Y-62766666D01*
X115750000Y-62671428D01*
X115702380Y-62528571D01*
X115702380Y-62433333D01*
X115750000Y-62290476D01*
X115797619Y-62242857D01*
X115797619Y-61861904D02*
X115750000Y-61814285D01*
X115702380Y-61719047D01*
X115702380Y-61480952D01*
X115750000Y-61385714D01*
X115797619Y-61338095D01*
X115892857Y-61290476D01*
X115988095Y-61290476D01*
X116130952Y-61338095D01*
X116702380Y-61909523D01*
X116702380Y-61290476D01*
X115702380Y-60671428D02*
X115702380Y-60576190D01*
X115750000Y-60480952D01*
X115797619Y-60433333D01*
X115892857Y-60385714D01*
X116083333Y-60338095D01*
X116321428Y-60338095D01*
X116511904Y-60385714D01*
X116607142Y-60433333D01*
X116654761Y-60480952D01*
X116702380Y-60576190D01*
X116702380Y-60671428D01*
X116654761Y-60766666D01*
X116607142Y-60814285D01*
X116511904Y-60861904D01*
X116321428Y-60909523D01*
X116083333Y-60909523D01*
X115892857Y-60861904D01*
X115797619Y-60814285D01*
X115750000Y-60766666D01*
X115702380Y-60671428D01*
X72337142Y-65757142D02*
X72289523Y-65804761D01*
X72146666Y-65852380D01*
X72051428Y-65852380D01*
X71908571Y-65804761D01*
X71813333Y-65709523D01*
X71765714Y-65614285D01*
X71718095Y-65423809D01*
X71718095Y-65280952D01*
X71765714Y-65090476D01*
X71813333Y-64995238D01*
X71908571Y-64900000D01*
X72051428Y-64852380D01*
X72146666Y-64852380D01*
X72289523Y-64900000D01*
X72337142Y-64947619D01*
X73289523Y-65852380D02*
X72718095Y-65852380D01*
X73003809Y-65852380D02*
X73003809Y-64852380D01*
X72908571Y-64995238D01*
X72813333Y-65090476D01*
X72718095Y-65138095D01*
X73908571Y-64852380D02*
X74003809Y-64852380D01*
X74099047Y-64900000D01*
X74146666Y-64947619D01*
X74194285Y-65042857D01*
X74241904Y-65233333D01*
X74241904Y-65471428D01*
X74194285Y-65661904D01*
X74146666Y-65757142D01*
X74099047Y-65804761D01*
X74003809Y-65852380D01*
X73908571Y-65852380D01*
X73813333Y-65804761D01*
X73765714Y-65757142D01*
X73718095Y-65661904D01*
X73670476Y-65471428D01*
X73670476Y-65233333D01*
X73718095Y-65042857D01*
X73765714Y-64947619D01*
X73813333Y-64900000D01*
X73908571Y-64852380D01*
X146202380Y-98083333D02*
X146916666Y-98083333D01*
X147059523Y-98130952D01*
X147154761Y-98226190D01*
X147202380Y-98369047D01*
X147202380Y-98464285D01*
X147202380Y-97559523D02*
X147202380Y-97369047D01*
X147154761Y-97273809D01*
X147107142Y-97226190D01*
X146964285Y-97130952D01*
X146773809Y-97083333D01*
X146392857Y-97083333D01*
X146297619Y-97130952D01*
X146250000Y-97178571D01*
X146202380Y-97273809D01*
X146202380Y-97464285D01*
X146250000Y-97559523D01*
X146297619Y-97607142D01*
X146392857Y-97654761D01*
X146630952Y-97654761D01*
X146726190Y-97607142D01*
X146773809Y-97559523D01*
X146821428Y-97464285D01*
X146821428Y-97273809D01*
X146773809Y-97178571D01*
X146726190Y-97130952D01*
X146630952Y-97083333D01*
X141082380Y-110829523D02*
X141796666Y-110829523D01*
X141939523Y-110877142D01*
X142034761Y-110972380D01*
X142082380Y-111115238D01*
X142082380Y-111210476D01*
X142082380Y-109829523D02*
X142082380Y-110400952D01*
X142082380Y-110115238D02*
X141082380Y-110115238D01*
X141225238Y-110210476D01*
X141320476Y-110305714D01*
X141368095Y-110400952D01*
X142082380Y-108877142D02*
X142082380Y-109448571D01*
X142082380Y-109162857D02*
X141082380Y-109162857D01*
X141225238Y-109258095D01*
X141320476Y-109353333D01*
X141368095Y-109448571D01*
X140952380Y-49359523D02*
X141666666Y-49359523D01*
X141809523Y-49407142D01*
X141904761Y-49502380D01*
X141952380Y-49645238D01*
X141952380Y-49740476D01*
X141952380Y-48359523D02*
X141952380Y-48930952D01*
X141952380Y-48645238D02*
X140952380Y-48645238D01*
X141095238Y-48740476D01*
X141190476Y-48835714D01*
X141238095Y-48930952D01*
X140952380Y-47740476D02*
X140952380Y-47645238D01*
X141000000Y-47550000D01*
X141047619Y-47502380D01*
X141142857Y-47454761D01*
X141333333Y-47407142D01*
X141571428Y-47407142D01*
X141761904Y-47454761D01*
X141857142Y-47502380D01*
X141904761Y-47550000D01*
X141952380Y-47645238D01*
X141952380Y-47740476D01*
X141904761Y-47835714D01*
X141857142Y-47883333D01*
X141761904Y-47930952D01*
X141571428Y-47978571D01*
X141333333Y-47978571D01*
X141142857Y-47930952D01*
X141047619Y-47883333D01*
X141000000Y-47835714D01*
X140952380Y-47740476D01*
X92907142Y-78252380D02*
X92573809Y-77776190D01*
X92335714Y-78252380D02*
X92335714Y-77252380D01*
X92716666Y-77252380D01*
X92811904Y-77300000D01*
X92859523Y-77347619D01*
X92907142Y-77442857D01*
X92907142Y-77585714D01*
X92859523Y-77680952D01*
X92811904Y-77728571D01*
X92716666Y-77776190D01*
X92335714Y-77776190D01*
X93288095Y-77347619D02*
X93335714Y-77300000D01*
X93430952Y-77252380D01*
X93669047Y-77252380D01*
X93764285Y-77300000D01*
X93811904Y-77347619D01*
X93859523Y-77442857D01*
X93859523Y-77538095D01*
X93811904Y-77680952D01*
X93240476Y-78252380D01*
X93859523Y-78252380D01*
X94430952Y-77680952D02*
X94335714Y-77633333D01*
X94288095Y-77585714D01*
X94240476Y-77490476D01*
X94240476Y-77442857D01*
X94288095Y-77347619D01*
X94335714Y-77300000D01*
X94430952Y-77252380D01*
X94621428Y-77252380D01*
X94716666Y-77300000D01*
X94764285Y-77347619D01*
X94811904Y-77442857D01*
X94811904Y-77490476D01*
X94764285Y-77585714D01*
X94716666Y-77633333D01*
X94621428Y-77680952D01*
X94430952Y-77680952D01*
X94335714Y-77728571D01*
X94288095Y-77776190D01*
X94240476Y-77871428D01*
X94240476Y-78061904D01*
X94288095Y-78157142D01*
X94335714Y-78204761D01*
X94430952Y-78252380D01*
X94621428Y-78252380D01*
X94716666Y-78204761D01*
X94764285Y-78157142D01*
X94811904Y-78061904D01*
X94811904Y-77871428D01*
X94764285Y-77776190D01*
X94716666Y-77728571D01*
X94621428Y-77680952D01*
X80157142Y-92952380D02*
X79823809Y-92476190D01*
X79585714Y-92952380D02*
X79585714Y-91952380D01*
X79966666Y-91952380D01*
X80061904Y-92000000D01*
X80109523Y-92047619D01*
X80157142Y-92142857D01*
X80157142Y-92285714D01*
X80109523Y-92380952D01*
X80061904Y-92428571D01*
X79966666Y-92476190D01*
X79585714Y-92476190D01*
X80538095Y-92047619D02*
X80585714Y-92000000D01*
X80680952Y-91952380D01*
X80919047Y-91952380D01*
X81014285Y-92000000D01*
X81061904Y-92047619D01*
X81109523Y-92142857D01*
X81109523Y-92238095D01*
X81061904Y-92380952D01*
X80490476Y-92952380D01*
X81109523Y-92952380D01*
X82014285Y-91952380D02*
X81538095Y-91952380D01*
X81490476Y-92428571D01*
X81538095Y-92380952D01*
X81633333Y-92333333D01*
X81871428Y-92333333D01*
X81966666Y-92380952D01*
X82014285Y-92428571D01*
X82061904Y-92523809D01*
X82061904Y-92761904D01*
X82014285Y-92857142D01*
X81966666Y-92904761D01*
X81871428Y-92952380D01*
X81633333Y-92952380D01*
X81538095Y-92904761D01*
X81490476Y-92857142D01*
X88952380Y-73992857D02*
X88476190Y-74326190D01*
X88952380Y-74564285D02*
X87952380Y-74564285D01*
X87952380Y-74183333D01*
X88000000Y-74088095D01*
X88047619Y-74040476D01*
X88142857Y-73992857D01*
X88285714Y-73992857D01*
X88380952Y-74040476D01*
X88428571Y-74088095D01*
X88476190Y-74183333D01*
X88476190Y-74564285D01*
X88047619Y-73611904D02*
X88000000Y-73564285D01*
X87952380Y-73469047D01*
X87952380Y-73230952D01*
X88000000Y-73135714D01*
X88047619Y-73088095D01*
X88142857Y-73040476D01*
X88238095Y-73040476D01*
X88380952Y-73088095D01*
X88952380Y-73659523D01*
X88952380Y-73040476D01*
X88285714Y-72183333D02*
X88952380Y-72183333D01*
X87904761Y-72421428D02*
X88619047Y-72659523D01*
X88619047Y-72040476D01*
X88661904Y-76552380D02*
X88661904Y-75552380D01*
X88900000Y-75552380D01*
X89042857Y-75600000D01*
X89138095Y-75695238D01*
X89185714Y-75790476D01*
X89233333Y-75980952D01*
X89233333Y-76123809D01*
X89185714Y-76314285D01*
X89138095Y-76409523D01*
X89042857Y-76504761D01*
X88900000Y-76552380D01*
X88661904Y-76552380D01*
X89566666Y-75552380D02*
X90185714Y-75552380D01*
X89852380Y-75933333D01*
X89995238Y-75933333D01*
X90090476Y-75980952D01*
X90138095Y-76028571D01*
X90185714Y-76123809D01*
X90185714Y-76361904D01*
X90138095Y-76457142D01*
X90090476Y-76504761D01*
X89995238Y-76552380D01*
X89709523Y-76552380D01*
X89614285Y-76504761D01*
X89566666Y-76457142D01*
X79661904Y-94752380D02*
X79661904Y-93752380D01*
X79900000Y-93752380D01*
X80042857Y-93800000D01*
X80138095Y-93895238D01*
X80185714Y-93990476D01*
X80233333Y-94180952D01*
X80233333Y-94323809D01*
X80185714Y-94514285D01*
X80138095Y-94609523D01*
X80042857Y-94704761D01*
X79900000Y-94752380D01*
X79661904Y-94752380D01*
X80614285Y-93847619D02*
X80661904Y-93800000D01*
X80757142Y-93752380D01*
X80995238Y-93752380D01*
X81090476Y-93800000D01*
X81138095Y-93847619D01*
X81185714Y-93942857D01*
X81185714Y-94038095D01*
X81138095Y-94180952D01*
X80566666Y-94752380D01*
X81185714Y-94752380D01*
X85861904Y-68152380D02*
X85861904Y-67152380D01*
X86100000Y-67152380D01*
X86242857Y-67200000D01*
X86338095Y-67295238D01*
X86385714Y-67390476D01*
X86433333Y-67580952D01*
X86433333Y-67723809D01*
X86385714Y-67914285D01*
X86338095Y-68009523D01*
X86242857Y-68104761D01*
X86100000Y-68152380D01*
X85861904Y-68152380D01*
X87385714Y-68152380D02*
X86814285Y-68152380D01*
X87100000Y-68152380D02*
X87100000Y-67152380D01*
X87004761Y-67295238D01*
X86909523Y-67390476D01*
X86814285Y-67438095D01*
X117380520Y-89916666D02*
X117526354Y-90616666D01*
X117847187Y-89916666D01*
X118443020Y-89950000D02*
X118380520Y-89916666D01*
X118280520Y-89916666D01*
X118176354Y-89950000D01*
X118101354Y-90016666D01*
X118059687Y-90083333D01*
X118009687Y-90216666D01*
X117997187Y-90316666D01*
X118013854Y-90450000D01*
X118038854Y-90516666D01*
X118097187Y-90583333D01*
X118193020Y-90616666D01*
X118259687Y-90616666D01*
X118363854Y-90583333D01*
X118401354Y-90550000D01*
X118430520Y-90316666D01*
X118297187Y-90316666D01*
X118684687Y-90416666D02*
X119018020Y-90416666D01*
X118593020Y-90616666D02*
X118913854Y-89916666D01*
X119059687Y-90616666D01*
X119743020Y-89950000D02*
X119680520Y-89916666D01*
X119580520Y-89916666D01*
X119476354Y-89950000D01*
X119401354Y-90016666D01*
X119359687Y-90083333D01*
X119309687Y-90216666D01*
X119297187Y-90316666D01*
X119313854Y-90450000D01*
X119338854Y-90516666D01*
X119397187Y-90583333D01*
X119493020Y-90616666D01*
X119559687Y-90616666D01*
X119663854Y-90583333D01*
X119701354Y-90550000D01*
X119730520Y-90316666D01*
X119597187Y-90316666D01*
X120293020Y-90616666D02*
X120338854Y-90250000D01*
X120313854Y-90183333D01*
X120251354Y-90150000D01*
X120118020Y-90150000D01*
X120047187Y-90183333D01*
X120297187Y-90583333D02*
X120226354Y-90616666D01*
X120059687Y-90616666D01*
X119997187Y-90583333D01*
X119972187Y-90516666D01*
X119980520Y-90450000D01*
X120022187Y-90383333D01*
X120093020Y-90350000D01*
X120259687Y-90350000D01*
X120330520Y-90316666D01*
X120626354Y-90616666D02*
X120684687Y-90150000D01*
X120713854Y-89916666D02*
X120676354Y-89950000D01*
X120705520Y-89983333D01*
X120743020Y-89950000D01*
X120713854Y-89916666D01*
X120705520Y-89983333D01*
X121018020Y-90150000D02*
X120959687Y-90616666D01*
X121009687Y-90216666D02*
X121047187Y-90183333D01*
X121118020Y-90150000D01*
X121218020Y-90150000D01*
X121280520Y-90183333D01*
X121305520Y-90250000D01*
X121259687Y-90616666D01*
X128447187Y-80416666D02*
X128880520Y-80416666D01*
X128613854Y-80683333D01*
X128713854Y-80683333D01*
X128776354Y-80716666D01*
X128805520Y-80750000D01*
X128830520Y-80816666D01*
X128809687Y-80983333D01*
X128768020Y-81050000D01*
X128730520Y-81083333D01*
X128659687Y-81116666D01*
X128459687Y-81116666D01*
X128397187Y-81083333D01*
X128368020Y-81050000D01*
X129080520Y-80416666D02*
X129226354Y-81116666D01*
X129547187Y-80416666D01*
X129713854Y-80416666D02*
X130147187Y-80416666D01*
X129880520Y-80683333D01*
X129980520Y-80683333D01*
X130043020Y-80716666D01*
X130072187Y-80750000D01*
X130097187Y-80816666D01*
X130076354Y-80983333D01*
X130034687Y-81050000D01*
X129997187Y-81083333D01*
X129926354Y-81116666D01*
X129726354Y-81116666D01*
X129663854Y-81083333D01*
X129634687Y-81050000D01*
X122159687Y-90350000D02*
X122693020Y-90350000D01*
X123413854Y-89916666D02*
X123080520Y-89916666D01*
X123005520Y-90250000D01*
X123043020Y-90216666D01*
X123113854Y-90183333D01*
X123280520Y-90183333D01*
X123343020Y-90216666D01*
X123372187Y-90250000D01*
X123397187Y-90316666D01*
X123376354Y-90483333D01*
X123334687Y-90550000D01*
X123297187Y-90583333D01*
X123226354Y-90616666D01*
X123059687Y-90616666D01*
X122997187Y-90583333D01*
X122968020Y-90550000D01*
X123647187Y-89916666D02*
X123793020Y-90616666D01*
X124113854Y-89916666D01*
X114659687Y-90350000D02*
X115193020Y-90350000D01*
X114893020Y-90616666D02*
X114959687Y-90083333D01*
X115913854Y-89916666D02*
X115580520Y-89916666D01*
X115505520Y-90250000D01*
X115543020Y-90216666D01*
X115613854Y-90183333D01*
X115780520Y-90183333D01*
X115843020Y-90216666D01*
X115872187Y-90250000D01*
X115897187Y-90316666D01*
X115876354Y-90483333D01*
X115834687Y-90550000D01*
X115797187Y-90583333D01*
X115726354Y-90616666D01*
X115559687Y-90616666D01*
X115497187Y-90583333D01*
X115468020Y-90550000D01*
X116147187Y-89916666D02*
X116293020Y-90616666D01*
X116613854Y-89916666D01*
X101880520Y-48683333D02*
X101976354Y-48716666D01*
X102143020Y-48716666D01*
X102213854Y-48683333D01*
X102251354Y-48650000D01*
X102293020Y-48583333D01*
X102301354Y-48516666D01*
X102276354Y-48450000D01*
X102247187Y-48416666D01*
X102184687Y-48383333D01*
X102055520Y-48350000D01*
X101993020Y-48316666D01*
X101963854Y-48283333D01*
X101938854Y-48216666D01*
X101947187Y-48150000D01*
X101988854Y-48083333D01*
X102026354Y-48050000D01*
X102097187Y-48016666D01*
X102263854Y-48016666D01*
X102359687Y-48050000D01*
X102576354Y-48716666D02*
X102663854Y-48016666D01*
X102976354Y-48716666D02*
X102726354Y-48316666D01*
X103063854Y-48016666D02*
X102613854Y-48416666D01*
X103497187Y-48016666D02*
X103630520Y-48016666D01*
X103693020Y-48050000D01*
X103751354Y-48116666D01*
X103768020Y-48250000D01*
X103738854Y-48483333D01*
X103688854Y-48616666D01*
X103613854Y-48683333D01*
X103543020Y-48716666D01*
X103409687Y-48716666D01*
X103347187Y-48683333D01*
X103288854Y-48616666D01*
X103272187Y-48483333D01*
X103301354Y-48250000D01*
X103351354Y-48116666D01*
X103426354Y-48050000D01*
X103497187Y-48016666D01*
X104109687Y-48716666D02*
X104047187Y-48683333D01*
X104018020Y-48650000D01*
X103993020Y-48583333D01*
X104018020Y-48383333D01*
X104059687Y-48316666D01*
X104097187Y-48283333D01*
X104168020Y-48250000D01*
X104268020Y-48250000D01*
X104330520Y-48283333D01*
X104359687Y-48316666D01*
X104384687Y-48383333D01*
X104359687Y-48583333D01*
X104318020Y-48650000D01*
X104280520Y-48683333D01*
X104209687Y-48716666D01*
X104109687Y-48716666D01*
X105001354Y-48250000D02*
X104943020Y-48716666D01*
X104701354Y-48250000D02*
X104655520Y-48616666D01*
X104680520Y-48683333D01*
X104743020Y-48716666D01*
X104843020Y-48716666D01*
X104913854Y-48683333D01*
X104951354Y-48650000D01*
X105234687Y-48250000D02*
X105501354Y-48250000D01*
X105363854Y-48016666D02*
X105288854Y-48616666D01*
X105313854Y-48683333D01*
X105376354Y-48716666D01*
X105443020Y-48716666D01*
X96309687Y-48716666D02*
X96397187Y-48016666D01*
X96568020Y-48516666D01*
X96863854Y-48016666D01*
X96776354Y-48716666D01*
X97197187Y-48016666D02*
X97126354Y-48583333D01*
X97151354Y-48650000D01*
X97180520Y-48683333D01*
X97243020Y-48716666D01*
X97376354Y-48716666D01*
X97447187Y-48683333D01*
X97484687Y-48650000D01*
X97526354Y-48583333D01*
X97597187Y-48016666D01*
X97863854Y-48016666D02*
X98243020Y-48716666D01*
X98330520Y-48016666D02*
X97776354Y-48716666D01*
X98730520Y-48016666D02*
X98863854Y-48016666D01*
X98926354Y-48050000D01*
X98984687Y-48116666D01*
X99001354Y-48250000D01*
X98972187Y-48483333D01*
X98922187Y-48616666D01*
X98847187Y-48683333D01*
X98776354Y-48716666D01*
X98643020Y-48716666D01*
X98580520Y-48683333D01*
X98522187Y-48616666D01*
X98505520Y-48483333D01*
X98534687Y-48250000D01*
X98584687Y-48116666D01*
X98659687Y-48050000D01*
X98730520Y-48016666D01*
X99601354Y-48250000D02*
X99543020Y-48716666D01*
X99301354Y-48250000D02*
X99255520Y-48616666D01*
X99280520Y-48683333D01*
X99343020Y-48716666D01*
X99443020Y-48716666D01*
X99513854Y-48683333D01*
X99551354Y-48650000D01*
X99834687Y-48250000D02*
X100101354Y-48250000D01*
X99963854Y-48016666D02*
X99888854Y-48616666D01*
X99913854Y-48683333D01*
X99976354Y-48716666D01*
X100043020Y-48716666D01*
X90793020Y-48716666D02*
X90880520Y-48016666D01*
X91051354Y-48516666D01*
X91347187Y-48016666D01*
X91259687Y-48716666D01*
X91680520Y-48016666D02*
X91609687Y-48583333D01*
X91634687Y-48650000D01*
X91663854Y-48683333D01*
X91726354Y-48716666D01*
X91859687Y-48716666D01*
X91930520Y-48683333D01*
X91968020Y-48650000D01*
X92009687Y-48583333D01*
X92080520Y-48016666D01*
X92347187Y-48016666D02*
X92726354Y-48716666D01*
X92813854Y-48016666D02*
X92259687Y-48716666D01*
X92993020Y-48716666D02*
X93080520Y-48016666D01*
X93247187Y-48016666D01*
X93343020Y-48050000D01*
X93401354Y-48116666D01*
X93426354Y-48183333D01*
X93443020Y-48316666D01*
X93430520Y-48416666D01*
X93380520Y-48550000D01*
X93338854Y-48616666D01*
X93263854Y-48683333D01*
X93159687Y-48716666D01*
X92993020Y-48716666D01*
X93684687Y-48516666D02*
X94018020Y-48516666D01*
X93593020Y-48716666D02*
X93913854Y-48016666D01*
X94059687Y-48716666D01*
X94701354Y-48650000D02*
X94663854Y-48683333D01*
X94559687Y-48716666D01*
X94493020Y-48716666D01*
X94397187Y-48683333D01*
X94338854Y-48616666D01*
X94313854Y-48550000D01*
X94297187Y-48416666D01*
X94309687Y-48316666D01*
X94359687Y-48183333D01*
X94401354Y-48116666D01*
X94476354Y-48050000D01*
X94580520Y-48016666D01*
X94647187Y-48016666D01*
X94743020Y-48050000D01*
X94772187Y-48083333D01*
X105738095Y-51552380D02*
X105738095Y-52361904D01*
X105785714Y-52457142D01*
X105833333Y-52504761D01*
X105928571Y-52552380D01*
X106119047Y-52552380D01*
X106214285Y-52504761D01*
X106261904Y-52457142D01*
X106309523Y-52361904D01*
X106309523Y-51552380D01*
X106833333Y-52552380D02*
X107023809Y-52552380D01*
X107119047Y-52504761D01*
X107166666Y-52457142D01*
X107261904Y-52314285D01*
X107309523Y-52123809D01*
X107309523Y-51742857D01*
X107261904Y-51647619D01*
X107214285Y-51600000D01*
X107119047Y-51552380D01*
X106928571Y-51552380D01*
X106833333Y-51600000D01*
X106785714Y-51647619D01*
X106738095Y-51742857D01*
X106738095Y-51980952D01*
X106785714Y-52076190D01*
X106833333Y-52123809D01*
X106928571Y-52171428D01*
X107119047Y-52171428D01*
X107214285Y-52123809D01*
X107261904Y-52076190D01*
X107309523Y-51980952D01*
X65166666Y-48162380D02*
X65166666Y-48876666D01*
X65119047Y-49019523D01*
X65023809Y-49114761D01*
X64880952Y-49162380D01*
X64785714Y-49162380D01*
X65547619Y-48162380D02*
X66166666Y-48162380D01*
X65833333Y-48543333D01*
X65976190Y-48543333D01*
X66071428Y-48590952D01*
X66119047Y-48638571D01*
X66166666Y-48733809D01*
X66166666Y-48971904D01*
X66119047Y-49067142D01*
X66071428Y-49114761D01*
X65976190Y-49162380D01*
X65690476Y-49162380D01*
X65595238Y-49114761D01*
X65547619Y-49067142D01*
X64876666Y-101052380D02*
X64876666Y-101766666D01*
X64829047Y-101909523D01*
X64733809Y-102004761D01*
X64590952Y-102052380D01*
X64495714Y-102052380D01*
X65495714Y-101480952D02*
X65400476Y-101433333D01*
X65352857Y-101385714D01*
X65305238Y-101290476D01*
X65305238Y-101242857D01*
X65352857Y-101147619D01*
X65400476Y-101100000D01*
X65495714Y-101052380D01*
X65686190Y-101052380D01*
X65781428Y-101100000D01*
X65829047Y-101147619D01*
X65876666Y-101242857D01*
X65876666Y-101290476D01*
X65829047Y-101385714D01*
X65781428Y-101433333D01*
X65686190Y-101480952D01*
X65495714Y-101480952D01*
X65400476Y-101528571D01*
X65352857Y-101576190D01*
X65305238Y-101671428D01*
X65305238Y-101861904D01*
X65352857Y-101957142D01*
X65400476Y-102004761D01*
X65495714Y-102052380D01*
X65686190Y-102052380D01*
X65781428Y-102004761D01*
X65829047Y-101957142D01*
X65876666Y-101861904D01*
X65876666Y-101671428D01*
X65829047Y-101576190D01*
X65781428Y-101528571D01*
X65686190Y-101480952D01*
X65096666Y-87672380D02*
X65096666Y-88386666D01*
X65049047Y-88529523D01*
X64953809Y-88624761D01*
X64810952Y-88672380D01*
X64715714Y-88672380D01*
X65477619Y-87672380D02*
X66144285Y-87672380D01*
X65715714Y-88672380D01*
X64896666Y-74402380D02*
X64896666Y-75116666D01*
X64849047Y-75259523D01*
X64753809Y-75354761D01*
X64610952Y-75402380D01*
X64515714Y-75402380D01*
X65801428Y-74735714D02*
X65801428Y-75402380D01*
X65563333Y-74354761D02*
X65325238Y-75069047D01*
X65944285Y-75069047D01*
X65036666Y-61182380D02*
X65036666Y-61896666D01*
X64989047Y-62039523D01*
X64893809Y-62134761D01*
X64750952Y-62182380D01*
X64655714Y-62182380D01*
X65989047Y-61182380D02*
X65512857Y-61182380D01*
X65465238Y-61658571D01*
X65512857Y-61610952D01*
X65608095Y-61563333D01*
X65846190Y-61563333D01*
X65941428Y-61610952D01*
X65989047Y-61658571D01*
X66036666Y-61753809D01*
X66036666Y-61991904D01*
X65989047Y-62087142D01*
X65941428Y-62134761D01*
X65846190Y-62182380D01*
X65608095Y-62182380D01*
X65512857Y-62134761D01*
X65465238Y-62087142D01*
X102652380Y-100442857D02*
X102176190Y-100776190D01*
X102652380Y-101014285D02*
X101652380Y-101014285D01*
X101652380Y-100633333D01*
X101700000Y-100538095D01*
X101747619Y-100490476D01*
X101842857Y-100442857D01*
X101985714Y-100442857D01*
X102080952Y-100490476D01*
X102128571Y-100538095D01*
X102176190Y-100633333D01*
X102176190Y-101014285D01*
X101747619Y-100061904D02*
X101700000Y-100014285D01*
X101652380Y-99919047D01*
X101652380Y-99680952D01*
X101700000Y-99585714D01*
X101747619Y-99538095D01*
X101842857Y-99490476D01*
X101938095Y-99490476D01*
X102080952Y-99538095D01*
X102652380Y-100109523D01*
X102652380Y-99490476D01*
X101652380Y-99157142D02*
X101652380Y-98538095D01*
X102033333Y-98871428D01*
X102033333Y-98728571D01*
X102080952Y-98633333D01*
X102128571Y-98585714D01*
X102223809Y-98538095D01*
X102461904Y-98538095D01*
X102557142Y-98585714D01*
X102604761Y-98633333D01*
X102652380Y-98728571D01*
X102652380Y-99014285D01*
X102604761Y-99109523D01*
X102557142Y-99157142D01*
X109552380Y-100392857D02*
X109076190Y-100726190D01*
X109552380Y-100964285D02*
X108552380Y-100964285D01*
X108552380Y-100583333D01*
X108600000Y-100488095D01*
X108647619Y-100440476D01*
X108742857Y-100392857D01*
X108885714Y-100392857D01*
X108980952Y-100440476D01*
X109028571Y-100488095D01*
X109076190Y-100583333D01*
X109076190Y-100964285D01*
X109552380Y-99440476D02*
X109552380Y-100011904D01*
X109552380Y-99726190D02*
X108552380Y-99726190D01*
X108695238Y-99821428D01*
X108790476Y-99916666D01*
X108838095Y-100011904D01*
X108552380Y-98583333D02*
X108552380Y-98773809D01*
X108600000Y-98869047D01*
X108647619Y-98916666D01*
X108790476Y-99011904D01*
X108980952Y-99059523D01*
X109361904Y-99059523D01*
X109457142Y-99011904D01*
X109504761Y-98964285D01*
X109552380Y-98869047D01*
X109552380Y-98678571D01*
X109504761Y-98583333D01*
X109457142Y-98535714D01*
X109361904Y-98488095D01*
X109123809Y-98488095D01*
X109028571Y-98535714D01*
X108980952Y-98583333D01*
X108933333Y-98678571D01*
X108933333Y-98869047D01*
X108980952Y-98964285D01*
X109028571Y-99011904D01*
X109123809Y-99059523D01*
X98557142Y-86952380D02*
X98223809Y-86476190D01*
X97985714Y-86952380D02*
X97985714Y-85952380D01*
X98366666Y-85952380D01*
X98461904Y-86000000D01*
X98509523Y-86047619D01*
X98557142Y-86142857D01*
X98557142Y-86285714D01*
X98509523Y-86380952D01*
X98461904Y-86428571D01*
X98366666Y-86476190D01*
X97985714Y-86476190D01*
X99509523Y-86952380D02*
X98938095Y-86952380D01*
X99223809Y-86952380D02*
X99223809Y-85952380D01*
X99128571Y-86095238D01*
X99033333Y-86190476D01*
X98938095Y-86238095D01*
X99842857Y-85952380D02*
X100461904Y-85952380D01*
X100128571Y-86333333D01*
X100271428Y-86333333D01*
X100366666Y-86380952D01*
X100414285Y-86428571D01*
X100461904Y-86523809D01*
X100461904Y-86761904D01*
X100414285Y-86857142D01*
X100366666Y-86904761D01*
X100271428Y-86952380D01*
X99985714Y-86952380D01*
X99890476Y-86904761D01*
X99842857Y-86857142D01*
X92257142Y-86952380D02*
X91923809Y-86476190D01*
X91685714Y-86952380D02*
X91685714Y-85952380D01*
X92066666Y-85952380D01*
X92161904Y-86000000D01*
X92209523Y-86047619D01*
X92257142Y-86142857D01*
X92257142Y-86285714D01*
X92209523Y-86380952D01*
X92161904Y-86428571D01*
X92066666Y-86476190D01*
X91685714Y-86476190D01*
X93209523Y-86952380D02*
X92638095Y-86952380D01*
X92923809Y-86952380D02*
X92923809Y-85952380D01*
X92828571Y-86095238D01*
X92733333Y-86190476D01*
X92638095Y-86238095D01*
X93828571Y-85952380D02*
X93923809Y-85952380D01*
X94019047Y-86000000D01*
X94066666Y-86047619D01*
X94114285Y-86142857D01*
X94161904Y-86333333D01*
X94161904Y-86571428D01*
X94114285Y-86761904D01*
X94066666Y-86857142D01*
X94019047Y-86904761D01*
X93923809Y-86952380D01*
X93828571Y-86952380D01*
X93733333Y-86904761D01*
X93685714Y-86857142D01*
X93638095Y-86761904D01*
X93590476Y-86571428D01*
X93590476Y-86333333D01*
X93638095Y-86142857D01*
X93685714Y-86047619D01*
X93733333Y-86000000D01*
X93828571Y-85952380D01*
X90352380Y-100566666D02*
X89876190Y-100900000D01*
X90352380Y-101138095D02*
X89352380Y-101138095D01*
X89352380Y-100757142D01*
X89400000Y-100661904D01*
X89447619Y-100614285D01*
X89542857Y-100566666D01*
X89685714Y-100566666D01*
X89780952Y-100614285D01*
X89828571Y-100661904D01*
X89876190Y-100757142D01*
X89876190Y-101138095D01*
X89352380Y-100233333D02*
X89352380Y-99566666D01*
X90352380Y-99995238D01*
X83752380Y-100466666D02*
X83276190Y-100800000D01*
X83752380Y-101038095D02*
X82752380Y-101038095D01*
X82752380Y-100657142D01*
X82800000Y-100561904D01*
X82847619Y-100514285D01*
X82942857Y-100466666D01*
X83085714Y-100466666D01*
X83180952Y-100514285D01*
X83228571Y-100561904D01*
X83276190Y-100657142D01*
X83276190Y-101038095D01*
X82752380Y-99609523D02*
X82752380Y-99800000D01*
X82800000Y-99895238D01*
X82847619Y-99942857D01*
X82990476Y-100038095D01*
X83180952Y-100085714D01*
X83561904Y-100085714D01*
X83657142Y-100038095D01*
X83704761Y-99990476D01*
X83752380Y-99895238D01*
X83752380Y-99704761D01*
X83704761Y-99609523D01*
X83657142Y-99561904D01*
X83561904Y-99514285D01*
X83323809Y-99514285D01*
X83228571Y-99561904D01*
X83180952Y-99609523D01*
X83133333Y-99704761D01*
X83133333Y-99895238D01*
X83180952Y-99990476D01*
X83228571Y-100038095D01*
X83323809Y-100085714D01*
X112433333Y-104152380D02*
X112100000Y-103676190D01*
X111861904Y-104152380D02*
X111861904Y-103152380D01*
X112242857Y-103152380D01*
X112338095Y-103200000D01*
X112385714Y-103247619D01*
X112433333Y-103342857D01*
X112433333Y-103485714D01*
X112385714Y-103580952D01*
X112338095Y-103628571D01*
X112242857Y-103676190D01*
X111861904Y-103676190D01*
X112766666Y-103152380D02*
X113385714Y-103152380D01*
X113052380Y-103533333D01*
X113195238Y-103533333D01*
X113290476Y-103580952D01*
X113338095Y-103628571D01*
X113385714Y-103723809D01*
X113385714Y-103961904D01*
X113338095Y-104057142D01*
X113290476Y-104104761D01*
X113195238Y-104152380D01*
X112909523Y-104152380D01*
X112814285Y-104104761D01*
X112766666Y-104057142D01*
X118452380Y-106866666D02*
X117976190Y-107200000D01*
X118452380Y-107438095D02*
X117452380Y-107438095D01*
X117452380Y-107057142D01*
X117500000Y-106961904D01*
X117547619Y-106914285D01*
X117642857Y-106866666D01*
X117785714Y-106866666D01*
X117880952Y-106914285D01*
X117928571Y-106961904D01*
X117976190Y-107057142D01*
X117976190Y-107438095D01*
X118452380Y-105914285D02*
X118452380Y-106485714D01*
X118452380Y-106200000D02*
X117452380Y-106200000D01*
X117595238Y-106295238D01*
X117690476Y-106390476D01*
X117738095Y-106485714D01*
X80057142Y-101042857D02*
X80104761Y-101090476D01*
X80152380Y-101233333D01*
X80152380Y-101328571D01*
X80104761Y-101471428D01*
X80009523Y-101566666D01*
X79914285Y-101614285D01*
X79723809Y-101661904D01*
X79580952Y-101661904D01*
X79390476Y-101614285D01*
X79295238Y-101566666D01*
X79200000Y-101471428D01*
X79152380Y-101328571D01*
X79152380Y-101233333D01*
X79200000Y-101090476D01*
X79247619Y-101042857D01*
X79247619Y-100661904D02*
X79200000Y-100614285D01*
X79152380Y-100519047D01*
X79152380Y-100280952D01*
X79200000Y-100185714D01*
X79247619Y-100138095D01*
X79342857Y-100090476D01*
X79438095Y-100090476D01*
X79580952Y-100138095D01*
X80152380Y-100709523D01*
X80152380Y-100090476D01*
X79580952Y-99519047D02*
X79533333Y-99614285D01*
X79485714Y-99661904D01*
X79390476Y-99709523D01*
X79342857Y-99709523D01*
X79247619Y-99661904D01*
X79200000Y-99614285D01*
X79152380Y-99519047D01*
X79152380Y-99328571D01*
X79200000Y-99233333D01*
X79247619Y-99185714D01*
X79342857Y-99138095D01*
X79390476Y-99138095D01*
X79485714Y-99185714D01*
X79533333Y-99233333D01*
X79580952Y-99328571D01*
X79580952Y-99519047D01*
X79628571Y-99614285D01*
X79676190Y-99661904D01*
X79771428Y-99709523D01*
X79961904Y-99709523D01*
X80057142Y-99661904D01*
X80104761Y-99614285D01*
X80152380Y-99519047D01*
X80152380Y-99328571D01*
X80104761Y-99233333D01*
X80057142Y-99185714D01*
X79961904Y-99138095D01*
X79771428Y-99138095D01*
X79676190Y-99185714D01*
X79628571Y-99233333D01*
X79580952Y-99328571D01*
X109757142Y-107392857D02*
X109804761Y-107440476D01*
X109852380Y-107583333D01*
X109852380Y-107678571D01*
X109804761Y-107821428D01*
X109709523Y-107916666D01*
X109614285Y-107964285D01*
X109423809Y-108011904D01*
X109280952Y-108011904D01*
X109090476Y-107964285D01*
X108995238Y-107916666D01*
X108900000Y-107821428D01*
X108852380Y-107678571D01*
X108852380Y-107583333D01*
X108900000Y-107440476D01*
X108947619Y-107392857D01*
X108947619Y-107011904D02*
X108900000Y-106964285D01*
X108852380Y-106869047D01*
X108852380Y-106630952D01*
X108900000Y-106535714D01*
X108947619Y-106488095D01*
X109042857Y-106440476D01*
X109138095Y-106440476D01*
X109280952Y-106488095D01*
X109852380Y-107059523D01*
X109852380Y-106440476D01*
X108852380Y-106107142D02*
X108852380Y-105440476D01*
X109852380Y-105869047D01*
D13*
X80121428Y-107442857D02*
X80164285Y-107490476D01*
X80207142Y-107633333D01*
X80207142Y-107728571D01*
X80164285Y-107871428D01*
X80078571Y-107966666D01*
X79992857Y-108014285D01*
X79821428Y-108061904D01*
X79692857Y-108061904D01*
X79521428Y-108014285D01*
X79435714Y-107966666D01*
X79350000Y-107871428D01*
X79307142Y-107728571D01*
X79307142Y-107633333D01*
X79350000Y-107490476D01*
X79392857Y-107442857D01*
X79392857Y-107061904D02*
X79350000Y-107014285D01*
X79307142Y-106919047D01*
X79307142Y-106680952D01*
X79350000Y-106585714D01*
X79392857Y-106538095D01*
X79478571Y-106490476D01*
X79564285Y-106490476D01*
X79692857Y-106538095D01*
X80207142Y-107109523D01*
X80207142Y-106490476D01*
X79307142Y-105633333D02*
X79307142Y-105823809D01*
X79350000Y-105919047D01*
X79392857Y-105966666D01*
X79521428Y-106061904D01*
X79692857Y-106109523D01*
X80035714Y-106109523D01*
X80121428Y-106061904D01*
X80164285Y-106014285D01*
X80207142Y-105919047D01*
X80207142Y-105728571D01*
X80164285Y-105633333D01*
X80121428Y-105585714D01*
X80035714Y-105538095D01*
X79821428Y-105538095D01*
X79735714Y-105585714D01*
X79692857Y-105633333D01*
X79650000Y-105728571D01*
X79650000Y-105919047D01*
X79692857Y-106014285D01*
X79735714Y-106061904D01*
X79821428Y-106109523D01*
D11*
X106207142Y-107392857D02*
X106254761Y-107440476D01*
X106302380Y-107583333D01*
X106302380Y-107678571D01*
X106254761Y-107821428D01*
X106159523Y-107916666D01*
X106064285Y-107964285D01*
X105873809Y-108011904D01*
X105730952Y-108011904D01*
X105540476Y-107964285D01*
X105445238Y-107916666D01*
X105350000Y-107821428D01*
X105302380Y-107678571D01*
X105302380Y-107583333D01*
X105350000Y-107440476D01*
X105397619Y-107392857D01*
X105397619Y-107011904D02*
X105350000Y-106964285D01*
X105302380Y-106869047D01*
X105302380Y-106630952D01*
X105350000Y-106535714D01*
X105397619Y-106488095D01*
X105492857Y-106440476D01*
X105588095Y-106440476D01*
X105730952Y-106488095D01*
X106302380Y-107059523D01*
X106302380Y-106440476D01*
X105302380Y-105535714D02*
X105302380Y-106011904D01*
X105778571Y-106059523D01*
X105730952Y-106011904D01*
X105683333Y-105916666D01*
X105683333Y-105678571D01*
X105730952Y-105583333D01*
X105778571Y-105535714D01*
X105873809Y-105488095D01*
X106111904Y-105488095D01*
X106207142Y-105535714D01*
X106254761Y-105583333D01*
X106302380Y-105678571D01*
X106302380Y-105916666D01*
X106254761Y-106011904D01*
X106207142Y-106059523D01*
X119538095Y-109552380D02*
X119538095Y-110361904D01*
X119585714Y-110457142D01*
X119633333Y-110504761D01*
X119728571Y-110552380D01*
X119919047Y-110552380D01*
X120014285Y-110504761D01*
X120061904Y-110457142D01*
X120109523Y-110361904D01*
X120109523Y-109552380D01*
X120728571Y-109980952D02*
X120633333Y-109933333D01*
X120585714Y-109885714D01*
X120538095Y-109790476D01*
X120538095Y-109742857D01*
X120585714Y-109647619D01*
X120633333Y-109600000D01*
X120728571Y-109552380D01*
X120919047Y-109552380D01*
X121014285Y-109600000D01*
X121061904Y-109647619D01*
X121109523Y-109742857D01*
X121109523Y-109790476D01*
X121061904Y-109885714D01*
X121014285Y-109933333D01*
X120919047Y-109980952D01*
X120728571Y-109980952D01*
X120633333Y-110028571D01*
X120585714Y-110076190D01*
X120538095Y-110171428D01*
X120538095Y-110361904D01*
X120585714Y-110457142D01*
X120633333Y-110504761D01*
X120728571Y-110552380D01*
X120919047Y-110552380D01*
X121014285Y-110504761D01*
X121061904Y-110457142D01*
X121109523Y-110361904D01*
X121109523Y-110171428D01*
X121061904Y-110076190D01*
X121014285Y-110028571D01*
X120919047Y-109980952D01*
X104457142Y-87052380D02*
X104123809Y-86576190D01*
X103885714Y-87052380D02*
X103885714Y-86052380D01*
X104266666Y-86052380D01*
X104361904Y-86100000D01*
X104409523Y-86147619D01*
X104457142Y-86242857D01*
X104457142Y-86385714D01*
X104409523Y-86480952D01*
X104361904Y-86528571D01*
X104266666Y-86576190D01*
X103885714Y-86576190D01*
X104838095Y-86147619D02*
X104885714Y-86100000D01*
X104980952Y-86052380D01*
X105219047Y-86052380D01*
X105314285Y-86100000D01*
X105361904Y-86147619D01*
X105409523Y-86242857D01*
X105409523Y-86338095D01*
X105361904Y-86480952D01*
X104790476Y-87052380D01*
X105409523Y-87052380D01*
X106266666Y-86052380D02*
X106076190Y-86052380D01*
X105980952Y-86100000D01*
X105933333Y-86147619D01*
X105838095Y-86290476D01*
X105790476Y-86480952D01*
X105790476Y-86861904D01*
X105838095Y-86957142D01*
X105885714Y-87004761D01*
X105980952Y-87052380D01*
X106171428Y-87052380D01*
X106266666Y-87004761D01*
X106314285Y-86957142D01*
X106361904Y-86861904D01*
X106361904Y-86623809D01*
X106314285Y-86528571D01*
X106266666Y-86480952D01*
X106171428Y-86433333D01*
X105980952Y-86433333D01*
X105885714Y-86480952D01*
X105838095Y-86528571D01*
X105790476Y-86623809D01*
X84038095Y-77752380D02*
X84038095Y-78561904D01*
X84085714Y-78657142D01*
X84133333Y-78704761D01*
X84228571Y-78752380D01*
X84419047Y-78752380D01*
X84514285Y-78704761D01*
X84561904Y-78657142D01*
X84609523Y-78561904D01*
X84609523Y-77752380D01*
X85561904Y-77752380D02*
X85085714Y-77752380D01*
X85038095Y-78228571D01*
X85085714Y-78180952D01*
X85180952Y-78133333D01*
X85419047Y-78133333D01*
X85514285Y-78180952D01*
X85561904Y-78228571D01*
X85609523Y-78323809D01*
X85609523Y-78561904D01*
X85561904Y-78657142D01*
X85514285Y-78704761D01*
X85419047Y-78752380D01*
X85180952Y-78752380D01*
X85085714Y-78704761D01*
X85038095Y-78657142D01*
X83838095Y-70552380D02*
X83838095Y-71361904D01*
X83885714Y-71457142D01*
X83933333Y-71504761D01*
X84028571Y-71552380D01*
X84219047Y-71552380D01*
X84314285Y-71504761D01*
X84361904Y-71457142D01*
X84409523Y-71361904D01*
X84409523Y-70552380D01*
X85314285Y-70885714D02*
X85314285Y-71552380D01*
X85076190Y-70504761D02*
X84838095Y-71219047D01*
X85457142Y-71219047D01*
X70938095Y-98572380D02*
X70938095Y-99381904D01*
X70985714Y-99477142D01*
X71033333Y-99524761D01*
X71128571Y-99572380D01*
X71319047Y-99572380D01*
X71414285Y-99524761D01*
X71461904Y-99477142D01*
X71509523Y-99381904D01*
X71509523Y-98572380D01*
X71938095Y-98667619D02*
X71985714Y-98620000D01*
X72080952Y-98572380D01*
X72319047Y-98572380D01*
X72414285Y-98620000D01*
X72461904Y-98667619D01*
X72509523Y-98762857D01*
X72509523Y-98858095D01*
X72461904Y-99000952D01*
X71890476Y-99572380D01*
X72509523Y-99572380D01*
X92828095Y-51702380D02*
X92828095Y-52511904D01*
X92875714Y-52607142D01*
X92923333Y-52654761D01*
X93018571Y-52702380D01*
X93209047Y-52702380D01*
X93304285Y-52654761D01*
X93351904Y-52607142D01*
X93399523Y-52511904D01*
X93399523Y-51702380D01*
X93780476Y-51702380D02*
X94447142Y-51702380D01*
X94018571Y-52702380D01*
X131433333Y-70452380D02*
X130957142Y-70452380D01*
X130957142Y-69452380D01*
X132290476Y-70452380D02*
X131719047Y-70452380D01*
X132004761Y-70452380D02*
X132004761Y-69452380D01*
X131909523Y-69595238D01*
X131814285Y-69690476D01*
X131719047Y-69738095D01*
X111983333Y-102552380D02*
X111507142Y-102552380D01*
X111507142Y-101552380D01*
X112221428Y-101552380D02*
X112840476Y-101552380D01*
X112507142Y-101933333D01*
X112650000Y-101933333D01*
X112745238Y-101980952D01*
X112792857Y-102028571D01*
X112840476Y-102123809D01*
X112840476Y-102361904D01*
X112792857Y-102457142D01*
X112745238Y-102504761D01*
X112650000Y-102552380D01*
X112364285Y-102552380D01*
X112269047Y-102504761D01*
X112221428Y-102457142D01*
X123452380Y-104866666D02*
X123452380Y-105342857D01*
X122452380Y-105342857D01*
X122547619Y-104580952D02*
X122500000Y-104533333D01*
X122452380Y-104438095D01*
X122452380Y-104200000D01*
X122500000Y-104104761D01*
X122547619Y-104057142D01*
X122642857Y-104009523D01*
X122738095Y-104009523D01*
X122880952Y-104057142D01*
X123452380Y-104628571D01*
X123452380Y-104009523D01*
X147566666Y-67252380D02*
X147566666Y-67966666D01*
X147519047Y-68109523D01*
X147423809Y-68204761D01*
X147280952Y-68252380D01*
X147185714Y-68252380D01*
X148566666Y-68252380D02*
X147995238Y-68252380D01*
X148280952Y-68252380D02*
X148280952Y-67252380D01*
X148185714Y-67395238D01*
X148090476Y-67490476D01*
X147995238Y-67538095D01*
X147366666Y-53552380D02*
X147366666Y-54266666D01*
X147319047Y-54409523D01*
X147223809Y-54504761D01*
X147080952Y-54552380D01*
X146985714Y-54552380D01*
X148271428Y-53552380D02*
X148080952Y-53552380D01*
X147985714Y-53600000D01*
X147938095Y-53647619D01*
X147842857Y-53790476D01*
X147795238Y-53980952D01*
X147795238Y-54361904D01*
X147842857Y-54457142D01*
X147890476Y-54504761D01*
X147985714Y-54552380D01*
X148176190Y-54552380D01*
X148271428Y-54504761D01*
X148319047Y-54457142D01*
X148366666Y-54361904D01*
X148366666Y-54123809D01*
X148319047Y-54028571D01*
X148271428Y-53980952D01*
X148176190Y-53933333D01*
X147985714Y-53933333D01*
X147890476Y-53980952D01*
X147842857Y-54028571D01*
X147795238Y-54123809D01*
X110657142Y-92657142D02*
X110609523Y-92704761D01*
X110466666Y-92752380D01*
X110371428Y-92752380D01*
X110228571Y-92704761D01*
X110133333Y-92609523D01*
X110085714Y-92514285D01*
X110038095Y-92323809D01*
X110038095Y-92180952D01*
X110085714Y-91990476D01*
X110133333Y-91895238D01*
X110228571Y-91800000D01*
X110371428Y-91752380D01*
X110466666Y-91752380D01*
X110609523Y-91800000D01*
X110657142Y-91847619D01*
X111609523Y-92752380D02*
X111038095Y-92752380D01*
X111323809Y-92752380D02*
X111323809Y-91752380D01*
X111228571Y-91895238D01*
X111133333Y-91990476D01*
X111038095Y-92038095D01*
X112180952Y-92180952D02*
X112085714Y-92133333D01*
X112038095Y-92085714D01*
X111990476Y-91990476D01*
X111990476Y-91942857D01*
X112038095Y-91847619D01*
X112085714Y-91800000D01*
X112180952Y-91752380D01*
X112371428Y-91752380D01*
X112466666Y-91800000D01*
X112514285Y-91847619D01*
X112561904Y-91942857D01*
X112561904Y-91990476D01*
X112514285Y-92085714D01*
X112466666Y-92133333D01*
X112371428Y-92180952D01*
X112180952Y-92180952D01*
X112085714Y-92228571D01*
X112038095Y-92276190D01*
X111990476Y-92371428D01*
X111990476Y-92561904D01*
X112038095Y-92657142D01*
X112085714Y-92704761D01*
X112180952Y-92752380D01*
X112371428Y-92752380D01*
X112466666Y-92704761D01*
X112514285Y-92657142D01*
X112561904Y-92561904D01*
X112561904Y-92371428D01*
X112514285Y-92276190D01*
X112466666Y-92228571D01*
X112371428Y-92180952D01*
X109649047Y-97581428D02*
X110410952Y-97581428D01*
X110030000Y-97962380D02*
X110030000Y-97200476D01*
X125757142Y-100957142D02*
X125709523Y-101004761D01*
X125566666Y-101052380D01*
X125471428Y-101052380D01*
X125328571Y-101004761D01*
X125233333Y-100909523D01*
X125185714Y-100814285D01*
X125138095Y-100623809D01*
X125138095Y-100480952D01*
X125185714Y-100290476D01*
X125233333Y-100195238D01*
X125328571Y-100100000D01*
X125471428Y-100052380D01*
X125566666Y-100052380D01*
X125709523Y-100100000D01*
X125757142Y-100147619D01*
X126709523Y-101052380D02*
X126138095Y-101052380D01*
X126423809Y-101052380D02*
X126423809Y-100052380D01*
X126328571Y-100195238D01*
X126233333Y-100290476D01*
X126138095Y-100338095D01*
X127566666Y-100385714D02*
X127566666Y-101052380D01*
X127328571Y-100004761D02*
X127090476Y-100719047D01*
X127709523Y-100719047D01*
X125307142Y-94107142D02*
X125259523Y-94154761D01*
X125116666Y-94202380D01*
X125021428Y-94202380D01*
X124878571Y-94154761D01*
X124783333Y-94059523D01*
X124735714Y-93964285D01*
X124688095Y-93773809D01*
X124688095Y-93630952D01*
X124735714Y-93440476D01*
X124783333Y-93345238D01*
X124878571Y-93250000D01*
X125021428Y-93202380D01*
X125116666Y-93202380D01*
X125259523Y-93250000D01*
X125307142Y-93297619D01*
X126259523Y-94202380D02*
X125688095Y-94202380D01*
X125973809Y-94202380D02*
X125973809Y-93202380D01*
X125878571Y-93345238D01*
X125783333Y-93440476D01*
X125688095Y-93488095D01*
X126592857Y-93202380D02*
X127211904Y-93202380D01*
X126878571Y-93583333D01*
X127021428Y-93583333D01*
X127116666Y-93630952D01*
X127164285Y-93678571D01*
X127211904Y-93773809D01*
X127211904Y-94011904D01*
X127164285Y-94107142D01*
X127116666Y-94154761D01*
X127021428Y-94202380D01*
X126735714Y-94202380D01*
X126640476Y-94154761D01*
X126592857Y-94107142D01*
X122749047Y-99331428D02*
X123510952Y-99331428D01*
X123130000Y-99712380D02*
X123130000Y-98950476D01*
X126107142Y-65607142D02*
X126059523Y-65654761D01*
X125916666Y-65702380D01*
X125821428Y-65702380D01*
X125678571Y-65654761D01*
X125583333Y-65559523D01*
X125535714Y-65464285D01*
X125488095Y-65273809D01*
X125488095Y-65130952D01*
X125535714Y-64940476D01*
X125583333Y-64845238D01*
X125678571Y-64750000D01*
X125821428Y-64702380D01*
X125916666Y-64702380D01*
X126059523Y-64750000D01*
X126107142Y-64797619D01*
X127059523Y-65702380D02*
X126488095Y-65702380D01*
X126773809Y-65702380D02*
X126773809Y-64702380D01*
X126678571Y-64845238D01*
X126583333Y-64940476D01*
X126488095Y-64988095D01*
X127535714Y-65702380D02*
X127726190Y-65702380D01*
X127821428Y-65654761D01*
X127869047Y-65607142D01*
X127964285Y-65464285D01*
X128011904Y-65273809D01*
X128011904Y-64892857D01*
X127964285Y-64797619D01*
X127916666Y-64750000D01*
X127821428Y-64702380D01*
X127630952Y-64702380D01*
X127535714Y-64750000D01*
X127488095Y-64797619D01*
X127440476Y-64892857D01*
X127440476Y-65130952D01*
X127488095Y-65226190D01*
X127535714Y-65273809D01*
X127630952Y-65321428D01*
X127821428Y-65321428D01*
X127916666Y-65273809D01*
X127964285Y-65226190D01*
X128011904Y-65130952D01*
X130357142Y-62792857D02*
X130404761Y-62840476D01*
X130452380Y-62983333D01*
X130452380Y-63078571D01*
X130404761Y-63221428D01*
X130309523Y-63316666D01*
X130214285Y-63364285D01*
X130023809Y-63411904D01*
X129880952Y-63411904D01*
X129690476Y-63364285D01*
X129595238Y-63316666D01*
X129500000Y-63221428D01*
X129452380Y-63078571D01*
X129452380Y-62983333D01*
X129500000Y-62840476D01*
X129547619Y-62792857D01*
X129547619Y-62411904D02*
X129500000Y-62364285D01*
X129452380Y-62269047D01*
X129452380Y-62030952D01*
X129500000Y-61935714D01*
X129547619Y-61888095D01*
X129642857Y-61840476D01*
X129738095Y-61840476D01*
X129880952Y-61888095D01*
X130452380Y-62459523D01*
X130452380Y-61840476D01*
X129547619Y-61459523D02*
X129500000Y-61411904D01*
X129452380Y-61316666D01*
X129452380Y-61078571D01*
X129500000Y-60983333D01*
X129547619Y-60935714D01*
X129642857Y-60888095D01*
X129738095Y-60888095D01*
X129880952Y-60935714D01*
X130452380Y-61507142D01*
X130452380Y-60888095D01*
X131461428Y-58250952D02*
X131461428Y-57489047D01*
X131842380Y-57870000D02*
X131080476Y-57870000D01*
X95278095Y-109732380D02*
X95278095Y-110541904D01*
X95325714Y-110637142D01*
X95373333Y-110684761D01*
X95468571Y-110732380D01*
X95659047Y-110732380D01*
X95754285Y-110684761D01*
X95801904Y-110637142D01*
X95849523Y-110541904D01*
X95849523Y-109732380D01*
X96230476Y-109732380D02*
X96849523Y-109732380D01*
X96516190Y-110113333D01*
X96659047Y-110113333D01*
X96754285Y-110160952D01*
X96801904Y-110208571D01*
X96849523Y-110303809D01*
X96849523Y-110541904D01*
X96801904Y-110637142D01*
X96754285Y-110684761D01*
X96659047Y-110732380D01*
X96373333Y-110732380D01*
X96278095Y-110684761D01*
X96230476Y-110637142D01*
X99633333Y-66757142D02*
X99585714Y-66804761D01*
X99442857Y-66852380D01*
X99347619Y-66852380D01*
X99204761Y-66804761D01*
X99109523Y-66709523D01*
X99061904Y-66614285D01*
X99014285Y-66423809D01*
X99014285Y-66280952D01*
X99061904Y-66090476D01*
X99109523Y-65995238D01*
X99204761Y-65900000D01*
X99347619Y-65852380D01*
X99442857Y-65852380D01*
X99585714Y-65900000D01*
X99633333Y-65947619D01*
X100109523Y-66852380D02*
X100300000Y-66852380D01*
X100395238Y-66804761D01*
X100442857Y-66757142D01*
X100538095Y-66614285D01*
X100585714Y-66423809D01*
X100585714Y-66042857D01*
X100538095Y-65947619D01*
X100490476Y-65900000D01*
X100395238Y-65852380D01*
X100204761Y-65852380D01*
X100109523Y-65900000D01*
X100061904Y-65947619D01*
X100014285Y-66042857D01*
X100014285Y-66280952D01*
X100061904Y-66376190D01*
X100109523Y-66423809D01*
X100204761Y-66471428D01*
X100395238Y-66471428D01*
X100490476Y-66423809D01*
X100538095Y-66376190D01*
X100585714Y-66280952D01*
X100857142Y-55557142D02*
X100809523Y-55604761D01*
X100666666Y-55652380D01*
X100571428Y-55652380D01*
X100428571Y-55604761D01*
X100333333Y-55509523D01*
X100285714Y-55414285D01*
X100238095Y-55223809D01*
X100238095Y-55080952D01*
X100285714Y-54890476D01*
X100333333Y-54795238D01*
X100428571Y-54700000D01*
X100571428Y-54652380D01*
X100666666Y-54652380D01*
X100809523Y-54700000D01*
X100857142Y-54747619D01*
X101809523Y-55652380D02*
X101238095Y-55652380D01*
X101523809Y-55652380D02*
X101523809Y-54652380D01*
X101428571Y-54795238D01*
X101333333Y-54890476D01*
X101238095Y-54938095D01*
X102190476Y-54747619D02*
X102238095Y-54700000D01*
X102333333Y-54652380D01*
X102571428Y-54652380D01*
X102666666Y-54700000D01*
X102714285Y-54747619D01*
X102761904Y-54842857D01*
X102761904Y-54938095D01*
X102714285Y-55080952D01*
X102142857Y-55652380D01*
X102761904Y-55652380D01*
X87157142Y-56042857D02*
X87204761Y-56090476D01*
X87252380Y-56233333D01*
X87252380Y-56328571D01*
X87204761Y-56471428D01*
X87109523Y-56566666D01*
X87014285Y-56614285D01*
X86823809Y-56661904D01*
X86680952Y-56661904D01*
X86490476Y-56614285D01*
X86395238Y-56566666D01*
X86300000Y-56471428D01*
X86252380Y-56328571D01*
X86252380Y-56233333D01*
X86300000Y-56090476D01*
X86347619Y-56042857D01*
X87252380Y-55090476D02*
X87252380Y-55661904D01*
X87252380Y-55376190D02*
X86252380Y-55376190D01*
X86395238Y-55471428D01*
X86490476Y-55566666D01*
X86538095Y-55661904D01*
X86252380Y-54185714D02*
X86252380Y-54661904D01*
X86728571Y-54709523D01*
X86680952Y-54661904D01*
X86633333Y-54566666D01*
X86633333Y-54328571D01*
X86680952Y-54233333D01*
X86728571Y-54185714D01*
X86823809Y-54138095D01*
X87061904Y-54138095D01*
X87157142Y-54185714D01*
X87204761Y-54233333D01*
X87252380Y-54328571D01*
X87252380Y-54566666D01*
X87204761Y-54661904D01*
X87157142Y-54709523D01*
X131257142Y-93857142D02*
X131209523Y-93904761D01*
X131066666Y-93952380D01*
X130971428Y-93952380D01*
X130828571Y-93904761D01*
X130733333Y-93809523D01*
X130685714Y-93714285D01*
X130638095Y-93523809D01*
X130638095Y-93380952D01*
X130685714Y-93190476D01*
X130733333Y-93095238D01*
X130828571Y-93000000D01*
X130971428Y-92952380D01*
X131066666Y-92952380D01*
X131209523Y-93000000D01*
X131257142Y-93047619D01*
X131638095Y-93047619D02*
X131685714Y-93000000D01*
X131780952Y-92952380D01*
X132019047Y-92952380D01*
X132114285Y-93000000D01*
X132161904Y-93047619D01*
X132209523Y-93142857D01*
X132209523Y-93238095D01*
X132161904Y-93380952D01*
X131590476Y-93952380D01*
X132209523Y-93952380D01*
X132542857Y-92952380D02*
X133161904Y-92952380D01*
X132828571Y-93333333D01*
X132971428Y-93333333D01*
X133066666Y-93380952D01*
X133114285Y-93428571D01*
X133161904Y-93523809D01*
X133161904Y-93761904D01*
X133114285Y-93857142D01*
X133066666Y-93904761D01*
X132971428Y-93952380D01*
X132685714Y-93952380D01*
X132590476Y-93904761D01*
X132542857Y-93857142D01*
X111057142Y-99657142D02*
X111009523Y-99704761D01*
X110866666Y-99752380D01*
X110771428Y-99752380D01*
X110628571Y-99704761D01*
X110533333Y-99609523D01*
X110485714Y-99514285D01*
X110438095Y-99323809D01*
X110438095Y-99180952D01*
X110485714Y-98990476D01*
X110533333Y-98895238D01*
X110628571Y-98800000D01*
X110771428Y-98752380D01*
X110866666Y-98752380D01*
X111009523Y-98800000D01*
X111057142Y-98847619D01*
X112009523Y-99752380D02*
X111438095Y-99752380D01*
X111723809Y-99752380D02*
X111723809Y-98752380D01*
X111628571Y-98895238D01*
X111533333Y-98990476D01*
X111438095Y-99038095D01*
X112866666Y-98752380D02*
X112676190Y-98752380D01*
X112580952Y-98800000D01*
X112533333Y-98847619D01*
X112438095Y-98990476D01*
X112390476Y-99180952D01*
X112390476Y-99561904D01*
X112438095Y-99657142D01*
X112485714Y-99704761D01*
X112580952Y-99752380D01*
X112771428Y-99752380D01*
X112866666Y-99704761D01*
X112914285Y-99657142D01*
X112961904Y-99561904D01*
X112961904Y-99323809D01*
X112914285Y-99228571D01*
X112866666Y-99180952D01*
X112771428Y-99133333D01*
X112580952Y-99133333D01*
X112485714Y-99180952D01*
X112438095Y-99228571D01*
X112390476Y-99323809D01*
X120057142Y-98157142D02*
X120009523Y-98204761D01*
X119866666Y-98252380D01*
X119771428Y-98252380D01*
X119628571Y-98204761D01*
X119533333Y-98109523D01*
X119485714Y-98014285D01*
X119438095Y-97823809D01*
X119438095Y-97680952D01*
X119485714Y-97490476D01*
X119533333Y-97395238D01*
X119628571Y-97300000D01*
X119771428Y-97252380D01*
X119866666Y-97252380D01*
X120009523Y-97300000D01*
X120057142Y-97347619D01*
X121009523Y-98252380D02*
X120438095Y-98252380D01*
X120723809Y-98252380D02*
X120723809Y-97252380D01*
X120628571Y-97395238D01*
X120533333Y-97490476D01*
X120438095Y-97538095D01*
X121342857Y-97252380D02*
X122009523Y-97252380D01*
X121580952Y-98252380D01*
X97433333Y-75057142D02*
X97385714Y-75104761D01*
X97242857Y-75152380D01*
X97147619Y-75152380D01*
X97004761Y-75104761D01*
X96909523Y-75009523D01*
X96861904Y-74914285D01*
X96814285Y-74723809D01*
X96814285Y-74580952D01*
X96861904Y-74390476D01*
X96909523Y-74295238D01*
X97004761Y-74200000D01*
X97147619Y-74152380D01*
X97242857Y-74152380D01*
X97385714Y-74200000D01*
X97433333Y-74247619D01*
X98385714Y-75152380D02*
X97814285Y-75152380D01*
X98100000Y-75152380D02*
X98100000Y-74152380D01*
X98004761Y-74295238D01*
X97909523Y-74390476D01*
X97814285Y-74438095D01*
X97433333Y-77657142D02*
X97385714Y-77704761D01*
X97242857Y-77752380D01*
X97147619Y-77752380D01*
X97004761Y-77704761D01*
X96909523Y-77609523D01*
X96861904Y-77514285D01*
X96814285Y-77323809D01*
X96814285Y-77180952D01*
X96861904Y-76990476D01*
X96909523Y-76895238D01*
X97004761Y-76800000D01*
X97147619Y-76752380D01*
X97242857Y-76752380D01*
X97385714Y-76800000D01*
X97433333Y-76847619D01*
X97814285Y-76847619D02*
X97861904Y-76800000D01*
X97957142Y-76752380D01*
X98195238Y-76752380D01*
X98290476Y-76800000D01*
X98338095Y-76847619D01*
X98385714Y-76942857D01*
X98385714Y-77038095D01*
X98338095Y-77180952D01*
X97766666Y-77752380D01*
X98385714Y-77752380D01*
X97433333Y-80257142D02*
X97385714Y-80304761D01*
X97242857Y-80352380D01*
X97147619Y-80352380D01*
X97004761Y-80304761D01*
X96909523Y-80209523D01*
X96861904Y-80114285D01*
X96814285Y-79923809D01*
X96814285Y-79780952D01*
X96861904Y-79590476D01*
X96909523Y-79495238D01*
X97004761Y-79400000D01*
X97147619Y-79352380D01*
X97242857Y-79352380D01*
X97385714Y-79400000D01*
X97433333Y-79447619D01*
X97766666Y-79352380D02*
X98385714Y-79352380D01*
X98052380Y-79733333D01*
X98195238Y-79733333D01*
X98290476Y-79780952D01*
X98338095Y-79828571D01*
X98385714Y-79923809D01*
X98385714Y-80161904D01*
X98338095Y-80257142D01*
X98290476Y-80304761D01*
X98195238Y-80352380D01*
X97909523Y-80352380D01*
X97814285Y-80304761D01*
X97766666Y-80257142D01*
X136033333Y-70357142D02*
X135985714Y-70404761D01*
X135842857Y-70452380D01*
X135747619Y-70452380D01*
X135604761Y-70404761D01*
X135509523Y-70309523D01*
X135461904Y-70214285D01*
X135414285Y-70023809D01*
X135414285Y-69880952D01*
X135461904Y-69690476D01*
X135509523Y-69595238D01*
X135604761Y-69500000D01*
X135747619Y-69452380D01*
X135842857Y-69452380D01*
X135985714Y-69500000D01*
X136033333Y-69547619D01*
X136890476Y-69785714D02*
X136890476Y-70452380D01*
X136652380Y-69404761D02*
X136414285Y-70119047D01*
X137033333Y-70119047D01*
X97233333Y-69627142D02*
X97185714Y-69674761D01*
X97042857Y-69722380D01*
X96947619Y-69722380D01*
X96804761Y-69674761D01*
X96709523Y-69579523D01*
X96661904Y-69484285D01*
X96614285Y-69293809D01*
X96614285Y-69150952D01*
X96661904Y-68960476D01*
X96709523Y-68865238D01*
X96804761Y-68770000D01*
X96947619Y-68722380D01*
X97042857Y-68722380D01*
X97185714Y-68770000D01*
X97233333Y-68817619D01*
X98138095Y-68722380D02*
X97661904Y-68722380D01*
X97614285Y-69198571D01*
X97661904Y-69150952D01*
X97757142Y-69103333D01*
X97995238Y-69103333D01*
X98090476Y-69150952D01*
X98138095Y-69198571D01*
X98185714Y-69293809D01*
X98185714Y-69531904D01*
X98138095Y-69627142D01*
X98090476Y-69674761D01*
X97995238Y-69722380D01*
X97757142Y-69722380D01*
X97661904Y-69674761D01*
X97614285Y-69627142D01*
X97333333Y-72327142D02*
X97285714Y-72374761D01*
X97142857Y-72422380D01*
X97047619Y-72422380D01*
X96904761Y-72374761D01*
X96809523Y-72279523D01*
X96761904Y-72184285D01*
X96714285Y-71993809D01*
X96714285Y-71850952D01*
X96761904Y-71660476D01*
X96809523Y-71565238D01*
X96904761Y-71470000D01*
X97047619Y-71422380D01*
X97142857Y-71422380D01*
X97285714Y-71470000D01*
X97333333Y-71517619D01*
X98190476Y-71422380D02*
X98000000Y-71422380D01*
X97904761Y-71470000D01*
X97857142Y-71517619D01*
X97761904Y-71660476D01*
X97714285Y-71850952D01*
X97714285Y-72231904D01*
X97761904Y-72327142D01*
X97809523Y-72374761D01*
X97904761Y-72422380D01*
X98095238Y-72422380D01*
X98190476Y-72374761D01*
X98238095Y-72327142D01*
X98285714Y-72231904D01*
X98285714Y-71993809D01*
X98238095Y-71898571D01*
X98190476Y-71850952D01*
X98095238Y-71803333D01*
X97904761Y-71803333D01*
X97809523Y-71850952D01*
X97761904Y-71898571D01*
X97714285Y-71993809D01*
X126433333Y-70357142D02*
X126385714Y-70404761D01*
X126242857Y-70452380D01*
X126147619Y-70452380D01*
X126004761Y-70404761D01*
X125909523Y-70309523D01*
X125861904Y-70214285D01*
X125814285Y-70023809D01*
X125814285Y-69880952D01*
X125861904Y-69690476D01*
X125909523Y-69595238D01*
X126004761Y-69500000D01*
X126147619Y-69452380D01*
X126242857Y-69452380D01*
X126385714Y-69500000D01*
X126433333Y-69547619D01*
X126766666Y-69452380D02*
X127433333Y-69452380D01*
X127004761Y-70452380D01*
X126483333Y-76757142D02*
X126435714Y-76804761D01*
X126292857Y-76852380D01*
X126197619Y-76852380D01*
X126054761Y-76804761D01*
X125959523Y-76709523D01*
X125911904Y-76614285D01*
X125864285Y-76423809D01*
X125864285Y-76280952D01*
X125911904Y-76090476D01*
X125959523Y-75995238D01*
X126054761Y-75900000D01*
X126197619Y-75852380D01*
X126292857Y-75852380D01*
X126435714Y-75900000D01*
X126483333Y-75947619D01*
X127054761Y-76280952D02*
X126959523Y-76233333D01*
X126911904Y-76185714D01*
X126864285Y-76090476D01*
X126864285Y-76042857D01*
X126911904Y-75947619D01*
X126959523Y-75900000D01*
X127054761Y-75852380D01*
X127245238Y-75852380D01*
X127340476Y-75900000D01*
X127388095Y-75947619D01*
X127435714Y-76042857D01*
X127435714Y-76090476D01*
X127388095Y-76185714D01*
X127340476Y-76233333D01*
X127245238Y-76280952D01*
X127054761Y-76280952D01*
X126959523Y-76328571D01*
X126911904Y-76376190D01*
X126864285Y-76471428D01*
X126864285Y-76661904D01*
X126911904Y-76757142D01*
X126959523Y-76804761D01*
X127054761Y-76852380D01*
X127245238Y-76852380D01*
X127340476Y-76804761D01*
X127388095Y-76757142D01*
X127435714Y-76661904D01*
X127435714Y-76471428D01*
X127388095Y-76376190D01*
X127340476Y-76328571D01*
X127245238Y-76280952D01*
X110557142Y-86957142D02*
X110509523Y-87004761D01*
X110366666Y-87052380D01*
X110271428Y-87052380D01*
X110128571Y-87004761D01*
X110033333Y-86909523D01*
X109985714Y-86814285D01*
X109938095Y-86623809D01*
X109938095Y-86480952D01*
X109985714Y-86290476D01*
X110033333Y-86195238D01*
X110128571Y-86100000D01*
X110271428Y-86052380D01*
X110366666Y-86052380D01*
X110509523Y-86100000D01*
X110557142Y-86147619D01*
X110938095Y-86147619D02*
X110985714Y-86100000D01*
X111080952Y-86052380D01*
X111319047Y-86052380D01*
X111414285Y-86100000D01*
X111461904Y-86147619D01*
X111509523Y-86242857D01*
X111509523Y-86338095D01*
X111461904Y-86480952D01*
X110890476Y-87052380D01*
X111509523Y-87052380D01*
X112366666Y-86385714D02*
X112366666Y-87052380D01*
X112128571Y-86004761D02*
X111890476Y-86719047D01*
X112509523Y-86719047D01*
X80157142Y-49452380D02*
X79823809Y-48976190D01*
X79585714Y-49452380D02*
X79585714Y-48452380D01*
X79966666Y-48452380D01*
X80061904Y-48500000D01*
X80109523Y-48547619D01*
X80157142Y-48642857D01*
X80157142Y-48785714D01*
X80109523Y-48880952D01*
X80061904Y-48928571D01*
X79966666Y-48976190D01*
X79585714Y-48976190D01*
X81109523Y-49452380D02*
X80538095Y-49452380D01*
X80823809Y-49452380D02*
X80823809Y-48452380D01*
X80728571Y-48595238D01*
X80633333Y-48690476D01*
X80538095Y-48738095D01*
X81490476Y-48547619D02*
X81538095Y-48500000D01*
X81633333Y-48452380D01*
X81871428Y-48452380D01*
X81966666Y-48500000D01*
X82014285Y-48547619D01*
X82061904Y-48642857D01*
X82061904Y-48738095D01*
X82014285Y-48880952D01*
X81442857Y-49452380D01*
X82061904Y-49452380D01*
X90107142Y-68652380D02*
X89773809Y-68176190D01*
X89535714Y-68652380D02*
X89535714Y-67652380D01*
X89916666Y-67652380D01*
X90011904Y-67700000D01*
X90059523Y-67747619D01*
X90107142Y-67842857D01*
X90107142Y-67985714D01*
X90059523Y-68080952D01*
X90011904Y-68128571D01*
X89916666Y-68176190D01*
X89535714Y-68176190D01*
X91059523Y-68652380D02*
X90488095Y-68652380D01*
X90773809Y-68652380D02*
X90773809Y-67652380D01*
X90678571Y-67795238D01*
X90583333Y-67890476D01*
X90488095Y-67938095D01*
X91916666Y-67985714D02*
X91916666Y-68652380D01*
X91678571Y-67604761D02*
X91440476Y-68319047D01*
X92059523Y-68319047D01*
X119957142Y-65902380D02*
X119623809Y-65426190D01*
X119385714Y-65902380D02*
X119385714Y-64902380D01*
X119766666Y-64902380D01*
X119861904Y-64950000D01*
X119909523Y-64997619D01*
X119957142Y-65092857D01*
X119957142Y-65235714D01*
X119909523Y-65330952D01*
X119861904Y-65378571D01*
X119766666Y-65426190D01*
X119385714Y-65426190D01*
X120338095Y-64997619D02*
X120385714Y-64950000D01*
X120480952Y-64902380D01*
X120719047Y-64902380D01*
X120814285Y-64950000D01*
X120861904Y-64997619D01*
X120909523Y-65092857D01*
X120909523Y-65188095D01*
X120861904Y-65330952D01*
X120290476Y-65902380D01*
X120909523Y-65902380D01*
X121290476Y-64997619D02*
X121338095Y-64950000D01*
X121433333Y-64902380D01*
X121671428Y-64902380D01*
X121766666Y-64950000D01*
X121814285Y-64997619D01*
X121861904Y-65092857D01*
X121861904Y-65188095D01*
X121814285Y-65330952D01*
X121242857Y-65902380D01*
X121861904Y-65902380D01*
X120157142Y-62052380D02*
X119823809Y-61576190D01*
X119585714Y-62052380D02*
X119585714Y-61052380D01*
X119966666Y-61052380D01*
X120061904Y-61100000D01*
X120109523Y-61147619D01*
X120157142Y-61242857D01*
X120157142Y-61385714D01*
X120109523Y-61480952D01*
X120061904Y-61528571D01*
X119966666Y-61576190D01*
X119585714Y-61576190D01*
X120538095Y-61147619D02*
X120585714Y-61100000D01*
X120680952Y-61052380D01*
X120919047Y-61052380D01*
X121014285Y-61100000D01*
X121061904Y-61147619D01*
X121109523Y-61242857D01*
X121109523Y-61338095D01*
X121061904Y-61480952D01*
X120490476Y-62052380D01*
X121109523Y-62052380D01*
X121728571Y-61052380D02*
X121823809Y-61052380D01*
X121919047Y-61100000D01*
X121966666Y-61147619D01*
X122014285Y-61242857D01*
X122061904Y-61433333D01*
X122061904Y-61671428D01*
X122014285Y-61861904D01*
X121966666Y-61957142D01*
X121919047Y-62004761D01*
X121823809Y-62052380D01*
X121728571Y-62052380D01*
X121633333Y-62004761D01*
X121585714Y-61957142D01*
X121538095Y-61861904D01*
X121490476Y-61671428D01*
X121490476Y-61433333D01*
X121538095Y-61242857D01*
X121585714Y-61147619D01*
X121633333Y-61100000D01*
X121728571Y-61052380D01*
X126157142Y-62052380D02*
X125823809Y-61576190D01*
X125585714Y-62052380D02*
X125585714Y-61052380D01*
X125966666Y-61052380D01*
X126061904Y-61100000D01*
X126109523Y-61147619D01*
X126157142Y-61242857D01*
X126157142Y-61385714D01*
X126109523Y-61480952D01*
X126061904Y-61528571D01*
X125966666Y-61576190D01*
X125585714Y-61576190D01*
X127109523Y-62052380D02*
X126538095Y-62052380D01*
X126823809Y-62052380D02*
X126823809Y-61052380D01*
X126728571Y-61195238D01*
X126633333Y-61290476D01*
X126538095Y-61338095D01*
X127680952Y-61480952D02*
X127585714Y-61433333D01*
X127538095Y-61385714D01*
X127490476Y-61290476D01*
X127490476Y-61242857D01*
X127538095Y-61147619D01*
X127585714Y-61100000D01*
X127680952Y-61052380D01*
X127871428Y-61052380D01*
X127966666Y-61100000D01*
X128014285Y-61147619D01*
X128061904Y-61242857D01*
X128061904Y-61290476D01*
X128014285Y-61385714D01*
X127966666Y-61433333D01*
X127871428Y-61480952D01*
X127680952Y-61480952D01*
X127585714Y-61528571D01*
X127538095Y-61576190D01*
X127490476Y-61671428D01*
X127490476Y-61861904D01*
X127538095Y-61957142D01*
X127585714Y-62004761D01*
X127680952Y-62052380D01*
X127871428Y-62052380D01*
X127966666Y-62004761D01*
X128014285Y-61957142D01*
X128061904Y-61861904D01*
X128061904Y-61671428D01*
X128014285Y-61576190D01*
X127966666Y-61528571D01*
X127871428Y-61480952D01*
X85957142Y-49452380D02*
X85623809Y-48976190D01*
X85385714Y-49452380D02*
X85385714Y-48452380D01*
X85766666Y-48452380D01*
X85861904Y-48500000D01*
X85909523Y-48547619D01*
X85957142Y-48642857D01*
X85957142Y-48785714D01*
X85909523Y-48880952D01*
X85861904Y-48928571D01*
X85766666Y-48976190D01*
X85385714Y-48976190D01*
X86909523Y-49452380D02*
X86338095Y-49452380D01*
X86623809Y-49452380D02*
X86623809Y-48452380D01*
X86528571Y-48595238D01*
X86433333Y-48690476D01*
X86338095Y-48738095D01*
X87242857Y-48452380D02*
X87909523Y-48452380D01*
X87480952Y-49452380D01*
X103207142Y-91352380D02*
X102873809Y-90876190D01*
X102635714Y-91352380D02*
X102635714Y-90352380D01*
X103016666Y-90352380D01*
X103111904Y-90400000D01*
X103159523Y-90447619D01*
X103207142Y-90542857D01*
X103207142Y-90685714D01*
X103159523Y-90780952D01*
X103111904Y-90828571D01*
X103016666Y-90876190D01*
X102635714Y-90876190D01*
X104159523Y-91352380D02*
X103588095Y-91352380D01*
X103873809Y-91352380D02*
X103873809Y-90352380D01*
X103778571Y-90495238D01*
X103683333Y-90590476D01*
X103588095Y-90638095D01*
X105111904Y-91352380D02*
X104540476Y-91352380D01*
X104826190Y-91352380D02*
X104826190Y-90352380D01*
X104730952Y-90495238D01*
X104635714Y-90590476D01*
X104540476Y-90638095D01*
X88033333Y-91302380D02*
X87700000Y-90826190D01*
X87461904Y-91302380D02*
X87461904Y-90302380D01*
X87842857Y-90302380D01*
X87938095Y-90350000D01*
X87985714Y-90397619D01*
X88033333Y-90492857D01*
X88033333Y-90635714D01*
X87985714Y-90730952D01*
X87938095Y-90778571D01*
X87842857Y-90826190D01*
X87461904Y-90826190D01*
X88938095Y-90302380D02*
X88461904Y-90302380D01*
X88414285Y-90778571D01*
X88461904Y-90730952D01*
X88557142Y-90683333D01*
X88795238Y-90683333D01*
X88890476Y-90730952D01*
X88938095Y-90778571D01*
X88985714Y-90873809D01*
X88985714Y-91111904D01*
X88938095Y-91207142D01*
X88890476Y-91254761D01*
X88795238Y-91302380D01*
X88557142Y-91302380D01*
X88461904Y-91254761D01*
X88414285Y-91207142D01*
X88133333Y-110452380D02*
X87800000Y-109976190D01*
X87561904Y-110452380D02*
X87561904Y-109452380D01*
X87942857Y-109452380D01*
X88038095Y-109500000D01*
X88085714Y-109547619D01*
X88133333Y-109642857D01*
X88133333Y-109785714D01*
X88085714Y-109880952D01*
X88038095Y-109928571D01*
X87942857Y-109976190D01*
X87561904Y-109976190D01*
X88514285Y-109547619D02*
X88561904Y-109500000D01*
X88657142Y-109452380D01*
X88895238Y-109452380D01*
X88990476Y-109500000D01*
X89038095Y-109547619D01*
X89085714Y-109642857D01*
X89085714Y-109738095D01*
X89038095Y-109880952D01*
X88466666Y-110452380D01*
X89085714Y-110452380D01*
X130852380Y-102642857D02*
X130376190Y-102976190D01*
X130852380Y-103214285D02*
X129852380Y-103214285D01*
X129852380Y-102833333D01*
X129900000Y-102738095D01*
X129947619Y-102690476D01*
X130042857Y-102642857D01*
X130185714Y-102642857D01*
X130280952Y-102690476D01*
X130328571Y-102738095D01*
X130376190Y-102833333D01*
X130376190Y-103214285D01*
X129947619Y-102261904D02*
X129900000Y-102214285D01*
X129852380Y-102119047D01*
X129852380Y-101880952D01*
X129900000Y-101785714D01*
X129947619Y-101738095D01*
X130042857Y-101690476D01*
X130138095Y-101690476D01*
X130280952Y-101738095D01*
X130852380Y-102309523D01*
X130852380Y-101690476D01*
X129852380Y-101357142D02*
X129852380Y-100690476D01*
X130852380Y-101119047D01*
X106657142Y-91352380D02*
X106323809Y-90876190D01*
X106085714Y-91352380D02*
X106085714Y-90352380D01*
X106466666Y-90352380D01*
X106561904Y-90400000D01*
X106609523Y-90447619D01*
X106657142Y-90542857D01*
X106657142Y-90685714D01*
X106609523Y-90780952D01*
X106561904Y-90828571D01*
X106466666Y-90876190D01*
X106085714Y-90876190D01*
X107609523Y-91352380D02*
X107038095Y-91352380D01*
X107323809Y-91352380D02*
X107323809Y-90352380D01*
X107228571Y-90495238D01*
X107133333Y-90590476D01*
X107038095Y-90638095D01*
X108514285Y-90352380D02*
X108038095Y-90352380D01*
X107990476Y-90828571D01*
X108038095Y-90780952D01*
X108133333Y-90733333D01*
X108371428Y-90733333D01*
X108466666Y-90780952D01*
X108514285Y-90828571D01*
X108561904Y-90923809D01*
X108561904Y-91161904D01*
X108514285Y-91257142D01*
X108466666Y-91304761D01*
X108371428Y-91352380D01*
X108133333Y-91352380D01*
X108038095Y-91304761D01*
X107990476Y-91257142D01*
X84733333Y-91252380D02*
X84400000Y-90776190D01*
X84161904Y-91252380D02*
X84161904Y-90252380D01*
X84542857Y-90252380D01*
X84638095Y-90300000D01*
X84685714Y-90347619D01*
X84733333Y-90442857D01*
X84733333Y-90585714D01*
X84685714Y-90680952D01*
X84638095Y-90728571D01*
X84542857Y-90776190D01*
X84161904Y-90776190D01*
X85304761Y-90680952D02*
X85209523Y-90633333D01*
X85161904Y-90585714D01*
X85114285Y-90490476D01*
X85114285Y-90442857D01*
X85161904Y-90347619D01*
X85209523Y-90300000D01*
X85304761Y-90252380D01*
X85495238Y-90252380D01*
X85590476Y-90300000D01*
X85638095Y-90347619D01*
X85685714Y-90442857D01*
X85685714Y-90490476D01*
X85638095Y-90585714D01*
X85590476Y-90633333D01*
X85495238Y-90680952D01*
X85304761Y-90680952D01*
X85209523Y-90728571D01*
X85161904Y-90776190D01*
X85114285Y-90871428D01*
X85114285Y-91061904D01*
X85161904Y-91157142D01*
X85209523Y-91204761D01*
X85304761Y-91252380D01*
X85495238Y-91252380D01*
X85590476Y-91204761D01*
X85638095Y-91157142D01*
X85685714Y-91061904D01*
X85685714Y-90871428D01*
X85638095Y-90776190D01*
X85590476Y-90728571D01*
X85495238Y-90680952D01*
X84733333Y-110352380D02*
X84400000Y-109876190D01*
X84161904Y-110352380D02*
X84161904Y-109352380D01*
X84542857Y-109352380D01*
X84638095Y-109400000D01*
X84685714Y-109447619D01*
X84733333Y-109542857D01*
X84733333Y-109685714D01*
X84685714Y-109780952D01*
X84638095Y-109828571D01*
X84542857Y-109876190D01*
X84161904Y-109876190D01*
X85590476Y-109685714D02*
X85590476Y-110352380D01*
X85352380Y-109304761D02*
X85114285Y-110019047D01*
X85733333Y-110019047D01*
X123052380Y-109492857D02*
X122576190Y-109826190D01*
X123052380Y-110064285D02*
X122052380Y-110064285D01*
X122052380Y-109683333D01*
X122100000Y-109588095D01*
X122147619Y-109540476D01*
X122242857Y-109492857D01*
X122385714Y-109492857D01*
X122480952Y-109540476D01*
X122528571Y-109588095D01*
X122576190Y-109683333D01*
X122576190Y-110064285D01*
X123052380Y-108540476D02*
X123052380Y-109111904D01*
X123052380Y-108826190D02*
X122052380Y-108826190D01*
X122195238Y-108921428D01*
X122290476Y-109016666D01*
X122338095Y-109111904D01*
X123052380Y-108064285D02*
X123052380Y-107873809D01*
X123004761Y-107778571D01*
X122957142Y-107730952D01*
X122814285Y-107635714D01*
X122623809Y-107588095D01*
X122242857Y-107588095D01*
X122147619Y-107635714D01*
X122100000Y-107683333D01*
X122052380Y-107778571D01*
X122052380Y-107969047D01*
X122100000Y-108064285D01*
X122147619Y-108111904D01*
X122242857Y-108159523D01*
X122480952Y-108159523D01*
X122576190Y-108111904D01*
X122623809Y-108064285D01*
X122671428Y-107969047D01*
X122671428Y-107778571D01*
X122623809Y-107683333D01*
X122576190Y-107635714D01*
X122480952Y-107588095D01*
X126452380Y-109592857D02*
X125976190Y-109926190D01*
X126452380Y-110164285D02*
X125452380Y-110164285D01*
X125452380Y-109783333D01*
X125500000Y-109688095D01*
X125547619Y-109640476D01*
X125642857Y-109592857D01*
X125785714Y-109592857D01*
X125880952Y-109640476D01*
X125928571Y-109688095D01*
X125976190Y-109783333D01*
X125976190Y-110164285D01*
X125547619Y-109211904D02*
X125500000Y-109164285D01*
X125452380Y-109069047D01*
X125452380Y-108830952D01*
X125500000Y-108735714D01*
X125547619Y-108688095D01*
X125642857Y-108640476D01*
X125738095Y-108640476D01*
X125880952Y-108688095D01*
X126452380Y-109259523D01*
X126452380Y-108640476D01*
X126452380Y-107688095D02*
X126452380Y-108259523D01*
X126452380Y-107973809D02*
X125452380Y-107973809D01*
X125595238Y-108069047D01*
X125690476Y-108164285D01*
X125738095Y-108259523D01*
X135833333Y-76952380D02*
X135500000Y-76476190D01*
X135261904Y-76952380D02*
X135261904Y-75952380D01*
X135642857Y-75952380D01*
X135738095Y-76000000D01*
X135785714Y-76047619D01*
X135833333Y-76142857D01*
X135833333Y-76285714D01*
X135785714Y-76380952D01*
X135738095Y-76428571D01*
X135642857Y-76476190D01*
X135261904Y-76476190D01*
X136309523Y-76952380D02*
X136500000Y-76952380D01*
X136595238Y-76904761D01*
X136642857Y-76857142D01*
X136738095Y-76714285D01*
X136785714Y-76523809D01*
X136785714Y-76142857D01*
X136738095Y-76047619D01*
X136690476Y-76000000D01*
X136595238Y-75952380D01*
X136404761Y-75952380D01*
X136309523Y-76000000D01*
X136261904Y-76047619D01*
X136214285Y-76142857D01*
X136214285Y-76380952D01*
X136261904Y-76476190D01*
X136309523Y-76523809D01*
X136404761Y-76571428D01*
X136595238Y-76571428D01*
X136690476Y-76523809D01*
X136738095Y-76476190D01*
X136785714Y-76380952D01*
X122657142Y-87052380D02*
X122323809Y-86576190D01*
X122085714Y-87052380D02*
X122085714Y-86052380D01*
X122466666Y-86052380D01*
X122561904Y-86100000D01*
X122609523Y-86147619D01*
X122657142Y-86242857D01*
X122657142Y-86385714D01*
X122609523Y-86480952D01*
X122561904Y-86528571D01*
X122466666Y-86576190D01*
X122085714Y-86576190D01*
X123038095Y-86147619D02*
X123085714Y-86100000D01*
X123180952Y-86052380D01*
X123419047Y-86052380D01*
X123514285Y-86100000D01*
X123561904Y-86147619D01*
X123609523Y-86242857D01*
X123609523Y-86338095D01*
X123561904Y-86480952D01*
X122990476Y-87052380D01*
X123609523Y-87052380D01*
X124085714Y-87052380D02*
X124276190Y-87052380D01*
X124371428Y-87004761D01*
X124419047Y-86957142D01*
X124514285Y-86814285D01*
X124561904Y-86623809D01*
X124561904Y-86242857D01*
X124514285Y-86147619D01*
X124466666Y-86100000D01*
X124371428Y-86052380D01*
X124180952Y-86052380D01*
X124085714Y-86100000D01*
X124038095Y-86147619D01*
X123990476Y-86242857D01*
X123990476Y-86480952D01*
X124038095Y-86576190D01*
X124085714Y-86623809D01*
X124180952Y-86671428D01*
X124371428Y-86671428D01*
X124466666Y-86623809D01*
X124514285Y-86576190D01*
X124561904Y-86480952D01*
X116957142Y-87152380D02*
X116623809Y-86676190D01*
X116385714Y-87152380D02*
X116385714Y-86152380D01*
X116766666Y-86152380D01*
X116861904Y-86200000D01*
X116909523Y-86247619D01*
X116957142Y-86342857D01*
X116957142Y-86485714D01*
X116909523Y-86580952D01*
X116861904Y-86628571D01*
X116766666Y-86676190D01*
X116385714Y-86676190D01*
X117290476Y-86152380D02*
X117909523Y-86152380D01*
X117576190Y-86533333D01*
X117719047Y-86533333D01*
X117814285Y-86580952D01*
X117861904Y-86628571D01*
X117909523Y-86723809D01*
X117909523Y-86961904D01*
X117861904Y-87057142D01*
X117814285Y-87104761D01*
X117719047Y-87152380D01*
X117433333Y-87152380D01*
X117338095Y-87104761D01*
X117290476Y-87057142D01*
X118528571Y-86152380D02*
X118623809Y-86152380D01*
X118719047Y-86200000D01*
X118766666Y-86247619D01*
X118814285Y-86342857D01*
X118861904Y-86533333D01*
X118861904Y-86771428D01*
X118814285Y-86961904D01*
X118766666Y-87057142D01*
X118719047Y-87104761D01*
X118623809Y-87152380D01*
X118528571Y-87152380D01*
X118433333Y-87104761D01*
X118385714Y-87057142D01*
X118338095Y-86961904D01*
X118290476Y-86771428D01*
X118290476Y-86533333D01*
X118338095Y-86342857D01*
X118385714Y-86247619D01*
X118433333Y-86200000D01*
X118528571Y-86152380D01*
X115238095Y-68452380D02*
X115238095Y-69261904D01*
X115285714Y-69357142D01*
X115333333Y-69404761D01*
X115428571Y-69452380D01*
X115619047Y-69452380D01*
X115714285Y-69404761D01*
X115761904Y-69357142D01*
X115809523Y-69261904D01*
X115809523Y-68452380D01*
X116809523Y-69452380D02*
X116238095Y-69452380D01*
X116523809Y-69452380D02*
X116523809Y-68452380D01*
X116428571Y-68595238D01*
X116333333Y-68690476D01*
X116238095Y-68738095D01*
X81927380Y-63561904D02*
X82736904Y-63561904D01*
X82832142Y-63514285D01*
X82879761Y-63466666D01*
X82927380Y-63371428D01*
X82927380Y-63180952D01*
X82879761Y-63085714D01*
X82832142Y-63038095D01*
X82736904Y-62990476D01*
X81927380Y-62990476D01*
X81927380Y-62085714D02*
X81927380Y-62276190D01*
X81975000Y-62371428D01*
X82022619Y-62419047D01*
X82165476Y-62514285D01*
X82355952Y-62561904D01*
X82736904Y-62561904D01*
X82832142Y-62514285D01*
X82879761Y-62466666D01*
X82927380Y-62371428D01*
X82927380Y-62180952D01*
X82879761Y-62085714D01*
X82832142Y-62038095D01*
X82736904Y-61990476D01*
X82498809Y-61990476D01*
X82403571Y-62038095D01*
X82355952Y-62085714D01*
X82308333Y-62180952D01*
X82308333Y-62371428D01*
X82355952Y-62466666D01*
X82403571Y-62514285D01*
X82498809Y-62561904D01*
M02*
